<svg xmlns="http://www.w3.org/2000/svg" width="442" height="264" viewBox="0 0 442 264">
  <g id="Group_3955" data-name="Group 3955" transform="translate(-477 -1053)">
    <g id="Rectangle_329" data-name="Rectangle 329" transform="translate(477 1053)" fill="#d4d8e8" stroke="#d4d8e8" stroke-width="2">
      <rect width="442" height="264" rx="17" stroke="none"/>
      <rect x="1" y="1" width="440" height="262" rx="16" fill="none"/>
    </g>
    <g id="Logo_Visa" transform="translate(634 1133)">
      <path id="polygon10" d="M31.018,42.336,38.156.454H49.572L42.429,42.336Z" transform="translate(18.654 0.273)" fill="#fff"/>
      <path id="path12" d="M76.863,1.759A29.448,29.448,0,0,0,66.631,0C55.351,0,47.405,5.68,47.338,13.821c-.064,6.018,5.672,9.375,10,11.378,4.444,2.051,5.937,3.362,5.916,5.2-.028,2.806-3.548,4.09-6.83,4.09a23.937,23.937,0,0,1-10.745-2.2l-1.471-.667L42.608,41a36.132,36.132,0,0,0,12.716,2.236c12,0,19.79-5.615,19.878-14.309.043-4.765-3-8.39-9.584-11.379-3.99-1.939-6.434-3.23-6.408-5.192,0-1.741,2.068-3.6,6.537-3.6a21.032,21.032,0,0,1,8.544,1.6l1.023.482,1.547-9.076Z" transform="translate(25.624 0)" fill="#fff"/>
      <path id="path14" d="M94.2.478H85.382c-2.732,0-4.778.748-5.978,3.475L62.45,42.334H74.437s1.96-5.16,2.4-6.293c1.31,0,12.955.018,14.62.018.342,1.466,1.389,6.276,1.389,6.276h10.593L94.2.478m-14.077,27c.944-2.413,4.548-11.707,4.548-11.707-.067.111.937-2.425,1.514-4l.773,3.61s2.185,10,2.642,12.095Z" transform="translate(37.557 0.288)" fill="#fff"/>
      <path id="path16" d="M35.621.473,24.445,29.034l-1.191-5.8C21.174,16.539,14.691,9.291,7.444,5.662l10.22,36.627,12.078-.014L47.713.473H35.621Z" transform="translate(4.477 0.284)" fill="#fff"/>
      <path id="path18" d="M18.554.457H.146L0,1.329C14.321,4.795,23.8,13.174,27.731,23.24l-4-19.246C23.037,1.341,21.032.55,18.554.457Z" transform="translate(0 0.275)" fill="#fff"/>
    </g>
    <g id="Mastercard-logo" transform="translate(2340.623 91.12)">
      <g id="Group_3954" data-name="Group 3954" transform="translate(-1565.623 1106.748)">
        <g id="Group_3950" data-name="Group 3950" transform="translate(5.241 67.828)">
          <path id="Path_506" data-name="Path 506" d="M-90.031-10.558v.208h.192a.2.2,0,0,0,.105-.026.092.092,0,0,0,.038-.079.088.088,0,0,0-.038-.077.185.185,0,0,0-.105-.026Zm.194-.146a.356.356,0,0,1,.231.067.222.222,0,0,1,.081.182.209.209,0,0,1-.065.16.316.316,0,0,1-.184.077l.255.294h-.2l-.237-.291h-.077v.291H-90.2V-10.7Zm-.051,1.049a.615.615,0,0,0,.253-.053.664.664,0,0,0,.206-.14.65.65,0,0,0,.14-.208.666.666,0,0,0,.051-.255.666.666,0,0,0-.051-.255.673.673,0,0,0-.14-.208.664.664,0,0,0-.206-.14.648.648,0,0,0-.253-.049.676.676,0,0,0-.257.049.659.659,0,0,0-.211.14.634.634,0,0,0-.138.208.63.63,0,0,0-.051.255.63.63,0,0,0,.051.255.614.614,0,0,0,.138.208.659.659,0,0,0,.211.14.641.641,0,0,0,.257.053m0-1.5a.841.841,0,0,1,.334.067.847.847,0,0,1,.271.18.824.824,0,0,1,.182.267.8.8,0,0,1,.067.326.8.8,0,0,1-.067.326.87.87,0,0,1-.182.267.919.919,0,0,1-.271.18.841.841,0,0,1-.334.067.854.854,0,0,1-.338-.067.88.88,0,0,1-.273-.18.869.869,0,0,1-.182-.267.8.8,0,0,1-.067-.326.8.8,0,0,1,.067-.326A.823.823,0,0,1-90.5-10.9a.814.814,0,0,1,.273-.18.854.854,0,0,1,.338-.067m-78.866-3a2.537,2.537,0,0,1,2.565-2.706,2.535,2.535,0,0,1,2.546,2.706,2.535,2.535,0,0,1-2.546,2.706,2.537,2.537,0,0,1-2.565-2.706m6.844,0v-4.227h-1.838v1.026a3.2,3.2,0,0,0-2.67-1.239,4.237,4.237,0,0,0-4.229,4.439,4.236,4.236,0,0,0,4.229,4.439,3.2,3.2,0,0,0,2.67-1.239v1.026h1.838Zm62.112,0a2.537,2.537,0,0,1,2.565-2.706,2.533,2.533,0,0,1,2.547,2.706,2.533,2.533,0,0,1-2.547,2.706A2.537,2.537,0,0,1-99.8-14.153m6.846,0v-7.621h-1.84v4.421a3.2,3.2,0,0,0-2.67-1.239,4.237,4.237,0,0,0-4.229,4.439,4.236,4.236,0,0,0,4.229,4.439,3.2,3.2,0,0,0,2.67-1.239v1.026h1.84Zm-46.143-2.793a2.1,2.1,0,0,1,2.14,2.051h-4.386a2.177,2.177,0,0,1,2.247-2.051m.036-1.646a4.131,4.131,0,0,0-4.21,4.439,4.169,4.169,0,0,0,4.334,4.439,5.138,5.138,0,0,0,3.466-1.184l-.9-1.362a4.042,4.042,0,0,1-2.459.885,2.348,2.348,0,0,1-2.528-2.071h6.277c.018-.229.036-.459.036-.706-.018-2.636-1.646-4.439-4.014-4.439m22.194,4.439a2.537,2.537,0,0,1,2.565-2.706,2.535,2.535,0,0,1,2.546,2.706,2.535,2.535,0,0,1-2.546,2.706,2.537,2.537,0,0,1-2.565-2.706m6.844,0v-4.227h-1.838v1.026a3.207,3.207,0,0,0-2.67-1.239,4.237,4.237,0,0,0-4.229,4.439,4.236,4.236,0,0,0,4.229,4.439,3.207,3.207,0,0,0,2.67-1.239v1.026h1.838Zm-17.224,0a4.27,4.27,0,0,0,4.51,4.439,4.426,4.426,0,0,0,3.04-1.008l-.883-1.486a3.715,3.715,0,0,1-2.212.761,2.525,2.525,0,0,1-2.547-2.706,2.525,2.525,0,0,1,2.547-2.706,3.715,3.715,0,0,1,2.212.761l.883-1.486a4.426,4.426,0,0,0-3.04-1.008,4.27,4.27,0,0,0-4.51,4.439m23.7-4.439a2.5,2.5,0,0,0-2.229,1.239v-1.026H-107.6v8.453h1.84v-4.739c0-1.4.6-2.176,1.8-2.176a2.98,2.98,0,0,1,1.15.213l.567-1.733a3.914,3.914,0,0,0-1.31-.231m-49.272.885a6.323,6.323,0,0,0-3.447-.885c-2.142,0-3.52,1.026-3.52,2.706,0,1.379,1.026,2.229,2.917,2.494l.868.123c1.008.142,1.484.407,1.484.885,0,.654-.672,1.026-1.927,1.026a4.5,4.5,0,0,1-2.812-.885l-.866,1.431a6.1,6.1,0,0,0,3.66,1.1c2.441,0,3.856-1.15,3.856-2.759,0-1.486-1.113-2.263-2.953-2.528l-.866-.126c-.8-.105-1.433-.263-1.433-.83,0-.619.6-.99,1.609-.99a5.454,5.454,0,0,1,2.636.725Zm23.716-.885a2.489,2.489,0,0,0-2.227,1.239v-1.026h-1.822v8.453h1.838v-4.739c0-1.4.6-2.176,1.8-2.176a2.98,2.98,0,0,1,1.15.213l.567-1.733a3.914,3.914,0,0,0-1.31-.231m-15.686.213H-147.8v-2.565h-1.858v2.565h-1.715v1.68h1.715v3.856c0,1.961.761,3.129,2.935,3.129a4.314,4.314,0,0,0,2.3-.654l-.53-1.575a3.4,3.4,0,0,1-1.628.478c-.919,0-1.219-.567-1.219-1.415V-16.7h3.006Zm-27.483,8.453v-5.306a3.148,3.148,0,0,0-3.326-3.36,3.273,3.273,0,0,0-2.972,1.5,3.1,3.1,0,0,0-2.793-1.5,2.8,2.8,0,0,0-2.476,1.255v-1.042h-1.84v8.453h1.856v-4.686a1.978,1.978,0,0,1,2.071-2.247c1.221,0,1.838.8,1.838,2.229v4.7h1.858v-4.686a1.994,1.994,0,0,1,2.069-2.247c1.255,0,1.856.8,1.856,2.229v4.7Z" transform="translate(185.679 21.774)" fill="#fff"/>
        </g>
        <g id="Group_3951" data-name="Group 3951" transform="translate(99.339 50.329)">
          <path id="Path_507" data-name="Path 507" d="M-2.525-1.162V-2.4h-.322l-.372.848-.37-.848h-.324v1.235h.229v-.931l.348.8H-3.1l.348-.806v.933Zm-2.042,0V-2.187h.413V-2.4H-5.207v.208h.413v1.024Z" transform="translate(5.207 2.397)" fill="#fff"/>
        </g>
        <path id="Path_508" data-name="Path 508" d="M3370.861,2197.635H3343v-50.063h27.857Z" transform="translate(-3305.438 -2140.76)" fill="#bbb"/>
        <g id="Group_3952" data-name="Group 3952" transform="translate(0 0)">
          <path id="Path_509" data-name="Path 509" d="M-37.041-29.97A31.786,31.786,0,0,1-24.881-55a31.7,31.7,0,0,0-19.676-6.808A31.837,31.837,0,0,0-76.392-29.97,31.837,31.837,0,0,0-44.557,1.869,31.7,31.7,0,0,0-24.881-4.938,31.786,31.786,0,0,1-37.041-29.97" transform="translate(76.392 61.809)" fill="#fff"/>
        </g>
        <g id="Group_3953" data-name="Group 3953" transform="translate(51.48 0)">
          <path id="Path_510" data-name="Path 510" d="M-48.488-29.97A31.837,31.837,0,0,1-80.323,1.869,31.709,31.709,0,0,1-100-4.938,31.781,31.781,0,0,0-87.839-29.97,31.781,31.781,0,0,0-100-55a31.709,31.709,0,0,1,19.678-6.808A31.837,31.837,0,0,1-48.488-29.97" transform="translate(100.001 61.809)" fill="#cfcfcf"/>
        </g>
      </g>
    </g>
  </g>
</svg>
