<svg xmlns="http://www.w3.org/2000/svg" width="82" height="82" viewBox="0 0 82 82">
  <g id="Group_4018" data-name="Group 4018" transform="translate(-1417 -2106)">
    <circle id="Ellipse_1" data-name="Ellipse 1" cx="41" cy="41" r="41" transform="translate(1417 2106)" fill="#f2f2f2"/>
    <g id="Group_3184" data-name="Group 3184" transform="translate(1432.677 2125.294)">
      <g id="Group_3182" data-name="Group 3182" transform="translate(6.518 0)">
        <g id="Group_3178" data-name="Group 3178" transform="translate(13.022 7.868)">
          <g id="Group_3176" data-name="Group 3176" transform="translate(0 3.461)">
            <path id="Path_134" data-name="Path 134" d="M512.3,726.345h-6.921a1.786,1.786,0,1,1,0-3.573H512.3a1.786,1.786,0,1,1,0,3.573Z" transform="translate(-503.594 -722.772)" fill="#ec231a"/>
          </g>
          <g id="Group_3177" data-name="Group 3177" transform="translate(3.46)">
            <path id="Path_135" data-name="Path 135" d="M508.25,730.4a1.787,1.787,0,0,1-1.787-1.787v-6.921a1.787,1.787,0,0,1,3.574,0v6.921A1.786,1.786,0,0,1,508.25,730.4Z" transform="translate(-506.463 -719.902)" fill="#ec231a"/>
          </g>
        </g>
        <g id="Group_3179" data-name="Group 3179">
          <path id="Path_136" data-name="Path 136" d="M529.333,756.329H492.8V718a4.626,4.626,0,0,1,4.622-4.621h27.3A4.626,4.626,0,0,1,529.333,718Zm-32.964-3.574h29.39V718a1.047,1.047,0,0,0-1.047-1.047h-27.3A1.048,1.048,0,0,0,496.369,718Z" transform="translate(-492.795 -713.377)" fill="#a9a9a9"/>
        </g>
        <g id="Group_3180" data-name="Group 3180" transform="translate(12.085 27.89)">
          <path id="Path_137" data-name="Path 137" d="M512.078,751.6h-6.155a3.11,3.11,0,0,1-3.106-3.108V739.61a3.109,3.109,0,0,1,3.106-3.105h6.155a3.11,3.11,0,0,1,3.108,3.105v8.878A3.111,3.111,0,0,1,512.078,751.6Zm-5.688-3.574h5.221v-7.943H506.39Zm5.688-7.943h0Z" transform="translate(-502.817 -736.505)" fill="#a9a9a9"/>
        </g>
        <g id="Group_3181" data-name="Group 3181" transform="translate(12.072 20.596)">
          <path id="Path_138" data-name="Path 138" d="M513.413,734.031h-8.82a1.787,1.787,0,0,1,0-3.574h8.82a1.787,1.787,0,0,1,0,3.574Z" transform="translate(-502.806 -730.457)" fill="#a9a9a9"/>
        </g>
      </g>
      <g id="Group_3183" data-name="Group 3183" transform="translate(0 39.399)">
        <path id="Path_139" data-name="Path 139" d="M535.635,749.623H489.176a1.787,1.787,0,0,1,0-3.574h46.459a1.787,1.787,0,0,1,0,3.574Z" transform="translate(-487.39 -746.049)" fill="#a9a9a9"/>
      </g>
    </g>
  </g>
</svg>
