<svg xmlns="http://www.w3.org/2000/svg" width="82" height="82" viewBox="0 0 82 82">
  <g id="Group_4015" data-name="Group 4015" transform="translate(-1191 -2464)">
    <circle id="Ellipse_1" data-name="Ellipse 1" cx="41" cy="41" r="41" transform="translate(1191 2464)" fill="#f2f2f2"/>
    <g id="Group_3204" data-name="Group 3204" transform="translate(1208.771 2484.5)">
      <path id="Path_152" data-name="Path 152" d="M389.632,473.138l-.872-.5c-20.111-11.616-21.882-22.37-21.948-22.823a13.11,13.11,0,0,1-.374-3.114,13.71,13.71,0,0,1,13.7-13.694,13.541,13.541,0,0,1,9.534,3.876,13.542,13.542,0,0,1,9.535-3.876A13.711,13.711,0,0,1,412.9,446.7a17.729,17.729,0,0,1-1.144,5.474c-4.492,11.168-20.557,20.106-21.238,20.481Zm-19.146-23.327c.642,2.1,3.994,10.209,19.171,19.209,3.335-1.984,15.321-9.582,18.8-18.231a14.411,14.411,0,0,0,.866-4.09,10.11,10.11,0,0,0-18.223-6.043l-1.433,1.916-1.43-1.916a10.111,10.111,0,0,0-18.226,6.043,10.181,10.181,0,0,0,.307,2.43Z" transform="translate(-366.438 -433.005)" fill="#a9a9a9"/>
    </g>
    <g id="Group_3205" data-name="Group 3205" transform="translate(1228.544 2487.544)">
      <path id="Path_153" data-name="Path 153" d="M388.406,445.088a1.788,1.788,0,0,1-1.654-1.112c-.695-1.7-2.174-4.518-3.146-5.191a1.787,1.787,0,1,1,2.036-2.939c2.192,1.518,4.065,5.914,4.418,6.779a1.788,1.788,0,0,1-.978,2.33A1.83,1.83,0,0,1,388.406,445.088Z" transform="translate(-382.836 -435.529)" fill="#a9a9a9"/>
    </g>
    <g id="Group_3206" data-name="Group 3206" transform="translate(1214.889 2491.728)">
      <path id="Path_154" data-name="Path 154" d="M373.55,448.648a1.789,1.789,0,0,1-1.7-1.234c-.644-1.979-.773-6.249,3.351-8.239a1.787,1.787,0,0,1,1.553,3.219c-2.376,1.146-1.542,3.8-1.506,3.913a1.788,1.788,0,0,1-1.146,2.254A1.809,1.809,0,0,1,373.55,448.648Z" transform="translate(-371.511 -438.999)" fill="#ec231a"/>
    </g>
  </g>
</svg>
