<svg xmlns="http://www.w3.org/2000/svg" width="38.938" height="44.5" viewBox="0 0 38.938 44.5">
  <g id="pdf" transform="translate(-19.329)">
    <path id="Path_511" data-name="Path 511" d="M22.11,0H45.741L58.266,12.477V41.719A2.781,2.781,0,0,1,55.485,44.5H22.11a2.781,2.781,0,0,1-2.781-2.781V2.781A2.781,2.781,0,0,1,22.11,0Z" fill="#ec231a"/>
    <path id="Path_512" data-name="Path 512" d="M215.432,12.681h-9.694A2.782,2.782,0,0,1,202.957,9.9V.193Z" transform="translate(-157.206 -0.165)" fill="#c41811"/>
    <path id="Path_513" data-name="Path 513" d="M105.835,137.021a.808.808,0,0,0,0-1.6h-2.653a.829.829,0,0,0-.808.9v6.521c0,.581.331.9.779.9s.777-.323.777-.9v-1.79h1.6a.753.753,0,0,0,.747-.812.74.74,0,0,0-.747-.79h-1.6v-2.432Zm-8.968-1.6H94.925a.858.858,0,0,0-.9.9v6.532a.855.855,0,0,0,.923.875h2.037a3.779,3.779,0,0,0,4-4.036C100.987,137.1,99.488,135.42,96.867,135.42Zm.093,6.695H95.776V137.03h1.067c1.615,0,2.317,1.083,2.317,2.578C99.16,141.008,98.47,142.115,96.96,142.115Zm-7.112-6.695H87.925a.809.809,0,0,0-.847.9v6.521a.819.819,0,1,0,1.63,0v-1.9h1.206a2.633,2.633,0,0,0,2.716-2.749A2.664,2.664,0,0,0,89.848,135.42Zm-.032,3.991H88.708v-2.46h1.108a1.235,1.235,0,0,1,0,2.46Z" transform="translate(-58.001 -115.935)" fill="#fff"/>
  </g>
</svg>
