<svg xmlns="http://www.w3.org/2000/svg" width="24" height="24" viewBox="0 0 24 24">
  <g id="Group_4207" data-name="Group 4207" transform="translate(-428 -1733)">
    <path id="Path_1407" data-name="Path 1407" d="M10.127-2.779a3.675,3.675,0,0,1-.18,1.186,3.172,3.172,0,0,1-.5.939,3.214,3.214,0,0,1-.759.7,4.431,4.431,0,0,1-.972.484,6,6,0,0,1-1.134.28A9.119,9.119,0,0,1,5.242.9H1.979A.776.776,0,0,1,1.453.716a.758.758,0,0,1-.213-.6v-10.7a.758.758,0,0,1,.213-.6.776.776,0,0,1,.526-.185H5.062a8.241,8.241,0,0,1,1.911.19,3.761,3.761,0,0,1,1.319.574,2.541,2.541,0,0,1,.821.972A3.148,3.148,0,0,1,9.4-8.252a3.009,3.009,0,0,1-.114.839,2.516,2.516,0,0,1-.332.716,2.469,2.469,0,0,1-.536.569,2.723,2.723,0,0,1-.726.4,3.245,3.245,0,0,1,.963.332,2.724,2.724,0,0,1,.768.612,2.848,2.848,0,0,1,.517.877A3.178,3.178,0,0,1,10.127-2.779ZM6.9-7.949a1.828,1.828,0,0,0-.114-.664A1.2,1.2,0,0,0,6.447-9.1a1.567,1.567,0,0,0-.574-.3,3.309,3.309,0,0,0-.925-.1H3.687v3.187H5.081a2.389,2.389,0,0,0,.863-.128A1.491,1.491,0,0,0,6.48-6.8,1.423,1.423,0,0,0,6.8-7.318,1.9,1.9,0,0,0,6.9-7.949Zm.636,5.255A1.945,1.945,0,0,0,7.4-3.457a1.457,1.457,0,0,0-.417-.564,1.924,1.924,0,0,0-.7-.351A4.1,4.1,0,0,0,5.166-4.5H3.687v3.491h1.8a3.031,3.031,0,0,0,.877-.109,1.79,1.79,0,0,0,.617-.323,1.477,1.477,0,0,0,.408-.531A1.71,1.71,0,0,0,7.538-2.694ZM19.936.674A.174.174,0,0,1,19.883.8.4.4,0,0,1,19.7.887a2.378,2.378,0,0,1-.365.052Q19.1.958,18.75.958q-.4,0-.655-.019a3.047,3.047,0,0,1-.408-.052.439.439,0,0,1-.218-.1.473.473,0,0,1-.1-.161l-.787-2.02a3.671,3.671,0,0,0-.308-.683,1.73,1.73,0,0,0-.365-.441,1.207,1.207,0,0,0-.455-.237,2.2,2.2,0,0,0-.588-.071h-.484V.626a.177.177,0,0,1-.066.128A.577.577,0,0,1,14.1.863a1.786,1.786,0,0,1-.37.071,5.423,5.423,0,0,1-.55.024,5.537,5.537,0,0,1-.56-.024,1.786,1.786,0,0,1-.37-.071.525.525,0,0,1-.2-.109.182.182,0,0,1-.062-.128V-7.939a.182.182,0,0,1,.062-.128.487.487,0,0,1,.2-.1,2.073,2.073,0,0,1,.37-.066,5.538,5.538,0,0,1,.56-.024,5.423,5.423,0,0,1,.55.024,2.073,2.073,0,0,1,.37.066.533.533,0,0,1,.209.1.177.177,0,0,1,.066.128v3.292h.484a1.846,1.846,0,0,0,.531-.071,1.182,1.182,0,0,0,.432-.237,1.787,1.787,0,0,0,.36-.441A4.1,4.1,0,0,0,16.5-6.08L17.213-7.9a.414.414,0,0,1,.095-.166.461.461,0,0,1,.2-.114,1.815,1.815,0,0,1,.379-.062q.242-.019.64-.019.351,0,.574.019a1.838,1.838,0,0,1,.351.057.389.389,0,0,1,.175.09.183.183,0,0,1,.047.128.85.85,0,0,1-.038.228,3.51,3.51,0,0,1-.133.36l-.673,1.613a4.809,4.809,0,0,1-.422.821,3.12,3.12,0,0,1-.455.555,2.418,2.418,0,0,1-.47.351,2.862,2.862,0,0,1-.455.209v.019a5.559,5.559,0,0,1,.55.266,2.288,2.288,0,0,1,.489.37,3.137,3.137,0,0,1,.446.564,6.155,6.155,0,0,1,.422.811L19.765.1q.057.123.09.213t.052.161a.778.778,0,0,1,.024.119Q19.936.636,19.936.674Z" transform="translate(429.761 1750.373)" fill="#4974ac"/>
    <rect id="Rectangle_834" data-name="Rectangle 834" width="24" height="24" transform="translate(428 1733)" fill="none"/>
  </g>
</svg>
