<svg xmlns="http://www.w3.org/2000/svg" width="13.223" height="18.901" viewBox="0 0 13.223 18.901">
  <g id="odnoklassniki" transform="translate(-76.922)">
    <g id="Group_4203" data-name="Group 4203" transform="translate(78.808)">
      <g id="Group_4202" data-name="Group 4202" transform="translate(0)">
        <path id="Path_1405" data-name="Path 1405" d="M132.727,0a4.725,4.725,0,1,0,4.725,4.725A4.73,4.73,0,0,0,132.727,0Zm0,7.088a2.363,2.363,0,1,1,2.363-2.363A2.365,2.365,0,0,1,132.727,7.088Z" transform="translate(-128.002)" fill="#fe7216"/>
      </g>
    </g>
    <g id="Group_4205" data-name="Group 4205" transform="translate(76.922 8.973)">
      <g id="Group_4204" data-name="Group 4204" transform="translate(0)">
        <path id="Path_1406" data-name="Path 1406" d="M89.8,243.41a1.18,1.18,0,0,0-1.67,0,6.507,6.507,0,0,1-9.189,0,1.182,1.182,0,0,0-1.67,1.672,8.806,8.806,0,0,0,5.253,2.526l-3.368,3.368a1.181,1.181,0,0,0,1.67,1.67l2.709-2.709,2.709,2.709a1.181,1.181,0,0,0,1.67-1.67l-3.368-3.368a8.806,8.806,0,0,0,5.253-2.526A1.182,1.182,0,0,0,89.8,243.41Z" transform="translate(-76.922 -243.064)" fill="#fe7216"/>
      </g>
    </g>
  </g>
</svg>
