<svg xmlns="http://www.w3.org/2000/svg" width="52.511" height="87.497" viewBox="0 0 52.511 87.497">
  <g id="Group_4202" data-name="Group 4202" transform="translate(-1411 -1087.052)">
    <g id="Group_4138" data-name="Group 4138" transform="translate(1331 -105.329)">
      <path id="Path_1343" data-name="Path 1343" d="M0,0H52.332V67.878L27.286,56.612,0,67.878Z" transform="translate(80 1212)" fill="#fff"/>
      <path id="Path_495" data-name="Path 495" d="M-578,1309.16h12.313v-9.487h12.313v9.487h9.613v12.313h-9.613v9.273h-12.313v-9.273H-578" transform="translate(658 -77.283)" fill="#fff" stroke="#ec231a" stroke-width="4"/>
    </g>
    <path id="Path_1347" data-name="Path 1347" d="M8.737,11.441,4.876,13.655l1.05-4.131L2.49,6.761,7,6.422,8.737,2.5l1.738,3.922,4.511.339L11.549,9.523l1.05,4.131Z" transform="translate(1428.418 1084.552)" fill="#fff"/>
    <path id="Path_1347-2" data-name="Path 1347" d="M7,8.985,4.213,10.59l.758-3-2.48-2,3.256-.246L7,2.5,8.255,5.344l3.256.246-2.481,2,.758,3Z" transform="translate(1452 1092)" fill="#fff"/>
    <path id="Path_1347-3" data-name="Path 1347" d="M7,8.985,4.213,10.59l.758-3-2.48-2,3.256-.246L7,2.5,8.255,5.344l3.256.246-2.481,2,.758,3Z" transform="translate(1409 1092)" fill="#fff"/>
  </g>
</svg>
