<svg xmlns="http://www.w3.org/2000/svg" width="54.735" height="86.461" viewBox="0 0 54.735 86.461">
  <path id="Path_807" data-name="Path 807" d="M19.988-26.787q0-8.483,1.917-13.393a20.947,20.947,0,0,1,6.217-8.512,41.336,41.336,0,0,0,6.537-6.595A10.765,10.765,0,0,0,36.9-61.882q0-8.774-7.554-8.774A7.008,7.008,0,0,0,23.707-68.1a10.873,10.873,0,0,0-2.266,6.915H1.8q.116-11.621,7.321-18.1t20.221-6.479q12.958,0,20.075,5.985t7.118,17.025a19.829,19.829,0,0,1-1.917,8.774A29.653,29.653,0,0,1,48.46-45.9l-6.682,6.217a15.72,15.72,0,0,0-3.951,5.607,22.22,22.22,0,0,0-1.22,7.292ZM17.606-9.123a9.018,9.018,0,0,1,3.109-7.06,11.255,11.255,0,0,1,7.757-2.76,11.255,11.255,0,0,1,7.757,2.76,9.018,9.018,0,0,1,3.109,7.06,9.018,9.018,0,0,1-3.109,7.06A11.255,11.255,0,0,1,28.472.7a11.255,11.255,0,0,1-7.757-2.76A9.018,9.018,0,0,1,17.606-9.123Z" transform="translate(-1.801 85.764)" fill="#fff" opacity="0.11"/>
</svg>
