<svg xmlns="http://www.w3.org/2000/svg" width="73.279" height="73.279" viewBox="0 0 73.279 73.279">
  <g id="Group_4019" data-name="Group 4019" transform="translate(-654.361 -2098.043)">
    <circle id="Ellipse_1" data-name="Ellipse 1" cx="36.639" cy="36.639" r="36.639" transform="translate(654.361 2098.043)" fill="#ebf5f5"/>
    <g id="Group_3162" data-name="Group 3162" transform="translate(673.167 2114.207)">
      <g id="Group_3153" data-name="Group 3153" transform="translate(17.843 33.959)">
        <path id="Path_119" data-name="Path 119" d="M516.25,652.753h-6.735a1.6,1.6,0,0,1,0-3.193h6.735a1.6,1.6,0,1,1,0,3.193Z" transform="translate(-507.919 -649.56)" fill="#ec231a"/>
      </g>
      <g id="Group_3154" data-name="Group 3154" transform="translate(21.21 30.593)">
        <path id="Path_120" data-name="Path 120" d="M512.64,656.364a1.6,1.6,0,0,1-1.6-1.6v-6.735a1.6,1.6,0,0,1,3.194,0v6.735A1.6,1.6,0,0,1,512.64,656.364Z" transform="translate(-511.043 -646.436)" fill="#ec231a"/>
      </g>
      <g id="Group_3161" data-name="Group 3161" transform="translate(0)">
        <g id="Group_3155" data-name="Group 3155" transform="translate(4.678)">
          <path id="Path_121" data-name="Path 121" d="M509.1,644.842a13.4,13.4,0,1,1,13.4-13.4A13.413,13.413,0,0,1,509.1,644.842Zm0-23.6a10.2,10.2,0,1,0,10.2,10.2A10.216,10.216,0,0,0,509.1,621.24Z" transform="translate(-495.702 -618.047)" fill="#4a4a4a"/>
        </g>
        <g id="Group_3158" data-name="Group 3158" transform="translate(0 23.611)">
          <g id="Group_3156" data-name="Group 3156">
            <path id="Path_122" data-name="Path 122" d="M492.958,657.862a1.6,1.6,0,0,1-1.6-1.56c-.006-.287-.1-7.108,4.63-11.893,2.973-3.007,7.154-4.522,12.34-4.448a1.6,1.6,0,0,1-.016,3.194c-.083,0-.169,0-.252,0-4.194,0-7.484,1.171-9.781,3.484-3.779,3.8-3.729,9.542-3.728,9.6a1.6,1.6,0,0,1-1.566,1.625Z" transform="translate(-491.361 -639.958)" fill="#4a4a4a"/>
          </g>
          <g id="Group_3157" data-name="Group 3157" transform="translate(17.601 0.002)">
            <path id="Path_123" data-name="Path 123" d="M524.648,657.864h-.036a1.6,1.6,0,0,1-1.563-1.628c0-.091.042-5.808-3.726-9.6-2.341-2.357-5.675-3.554-10.017-3.482h-.016a1.6,1.6,0,0,1-.016-3.194c5.24-.022,9.367,1.444,12.34,4.448,4.729,4.785,4.636,11.606,4.63,11.893A1.6,1.6,0,0,1,524.648,657.864Z" transform="translate(-507.694 -639.96)" fill="#4a4a4a"/>
          </g>
        </g>
        <g id="Group_3159" data-name="Group 3159" transform="translate(5.758 4.846)">
          <path id="Path_124" data-name="Path 124" d="M518.5,629.6a14.156,14.156,0,0,1-7.646-2.449c-5.247-3.335-11.675.38-11.74.418a1.6,1.6,0,0,1-1.633-2.745c.33-.2,8.162-4.775,15.087-.367,5.189,3.3,8.636,1.445,8.781,1.362a1.605,1.605,0,0,1,2.173.592,1.587,1.587,0,0,1-.558,2.164A9.219,9.219,0,0,1,518.5,629.6Z" transform="translate(-496.704 -622.544)" fill="#4a4a4a"/>
        </g>
        <g id="Group_3160" data-name="Group 3160" transform="translate(15.145 17.49)">
          <path id="Path_125" data-name="Path 125" d="M508.352,637.653a6.179,6.179,0,0,1-1.841-.262,1.6,1.6,0,0,1,.985-3.038,3.432,3.432,0,0,0,1.748-.014,1.6,1.6,0,0,1,.872,3.072A6.439,6.439,0,0,1,508.352,637.653Z" transform="translate(-505.415 -634.277)" fill="#4a4a4a"/>
        </g>
      </g>
    </g>
  </g>
</svg>
