<svg xmlns="http://www.w3.org/2000/svg" xmlns:xlink="http://www.w3.org/1999/xlink" width="612.113" height="449.064" viewBox="0 0 612.113 449.064">
  <defs>
    <linearGradient id="linear-gradient" x1="0.5" y1="1" x2="0.5" gradientUnits="objectBoundingBox">
      <stop offset="0" stop-color="gray" stop-opacity="0.251"/>
      <stop offset="0.54" stop-color="gray" stop-opacity="0.122"/>
      <stop offset="1" stop-color="gray" stop-opacity="0.102"/>
    </linearGradient>
    <linearGradient id="linear-gradient-2" x1="9.926" x2="9.926" y2="0" xlink:href="#linear-gradient"/>
  </defs>
  <g id="undraw_make_it_rain_iwk4" transform="translate(0 0.001)">
    <path id="Path_408" data-name="Path 408" d="M212.044,357.028c-8.051,2.432-15.586,8.321-17.6,16.491-2.3,9.389,3,18.854,3.771,28.494,2.476,31.586-42.458,53.871-36.048,84.9,2.545,12.337,12.833,21.411,22.97,28.909,16.239,11.972,34.257,22.549,54.21,25.534,30.285,4.537,61.928-8.8,91.365-.371,23.743,6.8,41.912,26.728,65.491,34.081,17.949,5.6,37.286,3.394,55.932,1.125,10.055-1.219,20.588-2.627,28.7-8.66,15.083-11.231,16.032-33.409,26.131-49.3,15.6-24.51,49.8-29.324,78.475-24.56s56.523,16.491,85.577,15.535c6.209-.207,12.569-1.049,17.986-4.1,6.586-3.7,11.036-10.225,14.97-16.679A269.888,269.888,0,0,0,743.113,354.32c.17-8.139-.119-16.629-3.947-23.812-4.839-9.087-14.511-14.524-24.139-18.181-23.121-8.8-48.661-10.238-71.317-20.161-21.851-9.571-39.549-26.357-58.578-40.743a312.021,312.021,0,0,0-128.513-57.233c-10.929-2.112-22.272-3.62-33.132-1.181-12.513,2.809-23.3,10.608-32.994,19-25.8,22.335-46.474,49.893-70.249,74.371a399.948,399.948,0,0,1-53.368,46.022c-8.8,6.341-18.15,13.87-27.954,18.558C229.948,355.25,221.533,354.169,212.044,357.028Z" transform="translate(-131.036 -129.528)" fill="#6c63ff" opacity="0.2"/>
    <path id="Path_409" data-name="Path 409" d="M402.888,138.88s-24.29,32.259-6.913,69.859-30.285,98.014-30.285,98.014" transform="translate(-206.886 -109.883)" fill="none" stroke="#535461" stroke-miterlimit="10" stroke-width="2"/>
    <path id="Path_410" data-name="Path 410" d="M432.925,109.664c-1.929,8.3-11.161,13.248-11.161,13.248s-6.1-8.516-4.167-16.817,6.913-14.235,11.161-13.248S434.854,101.362,432.925,109.664Z" transform="translate(-226.031 -92.74)" fill="#8ed16f"/>
    <ellipse id="Ellipse_86" data-name="Ellipse 86" cx="4.845" cy="1.816" rx="4.845" ry="1.816" transform="translate(196.056 19.372) rotate(-76.9)" fill="#8ed16f"/>
    <ellipse id="Ellipse_87" data-name="Ellipse 87" cx="4.845" cy="1.816" rx="4.845" ry="1.816" transform="translate(196.056 19.372) rotate(-76.9)" opacity="0.3"/>
    <path id="Path_411" data-name="Path 411" d="M425.368,168.63c-8.019,2.891-17.188-2.174-17.188-2.174s3.834-9.747,11.859-12.632,15.711-1.885,17.188,2.174S433.387,165.739,425.368,168.63Z" transform="translate(-222.673 -114.822)" fill="#8ed16f"/>
    <ellipse id="Ellipse_88" data-name="Ellipse 88" cx="4.845" cy="1.816" rx="4.845" ry="1.816" transform="matrix(0.94, -0.34, 0.34, 0.94, 194.653, 45.64)" fill="#8ed16f"/>
    <ellipse id="Ellipse_89" data-name="Ellipse 89" cx="4.845" cy="1.816" rx="4.845" ry="1.816" transform="matrix(0.94, -0.34, 0.34, 0.94, 194.653, 45.64)" opacity="0.3"/>
    <path id="Path_412" data-name="Path 412" d="M422.4,215.4c-8.019,2.891-17.188-2.174-17.188-2.174s3.834-9.747,11.859-12.632,15.711-1.885,17.188,2.174S430.417,212.515,422.4,215.4Z" transform="translate(-221.569 -132.199)" fill="#8ed16f"/>
    <ellipse id="Ellipse_90" data-name="Ellipse 90" cx="4.845" cy="1.816" rx="4.845" ry="1.816" transform="translate(192.881 75.467) rotate(-19.8)" fill="#8ed16f"/>
    <ellipse id="Ellipse_91" data-name="Ellipse 91" cx="4.845" cy="1.816" rx="4.845" ry="1.816" transform="translate(192.881 75.467) rotate(-19.8)" opacity="0.3"/>
    <path id="Path_413" data-name="Path 413" d="M437.308,270.27c-8.019,2.891-17.188-2.174-17.188-2.174s3.834-9.747,11.859-12.632,15.711-1.885,17.188,2.174S445.327,267.4,437.308,270.27Z" transform="translate(-227.109 -152.586)" fill="#8ed16f"/>
    <ellipse id="Ellipse_92" data-name="Ellipse 92" cx="4.845" cy="1.816" rx="4.845" ry="1.816" transform="translate(202.252 109.966) rotate(-19.8)" fill="#8ed16f"/>
    <ellipse id="Ellipse_93" data-name="Ellipse 93" cx="4.845" cy="1.816" rx="4.845" ry="1.816" transform="translate(202.252 109.966) rotate(-19.8)" opacity="0.3"/>
    <path id="Path_414" data-name="Path 414" d="M427.608,320.45c-8.019,2.891-17.188-2.174-17.188-2.174s3.834-9.747,11.859-12.632,15.711-1.885,17.188,2.174S435.634,317.565,427.608,320.45Z" transform="translate(-223.505 -171.23)" fill="#8ed16f"/>
    <ellipse id="Ellipse_94" data-name="Ellipse 94" cx="4.845" cy="1.816" rx="4.845" ry="1.816" transform="matrix(0.94, -0.34, 0.34, 0.94, 196.173, 140.976)" fill="#8ed16f"/>
    <ellipse id="Ellipse_95" data-name="Ellipse 95" cx="4.845" cy="1.816" rx="4.845" ry="1.816" transform="matrix(0.94, -0.34, 0.34, 0.94, 196.173, 140.976)" opacity="0.3"/>
    <path id="Path_415" data-name="Path 415" d="M374.1,181.1c5.92,6.134,16.384,5.656,16.384,5.656s.861-10.439-5.059-16.572-13.254-8.66-16.384-5.656S368.177,174.971,374.1,181.1Z" transform="translate(-207.607 -118.944)" fill="#8ed16f"/>
    <ellipse id="Ellipse_96" data-name="Ellipse 96" cx="1.816" cy="4.845" rx="1.816" ry="4.845" transform="matrix(0.719, -0.695, 0.695, 0.719, 167.705, 54.273)" fill="#8ed16f"/>
    <ellipse id="Ellipse_97" data-name="Ellipse 97" cx="1.816" cy="4.845" rx="1.816" ry="4.845" transform="matrix(0.719, -0.695, 0.695, 0.719, 167.705, 54.273)" opacity="0.3"/>
    <path id="Path_416" data-name="Path 416" d="M368.687,336.094c5.92,6.134,16.384,5.656,16.384,5.656s.861-10.439-5.059-16.572-13.254-8.66-16.384-5.656S362.767,329.961,368.687,336.094Z" transform="translate(-205.597 -176.53)" fill="#8ed16f"/>
    <ellipse id="Ellipse_98" data-name="Ellipse 98" cx="1.816" cy="4.845" rx="1.816" ry="4.845" transform="matrix(0.719, -0.695, 0.695, 0.719, 164.296, 151.686)" fill="#8ed16f"/>
    <ellipse id="Ellipse_99" data-name="Ellipse 99" cx="1.816" cy="4.845" rx="1.816" ry="4.845" transform="matrix(0.719, -0.695, 0.695, 0.719, 164.296, 151.686)" opacity="0.3"/>
    <path id="Path_417" data-name="Path 417" d="M378.652,236.434c7.629,3.808,17.326-.151,17.326-.151s-2.671-10.124-10.294-13.933-15.385-3.771-17.326.151S371.022,232.626,378.652,236.434Z" transform="translate(-207.712 -139.847)" fill="#8ed16f"/>
    <ellipse id="Ellipse_100" data-name="Ellipse 100" cx="1.816" cy="4.845" rx="1.816" ry="4.845" transform="translate(169.432 88.727) rotate(-63.48)" fill="#8ed16f"/>
    <ellipse id="Ellipse_101" data-name="Ellipse 101" cx="1.816" cy="4.845" rx="1.816" ry="4.845" transform="translate(169.432 88.727) rotate(-63.48)" opacity="0.3"/>
    <path id="Path_418" data-name="Path 418" d="M383.743,291c7.629,3.808,17.326-.151,17.326-.151s-2.671-10.124-10.294-13.933-15.385-3.771-17.326.151S376.145,287.234,383.743,291Z" transform="translate(-209.604 -160.122)" fill="#8ed16f"/>
    <ellipse id="Ellipse_102" data-name="Ellipse 102" cx="1.816" cy="4.845" rx="1.816" ry="4.845" transform="translate(172.634 123.027) rotate(-63.48)" fill="#8ed16f"/>
    <ellipse id="Ellipse_103" data-name="Ellipse 103" cx="1.816" cy="4.845" rx="1.816" ry="4.845" transform="translate(172.634 123.027) rotate(-63.48)" opacity="0.3"/>
    <path id="Path_419" data-name="Path 419" d="M211.15,249.21s44.363,44.363,19.319,110.193S273.4,534.7,273.4,534.7s-.729-.107-2.08-.346C180.192,518.277,134.943,414.066,185.6,336.653,204.407,307.87,219.9,274.109,211.15,249.21Z" transform="translate(-132.134 -150.876)" fill="#8ed16f"/>
    <path id="Path_420" data-name="Path 420" d="M113,534.392s50.622-8.063,55.235,37.305,97.341,51.659,97.341,51.659-.628.415-1.741,1.156c-76.565,50.276-149.754,32.013-138.725-34.722C129.22,564.973,128.881,540.055,113,534.392Z" transform="translate(-113 -256.628)" fill="#8ed16f"/>
    <g id="Group_3344" data-name="Group 3344" transform="translate(0 277.21)" opacity="0.3">
      <path id="Path_421" data-name="Path 421" d="M113,534.392s50.622-8.063,55.235,37.305,97.341,51.659,97.341,51.659-.628.415-1.741,1.156c-76.565,50.276-149.754,32.013-138.725-34.722C129.22,564.973,128.881,540.055,113,534.392Z" transform="translate(-113 -533.838)" fill="#fff"/>
    </g>
    <ellipse id="Ellipse_104" data-name="Ellipse 104" cx="13.92" cy="36.318" rx="13.92" ry="36.318" transform="translate(52.281 204.568)" fill="#8ed16f"/>
    <ellipse id="Ellipse_105" data-name="Ellipse 105" cx="13.92" cy="36.318" rx="13.92" ry="36.318" transform="translate(52.281 204.568)" opacity="0.3"/>
    <ellipse id="Ellipse_106" data-name="Ellipse 106" cx="9.383" cy="20.884" rx="9.383" ry="20.884" transform="translate(28.763 349.889) rotate(-45)" fill="#8ed16f"/>
    <ellipse id="Ellipse_107" data-name="Ellipse 107" cx="9.383" cy="20.884" rx="9.383" ry="20.884" transform="translate(28.763 349.889) rotate(-45)" opacity="0.3"/>
    <path id="Path_422" data-name="Path 422" d="M633.2,358.2H303.674a15.014,15.014,0,0,0-15.014,15.014V566.357a15.014,15.014,0,0,0,15.014,15.014H633.2a15.014,15.014,0,0,0,15.014-15.014V373.214A15.014,15.014,0,0,0,633.2,358.2Z" transform="translate(-178.266 -191.371)" fill="url(#linear-gradient)"/>
    <rect id="Rectangle_153" data-name="Rectangle 153" width="351.086" height="217.917" rx="24.81" transform="translate(114.624 169.456)" fill="#ec231a"/>
    <rect id="Rectangle_154" data-name="Rectangle 154" width="351.086" height="39.951" transform="translate(114.624 207.591)" fill="#6c63ff"/>
    <rect id="Rectangle_155" data-name="Rectangle 155" width="351.086" height="39.951" transform="translate(114.624 207.591)" fill="#c21c15"/>
    <rect id="Rectangle_156" data-name="Rectangle 156" width="284.501" height="19.369" transform="translate(147.919 277.205)" fill="#d6d6e3"/>
    <circle id="Ellipse_108" data-name="Ellipse 108" cx="27.847" cy="27.847" r="27.847" transform="translate(143.677 317.156)" fill="#6c63ff"/>
    <circle id="Ellipse_109" data-name="Ellipse 109" cx="27.847" cy="27.847" r="27.847" transform="translate(143.677 317.156)" fill="#c21c15"/>
    <path id="Path_423" data-name="Path 423" d="M822.22,250.381a6.1,6.1,0,0,0,2.683,3.394c5.776,3.815,18.332,3,19.84,3,.32,0,.742.572,1.207,1.533,2.218,4.575,5.656,17.986,5.889,21,.308,3.651,3.7,20.739,9.257,27.105.17.195.339.377.5.547,5.449,5.474,11.84-.547,11.84-.547l.918-3.186c-.258,1.257-.547,2.721-.836,4.361-.145.823-.289,1.7-.427,2.6a99.471,99.471,0,0,0-1.3,15.315,55.526,55.526,0,0,0,.239,5.581c.05.515.107,1.024.176,1.521a53.288,53.288,0,0,1,.415,6.812c-.05,13.524-3.5,30.348-3.5,30.348l.132-.044c-.082.421-.132.628-.132.628l.2-.063q-.144.936-.276,1.917c-1.169,8.484-1.841,19.042-2.162,25.138a50.348,50.348,0,0,0,.427,9.628l6.134,43.181v20.111a35.512,35.512,0,0,0,1.106,9.037c2,7.6.352,34.119-.572,46.7-.258,3.431-.459,5.832-.515,6.523v.207l.176-.069v.22a3.546,3.546,0,0,1,.817-.239c-2.432,3.771-6.838,10-10.225,11.054a10.728,10.728,0,0,0-5.109,3.387l-.088.119-.126.176a3.771,3.771,0,0,0-.735,1.923,2.119,2.119,0,0,1-.113-.371c-.258,1.4.584,2.684,3.23,3.306a21.744,21.744,0,0,0,4.682.377c9.175,0,25.459-2.822,27.256-5.857V536.29l.3.094v.094l1.125.371,3.086-10.357c3.7-2.74.628-51.778,0-63.047-.566-10.269,5.788-51.118,6.913-58.314l-.151-.182.17-1.05a4.463,4.463,0,0,1,.628.553,8.215,8.215,0,0,1,.962,1.42,19,19,0,0,1,1.364,2.816c6.209,15.485,9.006,59.766,9.006,63.738v41.641a43.361,43.361,0,0,0,1.7,12.148,52.1,52.1,0,0,1,1.32,6.322c.132.836.245,1.665.352,2.457s.214,1.7.3,2.438a5.083,5.083,0,0,0,.063.559,1.107,1.107,0,0,1,0,.258c.17,1.64.258,2.715.258,2.715a.63.63,0,0,1,.126-.245l.031.4a.848.848,0,0,1,.245-.39,5.951,5.951,0,0,1,.83-.679v5.292l-.151-.113v.911c6.4,4.827,16.811,6.285,24.805,6.228,5.185,0,9.383-.628,10.841-1.357,2.086-1.024.943-3.413-.955-5.241-1.471-1.42-3.387-2.514-4.6-2.376-2.024.22-8.943-7.617-12.569-11.909l.409-.182.578-.251V461.617s.93-27.413,3.7-54.525a96.456,96.456,0,0,0-4.745-40.447l-.088-.258.842.132c.892.138,1.37.22,1.37.22a5.226,5.226,0,0,0-.057-.628h.057s-1.081-11.758-1.093-26.527c0-16.742,1.414-37.154,7.265-48.705,3.369-6.649,4.493-11.941,4.4-16.114a16.855,16.855,0,0,0-3.01-10.307,8.169,8.169,0,0,0-3.463-2.74l-.119-.069H945.2a8.61,8.61,0,0,0-3.18-.628H929.378a8.44,8.44,0,0,1-4.173-1.1l-4.946-2.8c-1.647-3.6-1.885-8.063-1.533-12.249,0-.333.063-.666.094-.993l.358-.377c.276-.3.534-.628.786-.911a7.009,7.009,0,0,1-.056.742c-.063.4-.17.628-.339.679,2.7-.352,5.719-.886,7.378-2.973.069-.082.132-.17.195-.258a13.472,13.472,0,0,0,1.213-2.514,7.3,7.3,0,0,1,.924-1.684c.415-.54.955-.98,1.4-1.5l.076-.088c1.59-1.885,1.678-4.588,1.7-7.051.031-5.983-.145-12.569-4.148-17.056-3.324-3.733-8.629-5.147-13.663-5.31s-10.055.742-15.083.767c-3.419,0-7.542-.057-9.427,2.771-.924,1.389-1.037,3.205-2.042,4.537-.578.767-1.464,1.427-1.515,2.382a2.444,2.444,0,0,0,.327,1.257v.044a8.891,8.891,0,0,0,6.511,4.368,16.215,16.215,0,0,0-1.257,1.735,16.517,16.517,0,0,0-2.514,8.8,10.292,10.292,0,0,0,.038,1.081,16.61,16.61,0,0,0,5.266,11.067c-.05.352-.1.7-.157,1.049l.113.1q.534.484,1.112.918l.138.107v.628a10.532,10.532,0,0,1-.038,1.093c-.038.358,0,.578-.038.867l-.082-.069-6.14-5.128-9.873-9.138s-24.686-17.968-25.924-9.427a6.152,6.152,0,0,0,1.175,4.261c4.531,6.913,20.111,12.8,20.111,12.8a131.671,131.671,0,0,1,15.5,20.412c-.22.119-.44.233-.672.339-5.53,2.57-13.6,1.483-13.6,1.483-9.32,1.452-10.162,11.664-10.112,15.793v.855l-12.368-29.041-.038-.088a6.115,6.115,0,0,0-4.625-3.632C841.161,247.176,820.491,244.279,822.22,250.381ZM874,532.557a5.366,5.366,0,0,1,.547-.1l-.057.088Z" transform="translate(-376.469 -134.657)" fill="url(#linear-gradient-2)"/>
    <path id="Path_424" data-name="Path 424" d="M994.291,716.43s11.714,14.725,14.423,14.423,9.012,5.706,5.411,7.542-24.334,3-34.565-4.808V721.816Z" transform="translate(-434.966 -324.469)" fill="#aca9c9"/>
    <path id="Path_425" data-name="Path 425" d="M898.4,717.86s-6.913,12.318-11.714,13.826-9.012,6.913-2.7,8.415,28.846-1.8,30.945-5.411V718.759Z" transform="translate(-398.272 -325.001)" fill="#aca9c9"/>
    <path id="Path_426" data-name="Path 426" d="M894.707,497.351l5.97,42.6v19.8a35.494,35.494,0,0,0,1.081,8.911c1.948,7.5.346,33.654-.559,46.066-.3,4.047-.522,6.636-.522,6.636,3.9-1.8,20.431,3.9,20.431,3.9l1.672-5.687,1.332-4.525c3.607-2.7.628-51.075,0-62.217-.409-7.611,2.985-32.284,5.16-47.071.628-4.179,1.138-7.542,1.445-9.565.195-1.257.3-1.954.3-1.954a6.581,6.581,0,0,1,1.621,1.954,18.806,18.806,0,0,1,1.326,2.778c6.046,15.278,8.8,58.955,8.8,62.845V602.9a43.316,43.316,0,0,0,1.653,11.985,62.844,62.844,0,0,1,1.628,8.654c.427,3.262.628,5.889.628,5.889.3-1.8,18.929-9.917,18.929-9.917v-68.5s.9-27.024,3.607-53.783a95.954,95.954,0,0,0-3.456-36.186c-.748-2.558-1.5-4.726-2.143-6.442-1.1-2.922-1.885-4.537-1.885-4.537H900.363c-1.031.195-1.885,2.269-2.658,5.417-.5,2.112-.943,4.7-1.326,7.541-1.138,8.365-1.791,18.778-2.105,24.8A50.205,50.205,0,0,0,894.707,497.351Z" transform="translate(-403.255 -225.501)" fill="#618fd8"/>
    <g id="Group_3345" data-name="Group 3345" transform="translate(497.573 224.748)" opacity="0.1">
      <path id="Path_427" data-name="Path 427" d="M995.553,619.816v-68.5s.9-27.024,3.607-53.783a93.692,93.692,0,0,0-7.541-47.172h1.2a94.238,94.238,0,0,1,7.541,47.172c-2.671,26.741-3.607,53.783-3.607,53.783v68.5s-18.628,8.113-18.929,9.917a9,9,0,0,0-.094-1.094C981.79,625.818,995.553,619.816,995.553,619.816Z" transform="translate(-931.859 -450.36)"/>
      <path id="Path_428" data-name="Path 428" d="M906.393,722.331a4.663,4.663,0,0,0-1.653.339v-.3a10.721,10.721,0,0,1,1.653-.038Z" transform="translate(-904.74 -551.404)"/>
      <path id="Path_429" data-name="Path 429" d="M938.411,641.422c3.607-2.7.628-51.075,0-62.217s6.913-58.585,6.913-58.585a5.241,5.241,0,0,1,1.037,1.068c-1.106,7.089-7.29,47.392-6.743,57.516.628,11.117,3.607,59.49,0,62.217l-3,10.212-1.094-.365Z" transform="translate(-916.176 -476.465)"/>
    </g>
    <path id="Path_430" data-name="Path 430" d="M881.25,310.353l-6.285,22.235s-6.611,6.285-12.016,0-8.736-23.133-9.062-26.741-5.109-22.235-6.913-22.235-19.828,1.2-21.933-6.285c-1.684-6.021,18.439-3.142,26.5-1.791a5.97,5.97,0,0,1,4.506,3.582L868.4,308.625S874.94,301.039,881.25,310.353Z" transform="translate(-377.518 -159.958)" fill="#f7c4a7"/>
    <path id="Path_431" data-name="Path 431" d="M959.358,249.82s-7.812,21.933,2.105,29.745S926,289.482,926,289.482l6.159-5.857s4.355-17.276,1.351-31.7Z" transform="translate(-415.066 -151.103)" fill="#f7c4a7"/>
    <path id="Path_432" data-name="Path 432" d="M937.708,294.754s7.963-1.954,7.963-4.054l7.058,4.054h17.729s12.921,7.208,2.105,28.846-6.008,74.786-6.008,74.786-38.455-6.913-70.305,3.607c0,0,4.808-23.737,3-37.255s3-32.447,3-32.447l2.7-11.419s-.151-10.684-11.268-5.26c0,0-1.653-15.473,9.766-17.276,0,0,13.2,1.8,17.125-4.808C920.582,293.553,929.3,298.663,937.708,294.754Z" transform="translate(-403.031 -166.291)" opacity="0.1"/>
    <path id="Path_433" data-name="Path 433" d="M937.708,293.8s7.962-1.954,7.962-4.054l5.172,2.973a8.169,8.169,0,0,0,4.06,1.081h12.4a8.17,8.17,0,0,1,6.643,3.381c2.847,4,5.4,11.9-1.383,25.465-10.816,21.631-6.008,74.786-6.008,74.786s-38.455-6.913-70.305,3.607c0,0,4.808-23.737,3-37.255s3-32.4,3-32.4l2.7-11.419s-.151-10.684-11.268-5.26c0,0-1.609-15.045,9.295-17.195a3.08,3.08,0,0,1,.924-.063c2.332.245,13.2,1.031,16.679-4.858C920.582,292.6,929.3,297.706,937.708,293.8Z" transform="translate(-403.031 -165.938)" fill="#ec231a"/>
    <path id="Path_434" data-name="Path 434" d="M983.468,325.738s-9.615,6.008-25.239,0c0,0-17.125-6.285-22.536-18.627s27.338,2.105,27.338,2.105,6.913,0,9.012-1.5S988.873,319.127,983.468,325.738Z" transform="translate(-418.443 -170.535)" opacity="0.1"/>
    <path id="Path_435" data-name="Path 435" d="M960.88,300.2s-9.615,6.008-25.239,0c0,0-17.125-6.285-22.536-18.627s-18.024-25.861-18.024-25.861-21.933-8.415-20.739-16.824,25.239,9.314,25.239,9.314l9.615,9.012,31.247,26.439s6.913,0,9.012-1.5S966.285,293.592,960.88,300.2Z" transform="translate(-395.856 -146.201)" fill="#f7c4a7"/>
    <path id="Path_436" data-name="Path 436" d="M937.49,253.355l25.836-2.105a59.308,59.308,0,0,0-2.7,12.236,16.51,16.51,0,0,1-23.127.628,29.365,29.365,0,0,0-.013-10.759Z" transform="translate(-419.335 -151.634)" opacity="0.1"/>
    <circle id="Ellipse_110" data-name="Ellipse 110" cx="16.522" cy="16.522" r="16.522" transform="translate(513.202 82.95)" fill="#f7c4a7"/>
    <path id="Path_437" data-name="Path 437" d="M953.421,239.416c-.968-1.6,1-3.676.352-5.424-.6-1.609-2.973-1.885-3.771-3.387-.628-1.213,0-2.7-.251-4.041-.358-1.728-2.218-2.8-3.984-2.891a14.215,14.215,0,0,0-5.147,1.138,19.762,19.762,0,0,1-8.478,1.307,8.889,8.889,0,0,1-7-4.443,2.514,2.514,0,0,1-.32-1.219c.05-.943.918-1.59,1.477-2.344.98-1.313,1.093-3.1,1.986-4.475,1.823-2.79,5.826-2.721,9.157-2.734,4.9,0,9.779-.918,14.681-.754s10.055,1.552,13.3,5.235c3.9,4.431,4.072,10.916,4.041,16.824,0,2.432-.1,5.078-1.653,6.957-.452.547-1.006,1-1.439,1.559-.943,1.257-1.194,2.866-2.08,4.142-1.571,2.269-4.638,2.822-7.372,3.186.8-.107.138-5.493,0-5.989C956.394,239.585,955.822,239.636,953.421,239.416Z" transform="translate(-414.628 -136.356)" opacity="0.1"/>
    <path id="Path_438" data-name="Path 438" d="M953.421,238.466c-.968-1.6,1-3.676.352-5.424-.6-1.609-2.973-1.885-3.771-3.387-.628-1.213,0-2.7-.251-4.041-.358-1.728-2.218-2.8-3.984-2.891a14.215,14.215,0,0,0-5.147,1.137,19.761,19.761,0,0,1-8.478,1.307,8.889,8.889,0,0,1-7-4.443,2.514,2.514,0,0,1-.32-1.219c.05-.943.918-1.59,1.477-2.344.98-1.313,1.093-3.1,1.986-4.475,1.823-2.79,5.826-2.721,9.157-2.734,4.9,0,9.779-.918,14.681-.754s10.055,1.552,13.3,5.235c3.9,4.431,4.072,10.916,4.041,16.824,0,2.432-.1,5.078-1.653,6.957-.452.547-1.006,1-1.439,1.559-.943,1.257-1.194,2.866-2.08,4.142-1.571,2.269-4.638,2.822-7.372,3.186.8-.107.138-5.493,0-5.989C956.394,238.6,955.822,238.679,953.421,238.466Z" transform="translate(-414.628 -136.003)" fill="#281c1c"/>
    <path id="Path_439" data-name="Path 439" d="M1002.521,327.955s-8.113-21.034-14.423-21.631,12.016,0,12.016,0l6.008,10.816Z" transform="translate(-437.647 -171.997)" opacity="0.1"/>
    <path id="Path_440" data-name="Path 440" d="M1003.481,327.955s-8.113-21.034-14.423-21.631,12.016,0,12.016,0l6.008,10.816Z" transform="translate(-438.004 -171.997)" fill="#e14b5a"/>
    <path id="Path_441" data-name="Path 441" d="M976.65,720.908c.427,3.262.628,5.889.628,5.889.3-1.8,18.929-9.917,18.929-9.917V712a8.285,8.285,0,0,0-1.42.069c-3.614.484-6.963,2.237-10.055,4.11a91.723,91.723,0,0,1-8.082,4.732Z" transform="translate(-433.885 -322.82)" fill="#618fd8"/>
    <path id="Path_442" data-name="Path 442" d="M976.65,720.908c.427,3.262.628,5.889.628,5.889.3-1.8,18.929-9.917,18.929-9.917V712a8.285,8.285,0,0,0-1.42.069c-3.614.484-6.963,2.237-10.055,4.11a91.723,91.723,0,0,1-8.082,4.732Z" transform="translate(-433.885 -322.82)" opacity="0.3"/>
    <path id="Path_443" data-name="Path 443" d="M904.5,718.483c3.9-1.8,20.431,3.9,20.431,3.9L926.6,716.7c-2.885-.585-5.75-1.313-8.566-2.181a28.52,28.52,0,0,1-3.846-1.42,25.767,25.767,0,0,0-2.564-1.194,13.3,13.3,0,0,0-6.611-.057C904.726,715.894,904.5,718.483,904.5,718.483Z" transform="translate(-407.078 -322.62)" fill="#618fd8"/>
    <path id="Path_444" data-name="Path 444" d="M904.5,718.483c3.9-1.8,20.431,3.9,20.431,3.9L926.6,716.7c-2.885-.585-5.75-1.313-8.566-2.181a28.52,28.52,0,0,1-3.846-1.42,25.767,25.767,0,0,0-2.564-1.194,13.3,13.3,0,0,0-6.611-.057C904.726,715.894,904.5,718.483,904.5,718.483Z" transform="translate(-407.078 -322.62)" opacity="0.3"/>
    <path id="Path_445" data-name="Path 445" d="M1013.865,747.048a1.8,1.8,0,0,0,1.031-1.194,1.766,1.766,0,0,1-1.031,2.093c-3.607,1.8-24.334,3-34.565-4.808v-.9C989.531,750.052,1010.258,748.851,1013.865,747.048Z" transform="translate(-434.87 -334.059)" fill="#fff" opacity="0.4"/>
    <path id="Path_446" data-name="Path 446" d="M883.736,748.6c6.284,1.5,28.846-1.8,30.945-5.411v.9c-2.105,3.607-24.635,6.913-30.945,5.411-2.577-.628-3.4-1.885-3.142-3.262C880.794,747.256,881.737,748.1,883.736,748.6Z" transform="translate(-398.179 -334.412)" fill="#fff" opacity="0.4"/>
    <path id="Path_447" data-name="Path 447" d="M928.785,402.977s-6.611-2.105-8.415,0-17.22,7.039-17.22,7.039" transform="translate(-406.577 -207.66)" opacity="0.1"/>
    <rect id="Rectangle_157" data-name="Rectangle 157" width="32.145" height="0.679" transform="translate(479.549 112.763) rotate(180)" fill="#8ed16f"/>
    <rect id="Rectangle_158" data-name="Rectangle 158" width="32.145" height="0.679" transform="translate(479.549 113.442) rotate(180)" fill="#8ed16f"/>
    <rect id="Rectangle_159" data-name="Rectangle 159" width="32.145" height="0.679" transform="translate(479.549 113.442) rotate(180)" opacity="0.1"/>
    <rect id="Rectangle_160" data-name="Rectangle 160" width="32.145" height="0.679" transform="translate(479.549 114.121) rotate(180)" fill="#8ed16f"/>
    <rect id="Rectangle_161" data-name="Rectangle 161" width="32.145" height="0.679" transform="translate(479.549 114.793) rotate(180)" fill="#8ed16f"/>
    <rect id="Rectangle_162" data-name="Rectangle 162" width="32.145" height="0.679" transform="translate(479.549 114.793) rotate(180)" opacity="0.1"/>
    <rect id="Rectangle_163" data-name="Rectangle 163" width="32.145" height="0.679" transform="translate(479.549 115.472) rotate(180)" fill="#8ed16f"/>
    <rect id="Rectangle_164" data-name="Rectangle 164" width="32.145" height="0.679" transform="translate(479.549 116.144) rotate(180)" fill="#8ed16f"/>
    <rect id="Rectangle_165" data-name="Rectangle 165" width="32.145" height="0.679" transform="translate(479.549 116.144) rotate(180)" opacity="0.1"/>
    <rect id="Rectangle_166" data-name="Rectangle 166" width="32.145" height="0.679" transform="translate(479.549 116.823) rotate(180)" fill="#8ed16f"/>
    <rect id="Rectangle_167" data-name="Rectangle 167" width="32.145" height="0.679" transform="translate(479.549 117.496) rotate(180)" fill="#8ed16f"/>
    <rect id="Rectangle_168" data-name="Rectangle 168" width="32.145" height="0.679" transform="translate(479.549 117.496) rotate(180)" opacity="0.1"/>
    <rect id="Rectangle_169" data-name="Rectangle 169" width="32.145" height="0.679" transform="translate(479.549 107.359) rotate(180)" fill="#8ed16f"/>
    <rect id="Rectangle_170" data-name="Rectangle 170" width="32.145" height="0.679" transform="matrix(-0.769, -0.639, 0.639, -0.769, 494.856, 111.844)" fill="#8ed16f"/>
    <rect id="Rectangle_171" data-name="Rectangle 171" width="32.145" height="0.679" transform="matrix(-0.769, -0.639, 0.639, -0.769, 472.324, 101.03)" fill="#8ed16f"/>
    <rect id="Rectangle_172" data-name="Rectangle 172" width="32.145" height="0.679" transform="translate(479.549 108.031) rotate(180)" fill="#8ed16f"/>
    <rect id="Rectangle_173" data-name="Rectangle 173" width="32.145" height="0.679" transform="translate(479.549 108.031) rotate(180)" opacity="0.1"/>
    <rect id="Rectangle_174" data-name="Rectangle 174" width="32.145" height="0.679" transform="translate(479.549 108.716) rotate(180)" fill="#8ed16f"/>
    <rect id="Rectangle_175" data-name="Rectangle 175" width="32.145" height="0.679" transform="translate(479.549 109.389) rotate(180)" fill="#8ed16f"/>
    <rect id="Rectangle_176" data-name="Rectangle 176" width="32.145" height="0.679" transform="translate(479.549 109.389) rotate(180)" opacity="0.1"/>
    <rect id="Rectangle_177" data-name="Rectangle 177" width="32.145" height="0.679" transform="translate(479.549 110.061) rotate(180)" fill="#8ed16f"/>
    <rect id="Rectangle_178" data-name="Rectangle 178" width="32.145" height="0.679" transform="translate(479.549 110.74) rotate(180)" fill="#8ed16f"/>
    <rect id="Rectangle_179" data-name="Rectangle 179" width="32.145" height="0.679" transform="translate(479.549 110.74) rotate(180)" opacity="0.1"/>
    <rect id="Rectangle_180" data-name="Rectangle 180" width="32.145" height="0.679" transform="translate(479.549 111.412) rotate(180)" fill="#8ed16f"/>
    <rect id="Rectangle_181" data-name="Rectangle 181" width="32.145" height="0.679" transform="translate(479.549 112.091) rotate(180)" fill="#8ed16f"/>
    <rect id="Rectangle_182" data-name="Rectangle 182" width="32.145" height="0.679" transform="translate(479.549 112.091) rotate(180)" opacity="0.1"/>
    <rect id="Rectangle_183" data-name="Rectangle 183" width="11.714" height="22.832" transform="translate(454.847 140.582) rotate(-169.48)" fill="#8ed16f"/>
    <ellipse id="Ellipse_111" data-name="Ellipse 111" cx="4.808" cy="2.401" rx="4.808" ry="2.401" transform="translate(448.094 132.65) rotate(-79.48)" fill="#8ed16f"/>
    <ellipse id="Ellipse_112" data-name="Ellipse 112" cx="4.808" cy="2.401" rx="4.808" ry="2.401" transform="translate(448.094 132.65) rotate(-79.48)" opacity="0.1"/>
    <rect id="Rectangle_184" data-name="Rectangle 184" width="11.714" height="22.832" transform="translate(456.818 187.964) rotate(-169.48)" fill="#8ed16f"/>
    <ellipse id="Ellipse_113" data-name="Ellipse 113" cx="4.808" cy="2.401" rx="4.808" ry="2.401" transform="translate(450.059 180.027) rotate(-79.48)" fill="#8ed16f"/>
    <ellipse id="Ellipse_114" data-name="Ellipse 114" cx="4.808" cy="2.401" rx="4.808" ry="2.401" transform="translate(450.059 180.027) rotate(-79.48)" opacity="0.1"/>
    <rect id="Rectangle_185" data-name="Rectangle 185" width="11.714" height="22.832" transform="matrix(0.476, -0.879, 0.879, 0.476, 398.066, 79.666)" fill="#8ed16f"/>
    <ellipse id="Ellipse_115" data-name="Ellipse 115" cx="2.406" cy="4.819" rx="2.406" ry="4.819" transform="translate(407.466 80.194) rotate(-61.39)" fill="#8ed16f"/>
    <ellipse id="Ellipse_116" data-name="Ellipse 116" cx="2.406" cy="4.819" rx="2.406" ry="4.819" transform="translate(407.466 80.194) rotate(-61.39)" opacity="0.1"/>
    <rect id="Rectangle_186" data-name="Rectangle 186" width="11.714" height="22.832" transform="matrix(0.476, -0.879, 0.879, 0.476, 353.974, 282.986)" fill="#8ed16f"/>
    <ellipse id="Ellipse_117" data-name="Ellipse 117" cx="2.401" cy="4.808" rx="2.401" ry="4.808" transform="matrix(0.476, -0.879, 0.879, 0.476, 361.366, 283.229)" fill="#8ed16f"/>
    <ellipse id="Ellipse_118" data-name="Ellipse 118" cx="2.401" cy="4.808" rx="2.401" ry="4.808" transform="matrix(0.476, -0.879, 0.879, 0.476, 361.366, 283.229)" opacity="0.1"/>
    <rect id="Rectangle_187" data-name="Rectangle 187" width="11.714" height="22.832" transform="matrix(0.476, -0.879, 0.879, 0.476, 326.998, 115.2)" fill="#8ed16f"/>
    <ellipse id="Ellipse_119" data-name="Ellipse 119" cx="2.401" cy="4.808" rx="2.401" ry="4.808" transform="matrix(0.476, -0.879, 0.879, 0.476, 334.385, 115.433)" fill="#8ed16f"/>
    <ellipse id="Ellipse_120" data-name="Ellipse 120" cx="2.401" cy="4.808" rx="2.401" ry="4.808" transform="matrix(0.476, -0.879, 0.879, 0.476, 334.385, 115.433)" opacity="0.1"/>
    <rect id="Rectangle_188" data-name="Rectangle 188" width="11.714" height="22.832" transform="matrix(0.476, -0.879, 0.879, 0.476, 360.809, 79.664)" fill="#8ed16f"/>
    <ellipse id="Ellipse_121" data-name="Ellipse 121" cx="2.401" cy="4.808" rx="2.401" ry="4.808" transform="matrix(0.476, -0.879, 0.879, 0.476, 368.195, 79.897)" fill="#8ed16f"/>
    <ellipse id="Ellipse_122" data-name="Ellipse 122" cx="2.401" cy="4.808" rx="2.401" ry="4.808" transform="matrix(0.476, -0.879, 0.879, 0.476, 368.195, 79.897)" opacity="0.1"/>
    <rect id="Rectangle_189" data-name="Rectangle 189" width="11.714" height="22.832" transform="matrix(0.994, -0.109, 0.109, 0.994, 388.498, 112.566)" fill="#8ed16f"/>
    <ellipse id="Ellipse_123" data-name="Ellipse 123" cx="2.401" cy="4.808" rx="2.401" ry="4.808" transform="matrix(0.994, -0.109, 0.109, 0.994, 392.498, 118.779)" fill="#8ed16f"/>
    <ellipse id="Ellipse_124" data-name="Ellipse 124" cx="2.401" cy="4.808" rx="2.401" ry="4.808" transform="matrix(0.994, -0.109, 0.109, 0.994, 392.498, 118.779)" opacity="0.1"/>
    <rect id="Rectangle_190" data-name="Rectangle 190" width="11.714" height="22.832" transform="matrix(0.994, -0.109, 0.109, 0.994, 468.337, 236.849)" fill="#8ed16f"/>
    <ellipse id="Ellipse_125" data-name="Ellipse 125" cx="2.401" cy="4.808" rx="2.401" ry="4.808" transform="matrix(0.994, -0.109, 0.109, 0.994, 472.343, 243.062)" fill="#8ed16f"/>
    <ellipse id="Ellipse_126" data-name="Ellipse 126" cx="2.401" cy="4.808" rx="2.401" ry="4.808" transform="matrix(0.994, -0.109, 0.109, 0.994, 472.343, 243.062)" opacity="0.1"/>
    <rect id="Rectangle_191" data-name="Rectangle 191" width="11.714" height="22.832" transform="matrix(0.476, -0.879, 0.879, 0.476, 348.966, 169.807)" fill="#8ed16f"/>
    <ellipse id="Ellipse_127" data-name="Ellipse 127" cx="2.401" cy="4.808" rx="2.401" ry="4.808" transform="matrix(0.476, -0.879, 0.879, 0.476, 356.349, 170.049)" fill="#8ed16f"/>
    <ellipse id="Ellipse_128" data-name="Ellipse 128" cx="2.401" cy="4.808" rx="2.401" ry="4.808" transform="matrix(0.476, -0.879, 0.879, 0.476, 356.349, 170.049)" opacity="0.1"/>
    <rect id="Rectangle_192" data-name="Rectangle 192" width="11.714" height="22.832" transform="matrix(0.476, -0.879, 0.879, 0.476, 298.295, 155.335)" fill="#8ed16f"/>
    <ellipse id="Ellipse_129" data-name="Ellipse 129" cx="2.406" cy="4.819" rx="2.406" ry="4.819" transform="translate(307.335 156.223) rotate(-61.39)" fill="#8ed16f"/>
    <ellipse id="Ellipse_130" data-name="Ellipse 130" cx="2.406" cy="4.819" rx="2.406" ry="4.819" transform="translate(307.335 156.223) rotate(-61.39)" opacity="0.1"/>
    <rect id="Rectangle_193" data-name="Rectangle 193" width="11.714" height="22.832" transform="matrix(0.476, -0.879, 0.879, 0.476, 282.065, 398.991)" fill="#8ed16f"/>
    <ellipse id="Ellipse_131" data-name="Ellipse 131" cx="2.401" cy="4.808" rx="2.401" ry="4.808" transform="matrix(0.476, -0.879, 0.879, 0.476, 289.451, 399.227)" fill="#8ed16f"/>
    <ellipse id="Ellipse_132" data-name="Ellipse 132" cx="2.401" cy="4.808" rx="2.401" ry="4.808" transform="matrix(0.476, -0.879, 0.879, 0.476, 289.451, 399.227)" opacity="0.1"/>
    <rect id="Rectangle_194" data-name="Rectangle 194" width="11.714" height="22.832" transform="translate(270.896 404.179) rotate(-79.49)" fill="#8ed16f"/>
    <rect id="Rectangle_195" data-name="Rectangle 195" width="11.714" height="22.832" transform="translate(270.896 404.179) rotate(-79.49)" opacity="0.05"/>
    <ellipse id="Ellipse_133" data-name="Ellipse 133" cx="2.401" cy="4.808" rx="2.401" ry="4.808" transform="translate(278.001 402.132) rotate(-79.49)" fill="#8ed16f"/>
    <ellipse id="Ellipse_134" data-name="Ellipse 134" cx="2.401" cy="4.808" rx="2.401" ry="4.808" transform="translate(278.001 402.132) rotate(-79.49)" opacity="0.1"/>
    <rect id="Rectangle_196" data-name="Rectangle 196" width="11.714" height="22.832" transform="translate(272.999 411.086) rotate(-79.49)" fill="#8ed16f"/>
    <ellipse id="Ellipse_135" data-name="Ellipse 135" cx="2.401" cy="4.808" rx="2.401" ry="4.808" transform="translate(280.098 409.039) rotate(-79.49)" fill="#8ed16f"/>
    <ellipse id="Ellipse_136" data-name="Ellipse 136" cx="2.401" cy="4.808" rx="2.401" ry="4.808" transform="translate(280.098 409.039) rotate(-79.49)" opacity="0.1"/>
    <rect id="Rectangle_197" data-name="Rectangle 197" width="11.714" height="22.832" transform="matrix(0.476, -0.879, 0.879, 0.476, 305.751, 428.602)" fill="#8ed16f"/>
    <ellipse id="Ellipse_137" data-name="Ellipse 137" cx="2.401" cy="4.808" rx="2.401" ry="4.808" transform="matrix(0.476, -0.879, 0.879, 0.476, 313.143, 428.839)" fill="#8ed16f"/>
    <ellipse id="Ellipse_138" data-name="Ellipse 138" cx="2.401" cy="4.808" rx="2.401" ry="4.808" transform="matrix(0.476, -0.879, 0.879, 0.476, 313.143, 428.839)" opacity="0.1"/>
    <rect id="Rectangle_198" data-name="Rectangle 198" width="11.714" height="22.832" transform="translate(294.586 433.783) rotate(-79.49)" fill="#8ed16f"/>
    <rect id="Rectangle_199" data-name="Rectangle 199" width="11.714" height="22.832" transform="translate(294.586 433.783) rotate(-79.49)" opacity="0.05"/>
    <ellipse id="Ellipse_139" data-name="Ellipse 139" cx="2.401" cy="4.808" rx="2.401" ry="4.808" transform="translate(301.685 431.736) rotate(-79.49)" fill="#8ed16f"/>
    <ellipse id="Ellipse_140" data-name="Ellipse 140" cx="2.401" cy="4.808" rx="2.401" ry="4.808" transform="translate(301.685 431.736) rotate(-79.49)" opacity="0.1"/>
    <rect id="Rectangle_200" data-name="Rectangle 200" width="11.714" height="22.832" transform="translate(296.688 440.698) rotate(-79.49)" fill="#8ed16f"/>
    <ellipse id="Ellipse_141" data-name="Ellipse 141" cx="2.401" cy="4.808" rx="2.401" ry="4.808" transform="translate(303.793 438.65) rotate(-79.49)" fill="#8ed16f"/>
    <ellipse id="Ellipse_142" data-name="Ellipse 142" cx="2.401" cy="4.808" rx="2.401" ry="4.808" transform="translate(303.793 438.65) rotate(-79.49)" opacity="0.1"/>
    <rect id="Rectangle_201" data-name="Rectangle 201" width="11.714" height="22.832" transform="matrix(0.476, -0.879, 0.879, 0.476, 341.289, 409.519)" fill="#8ed16f"/>
    <ellipse id="Ellipse_143" data-name="Ellipse 143" cx="2.401" cy="4.808" rx="2.401" ry="4.808" transform="matrix(0.476, -0.879, 0.879, 0.476, 348.669, 409.753)" fill="#8ed16f"/>
    <ellipse id="Ellipse_144" data-name="Ellipse 144" cx="2.401" cy="4.808" rx="2.401" ry="4.808" transform="matrix(0.476, -0.879, 0.879, 0.476, 348.669, 409.753)" opacity="0.1"/>
    <rect id="Rectangle_202" data-name="Rectangle 202" width="11.714" height="22.832" transform="translate(330.121 414.704) rotate(-79.49)" fill="#8ed16f"/>
    <rect id="Rectangle_203" data-name="Rectangle 203" width="11.714" height="22.832" transform="translate(330.121 414.704) rotate(-79.49)" opacity="0.05"/>
    <ellipse id="Ellipse_145" data-name="Ellipse 145" cx="2.401" cy="4.808" rx="2.401" ry="4.808" transform="translate(337.219 412.656) rotate(-79.49)" fill="#8ed16f"/>
    <ellipse id="Ellipse_146" data-name="Ellipse 146" cx="2.401" cy="4.808" rx="2.401" ry="4.808" transform="translate(337.219 412.656) rotate(-79.49)" opacity="0.1"/>
    <rect id="Rectangle_204" data-name="Rectangle 204" width="11.714" height="22.832" transform="translate(332.223 421.617) rotate(-79.49)" fill="#8ed16f"/>
    <ellipse id="Ellipse_147" data-name="Ellipse 147" cx="2.401" cy="4.808" rx="2.401" ry="4.808" transform="translate(339.328 419.571) rotate(-79.49)" fill="#8ed16f"/>
    <ellipse id="Ellipse_148" data-name="Ellipse 148" cx="2.401" cy="4.808" rx="2.401" ry="4.808" transform="translate(339.328 419.571) rotate(-79.49)" opacity="0.1"/>
  </g>
</svg>
