<svg xmlns="http://www.w3.org/2000/svg" width="68" height="68" viewBox="0 0 68 68">
  <g id="Group_4025" data-name="Group 4025" transform="translate(-507 -2106)">
    <circle id="Ellipse_1" data-name="Ellipse 1" cx="34" cy="34" r="34" transform="translate(507 2106)" fill="#f2f2f2"/>
    <g id="Group_3203" data-name="Group 3203" transform="translate(279.63 1502.917)">
      <g id="Group_3195" data-name="Group 3195">
        <path id="Path_145" data-name="Path 145" d="M268.465,623.119H255.006V618.9a3.821,3.821,0,0,1,3.817-3.816h5.825a3.821,3.821,0,0,1,3.817,3.816Zm-10.495-2.964H265.5V618.9a.853.853,0,0,0-.853-.852h-5.825a.854.854,0,0,0-.853.852Z" fill="#a9a9a9"/>
      </g>
      <g id="Group_3196" data-name="Group 3196">
        <path id="Path_146" data-name="Path 146" d="M266.966,628.241h-10.46a3.82,3.82,0,0,1-3.817-3.817v-4.218h18.093v4.218A3.82,3.82,0,0,1,266.966,628.241Zm-11.313-5.072v1.255a.855.855,0,0,0,.853.854h10.46a.854.854,0,0,0,.852-.854v-1.255Z" fill="#a9a9a9"/>
      </g>
      <g id="Group_3197" data-name="Group 3197">
        <path id="Path_147" data-name="Path 147" d="M273.065,659.537H250.406a7.045,7.045,0,0,1-7.036-7.037V627.221a7.046,7.046,0,0,1,7.036-7.037h22.659a7.046,7.046,0,0,1,7.037,7.037V652.5A7.045,7.045,0,0,1,273.065,659.537Zm-22.659-36.389a4.077,4.077,0,0,0-4.073,4.073V652.5a4.078,4.078,0,0,0,4.073,4.074h22.659a4.078,4.078,0,0,0,4.073-4.074V627.221a4.077,4.077,0,0,0-4.073-4.073Z" fill="#a9a9a9"/>
      </g>
      <g id="Group_3202" data-name="Group 3202">
        <g id="Group_3198" data-name="Group 3198">
          <path id="Path_148" data-name="Path 148" d="M268.1,644.579H255.37a1.482,1.482,0,1,1,0-2.964H268.1a1.482,1.482,0,1,1,0,2.964Z" fill="#a9a9a9"/>
        </g>
        <g id="Group_3199" data-name="Group 3199">
          <path id="Path_149" data-name="Path 149" d="M268.1,650.424H255.37a1.482,1.482,0,1,1,0-2.964H268.1a1.482,1.482,0,1,1,0,2.964Z" fill="#a9a9a9"/>
        </g>
        <g id="Group_3200" data-name="Group 3200">
          <path id="Path_150" data-name="Path 150" d="M260.223,638.736H255.37a1.482,1.482,0,0,1,0-2.964h4.853a1.482,1.482,0,0,1,0,2.964Z" fill="#a9a9a9"/>
        </g>
        <g id="Group_3201" data-name="Group 3201">
          <path id="Path_151" data-name="Path 151" d="M266.294,639.174h-.01a1.987,1.987,0,0,1-1.45-.639l-1.9-2.067a1.481,1.481,0,1,1,2.183-2l1.151,1.254,3.347-3.874a1.482,1.482,0,1,1,2.241,1.939l-4.082,4.723A2.017,2.017,0,0,1,266.294,639.174Z" fill="#ec231a"/>
        </g>
      </g>
    </g>
  </g>
</svg>
