<svg xmlns="http://www.w3.org/2000/svg" width="68" height="68" viewBox="0 0 68 68">
  <g id="Group_4015" data-name="Group 4015" transform="translate(-1191 -2464)">
    <circle id="Ellipse_1" data-name="Ellipse 1" cx="34" cy="34" r="34" transform="translate(1191 2464)" fill="#f2f2f2"/>
    <g id="Group_3204" data-name="Group 3204" transform="translate(839.299 2047.995)">
      <path id="Path_152" data-name="Path 152" d="M385.672,466.286l-.723-.417c-16.677-9.633-18.146-18.551-18.2-18.926a10.872,10.872,0,0,1-.31-2.582A11.369,11.369,0,0,1,377.8,433.005a11.229,11.229,0,0,1,7.906,3.214,11.23,11.23,0,0,1,7.907-3.214,11.37,11.37,0,0,1,11.357,11.356,14.7,14.7,0,0,1-.949,4.539c-3.725,9.261-17.047,16.673-17.612,16.984ZM369.8,446.942c.532,1.74,3.312,8.466,15.9,15.929,2.766-1.645,12.705-7.946,15.59-15.118a11.951,11.951,0,0,0,.718-3.392,8.384,8.384,0,0,0-15.112-5.011l-1.188,1.589-1.186-1.589a8.385,8.385,0,0,0-15.114,5.011,8.443,8.443,0,0,0,.255,2.015Z" fill="#a9a9a9"/>
    </g>
    <g id="Group_3205" data-name="Group 3205" transform="translate(839.299 2047.995)">
      <path id="Path_153" data-name="Path 153" d="M387.455,443.456a1.483,1.483,0,0,1-1.372-.922c-.576-1.407-1.8-3.747-2.609-4.3a1.482,1.482,0,1,1,1.688-2.437c1.818,1.259,3.371,4.9,3.664,5.622a1.483,1.483,0,0,1-.811,1.932A1.517,1.517,0,0,1,387.455,443.456Z" fill="#a9a9a9"/>
    </g>
    <g id="Group_3206" data-name="Group 3206" transform="translate(839.299 2047.995)">
      <path id="Path_154" data-name="Path 154" d="M373.2,447a1.484,1.484,0,0,1-1.409-1.023,5.555,5.555,0,0,1,2.779-6.832,1.482,1.482,0,0,1,1.288,2.669,2.662,2.662,0,0,0-1.249,3.245,1.483,1.483,0,0,1-.95,1.869A1.5,1.5,0,0,1,373.2,447Z" fill="#ec231a"/>
    </g>
  </g>
</svg>
