<svg xmlns="http://www.w3.org/2000/svg" width="309.901" height="225.167" viewBox="0 0 309.901 225.167">
  <g id="Group_4045" data-name="Group 4045" transform="translate(-191.988 -1372.165)">
    <g id="Vector_for_omc" data-name="Vector for omc" transform="translate(191.988 1372.165)" opacity="0.96">
      <g id="object" transform="translate(0 0)">
        <path id="Path_812" data-name="Path 812" d="M242.17,549.182v12.905h4.638l2.217-14.518Z" transform="translate(-152.828 -345.55)" fill="#efbfa5"/>
        <path id="Path_813" data-name="Path 813" d="M313.69,544.494l2.513,16.241,5.438-.233-.7-16.322Z" transform="translate(-197.961 -343.411)" fill="#efbfa5"/>
        <path id="Path_814" data-name="Path 814" d="M236.16,412.107V460.3l9.677-.4,5.446-28.434,6.468-26.335Z" transform="translate(-149.035 -255.662)" fill="#8cabef"/>
        <path id="Path_815" data-name="Path 815" d="M297.8,399.89,299,454.4l-10.887-.03-2.369-18.96L275.79,403.28Z" transform="translate(-174.044 -252.356)" fill="#8cabef"/>
        <path id="Path_816" data-name="Path 816" d="M232.375,229.932l-.247.092c-3.918,1.527-7.01,8.364-8.759,12.385-4.564,10.36-6.541,21.17-6.9,32.633-.192,6.172-.122,12.356.077,18.536.052,1.7,1.531,16.971.775,17.34,7.748-3.745,15.654-7.279,23.915-9.415s16.953-2.841,25.3-.893a408.876,408.876,0,0,0-11.522-57.868,50.477,50.477,0,0,0-2-6.755c-1.085-2.446-2.708-3.169-4.763-4.615a13.142,13.142,0,0,0-2.184-1.339A19.229,19.229,0,0,0,232.375,229.932Z" transform="translate(-136.536 -144.339)" fill="#3b3387"/>
        <path id="Path_817" data-name="Path 817" d="M274.011,290.578c-10.33,1.575-27.527,2.782-37.857,4.357-.557-18.679,1.28-40.244,5.785-58.322.819-3.276,2.025-6.818,4.892-8.486,3.07-1.789,9.592-1.546,11.437,1.93,2.741,5.088,3.284,13.182,4.5,18.842C265.552,261.7,272.3,277.584,274.011,290.578Z" transform="translate(-148.971 -143.272)" fill="#eff5f1"/>
        <path id="Path_818" data-name="Path 818" d="M269.974,185.148c-1.535-7.6-11.039-6.172-13.7.033-1.753,4.088.79,10.079,4.9,11.806-.255,1.04-.461,2.092-.624,3.147l3.494.2a1.149,1.149,0,0,0,1-.277,1.073,1.073,0,0,0,.155-.627c.033-.738.063-1.476.1-2.214l.266-.081A7.391,7.391,0,0,0,270,192.066,14.67,14.67,0,0,0,269.974,185.148Z" transform="translate(-161.376 -113.575)" fill="#efbfa5"/>
        <path id="Path_819" data-name="Path 819" d="M280.634,182.722c1.2,2.291.458,5.066-.2,7.438-.59,2.107-.694,3.45,1.7,3.6,1.35.085,3.748.262,4.726-.919.738-.9-.129-3.143-.7-4-.435-.657-1.343-.874-1.76-1.539a2.52,2.52,0,0,1-.3-.919,13.163,13.163,0,0,1-.1-3.955,13.392,13.392,0,0,0,.251-2.678c-.1-1.3-1.251-2.642-1.919-3.741-1.247-2.048-4.8-4.479-7.11-2.339a3.837,3.837,0,0,0-.937,1.9,3.147,3.147,0,0,0-.14,1.265c.255,1.682,1.845,1.716,3.029,2.343A8.541,8.541,0,0,1,280.634,182.722Z" transform="translate(-172.992 -109.072)" fill="#353a85"/>
        <path id="Path_820" data-name="Path 820" d="M240.365,177.358c.1,1.206.941,2.428.45,3.534a5.449,5.449,0,0,1-1.022,1.243,4.272,4.272,0,0,0-.841,4.132l-7.2.893a2.183,2.183,0,0,1-1.081-.048c-.738-.291-.908-1.21-.989-1.985a7.543,7.543,0,0,1,.439-4.5c.347-.624.867-1.136,1.21-1.76,1.656-2.992-1.151-7.312,1.033-9.961.974-1.177,2.608-1.52,3.907-2.324,2.262-1.4,3.446-4.176,5.792-5.431,4.427-2.365,9.928,2.619,7.829,7.261C248.183,172.211,239.967,172.518,240.365,177.358Z" transform="translate(-144.865 -101.314)" fill="#353a85"/>
        <path id="Path_821" data-name="Path 821" d="M232.466,233.47s-3.287,46.387,3.914,55.537S246.663,301.6,246.663,301.6l-29.456,12.267S209.751,249.936,232.466,233.47Z" transform="translate(-136.336 -147.335)" fill="#3b3387"/>
        <path id="Path_822" data-name="Path 822" d="M233.89,583.047l-4.84,4.841,2.42,2.42,7.261-4.438V582.7Z" transform="translate(-144.548 -367.719)" fill="#353a85"/>
        <path id="Path_823" data-name="Path 823" d="M319.32,581.46l5.8.753,5.246,4.619-3.376,1.358-7.567-2.3Z" transform="translate(-201.514 -366.937)" fill="#353a85"/>
        <path id="Path_824" data-name="Path 824" d="M737.58,583.67l.077.826.266,2.748,5.56,2.384,2.383-2.929-2.911-2.564-.269-.118-.033.343Z" transform="translate(-465.461 -368.331)" fill="#292949"/>
        <path id="Path_825" data-name="Path 825" d="M730.4,501.211l.284.037-.184-1.919,5.291,2.265,4.4-46.343.542-2.192c-4.158.063-9.1.122-14.082.162Z" transform="translate(-458.563 -285.909)" fill="#babcbe"/>
        <path id="Path_826" data-name="Path 826" d="M737.265,580.389l5.073.69.033-.343-5.291-2.265Z" transform="translate(-465.145 -365.05)" fill="#909497"/>
        <path id="Path_827" data-name="Path 827" d="M676.55,453.39l1.022,12.135,10.268,31.463,5.014-.668.081.616h.015L689.26,464.51l3.166-11.068C686.611,453.467,680.918,453.464,676.55,453.39Z" transform="translate(-426.947 -286.117)" fill="#babcbe"/>
        <path id="Path_828" data-name="Path 828" d="M702.678,571.472l-.314.041-2.295,3.151,3.037,2.439,4.962-3.5-.291-2.18-4.9.653Z" transform="translate(-441.789 -360.601)" fill="#292949"/>
        <path id="Path_829" data-name="Path 829" d="M707.14,570.418l.2.6,4.9-.653-.081-.616Z" transform="translate(-446.251 -359.547)" fill="#3e3d3b"/>
        <path id="Path_830" data-name="Path 830" d="M770.544,254.667c.646,3.036,3.047,5.265,5.394,7.379a127.446,127.446,0,0,0-5.254-11.736A10.358,10.358,0,0,0,770.544,254.667Z" transform="translate(-486.157 -157.962)" fill="#e0e0e1"/>
        <path id="Path_831" data-name="Path 831" d="M708.3,248.922a8.255,8.255,0,0,1-2.055,1.55,13.4,13.4,0,0,1-6.338,1.35,24.4,24.4,0,0,0-5.221.17,4.83,4.83,0,0,0-3.826,3.177c-.24.937-.162,2.11-.97,2.634a2.46,2.46,0,0,1-1.306.28c-1.384.041-2.952,0-3.881-1.018-1.435-1.586-.6-4.77-2.538-5.671a7.112,7.112,0,0,0-1.845-.328c-2.627-.443-3.911-3.413-3.66-6.139a6.783,6.783,0,0,1,.369-1.642c1.085-3.025,3.6-5.272,5.5-7.862,3.715-5.058,6.231-11.806,3.944-17.8a15.606,15.606,0,0,1-.605-1.708,3.951,3.951,0,0,1-.144-.974c-.033-1.786,1.295-3.254,2.151-4.822a4.865,4.865,0,0,0,.229-.461,8.593,8.593,0,0,0,.439-1.306l-.369.177a5.966,5.966,0,0,1-2.952,1.4l-10.3,4.907L670.8,231.645l-2.834,11.533-.044.17L657.27,298.431c1.269.162,3.811.266,7.113.325,4.368.074,10.061.078,15.883.041l2.582-.018c4.981-.041,9.924-.1,14.082-.162,6.379-.092,10.914-.184,10.914-.184S711.737,269.963,708.3,248.922Z" transform="translate(-414.78 -131.483)" fill="#474ebb"/>
        <path id="Path_832" data-name="Path 832" d="M733,210.228a5.964,5.964,0,0,0,2.952-1.4Z" transform="translate(-462.57 -131.786)" fill="#e1cfb5"/>
        <path id="Path_833" data-name="Path 833" d="M718.238,166.543a5.319,5.319,0,0,0-3.756-1.158c-.66,0-.882.166-1.225.107a1.609,1.609,0,0,1-.583-.258,3.76,3.76,0,0,1-1.185-1.793A5.888,5.888,0,0,0,708.985,168a17.089,17.089,0,0,0,.564,7.5,9.276,9.276,0,0,0,4.97,5.682c.136.055.269.1.406.144a5.952,5.952,0,0,0,2.826.251l2.951-1.4c.148-.125.288-.255.428-.395C722.079,175.611,721.035,169.007,718.238,166.543Z" transform="translate(-447.31 -103.142)" fill="#f4c7b3"/>
        <path id="Path_834" data-name="Path 834" d="M735.029,197.5l-.966-.867c.214.546.424,1.107.638,1.664s.421,1.136.631,1.716q.2.557.387,1.14-.188-.583-.387-1.14-.313-.871-.631-1.716c-.214-.561-.424-1.107-.638-1.664-2.347-2.11-4.748-4.339-5.394-7.379a10.356,10.356,0,0,1,.14-4.361c.5-2.332,1.439-4.671,1.686-7.054a46.107,46.107,0,0,0-.907-13.946,29.7,29.7,0,0,0-6.176-11.5c-3.383-4.084-9.666-8.652-14.119-3.32-.052.059-.1.122-.148.188a8.266,8.266,0,0,0-1.513-.583c-3.077,2.583-3.866,6.759-3.546,10.592s2.262,8.187,1.169,11.994a4.023,4.023,0,0,0-.24,1.107.977.977,0,0,0,.539.926,1.376,1.376,0,0,0,.671.048c1.882-.243,3.929-.568,5.206-1.974a3.4,3.4,0,0,0,.454-.627c-.136-.044-.27-.089-.406-.144a9.266,9.266,0,0,1-4.97-5.682,17.093,17.093,0,0,1-.564-7.5,5.887,5.887,0,0,1,2.505-4.564,3.793,3.793,0,0,0,1.184,1.793,1.614,1.614,0,0,0,.583.258c.343.059.565-.111,1.225-.107a5.257,5.257,0,0,1,3.756,1.159c2.8,2.465,3.841,9.069,2.878,13.249a10.392,10.392,0,0,0,1.956-11.16c-.1-.207-.2-.409-.314-.609.111.2.214.4.314.609a10.392,10.392,0,0,1-1.956,11.16,1.181,1.181,0,0,1-.051.218,8.6,8.6,0,0,1-.439,1.306,4.931,4.931,0,0,1-.229.461c-.856,1.568-2.184,3.036-2.151,4.822a3.942,3.942,0,0,0,.144.974,15.615,15.615,0,0,0,.6,1.708c2.287,5.988-.229,12.743-3.944,17.8-1.9,2.583-4.427,4.837-5.5,7.862a6.774,6.774,0,0,0-.369,1.642c-.251,2.726,1.033,5.7,3.66,6.139a7.168,7.168,0,0,1,1.845.328c1.941.9,1.107,4.084,2.538,5.671.93,1.022,2.5,1.059,3.881,1.018a2.46,2.46,0,0,0,1.306-.28c.808-.524.738-1.7.97-2.634a4.85,4.85,0,0,1,3.826-3.177,23.942,23.942,0,0,1,5.221-.17,13.362,13.362,0,0,0,6.338-1.35,8.246,8.246,0,0,0,2.055-1.55q-.111-.675-.233-1.339.122.664.233,1.339a6.618,6.618,0,0,0,1.819-3.446C740.213,203.062,737.642,199.878,735.029,197.5Zm-19.882-44.48a10.333,10.333,0,0,1,1.066.616A10.333,10.333,0,0,0,715.147,153.019Z" transform="translate(-444.282 -92.551)" fill="#292949"/>
        <path id="Path_835" data-name="Path 835" d="M616.322,176.64l-1.468-2.653.782-2.557-.457-.439-.564.542.041-2.31-1.173-1.465-2.487.137-1.944,1.69.395,2.457,1.871,2.295,1.852,3.719Z" transform="translate(-384.35 -105.868)" fill="#f4c7b3"/>
        <path id="Path_836" data-name="Path 836" d="M620.4,186.1l-4.435,1.133,9.593,23.1,21.605,3.807,3.058-12.592-19.277-2.306Z" transform="translate(-388.718 -117.442)" fill="#474ebb"/>
        <path id="Path_837" data-name="Path 837" d="M132.1,401.379l-1.863,25.468-6.161,42.163h-4.737l-2.992-38.9L115.02,398.63Z" transform="translate(-72.589 -251.56)" fill="#353a85"/>
        <path id="Path_838" data-name="Path 838" d="M126.79,587.86v2.564l5.125,2.561,2.564-2.561-2.564-2.564Z" transform="translate(-80.016 -370.976)" fill="#292949"/>
        <path id="Path_839" data-name="Path 839" d="M70.34,384.654l1.8,35.7,4.121,40.982h4.855l3.944-38.827,5.763-40.868Z" transform="translate(-44.393 -240.839)" fill="#353a85"/>
        <path id="Path_840" data-name="Path 840" d="M86.01,596.08v2.627l-5.246,2.623-2.623-2.623,2.623-2.627Z" transform="translate(-49.315 -376.163)" fill="#292949"/>
        <path id="Path_841" data-name="Path 841" d="M101.577,204.31l-4.966-.487a25.047,25.047,0,0,1,.262-3.966c-1.38-.483-2.974-1.206-3.217-2.649a4.1,4.1,0,0,1,.077-1.372q.487-2.819.967-5.634a4.988,4.988,0,0,1,.583-1.874,4.229,4.229,0,0,1,2.952-1.6,10.291,10.291,0,0,1,8.327,2.018,4.5,4.5,0,0,1,1.409,1.845,6.132,6.132,0,0,1-.2,3.568c-.284,1.081-.564,2.162-.849,3.243-.325,1.243-.793,2.656-1.989,3.125a10.621,10.621,0,0,0-1.963.542C101.964,201.72,102.1,203.229,101.577,204.31Z" transform="translate(-59.091 -117.728)" fill="#f4c7b3"/>
        <path id="Path_842" data-name="Path 842" d="M102.771,167.739a13.452,13.452,0,0,0-.1-4.3c-.184-.878-1.31-3.649-.967-4.427-.638,1.354-2.365,1.73-3.855,1.878-5.589.557-11.806-.823-16.971,2.044a6.667,6.667,0,0,0-2.269,2.243,9.991,9.991,0,0,0,0,10.57A14.389,14.389,0,0,0,80.17,177.7c1.173,1.269,2.583,2.837,4.187,3.32.037-1.443-1.28-5.988-.177-7.172,1.553-1.66,4.379-1.336,6.394-1.052a29.585,29.585,0,0,0,7.726.041,9.09,9.09,0,0,0,2.476-.524c1.871-.782,1.808-2.52,1.974-4.295C102.753,167.92,102.764,167.831,102.771,167.739Z" transform="translate(-48.66 -100.346)" fill="#292949"/>
        <path id="Path_843" data-name="Path 843" d="M12.2,328.433l-.354,3.125,1.76,2.14-.266.6-.756-.3.952,2.2-.539,1.863-2.439.86-2.531-.852-.594-2.509.882-2.937.3-4.295Z" transform="translate(-4.693 -207.197)" fill="#f4c7b3"/>
        <path id="Path_844" data-name="Path 844" d="M13.847,270.427l-4.7.672.044-25.918,27.313-12.16-.125,14.1-16.256,6.032Z" transform="translate(-5.779 -147.051)" fill="#5d66d3"/>
        <path id="Path_845" data-name="Path 845" d="M171.125,128.336l.162-3.136-1.889-2.029.225-.62.775.251-1.088-2.132.428-1.9,2.376-1,2.579.69.749,2.468-.7,2.988-.037,4.306Z" transform="translate(-106.849 -74.321)" fill="#f4c7b3"/>
        <path id="Path_846" data-name="Path 846" d="M140.844,139.079l4.645-.959.369,17.872-1.826,13.81-11.876,17.436-9.725-14.071,11.29-8.3Z" transform="translate(-77.265 -87.163)" fill="#5d66d3"/>
        <path id="Path_847" data-name="Path 847" d="M74.254,231.22l-15.691.664-7.921,30.15L44.1,303.828l50.5,1.229L82.724,245.989Z" transform="translate(-27.834 -145.915)" fill="#5d66d3"/>
        <path id="Path_848" data-name="Path 848" d="M571.128,574.29l.388,3-5.619,3.774-3.387-2.616,2.616-3.387,5.615-3.771Z" transform="translate(-354.981 -360.519)" fill="#292949"/>
        <path id="Path_849" data-name="Path 849" d="M544.635,420.831,540.3,382.557l5.213-42.849-1.173-9.113-23.276-.885-.838,14.835,3.907,38.071,14.7,40.17Z" transform="translate(-328.3 -208.068)" fill="#292949"/>
        <path id="Path_850" data-name="Path 850" d="M473.39,214.93l-11.707,3.188L448.14,242.11l6.416,5.94,9.028-10.688Z" transform="translate(-282.807 -135.635)" fill="#babcbe"/>
        <path id="Path_851" data-name="Path 851" d="M476.1,334.985l-.063,38.621,7.777,49.722,5.593-.055,3.077-45.981,7.2-46.022Z" transform="translate(-300.413 -209.052)" fill="#292949"/>
        <path id="Path_852" data-name="Path 852" d="M496.736,581.865l-6.021,3.084-3.055-3,3-3.055,6.051-.059Z" transform="translate(-307.746 -365.283)" fill="#292949"/>
        <path id="Path_853" data-name="Path 853" d="M503.7,274.261c-.055-1.675-.148-3.07-.159-3.568-.122-4.49-.52-8.973-1.085-13.43-.5-4-1.14-13.913-1.822-17.883-.565-3.276-2.531-11.459-3.951-14.5-3.534-7.563-2.442-8.261-17.968-10.507-6.807-.985-8.416,3.258-13.975,8.117-.55.48-.52,3.343-.646,4.1-.225,1.336-.465,2.667-.738,4-.218,1.04-.454,2.081-.738,3.114h0s-4.671,21.251-7.748,25.767-9.467,10.821,1.206,14.677a38.248,38.248,0,0,0,5.763,1.5s8.729-.97,13.216-.937a76.53,76.53,0,0,1,12.352,1.151,26.389,26.389,0,0,1,7.921,2.383c2.321,1.214,3.992,3,6.346,4.25a1.227,1.227,0,0,0,.738.207C503.75,282.533,503.813,277.785,503.7,274.261Z" transform="translate(-284.076 -135.194)" fill="#babcbe"/>
        <path id="Path_854" data-name="Path 854" d="M501.576,299.857l5.553,1.387.7-2.346-3.594-1.789.845-.959-4.9-.609-1.052,2.343Z" transform="translate(-314.984 -186.505)" fill="#d6c7ac"/>
        <path id="Path_855" data-name="Path 855" d="M468.081,289.44l1.446-5.829-13.769-5.08-7.619,3.715,2.346,7.143Z" transform="translate(-282.807 -175.77)" fill="#454446"/>
        <path id="Path_856" data-name="Path 856" d="M515.659,188.555a6.478,6.478,0,0,0,4.56-.229,1.01,1.01,0,0,0,.646-.944,26.451,26.451,0,0,0-.28-3.5c1.446-.509,3.118-1.273,3.369-2.785a4.31,4.31,0,0,0-.085-1.439l-1.018-5.9a5.244,5.244,0,0,0-.616-1.963,4.415,4.415,0,0,0-3.1-1.679,10.787,10.787,0,0,0-8.729,2.129,4.732,4.732,0,0,0-1.476,1.944,6.371,6.371,0,0,0,.214,3.737q.443,1.7.893,3.4c.339,1.3.834,2.782,2.092,3.273.664.258,1.454.181,2.055.568C515.249,185.825,515.095,187.423,515.659,188.555Z" transform="translate(-321.036 -107.242)" fill="#f4c7b3"/>
        <path id="Path_857" data-name="Path 857" d="M473.147,150.886a12.54,12.54,0,0,0-.985-1.409,25.65,25.65,0,0,1-2.372-2.859,3.226,3.226,0,0,1-.1-3.5,3.835,3.835,0,0,1,2.047-1.177,14.82,14.82,0,0,1,7.814-.144c2.435.62,4.615,1.645,7.065.738,2.3-.86,3.966-.509,6.372.347,2.6.93,6.1,1.151,8.456,2.461a6.983,6.983,0,0,1,2.383,2.35,10.478,10.478,0,0,1,.03,11.068,14.84,14.84,0,0,1-1.631,2.055c-1.229,1.336-2.7,2.981-4.391,3.472-.041-1.509,1.339-6.272.177-7.515-1.845-1.966-6.01-1.28-8.294-.8-2.494.528-4.715,2.291-7.187,2.671a9.324,9.324,0,0,1-5.564-1.52C475.106,155.989,474.239,152.679,473.147,150.886Z" transform="translate(-296.107 -89.194)" fill="#292949"/>
        <path id="Path_858" data-name="Path 858" d="M562.51,222.5l9.688,8.486,10.909,23.1-16.1.1Z" transform="translate(-354.981 -140.412)" fill="#babcbe"/>
        <path id="Path_859" data-name="Path 859" d="M336.089,228.315c-12.356-.387-27.516,6.951-30.689,17.646-4.217-10.33-23.424-15.864-35.68-14.234-32.349,4.265-41.536,41.034-26.564,64.7,8.065,12.74,19.288,23.671,31.423,33.386,10.161,8.135,36.156,25.162,36.245,25.088.077.059,24.265-19.473,33.574-28.575,11.109-10.873,21.188-22.874,27.944-36.344C384.9,264.947,368.692,229.341,336.089,228.315Z" transform="translate(-149.04 -144.073)" fill="#fff"/>
        <path id="Path_860" data-name="Path 860" d="M682.229,245.986c-6.947-.218-15.466,3.907-17.248,9.917-2.372-5.8-13.164-8.906-20.052-8-18.181,2.4-23.343,23.059-14.924,36.363,4.534,7.161,10.84,13.3,17.661,18.761,5.708,4.571,20.325,14.164,20.369,14.108.044.033,13.651-10.943,18.864-16.06,6.243-6.11,11.906-12.85,15.706-20.425C709.66,266.577,700.573,246.569,682.229,245.986Z" transform="translate(-395.094 -155.228)" fill="#eed5d5"/>
        <path id="Path_861" data-name="Path 861" d="M47.7,246.7c-5.25-1.409-12.478.214-14.909,4.472-.771-4.844-8.438-9.135-13.846-9.674C4.671,240.073-2.944,254.9,1.085,266.533c2.173,6.272,5.881,12.072,10.1,17.447,3.531,4.5,12.957,14.389,13,14.389s12.345-5.9,17.241-8.855c5.844-3.538,11.363-7.659,15.61-12.754C64.941,267.282,61.566,250.411,47.7,246.7Z" transform="translate(-0.012 -152.34)" fill="#fff"/>
        <path id="Path_862" data-name="Path 862" d="M589.861,53.819c-4.774.218-10.4,3.5-11.3,7.715-1.937-3.852-9.5-5.412-14.175-4.427-12.341,2.612-14.787,17.06-8.323,25.73a54.1,54.1,0,0,0,13.1,11.932c4.154,2.83,14.688,8.618,14.713,8.593s8.773-8.227,12.087-12.013a54.1,54.1,0,0,0,9.685-14.839C609.762,66.485,602.457,53.243,589.861,53.819Z" transform="translate(-348.722 -33.953)" fill="#fff"/>
        <path id="Path_863" data-name="Path 863" d="M193.956,5.471c-5.8-1.476-13.75.369-16.377,5.114C176.671,5.253,168.167.623,162.2.088,146.444-1.307,138.22,15.13,142.824,27.9c2.472,6.877,6.641,13.234,11.345,19.107,3.951,4.918,14.459,15.717,14.5,15.695.03.037,13.533-6.641,18.894-9.98,6.4-3.974,12.433-8.585,17.052-14.249C213.189,27.947,209.278,9.4,193.956,5.471Z" transform="translate(-89.332 -0.005)" fill="#fff"/>
        <path id="Path_864" data-name="Path 864" d="M213.347,233.47l-8.954,4.973L188.06,266.472l2.018,5.446,24.8,11.293,3.35-5.043-18.06-13.127,12.7-17.724Z" transform="translate(-118.681 -147.335)" fill="#3b3387"/>
        <path id="Path_865" data-name="Path 865" d="M265.355,356.8l5.047,2.221.808,5.848-3.025.808-4.6-6.206Z" transform="translate(-166.339 -225.163)" fill="#efbfa5"/>
        <path id="Path_866" data-name="Path 866" d="M778.28,241.529l4.036-2.62,4.25,2.221-.48,3.822h-5.161Z" transform="translate(-491.145 -150.768)" fill="#f4c7b3"/>
        <path id="Path_867" data-name="Path 867" d="M597.82,305.439l4.036-2.62,4.25,2.221-.48,3.819h-5.161Z" transform="translate(-377.264 -191.099)" fill="#f4c7b3"/>
        <path id="Path_868" data-name="Path 868" d="M464.81,227.243l4.036-2.623,4.254,2.221-.483,3.822h-5.161Z" transform="translate(-293.327 -141.75)" fill="#f4c7b3"/>
        <path id="Path_869" data-name="Path 869" d="M312.19,235.429l4.04-2.619,4.25,2.221L320,238.853h-5.162Z" transform="translate(-197.014 -146.918)" fill="#efbfa5"/>
      </g>
    </g>
  </g>
</svg>
