<svg xmlns="http://www.w3.org/2000/svg" width="68" height="68" viewBox="0 0 68 68">
  <g id="Group_4022" data-name="Group 4022" transform="translate(-1037 -2106)">
    <circle id="Ellipse_1" data-name="Ellipse 1" cx="34" cy="34" r="34" transform="translate(1037 2106)" fill="#f2f2f2"/>
    <g id="Group_3174" data-name="Group 3174" transform="translate(440.431 1690.193)">
      <g id="Group_3165" data-name="Group 3165">
        <path id="Path_126" data-name="Path 126" d="M629.191,451.814h-6.25a1.482,1.482,0,0,1,0-2.964h6.25a1.482,1.482,0,0,1,0,2.964Z" fill="#ec231a"/>
      </g>
      <g id="Group_3166" data-name="Group 3166">
        <path id="Path_127" data-name="Path 127" d="M626.067,454.94a1.481,1.481,0,0,1-1.482-1.482v-6.25a1.481,1.481,0,1,1,2.963,0v6.25A1.481,1.481,0,0,1,626.067,454.94Z" fill="#ec231a"/>
      </g>
      <g id="Group_3167" data-name="Group 3167">
        <path id="Path_128" data-name="Path 128" d="M651.478,464.55a1.594,1.594,0,0,1-1.462-.678,1.485,1.485,0,0,1-.194-.4l-.312-.7.431-.466a1.482,1.482,0,0,1,1.621-.723l1.524-.018a.589.589,0,0,0,.581-.59v-6.35a.583.583,0,0,0-.113-.347l-9-12.355-34.15-.061a.147.147,0,0,0-.147.147v20.93a1.482,1.482,0,0,1-2.964,0v-20.93A3.114,3.114,0,0,1,610.4,438.9h34.031a3.119,3.119,0,0,1,2.514,1.279l9,12.356a3.535,3.535,0,0,1,.681,2.092v6.35a3.56,3.56,0,0,1-3.52,3.554l-1.508.017Z" fill="#a9a9a9"/>
      </g>
      <g id="Group_3168" data-name="Group 3168">
        <path id="Path_129" data-name="Path 129" d="M610.931,464.422h-4.943a1.481,1.481,0,0,1,0-2.963h4.943a1.481,1.481,0,1,1,0,2.963Z" fill="#a9a9a9"/>
      </g>
      <g id="Group_3169" data-name="Group 3169">
        <path id="Path_130" data-name="Path 130" d="M636.122,464.422h-10.87a1.481,1.481,0,1,1,0-2.963h10.87a1.481,1.481,0,0,1,0,2.963Z" fill="#a9a9a9"/>
      </g>
      <g id="Group_3170" data-name="Group 3170">
        <path id="Path_131" data-name="Path 131" d="M618.149,467.746a4.021,4.021,0,1,1,4.022-4.021A4.026,4.026,0,0,1,618.149,467.746Zm0-5.079a1.058,1.058,0,1,0,1.058,1.058A1.06,1.06,0,0,0,618.149,462.667Z" fill="#a9a9a9"/>
      </g>
      <g id="Group_3171" data-name="Group 3171">
        <path id="Path_132" data-name="Path 132" d="M643.34,467.746a4.021,4.021,0,1,1,4.022-4.021A4.026,4.026,0,0,1,643.34,467.746Zm0-5.079a1.058,1.058,0,1,0,1.058,1.058A1.059,1.059,0,0,0,643.34,462.667Z" fill="#a9a9a9"/>
      </g>
      <g id="Group_3172" data-name="Group 3172">
        <path id="Path_133" data-name="Path 133" d="M653.4,455.064H642.447a3.753,3.753,0,0,1-3.749-3.749v-4.363a3.753,3.753,0,0,1,3.749-3.748h5.172a1.481,1.481,0,0,1,0,2.963h-5.172a.786.786,0,0,0-.785.785v4.363a.786.786,0,0,0,.785.785H653.4a1.482,1.482,0,0,1,0,2.964Z" fill="#a9a9a9"/>
      </g>
      <g id="Group_3173" data-name="Group 3173">
        <path id="Rectangle_56" data-name="Rectangle 56" d="M1.38,0H2.71A1.38,1.38,0,0,1,4.09,1.38V3.92a0,0,0,0,1,0,0H0a0,0,0,0,1,0,0V1.38A1.38,1.38,0,0,1,1.38,0Z" transform="translate(624.021 432.807)" fill="#ec231a"/>
      </g>
    </g>
  </g>
</svg>
