<svg width="377" height="215" viewBox="0 0 377 215" fill="none" xmlns="http://www.w3.org/2000/svg">
<circle cx="188.5" cy="53.5" r="53.1065" stroke="#4A4A4A" stroke-width="0.787072" stroke-dasharray="7.87 7.87"/>
<path d="M240.546 148.444C241.184 151.149 241.621 153.933 241.839 156.778L241.447 156.809C241.552 158.192 241.606 159.589 241.606 161C241.606 162.411 241.552 163.808 241.447 165.191L241.839 165.222C241.621 168.067 241.184 170.851 240.546 173.556L240.163 173.466C239.515 176.212 238.658 178.876 237.61 181.44L237.974 181.589C236.902 184.21 235.631 186.728 234.181 189.123L233.844 188.919C232.392 191.318 230.758 193.592 228.961 195.723L229.262 195.976C227.446 198.131 225.465 200.139 223.339 201.982L223.081 201.685C220.973 203.513 218.72 205.177 216.344 206.657L216.552 206.991C214.172 208.473 211.668 209.772 209.061 210.868L208.908 210.506C206.353 211.58 203.696 212.459 200.957 213.124L201.05 213.506C198.348 214.162 195.566 214.61 192.721 214.834L192.69 214.442C191.308 214.551 189.91 214.606 188.5 214.606C187.09 214.606 185.692 214.551 184.31 214.442L184.279 214.834C181.434 214.61 178.652 214.162 175.95 213.506L176.043 213.124C173.304 212.459 170.647 211.58 168.092 210.506L167.939 210.868C165.332 209.772 162.828 208.473 160.448 206.991L160.656 206.657C158.28 205.177 156.027 203.513 153.919 201.685L153.661 201.982C151.535 200.139 149.554 198.131 147.738 195.976L148.039 195.723C146.242 193.592 144.608 191.318 143.156 188.919L142.819 189.123C141.369 186.728 140.098 184.21 139.026 181.589L139.39 181.44C138.342 178.876 137.485 176.212 136.837 173.466L136.454 173.556C135.816 170.851 135.379 168.067 135.161 165.222L135.553 165.191C135.448 163.808 135.394 162.411 135.394 161C135.394 159.589 135.448 158.192 135.553 156.809L135.161 156.778C135.379 153.933 135.816 151.149 136.454 148.444L136.837 148.534C137.485 145.788 138.342 143.124 139.39 140.56L139.026 140.411C140.098 137.79 141.369 135.272 142.819 132.877L143.156 133.081C144.608 130.682 146.242 128.408 148.039 126.277L147.738 126.024C149.554 123.869 151.535 121.861 153.661 120.018L153.919 120.315C156.027 118.487 158.28 116.823 160.656 115.343L160.448 115.009C162.828 113.527 165.332 112.228 167.939 111.132L168.092 111.494C170.647 110.42 173.304 109.541 176.043 108.876L175.95 108.494C178.652 107.838 181.434 107.39 184.279 107.166L184.31 107.558C185.692 107.449 187.09 107.394 188.5 107.394C189.91 107.394 191.308 107.449 192.69 107.558L192.721 107.166C195.566 107.39 198.348 107.838 201.05 108.494L200.957 108.876C203.696 109.541 206.353 110.42 208.908 111.494L209.061 111.132C211.668 112.228 214.172 113.527 216.552 115.009L216.344 115.343C218.72 116.823 220.973 118.487 223.081 120.315L223.339 120.018C225.465 121.861 227.446 123.869 229.262 126.024L228.961 126.277C230.758 128.408 232.392 130.682 233.844 133.081L234.181 132.877C235.631 135.272 236.902 137.79 237.974 140.411L237.61 140.56C238.658 143.124 239.515 145.788 240.163 148.534L240.546 148.444Z" stroke="#4A4A4A" stroke-width="0.787072" stroke-dasharray="7.87 7.87"/>
<path d="M107.278 107.278C107.432 107.125 107.432 106.875 107.278 106.722L104.774 104.217C104.62 104.064 104.371 104.064 104.217 104.217C104.064 104.371 104.064 104.62 104.217 104.774L106.443 107L104.217 109.226C104.064 109.38 104.064 109.629 104.217 109.783C104.371 109.936 104.62 109.936 104.774 109.783L107.278 107.278ZM0 107.394H107V106.606H0V107.394Z" fill="#4A4A4A"/>
<path d="M269.722 107.278C269.568 107.125 269.568 106.875 269.722 106.722L272.226 104.217C272.38 104.064 272.629 104.064 272.783 104.217C272.936 104.371 272.936 104.62 272.783 104.774L270.557 107L272.783 109.226C272.936 109.38 272.936 109.629 272.783 109.783C272.629 109.936 272.38 109.936 272.226 109.783L269.722 107.278ZM377 107.394H270V106.606H377V107.394Z" fill="#4A4A4A"/>
<path d="M241.606 108C241.606 137.609 217.826 161.606 188.5 161.606C159.174 161.606 135.394 137.609 135.394 108C135.394 78.3905 159.174 54.3935 188.5 54.3935C217.826 54.3935 241.606 78.3905 241.606 108Z" stroke="#FF0000" stroke-width="0.787072"/>
</svg>
