<svg width="250" height="250" viewBox="0 0 250 250" fill="none" xmlns="http://www.w3.org/2000/svg">
<circle cx="125" cy="187.791" r="61.8158" transform="rotate(-180 125 187.791)" stroke="#4A4A4A" stroke-width="0.787072" stroke-dasharray="7.87 7.87"/>
<path d="M63.9641 74.9908C63.4478 72.344 63.0962 69.6374 62.9207 66.8825L63.3134 66.8575C63.2277 65.5131 63.1842 64.1571 63.1842 62.7908C63.1842 61.4245 63.2277 60.0685 63.3134 58.7242L62.9207 58.6991C63.0962 55.9442 63.4478 53.2377 63.9641 50.5909L64.3504 50.6662C64.8742 47.9812 65.5686 45.3581 66.4218 42.8087L66.0486 42.6838C66.9198 40.0808 67.9554 37.5543 69.143 35.1168L69.4968 35.2892C70.6891 32.8422 72.0355 30.4855 73.5233 28.232L73.1949 28.0152C74.7014 25.7333 76.352 23.5567 78.1334 21.4984L78.431 21.756C80.2063 19.7049 82.1124 17.7721 84.1362 15.971L83.8746 15.677C85.9106 13.8651 88.0649 12.1855 90.3244 10.6515L90.5454 10.9771C92.7818 9.45887 95.1219 8.08427 97.5525 6.86641L97.3763 6.51456C99.8027 5.2988 102.319 4.23821 104.912 3.34566L105.04 3.71777C107.584 2.84245 110.202 2.12978 112.882 1.59205L112.805 1.2062C115.449 0.675615 118.154 0.314264 120.908 0.133783L120.934 0.526476C122.278 0.438402 123.634 0.393679 125 0.393679C126.366 0.393679 127.722 0.438403 129.066 0.526477L129.092 0.133784C131.846 0.314265 134.551 0.675616 137.195 1.2062L137.118 1.59205C139.798 2.12979 142.416 2.84246 144.96 3.71778L145.088 3.34566C147.681 4.23822 150.197 5.29881 152.624 6.51458L152.447 6.86642C154.878 8.08428 157.218 9.45888 159.455 10.9771L159.676 10.6516C161.935 12.1855 164.089 13.8651 166.125 15.6771L165.864 15.971C167.888 17.7722 169.794 19.7049 171.569 21.756L171.867 21.4985C173.648 23.5567 175.299 25.7333 176.805 28.0152L176.477 28.232C177.964 30.4855 179.311 32.8422 180.503 35.2892L180.857 35.1169C182.045 37.5543 183.08 40.0809 183.951 42.6838L183.578 42.8087C184.431 45.3581 185.126 47.9812 185.65 50.6662L186.036 50.5909C186.552 53.2377 186.904 55.9443 187.079 58.6992L186.687 58.7242C186.772 60.0685 186.816 61.4245 186.816 62.7908C186.816 64.1572 186.772 65.5131 186.687 66.8575L187.079 66.8825C186.904 69.6374 186.552 72.344 186.036 74.9908L185.65 74.9155C185.126 77.6005 184.431 80.2236 183.578 82.7729L183.951 82.8978C183.08 85.5008 182.045 88.0274 180.857 90.4648L180.503 90.2925C179.311 92.7395 177.964 95.0962 176.477 97.3497L176.805 97.5665C175.299 99.8483 173.648 102.025 171.867 104.083L171.569 103.826C169.794 105.877 167.888 107.81 165.864 109.611L166.125 109.905C164.089 111.717 161.935 113.396 159.676 114.93L159.455 114.605C157.218 116.123 154.878 117.497 152.447 118.715L152.624 119.067C150.197 120.283 147.681 121.343 145.088 122.236L144.959 121.864C142.416 122.739 139.798 123.452 137.118 123.99L137.195 124.375C134.551 124.906 131.846 125.267 129.092 125.448L129.066 125.055C127.722 125.143 126.366 125.188 125 125.188C123.634 125.188 122.278 125.143 120.934 125.055L120.908 125.448C118.154 125.267 115.449 124.906 112.805 124.375L112.882 123.99C110.202 123.452 107.584 122.739 105.04 121.864L104.912 122.236C102.319 121.343 99.8027 120.283 97.3762 119.067L97.5525 118.715C95.1219 117.497 92.7818 116.123 90.5454 114.605L90.3244 114.93C88.0649 113.396 85.9106 111.717 83.8746 109.905L84.1362 109.611C82.1124 107.81 80.2063 105.877 78.431 103.826L78.1334 104.083C76.3519 102.025 74.7014 99.8483 73.1949 97.5665L73.5233 97.3497C72.0355 95.0962 70.6891 92.7395 69.4968 90.2924L69.143 90.4648C67.9554 88.0273 66.9198 85.5008 66.0486 82.8978L66.4218 82.7729C65.5686 80.2236 64.8742 77.6005 64.3504 74.9154L63.9641 74.9908Z" stroke="#4A4A4A" stroke-width="0.787072" stroke-dasharray="7.87 7.87"/>
<path d="M214.838 125.303C214.684 125.457 214.684 125.706 214.838 125.86L217.342 128.364C217.496 128.518 217.745 128.518 217.899 128.364C218.053 128.211 218.053 127.961 217.899 127.808L215.673 125.582L217.899 123.355C218.053 123.202 218.053 122.953 217.899 122.799C217.745 122.645 217.496 122.645 217.342 122.799L214.838 125.303ZM250 125.188L215.116 125.188L215.116 125.975L250 125.975L250 125.188Z" fill="#4A4A4A"/>
<path d="M35.162 125.303C35.3157 125.457 35.3157 125.706 35.162 125.86L32.6575 128.364C32.5039 128.518 32.2547 128.518 32.101 128.364C31.9473 128.211 31.9473 127.961 32.101 127.808L34.3272 125.582L32.101 123.355C31.9473 123.202 31.9473 122.953 32.101 122.799C32.2547 122.645 32.5039 122.645 32.6575 122.799L35.162 125.303ZM3.4404e-08 125.188L34.8837 125.188L34.8837 125.975L-3.4404e-08 125.975L3.4404e-08 125.188Z" fill="#4A4A4A"/>
<path d="M63.1842 124.419C63.1842 89.9543 90.8635 62.0216 125 62.0216C159.136 62.0216 186.816 89.9543 186.816 124.419C186.816 158.883 159.136 186.816 125 186.816C90.8635 186.816 63.1842 158.883 63.1842 124.419Z" stroke="#FF0000" stroke-width="0.787072"/>
</svg>
