<svg width="215" height="215" viewBox="0 0 215 215" fill="none" xmlns="http://www.w3.org/2000/svg">
<circle cx="161.5" cy="107.5" r="53.1065" transform="rotate(90 161.5 107.5)" stroke="#4A4A4A" stroke-width="0.787072" stroke-dasharray="7.87 7.87"/>
<path d="M66.5564 159.546C63.8513 160.184 61.0673 160.621 58.2215 160.839L58.1915 160.447C56.8084 160.552 55.4106 160.606 54 160.606C52.5894 160.606 51.1916 160.552 49.8085 160.447L49.7785 160.839C46.9327 160.621 44.1487 160.184 41.4436 159.546L41.534 159.163C38.788 158.515 36.124 157.658 33.56 156.61L33.4111 156.974C30.7895 155.902 28.2718 154.631 25.877 153.181L26.0809 152.844C23.6823 151.392 21.408 149.758 19.2773 147.961L19.0236 148.262C16.8692 146.446 14.8607 144.465 13.0178 142.339L13.3151 142.081C11.4871 139.973 9.82333 137.72 8.34337 135.344L8.00931 135.552C6.5274 133.172 5.22841 130.668 4.13173 128.061L4.4945 127.908C3.41987 125.353 2.54099 122.696 1.87641 119.957L1.49397 120.05C0.838346 117.348 0.389707 114.566 0.165616 111.721L0.557935 111.69C0.449018 110.308 0.393537 108.91 0.393537 107.5C0.393537 106.09 0.449018 104.692 0.557935 103.31L0.165617 103.279C0.389707 100.434 0.838346 97.6523 1.49397 94.9501L1.87641 95.0429C2.54099 92.3038 3.41987 89.6474 4.4945 87.0919L4.13173 86.9394C5.2284 84.3315 6.5274 81.8281 8.00931 79.4483L8.34338 79.6564C9.82333 77.2798 11.4871 75.0274 13.3151 72.9186L13.0178 72.6608C14.8607 70.5349 16.8692 68.5539 19.0236 66.7377L19.2773 67.0386C21.408 65.2422 23.6823 63.6082 26.0809 62.1557L25.877 61.819C28.2718 60.3688 30.7896 59.0982 33.4111 58.0261L33.56 58.3904C36.124 57.3419 38.788 56.4848 41.534 55.8369L41.4436 55.4539C44.1487 54.8157 46.9327 54.3791 49.7785 54.1611L49.8085 54.5535C51.1916 54.4475 52.5894 54.3935 54 54.3935C55.4106 54.3935 56.8084 54.4475 58.1915 54.5535L58.2215 54.1611C61.0673 54.3791 63.8513 54.8157 66.5564 55.4539L66.466 55.8369C69.212 56.4848 71.876 57.3419 74.44 58.3904L74.5889 58.0262C77.2104 59.0982 79.7282 60.3688 82.123 61.819L81.9191 62.1557C84.3177 63.6082 86.592 65.2422 88.7227 67.0386L88.9764 66.7377C91.1308 68.554 93.1393 70.5349 94.9822 72.6608L94.6849 72.9186C96.5129 75.0274 98.1767 77.2798 99.6566 79.6564L99.9907 79.4483C101.473 81.8281 102.772 84.3315 103.868 86.9394L103.506 87.0919C104.58 89.6474 105.459 92.3038 106.124 95.0429L106.506 94.9501C107.162 97.6523 107.61 100.434 107.834 103.279L107.442 103.31C107.551 104.692 107.606 106.09 107.606 107.5C107.606 108.91 107.551 110.308 107.442 111.69L107.834 111.721C107.61 114.566 107.162 117.348 106.506 120.05L106.124 119.957C105.459 122.696 104.58 125.353 103.505 127.908L103.868 128.061C102.772 130.668 101.473 133.172 99.9907 135.552L99.6566 135.344C98.1767 137.72 96.5129 139.973 94.6849 142.081L94.9822 142.339C93.1393 144.465 91.1307 146.446 88.9764 148.262L88.7227 147.961C86.592 149.758 84.3176 151.392 81.9191 152.844L82.123 153.181C79.7282 154.631 77.2104 155.902 74.5889 156.974L74.44 156.61C71.876 157.658 69.212 158.515 66.466 159.163L66.5564 159.546Z" stroke="#4A4A4A" stroke-width="0.787072" stroke-dasharray="7.87 7.87"/>
<path d="M107.722 30.2783C107.875 30.432 108.125 30.432 108.278 30.2783L110.783 27.7738C110.936 27.6201 110.936 27.371 110.783 27.2173C110.629 27.0636 110.38 27.0636 110.226 27.2173L108 29.4435L105.774 27.2173C105.62 27.0636 105.371 27.0636 105.217 27.2173C105.064 27.371 105.064 27.6201 105.217 27.7738L107.722 30.2783ZM107.606 -1.7202e-08L107.606 30L108.394 30L108.394 1.7202e-08L107.606 -1.7202e-08Z" fill="#4A4A4A"/>
<path d="M107.722 184.722C107.875 184.568 108.125 184.568 108.278 184.722L110.783 187.226C110.936 187.38 110.936 187.629 110.783 187.783C110.629 187.936 110.38 187.936 110.226 187.783L108 185.557L105.774 187.783C105.62 187.936 105.371 187.936 105.217 187.783C105.064 187.629 105.064 187.38 105.217 187.226L107.722 184.722ZM107.606 215L107.606 185L108.394 185L108.394 215L107.606 215Z" fill="#4A4A4A"/>
<path d="M107 160.606C77.3905 160.606 53.3935 136.826 53.3935 107.5C53.3935 78.1735 77.3905 54.3935 107 54.3935C136.609 54.3935 160.606 78.1736 160.606 107.5C160.606 136.826 136.609 160.606 107 160.606Z" stroke="#FF0000" stroke-width="0.787072"/>
</svg>
