<svg width="215" height="215" viewBox="0 0 215 215" fill="none" xmlns="http://www.w3.org/2000/svg">
<circle cx="107.5" cy="53.5" r="53.1065" stroke="#4A4A4A" stroke-width="0.787072" stroke-dasharray="7.87 7.87"/>
<path d="M159.546 148.444C160.184 151.149 160.621 153.933 160.839 156.778L160.447 156.809C160.552 158.192 160.606 159.589 160.606 161C160.606 162.411 160.552 163.808 160.447 165.191L160.839 165.222C160.621 168.067 160.184 170.851 159.546 173.556L159.163 173.466C158.515 176.212 157.658 178.876 156.61 181.44L156.974 181.589C155.902 184.21 154.631 186.728 153.181 189.123L152.844 188.919C151.392 191.318 149.758 193.592 147.961 195.723L148.262 195.976C146.446 198.131 144.465 200.139 142.339 201.982L142.081 201.685C139.973 203.513 137.72 205.177 135.344 206.657L135.552 206.991C133.172 208.473 130.668 209.772 128.061 210.868L127.908 210.506C125.353 211.58 122.696 212.459 119.957 213.124L120.05 213.506C117.348 214.162 114.566 214.61 111.721 214.834L111.69 214.442C110.308 214.551 108.91 214.606 107.5 214.606C106.09 214.606 104.692 214.551 103.31 214.442L103.279 214.834C100.434 214.61 97.6523 214.162 94.9501 213.506L95.0429 213.124C92.3038 212.459 89.6474 211.58 87.0919 210.506L86.9394 210.868C84.3315 209.772 81.8281 208.473 79.4483 206.991L79.6564 206.657C77.2798 205.177 75.0274 203.513 72.9186 201.685L72.6608 201.982C70.5349 200.139 68.554 198.131 66.7377 195.976L67.0386 195.723C65.2422 193.592 63.6082 191.318 62.1557 188.919L61.819 189.123C60.3688 186.728 59.0982 184.21 58.0262 181.589L58.3904 181.44C57.3419 178.876 56.4848 176.212 55.8369 173.466L55.4539 173.556C54.8157 170.851 54.3791 168.067 54.1611 165.222L54.5535 165.191C54.4475 163.808 54.3935 162.411 54.3935 161C54.3935 159.589 54.4475 158.192 54.5535 156.809L54.1611 156.778C54.3791 153.933 54.8157 151.149 55.4539 148.444L55.8369 148.534C56.4848 145.788 57.3419 143.124 58.3904 140.56L58.0262 140.411C59.0982 137.79 60.3688 135.272 61.819 132.877L62.1557 133.081C63.6082 130.682 65.2422 128.408 67.0386 126.277L66.7377 126.024C68.554 123.869 70.5349 121.861 72.6608 120.018L72.9186 120.315C75.0274 118.487 77.2798 116.823 79.6564 115.343L79.4483 115.009C81.8281 113.527 84.3315 112.228 86.9394 111.132L87.0919 111.494C89.6474 110.42 92.3038 109.541 95.0429 108.876L94.9501 108.494C97.6523 107.838 100.434 107.39 103.279 107.166L103.31 107.558C104.692 107.449 106.09 107.394 107.5 107.394C108.91 107.394 110.308 107.449 111.69 107.558L111.721 107.166C114.566 107.39 117.348 107.838 120.05 108.494L119.957 108.876C122.696 109.541 125.353 110.42 127.908 111.494L128.061 111.132C130.668 112.228 133.172 113.527 135.552 115.009L135.344 115.343C137.72 116.823 139.973 118.487 142.081 120.315L142.339 120.018C144.465 121.861 146.446 123.869 148.262 126.024L147.961 126.277C149.758 128.408 151.392 130.682 152.844 133.081L153.181 132.877C154.631 135.272 155.902 137.79 156.974 140.411L156.61 140.56C157.658 143.124 158.515 145.788 159.163 148.534L159.546 148.444Z" stroke="#4A4A4A" stroke-width="0.787072" stroke-dasharray="7.87 7.87"/>
<path d="M30.2783 107.278C30.432 107.125 30.432 106.875 30.2783 106.722L27.7738 104.217C27.6201 104.064 27.371 104.064 27.2173 104.217C27.0636 104.371 27.0636 104.62 27.2173 104.774L29.4435 107L27.2173 109.226C27.0636 109.38 27.0636 109.629 27.2173 109.783C27.371 109.936 27.6201 109.936 27.7738 109.783L30.2783 107.278ZM0 107.394H30V106.606H0V107.394Z" fill="#4A4A4A"/>
<path d="M184.722 107.278C184.568 107.125 184.568 106.875 184.722 106.722L187.226 104.217C187.38 104.064 187.629 104.064 187.783 104.217C187.936 104.371 187.936 104.62 187.783 104.774L185.557 107L187.783 109.226C187.936 109.38 187.936 109.629 187.783 109.783C187.629 109.936 187.38 109.936 187.226 109.783L184.722 107.278ZM215 107.394H185V106.606H215V107.394Z" fill="#4A4A4A"/>
<path d="M160.606 108C160.606 137.609 136.826 161.606 107.5 161.606C78.1736 161.606 54.3935 137.609 54.3935 108C54.3935 78.3905 78.1736 54.3935 107.5 54.3935C136.826 54.3935 160.606 78.3905 160.606 108Z" stroke="#FF0000" stroke-width="0.787072"/>
</svg>
