<svg xmlns="http://www.w3.org/2000/svg" width="585.778" height="409" viewBox="0 0 585.778 409">
  <g id="undraw_directions_x53j" transform="translate(0 0)">
    <path id="Path_642" data-name="Path 642" d="M197.81,148.5a138.434,138.434,0,0,1,166.344-18.731C310.839,148.849,252.012,149.55,197.81,148.5Z" transform="translate(153.811 -96.123)" fill="#6c63ff" opacity="0.1"/>
    <path id="Path_643" data-name="Path 643" d="M831.246,651.013l58.221-100.842a1.852,1.852,0,0,1,3.216,0L950.9,651.013a1.852,1.852,0,0,1-1.605,2.807H931.931a1.864,1.864,0,0,0-1.858,1.858V677.2a1.858,1.858,0,0,1-1.852,1.858H905.56A1.858,1.858,0,0,1,903.7,677.2V666.8a1.852,1.852,0,0,0-1.852-1.852H880.306a1.858,1.858,0,0,0-1.858,1.852v10.4a1.858,1.858,0,0,1-1.858,1.858H853.934a1.858,1.858,0,0,1-1.858-1.858V655.655a1.858,1.858,0,0,0-1.858-1.858H832.851a1.858,1.858,0,0,1-1.605-2.784Zm81.19,11.159a1.852,1.852,0,0,0,1.314.561h8.156a1.858,1.858,0,0,0,0-3.716h-8.173a1.858,1.858,0,0,0-1.314,3.172Zm-53.483,0a1.852,1.852,0,0,0,1.313.561h8.151a1.858,1.858,0,0,0,0-3.716h-8.184a1.858,1.858,0,0,0-1.314,3.172Z" transform="translate(-787.26 -289.374)" fill="#6c63ff" opacity="0.1"/>
    <path id="Path_644" data-name="Path 644" d="M204.761,652.6l58.221-100.842a1.858,1.858,0,0,1,3.216,0l50.289,87.1a153.62,153.62,0,0,1-21.044,21.729h-8.2a1.858,1.858,0,0,0,0,3.716h3.458a89.971,89.971,0,0,1-13.472,8.381v-4.294a1.858,1.858,0,0,0-1.858-1.858H253.832a1.858,1.858,0,0,0-1.852,1.858v10.4a1.808,1.808,0,0,1-.174.78,1.858,1.858,0,0,1-1.684,1.078H227.461a1.819,1.819,0,0,1-1.476-.747,1.785,1.785,0,0,1-.376-1.123V657.245a1.858,1.858,0,0,0-1.858-1.858H206.383a1.858,1.858,0,0,1-1.622-2.79Zm38.479,8.532a1.853,1.853,0,0,0-1.313-.561h-8.173a1.858,1.858,0,1,0,0,3.716h8.179a1.858,1.858,0,0,0,1.313-3.171Zm36.57-37.317a1.858,1.858,0,0,0,1.858-1.858V607.843a1.858,1.858,0,0,0-1.858-1.858H249.358a1.858,1.858,0,0,0-1.852,1.858v14.112a1.858,1.858,0,0,0,1.852,1.858Z" transform="translate(197.717 -290.072)" fill="#6c63ff" opacity="0.1"/>
    <path id="Path_645" data-name="Path 645" d="M410.018,379.514h72.046V363.932a3.727,3.727,0,0,1,3.727-3.727h21.156v-16.6a2.346,2.346,0,0,1,2.346-2.346h27.252a2.346,2.346,0,0,1,2.346,2.346V360.2h24.872a3.727,3.727,0,0,1,3.727,3.727v15.582h68.7a.758.758,0,0,1,.752.758V587.132a.758.758,0,0,1-.752.758H590.535a.758.758,0,0,1-.758-.758V559.3a.763.763,0,0,0-.758-.758H569.732a.763.763,0,0,0-.758.758v27.831a.758.758,0,0,1-.752.758H477.989a.764.764,0,0,1-.758-.758V559.3a.758.758,0,0,0-.752-.758H457.192a.758.758,0,0,0-.758.758v27.831a.763.763,0,0,1-.758.758H410.018a.764.764,0,0,1-.758-.758V380.272A.763.763,0,0,1,410.018,379.514ZM597.95,548.878a.752.752,0,0,0,.752.752h28.2a.752.752,0,0,0,.758-.752v-9.616a.758.758,0,0,0-.758-.758H598.7a.758.758,0,0,0-.752.758Zm0-24.889a.752.752,0,0,0,.752.758h28.2a.752.752,0,0,0,.758-.758v-9.627a.752.752,0,0,0-.758-.758H598.7a.752.752,0,0,0-.752.758Zm0-24.884a.758.758,0,0,0,.752.758h28.2a.758.758,0,0,0,.758-.758v-9.632a.758.758,0,0,0-.758-.758H598.7a.758.758,0,0,0-.752.758Zm0-24.889a.752.752,0,0,0,.752.758h28.2a.752.752,0,0,0,.758-.758v-9.61a.752.752,0,0,0-.758-.758H598.7a.752.752,0,0,0-.752.758Zm0-24.884a.758.758,0,0,0,.752.758h28.2a.758.758,0,0,0,.758-.758V439.7a.752.752,0,0,0-.758-.752H598.7a.752.752,0,0,0-.752.752Zm0-24.884a.752.752,0,0,0,.752.752h28.2a.752.752,0,0,0,.758-.752v-9.632a.758.758,0,0,0-.758-.758H598.7a.758.758,0,0,0-.752.758Zm0-24.889a.752.752,0,0,0,.752.758h28.2a.752.752,0,0,0,.758-.758v-9.61a.752.752,0,0,0-.758-.758H598.7a.752.752,0,0,0-.752.758ZM531.09,548.872a.752.752,0,0,0,.758.752h28.2a.758.758,0,0,0,.758-.752v-9.61a.763.763,0,0,0-.758-.758h-28.2a.758.758,0,0,0-.758.758Zm0-24.889a.752.752,0,0,0,.758.758h28.2a.758.758,0,0,0,.758-.758v-9.621a.758.758,0,0,0-.758-.758h-28.2a.752.752,0,0,0-.758.758Zm0-24.884a.758.758,0,0,0,.758.758h28.2a.764.764,0,0,0,.758-.758v-9.627a.763.763,0,0,0-.758-.758h-28.2a.758.758,0,0,0-.758.758Zm0-24.889a.752.752,0,0,0,.758.758h28.2a.758.758,0,0,0,.758-.758v-9.6a.758.758,0,0,0-.758-.758h-28.2a.752.752,0,0,0-.758.758Zm0-24.884a.758.758,0,0,0,.758.758h28.2a.764.764,0,0,0,.758-.758V439.7a.758.758,0,0,0-.758-.752h-28.2a.752.752,0,0,0-.758.752Zm0-24.884a.752.752,0,0,0,.758.752h28.2a.758.758,0,0,0,.758-.752v-9.627a.763.763,0,0,0-.758-.758h-28.2a.758.758,0,0,0-.758.758Zm0-24.889a.752.752,0,0,0,.758.758h28.2a.758.758,0,0,0,.758-.758v-9.6a.758.758,0,0,0-.758-.758h-28.2a.752.752,0,0,0-.758.758ZM485.4,548.866a.752.752,0,0,0,.758.752h28.2a.758.758,0,0,0,.758-.752v-9.6a.763.763,0,0,0-.758-.758h-28.2a.758.758,0,0,0-.758.758Zm0-24.889a.752.752,0,0,0,.758.758h28.2a.758.758,0,0,0,.758-.758v-9.615a.758.758,0,0,0-.758-.758h-28.2a.752.752,0,0,0-.758.758Zm0-24.884a.758.758,0,0,0,.758.758h28.2a.763.763,0,0,0,.758-.758v-9.621a.764.764,0,0,0-.758-.758h-28.2a.758.758,0,0,0-.758.758Zm0-24.889a.752.752,0,0,0,.758.758h28.2a.758.758,0,0,0,.758-.758v-9.6a.758.758,0,0,0-.758-.758h-28.2a.752.752,0,0,0-.758.758Zm0-24.884a.758.758,0,0,0,.758.758h28.2a.763.763,0,0,0,.758-.758V439.7a.758.758,0,0,0-.758-.752h-28.2a.752.752,0,0,0-.758.752Zm0-24.884a.752.752,0,0,0,.758.752h28.2a.758.758,0,0,0,.758-.752v-9.621a.763.763,0,0,0-.758-.758h-28.2a.758.758,0,0,0-.758.758Zm0-24.889a.752.752,0,0,0,.758.758h28.2a.758.758,0,0,0,.758-.758v-9.6a.758.758,0,0,0-.758-.758h-28.2a.752.752,0,0,0-.758.758Zm-66.86,149.313a.758.758,0,0,0,.758.752h28.2a.752.752,0,0,0,.758-.752v-9.6a.758.758,0,0,0-.758-.758H419.3a.763.763,0,0,0-.758.758Zm0-24.889a.758.758,0,0,0,.758.758h28.2a.752.752,0,0,0,.758-.758v-9.61a.752.752,0,0,0-.758-.758H419.3a.758.758,0,0,0-.758.758Zm0-24.884a.763.763,0,0,0,.758.758h28.2a.758.758,0,0,0,.758-.758v-9.615a.758.758,0,0,0-.758-.758H419.3a.764.764,0,0,0-.758.758Zm0-24.889a.758.758,0,0,0,.758.758h28.2a.752.752,0,0,0,.758-.758v-9.593a.752.752,0,0,0-.758-.758H419.3a.758.758,0,0,0-.758.758Zm0-24.884a.763.763,0,0,0,.758.758h28.2a.758.758,0,0,0,.758-.758V439.7a.752.752,0,0,0-.758-.752H419.3a.758.758,0,0,0-.758.752Zm0-24.884a.758.758,0,0,0,.752.769H447.5a.752.752,0,0,0,.758-.752v-9.632a.758.758,0,0,0-.758-.758H419.3a.764.764,0,0,0-.758.758Zm0-24.889a.758.758,0,0,0,.758.758h28.2a.752.752,0,0,0,.758-.758v-9.593a.752.752,0,0,0-.758-.758H419.3a.758.758,0,0,0-.758.758Z" transform="translate(-236.963 -198.14)" fill="#6c63ff" opacity="0.1"/>
    <path id="Path_646" data-name="Path 646" d="M361.25,292.615a16.216,16.216,0,0,1,9.413,1.022,13.871,13.871,0,0,0,11.356-.028,15.841,15.841,0,0,1,13.292.264,8.28,8.28,0,0,0,3.828.954c5.389,0,9.874-5.428,10.806-12.591a10.334,10.334,0,0,1-2.694-2.9c-3.16-5.091-8.055-8.364-13.55-8.364s-10.328,3.233-13.472,8.268a10.39,10.39,0,0,1-8.953,4.917h-.14C366.8,284.156,363.086,287.6,361.25,292.615Z" transform="translate(16.682 -166.805)" fill="#6c63ff" opacity="0.1"/>
    <path id="Path_647" data-name="Path 647" d="M363.509,254.5l8.712,5.523-5.288-9.616a8.611,8.611,0,0,1,5.271-1.88h.14a10.193,10.193,0,0,0,1.807-.135l2.941,1.875-1.269-2.3a10.5,10.5,0,0,0,5.164-3.929l5.288,3.368-3.329-6.085a15.469,15.469,0,0,1,11.838-5.984c5.5,0,10.39,3.267,13.55,8.358a10.132,10.132,0,0,0,8.981,4.833h.3c6.068,0,10.985,6.876,10.985,15.363s-4.917,15.364-10.985,15.364a8.2,8.2,0,0,1-3.828-.96,15.841,15.841,0,0,0-13.292-.258,13.87,13.87,0,0,1-11.305,0,15.835,15.835,0,0,0-13.18.253,8.223,8.223,0,0,1-3.783.937c-6.068,0-10.985-6.882-10.985-15.364a19.512,19.512,0,0,1,2.268-9.363Z" transform="translate(-1.954 -151.148)" fill="#6c63ff" opacity="0.1"/>
    <path id="Path_648" data-name="Path 648" d="M848.34,480.173a11.4,11.4,0,0,1,6.59.713,9.694,9.694,0,0,0,7.915,0,11.092,11.092,0,0,1,9.307.185,5.77,5.77,0,0,0,2.677.668c3.772,0,6.91-3.8,7.561-8.813a7.337,7.337,0,0,1-1.886-2.032c-2.212-3.564-5.613-5.855-9.481-5.855s-7.236,2.245-9.447,5.787a7.263,7.263,0,0,1-6.264,3.441h-.1C852.236,474.257,849.637,476.665,848.34,480.173Z" transform="translate(-728.514 -252.125)" fill="#6c63ff" opacity="0.1"/>
    <path id="Path_649" data-name="Path 649" d="M849.917,453.507l6.1,3.867-3.7-6.736A6.029,6.029,0,0,1,856,449.325h.1a7.24,7.24,0,0,0,1.263-.1l2.071,1.308-.887-1.605a7.4,7.4,0,0,0,3.615-2.745l3.71,2.335-2.335-4.249a10.776,10.776,0,0,1,8.285-4.193c3.845,0,7.3,2.29,9.486,5.855a7.084,7.084,0,0,0,6.27,3.368h.185c4.244,0,7.69,4.811,7.69,10.749s-3.447,10.755-7.69,10.755a5.771,5.771,0,0,1-2.678-.668,11.069,11.069,0,0,0-9.307-.18,9.75,9.75,0,0,1-7.915,0,11.086,11.086,0,0,0-9.223.18,5.81,5.81,0,0,1-2.649.651c-4.249,0-7.69-4.811-7.69-10.755A13.67,13.67,0,0,1,849.917,453.507Z" transform="translate(-741.527 -241.164)" fill="#6c63ff" opacity="0.1"/>
    <path id="Path_650" data-name="Path 650" d="M349.67,416.156a11.406,11.406,0,0,0-6.59.713,9.677,9.677,0,0,1-7.909,0,11.092,11.092,0,0,0-9.307.185,5.787,5.787,0,0,1-2.678.668c-3.772,0-6.916-3.8-7.567-8.813a7.259,7.259,0,0,0,1.886-2.032c2.2-3.576,5.641-5.877,9.5-5.877s7.23,2.245,9.442,5.787a7.3,7.3,0,0,0,6.276,3.452h.1C345.8,410.239,348.407,412.648,349.67,416.156Z" transform="translate(102.496 -223.97)" fill="#6c63ff" opacity="0.1"/>
    <path id="Path_651" data-name="Path 651" d="M337.81,389.5l-6.1,3.851,3.7-6.736a6.039,6.039,0,0,0-3.688-1.314h-.1a7.294,7.294,0,0,1-1.263-.1l-2.066,1.308.887-1.605a7.415,7.415,0,0,1-3.621-2.745l-3.7,2.346,2.341-4.249a10.831,10.831,0,0,0-8.291-4.193c-3.845,0-7.3,2.29-9.486,5.855a7.079,7.079,0,0,1-6.27,3.368h-.2c-4.249,0-7.69,4.811-7.69,10.749s3.441,10.755,7.69,10.755a5.8,5.8,0,0,0,2.677-.668,11.069,11.069,0,0,1,9.307-.18,9.739,9.739,0,0,0,7.909,0,11.1,11.1,0,0,1,9.228.18,5.793,5.793,0,0,0,2.649.651c4.244,0,7.69-4.811,7.69-10.755A13.668,13.668,0,0,0,337.81,389.5Z" transform="translate(125.827 -213.02)" fill="#6c63ff" opacity="0.1"/>
    <path id="Path_652" data-name="Path 652" d="M698.876,784.871c-7.6,4.827-18.552-.056-26.2,4.7-1.976,1.224-3.57,3.026-5.613,4.137-2.453,1.342-5.338,1.583-8.128,1.684-23.362.9-47.118-5.613-69.9-.348-6.371,1.471-12.6,3.862-19.13,4.21-11.277.612-22.083-4.889-33.371-5.192-17.12-.46-33.943,11-50.463,6.478-5.434-1.488-10.418-4.659-16.026-5.192-6.248-.561-12.254,2.161-18.327,3.75-21.538,5.613-43.969-3.48-66.237-4.159-14.522-.443-28.9,2.722-43.413,3.452-10.317.516-20.657-.208-30.963-.926-3.929-.275-8.044-.612-11.333-2.767s-5.31-6.786-3.278-10.154Z" transform="translate(-234.48 -392.595)" fill="#3f3d56"/>
    <path id="Path_653" data-name="Path 653" d="M698.876,784.871c-7.6,4.827-18.552-.056-26.2,4.7-1.976,1.224-3.57,3.026-5.613,4.137-2.453,1.342-5.338,1.583-8.128,1.684-23.362.9-47.118-5.613-69.9-.348-6.371,1.471-12.6,3.862-19.13,4.21-11.277.612-22.083-4.889-33.371-5.192-17.12-.46-33.943,11-50.463,6.478-5.434-1.488-10.418-4.659-16.026-5.192-6.248-.561-12.254,2.161-18.327,3.75-21.538,5.613-43.969-3.48-66.237-4.159-14.522-.443-28.9,2.722-43.413,3.452-10.317.516-20.657-.208-30.963-.926-3.929-.275-8.044-.612-11.333-2.767s-5.31-6.786-3.278-10.154Z" transform="translate(-234.48 -392.595)" opacity="0.1"/>
    <path id="Path_654" data-name="Path 654" d="M698.876,779.871c-7.6,4.827-18.552-.056-26.2,4.7-1.976,1.224-3.57,3.026-5.613,4.137-2.453,1.342-5.338,1.583-8.128,1.684-23.362.9-47.118-5.613-69.9-.348-6.371,1.471-12.6,3.862-19.13,4.21-11.277.612-22.083-4.889-33.371-5.192-17.12-.46-33.943,11-50.463,6.478-5.434-1.488-10.418-4.659-16.026-5.192-6.248-.561-12.254,2.161-18.327,3.75-21.538,5.613-43.969-3.48-66.237-4.159-14.522-.443-28.9,2.722-43.413,3.452-10.317.516-20.657-.208-30.963-.926-3.929-.275-8.044-.612-11.333-2.767s-5.31-6.786-3.278-10.154Z" transform="translate(-234.48 -390.402)" fill="#3f3d56"/>
    <g id="Group_3991" data-name="Group 3991" transform="translate(484.363 116.409)" opacity="0.1">
      <path id="Path_655" data-name="Path 655" d="M168.4,637.163a13.724,13.724,0,0,0,1.813,6.949,14.224,14.224,0,0,0,0,13.9,12.77,12.77,0,0,0-1.37,3.368,254.9,254.9,0,0,0,16.89-25.26h0a13.472,13.472,0,0,0-1.774-5.928,13.725,13.725,0,0,0,1.813-6.949,14.292,14.292,0,0,0-.82-4.833,12.01,12.01,0,0,0-.994-2.116c-1.583-2.689-4.075-4.423-6.871-4.423s-5.293,1.734-6.876,4.423a12.5,12.5,0,0,0-.971,2.049,14.387,14.387,0,0,0-.842,4.9,13.724,13.724,0,0,0,1.813,6.949A13.725,13.725,0,0,0,168.4,637.163Z" transform="translate(-135.663 -433.014)" fill="#3f3d56"/>
      <ellipse id="Ellipse_199" data-name="Ellipse 199" cx="8.684" cy="11.372" rx="8.684" ry="11.372" transform="translate(32.742 164.985)" fill="#3f3d56"/>
      <ellipse id="Ellipse_200" data-name="Ellipse 200" cx="8.684" cy="11.372" rx="8.684" ry="11.372" transform="translate(32.742 151.087)" fill="#3f3d56"/>
      <path id="Path_656" data-name="Path 656" d="M109.367,386.285a41.415,41.415,0,0,0,8.908,25.726,41.611,41.611,0,0,0,24.7,66.556c1,.2,2.015.359,3.042.483a42.035,42.035,0,0,0,9.543.051q1.583-.169,3.127-.466a41.145,41.145,0,0,0,12.91-4.721,414.553,414.553,0,0,0,19.54-47.033,41.42,41.42,0,0,0-7.46-14.847,41.645,41.645,0,0,0,6.736-39.074l-31.591,10.6,29.627-15.392a41.781,41.781,0,0,0-4.743-7.589A41.611,41.611,0,1,0,114.98,314.02l30.542,22.453L112.4,319.3a41.662,41.662,0,0,0,.8,32.967l24.7-.185-22.824,3.75a41.772,41.772,0,0,0,3.239,4.76A41.426,41.426,0,0,0,109.367,386.285Z" transform="translate(-109.367 -293.239)" fill="#6c63ff"/>
      <path id="Path_657" data-name="Path 657" d="M109.42,509.994a41.62,41.62,0,0,0,33.572,40.829c1.006.2,2.022.361,3.049.484a42.033,42.033,0,0,0,9.543.051q1.583-.168,3.127-.466a41.149,41.149,0,0,0,12.911-4.721,414.561,414.561,0,0,0,19.568-47.056,41.42,41.42,0,0,0-7.46-14.847,41.443,41.443,0,0,0,8.908-25.748c0-4.67-79.888,18.647-74.308,25.726A41.415,41.415,0,0,0,109.42,509.994Z" transform="translate(-109.42 -365.475)" opacity="0.1"/>
    </g>
    <g id="Group_3992" data-name="Group 3992" transform="translate(0 161.032)" opacity="0.1">
      <path id="Path_658" data-name="Path 658" d="M1081.4,637.65c1.628,5.2,3.368,10.356,5.153,15.4a14.384,14.384,0,0,0,.741-4.609C1087.294,643.426,1084.824,639.171,1081.4,637.65Z" transform="translate(-1063.943 -488.988)" fill="#3f3d56"/>
      <path id="Path_659" data-name="Path 659" d="M1022.321,431.906c0,9.851,1.987,25.417,5.613,43.222a474.644,474.644,0,0,0,11.872,46.343c1.628,5.2,3.368,10.356,5.153,15.4,2.049,5.726,4.21,11.294,6.472,16.621A41.768,41.768,0,0,0,1069.9,488.5a41.807,41.807,0,0,0,6.736-39.158l-31.591,10.626,29.627-15.425a41.915,41.915,0,0,0-4.743-7.606,41.763,41.763,0,0,0-16.346-64.132,71.6,71.6,0,0,0-27.365,35.886l5.473,4.075-5.872-3.048a71.247,71.247,0,0,0-3.418,18.7h1.65l-1.684.275C1022.321,429.756,1022.321,430.823,1022.321,431.906Z" transform="translate(-1022.321 -372.81)" fill="#6c63ff"/>
      <path id="Path_660" data-name="Path 660" d="M1022.42,544.923a474.664,474.664,0,0,0,11.872,46.343c1.628,5.2,3.368,10.357,5.153,15.4,2.049,5.726,4.21,11.294,6.472,16.621A41.768,41.768,0,0,0,1064.39,558.3a41.593,41.593,0,0,0,8.9-25.776C1073.293,529.717,1044.261,537.07,1022.42,544.923Z" transform="translate(-1016.834 -442.605)" opacity="0.1"/>
    </g>
    <path id="Path_661" data-name="Path 661" d="M77.065,329.254v-.263a71.135,71.135,0,0,1,3.41-18.662c.112-.342.224-.689.342-1.025a71.081,71.081,0,0,1,120.353-24.309,100.54,100.54,0,0,1,5.662-19.872,318.86,318.86,0,0,0,56.354,2.1A227.309,227.309,0,0,1,227.458,280.2l.437,1.625a229.393,229.393,0,0,0,39.94-14.959l3.87-1.877-4.29.28a318.96,318.96,0,0,1-59.922-1.72A101.086,101.086,0,0,1,225.145,235.5c32.235-3.249,64.217-10.017,94.083-23.435l-.689-1.529c-29.07,13.071-60.224,19.788-91.675,23.093A100.645,100.645,0,0,1,386.878,250.64a138.346,138.346,0,0,1,34.3-77.818,322.818,322.818,0,0,0,53.073,16.085,320.846,320.846,0,0,0,82.961,6.605,227.306,227.306,0,0,1-35.729,12.981l.437,1.625a229.385,229.385,0,0,0,39.929-14.959l3.87-1.877-4.29.28a318.65,318.65,0,0,1-139.086-22.046q2.492-2.728,5.13-5.334c55.117,1.12,115.145.56,169.489-19.233a138.69,138.69,0,0,1,65.813,118.139c0,26.029-7.151,61.823-19.6,97.735a415.38,415.38,0,0,1-19.55,47.061c-3.8,7.731-7.84,15.244-12.08,22.438h0a254.683,254.683,0,0,1-16.851,25.211q-1.647,2.168-3.332,4.258a153.769,153.769,0,0,1-20.99,21.777h0q-2.335,1.95-4.7,3.714a89.489,89.489,0,0,1-13.44,8.4,61.954,61.954,0,0,1-25.369,6.88c-.694.028-1.394.045-2.089.045v.286H148.439v-.286h-.28a19.033,19.033,0,0,1-6.362-1.12c-13.306-4.723-25.559-23.687-35.746-47.655-2.24-5.317-4.413-10.874-6.457-16.589-1.8-5.042-3.517-10.18-5.141-15.368a473.97,473.97,0,0,1-11.845-46.254c-3.59-17.771-5.6-33.307-5.6-43.139C76.992,331.389,76.992,330.324,77.065,329.254Z" transform="translate(-76.992 -112.215)" fill="#6c63ff" opacity="0.1"/>
    <path id="Path_662" data-name="Path 662" d="M358.78,737.934l-10.744-6.321a25.894,25.894,0,0,1,5.5-6.573l20.27,6.3-15.886-9.335a25.821,25.821,0,0,1,38.226,22.65c0,14.258-11.558,14.752-25.821,14.752s-25.821-.494-25.821-14.752a25.7,25.7,0,0,1,2.217-10.48Z" transform="translate(39.865 -363.771)" fill="#ec231a"/>
    <path id="Path_663" data-name="Path 663" d="M348.017,764.724a20.076,20.076,0,0,1,3.806-2.986,17.724,17.724,0,0,1,6.27-3.059c2.021-.387,4.1-.062,6.175-.18a14.4,14.4,0,0,0,9.436-4.322c1.465-1.516,2.621-3.368,4.384-4.541a9.642,9.642,0,0,1,6.573-1.207,16.318,16.318,0,0,1,1.942.4,25.737,25.737,0,0,1,1.527,8.762c0,14.258-11.558,14.752-25.821,14.752-6.921,0-13.2-.118-17.839-1.864l.775-1.448a20.435,20.435,0,0,1,2.773-4.305Z" transform="translate(47.889 -376.703)" opacity="0.1"/>
    <ellipse id="Ellipse_201" data-name="Ellipse 201" cx="20.067" cy="20.067" rx="20.067" ry="20.067" transform="translate(259.193 84.054)" fill="#3f3d56"/>
    <path id="Path_664" data-name="Path 664" d="M572.367,538.871c-2.071,14.533.455,29.352,4.39,43.492a32.3,32.3,0,0,0,2.9,7.651,81.567,81.567,0,0,0,4.906,6.618c3.368,4.637,5.344,10.1,7.191,15.515a437.628,437.628,0,0,1,12.81,45.647,3.128,3.128,0,0,1,0,1.948c-.488,1.123-1.97,1.269-3.188,1.263l-15.751-.084c-.561-1.078.477-2.245,1.123-3.278,2.245-3.491.09-8.027-1.892-11.681a125.589,125.589,0,0,1-11.1-28.066c-1.078-4.115-1.953-8.319-3.7-12.2-2.116-4.7-5.434-8.751-8.128-13.152a110.16,110.16,0,0,1-7.685-16.239c-3.166-7.735-6.36-15.566-7.606-23.828-1.173-7.758-.595-15.661.168-23.469a1.482,1.482,0,0,1,1.718-1.684l21.134-1.089c4.356-.225,5.389-1.179,4.726,3.1C573.917,532.528,572.828,535.638,572.367,538.871Z" transform="translate(-281.502 -279.175)" fill="#3f3d56"/>
    <path id="Path_665" data-name="Path 665" d="M572.367,538.871c-2.071,14.533.455,29.352,4.39,43.492a32.3,32.3,0,0,0,2.9,7.651,81.567,81.567,0,0,0,4.906,6.618c3.368,4.637,5.344,10.1,7.191,15.515a437.628,437.628,0,0,1,12.81,45.647,3.128,3.128,0,0,1,0,1.948c-.488,1.123-1.97,1.269-3.188,1.263l-15.751-.084c-.561-1.078.477-2.245,1.123-3.278,2.245-3.491.09-8.027-1.892-11.681a125.589,125.589,0,0,1-11.1-28.066c-1.078-4.115-1.953-8.319-3.7-12.2-2.116-4.7-5.434-8.751-8.128-13.152a110.16,110.16,0,0,1-7.685-16.239c-3.166-7.735-6.36-15.566-7.606-23.828-1.173-7.758-.595-15.661.168-23.469a1.482,1.482,0,0,1,1.718-1.684l21.134-1.089c4.356-.225,5.389-1.179,4.726,3.1C573.917,532.528,572.828,535.638,572.367,538.871Z" transform="translate(-281.502 -279.175)" opacity="0.1"/>
    <path id="Path_666" data-name="Path 666" d="M676.066,484.769c4.294,6.175,8.8,13.281,7.37,20.674-1.083,5.613-5.361,9.964-9.4,14.033-16.133,16.2-32,34.2-37.485,56.4-1.415,5.737-2.1,11.625-3.318,17.4-2.212,10.5-6.175,20.533-10.1,30.508L612.6,650.36a15.919,15.919,0,0,1-15.212-10.1,6.663,6.663,0,0,0,3.991-2.565c4.491-6.214,5.411-14.207,6.562-21.785,1.274-8.375,2.975-16.683,4.682-24.985l7.544-36.733c.87-4.238,1.74-8.482,2.874-12.658,4.39-16.177,12.708-31.434,13.994-48.162.191-2.459.309-5.159,1.976-6.983,1.751-1.925,4.625-2.245,7.224-2.4C656.751,483.315,665.822,482.288,676.066,484.769Z" transform="translate(-389.238 -260.403)" fill="#3f3d56"/>
    <path id="Path_667" data-name="Path 667" d="M572.244,757.832a16.752,16.752,0,0,1,3.491-.449,7.252,7.252,0,0,1,5.7,3.115,14.177,14.177,0,0,1,1.532,3.368l1.521,4.367c.449,1.28.887,2.756.219,3.929a4.167,4.167,0,0,1-2.043,1.577c-3.682,1.639-7.859,1.729-11.844,2.122-3.9.382-7.758,1.066-11.6,1.785-1.325.253-2.644.505-3.985.64a47.487,47.487,0,0,1-9.015-.269l-3.093-.3a11.137,11.137,0,0,1-3.042-.561,3.834,3.834,0,0,1-2.245-2.015c-.763-1.892.876-4.131,2.88-4.524.814-.157,1.684-.084,2.481-.191a11.724,11.724,0,0,0,2.717-.814c3.929-1.555,7.954-3.127,11.434-5.574.965-.679,1.976-1.628,1.869-2.807a5.72,5.72,0,0,0-.5-1.454,5.311,5.311,0,0,1-.045-3.755c.191-.516.561-1.061,1.083-1.123,1.482-.18,1.3,1.981,1.521,2.807.3,1.123.836,1.224,1.892,1.123C566.2,758.556,569.235,758.4,572.244,757.832Z" transform="translate(-257.194 -379.589)" fill="#f2f2f2"/>
    <path id="Path_668" data-name="Path 668" d="M763.5,771.367a9.907,9.907,0,0,1-2.144,6.034,4.693,4.693,0,0,1-1.527,1.229,6.129,6.129,0,0,1-2.807.443,22.479,22.479,0,0,1-7.8-1.577,22.3,22.3,0,0,0-2.694-1.016,30.263,30.263,0,0,0-3.5-.505c-4.642-.668-8.717-3.407-13.2-4.794a27.769,27.769,0,0,1-3.929-1.291,18.009,18.009,0,0,1-4.62-3.609,8.29,8.29,0,0,1-3.031-7.645,1.454,1.454,0,0,1,.135-.791,1.181,1.181,0,0,1,.505-.4c1.364-.674,2.981-.337,4.491-.073,5.456.971,11.041.791,16.582.612a2.408,2.408,0,0,0,2.548-1.454l2.1-3.368c.6-.966,1.555-2.071,2.644-1.74a2.154,2.154,0,0,1,1.19,2.245,12,12,0,0,0-.14,2.717,3.71,3.71,0,0,0,1.8,2.335A11.471,11.471,0,0,0,752.9,759.8c3.1.876,6.7,1.869,9.1,4.148C763.766,765.563,763.6,769.183,763.5,771.367Z" transform="translate(-536.81 -378.041)" fill="#f2f2f2"/>
    <path id="Path_669" data-name="Path 669" d="M696.253,371.186a13,13,0,0,1-3.065-3.334,13.59,13.59,0,0,1-1.308-4.608L691,357.675c-.488-3.07-1.061-6.321-3.11-8.661s-6.13-3.177-8.212-.864a7.2,7.2,0,0,0-1.493,3.727,27.135,27.135,0,0,0,6.635,22.453c2.52,2.762,5.613,4.957,8.28,7.567,2.324,2.245,4.339,4.822,6.483,7.264A89.494,89.494,0,0,0,717.247,404.6c-.079-4.176-.612-8.656,0-12.8.455-3,1.684-4.614-1.218-6.573C709.293,380.639,702.495,376.5,696.253,371.186Z" transform="translate(-468.543 -200.161)" fill="#fbbebe"/>
    <path id="Path_670" data-name="Path 670" d="M628.061,310.22a10.269,10.269,0,0,0,3.929,7.763q-10.491,3.671-20.7,8.094a7.17,7.17,0,0,0,1.774-5.018,25.332,25.332,0,0,0-3.873-13.528,3.284,3.284,0,0,1-.634-1.785c.079-1.325,1.65-1.937,2.941-2.245a72.333,72.333,0,0,1,13.427-1.948c1.937-.062,4.232-.674,3.795,1.791A27.107,27.107,0,0,0,628.061,310.22Z" transform="translate(-343.865 -180.203)" fill="#fbbebe"/>
    <ellipse id="Ellipse_202" data-name="Ellipse 202" cx="16.408" cy="16.408" rx="16.408" ry="16.408" transform="translate(254.274 98.838)" fill="#fbbebe"/>
    <path id="Path_671" data-name="Path 671" d="M608.739,349.232a19.847,19.847,0,0,1,2.083-3.491,72.626,72.626,0,0,1,9.846-12.074,61.29,61.29,0,0,1,9.346-6.865A21.212,21.212,0,0,1,635.863,324a22.89,22.89,0,0,1,3.755-.511l4.26-.348a3.486,3.486,0,0,1,1.123.034,2.419,2.419,0,0,1,1.437,2.891,7.113,7.113,0,0,1-1.9,2.986c-.191,8.695,3.677,17.272,4.2,25.956.915,15.184-8.353,29.307-9.094,44.5a4.8,4.8,0,0,0,.213,2.038c.124.314.309.6.449.909a8.883,8.883,0,0,1,.5,3.087,15.683,15.683,0,0,0,4.62,9.891,6.866,6.866,0,0,1-2.6,1.987c-1.791.78-3.929.848-5.832,1.392-4.962,1.448-10.048,2.908-15.206,2.6a13.416,13.416,0,0,1-1.173-4.418c-.73-.455-1.572.516-1.684,1.37s.051,1.847-.561,2.464a2.31,2.31,0,0,1-2.133.427,94.3,94.3,0,0,1-9.262-2.172c-3.087-.713-6.388-1.055-9.391-.034a2.513,2.513,0,0,1,.146-2.75,12.286,12.286,0,0,0,1.476-2.52,5.658,5.658,0,0,0,.18-1.656c0-4.8-.988-9.649-.051-14.359.275-1.381.713-2.728.994-4.115a35.484,35.484,0,0,0,.4-8.207c-.073-2.745.258-5.714.314-8.5a27.107,27.107,0,0,1,.225-3.441c.191-1.2.561-2.363.662-3.57.3-3.065-.932-6.107-.747-9.183C601.492,356.075,606.92,353.538,608.739,349.232Z" transform="translate(-354.295 -189.785)" fill="#ec231a"/>
    <path id="Path_672" data-name="Path 672" d="M584.388,365.618c3.974,10.542,5.916,21.723,7.859,32.826l4.491,26.079c1.274,7.37,2.554,14.785,2.5,22.262a23.833,23.833,0,0,0,.415,6.264c.718,2.661,2.5,4.878,3.856,7.3a24.013,24.013,0,0,1,2.582,16.239c-.46,2.329-1.718,4.973-4.081,5.243-1.942.213-3.621-1.33-4.754-2.925-2.6-3.654-3.9-8.066-5.052-12.411a280.723,280.723,0,0,1-7.786-43.273,42.112,42.112,0,0,0-.78-5.5,39.052,39.052,0,0,0-1.9-5.479q-2.577-6.388-5.159-12.776c-3.969-9.84-7.959-19.725-13.41-28.83,5.389-1.549,11-3.368,16.385-4.9A14.8,14.8,0,0,1,584.388,365.618Z" transform="translate(-292.973 -208.444)" fill="#fbbebe"/>
    <path id="Path_673" data-name="Path 673" d="M611.358,370.261c3.772-.814,7.673-.561,11.524-.657a2.486,2.486,0,0,0,1.549-.4c.78-.668.449-1.92.056-2.868l-1.864-4.491a6.533,6.533,0,0,0-1.493-2.481,6.332,6.332,0,0,0-3.542-1.2,32.092,32.092,0,0,0-12.271.477c-3.969,1.106-7.7,3.621-9.475,7.342-.741,1.549-1.083,3.5-.1,4.912,1.459,2.094,4.732,4.434,7.174,3.289C605.84,372.793,608.08,370.958,611.358,370.261Z" transform="translate(-329.256 -204.977)" fill="#ec231a"/>
    <path id="Path_674" data-name="Path 674" d="M577.4,236.332a16.571,16.571,0,0,1,9.15,2.638,20.067,20.067,0,0,1,19.7-4.614,11.468,11.468,0,1,1,13.247,13.27A20.068,20.068,0,1,1,580.977,258.9a17.96,17.96,0,0,1-3.6.365c-7.915,0-14.336-5.136-14.336-11.468S569.492,236.332,577.4,236.332Z" transform="translate(-315.348 -146.54)" fill="#3f3d56"/>
    <path id="Path_675" data-name="Path 675" d="M660.395,272.422a17.454,17.454,0,0,0,3.6-.365,19.965,19.965,0,0,0,2.627,5.776,18.022,18.022,0,0,1-3.368.326c-7.4,0-13.472-4.491-14.252-10.239A15.814,15.814,0,0,0,660.395,272.422Z" transform="translate(-401.148 -165.458)" opacity="0.1"/>
    <path id="Path_676" data-name="Path 676" d="M579.337,270.746a20.1,20.1,0,0,0,19.186-25.978A11.468,11.468,0,0,0,608,233.474a11.275,11.275,0,0,0-.185-2.054,11.468,11.468,0,0,1-6.433,19.085,20.067,20.067,0,1,1-38.333,11.889,20.028,20.028,0,0,0,16.284,8.352Z" transform="translate(-297.234 -149.424)" opacity="0.1"/>
    <rect id="Rectangle_675" data-name="Rectangle 675" width="2.818" height="1.367" rx="0.34" transform="matrix(-0.814, 0.581, -0.581, -0.814, 209.466, 155.789)" fill="#3a3768"/>
    <rect id="Rectangle_676" data-name="Rectangle 676" width="0.897" height="0.534" rx="0.19" transform="matrix(-0.814, 0.581, -0.581, -0.814, 218.015, 145.861)" fill="#3a3768"/>
    <rect id="Rectangle_677" data-name="Rectangle 677" width="1.606" height="0.802" rx="0.21" transform="matrix(-0.814, 0.581, -0.581, -0.814, 219.233, 147.604)" fill="#3a3768"/>
    <rect id="Rectangle_678" data-name="Rectangle 678" width="1.626" height="0.797" rx="0.2" transform="matrix(-0.814, 0.581, -0.581, -0.814, 220.631, 149.556)" fill="#3a3768"/>
    <rect id="Rectangle_679" data-name="Rectangle 679" width="20.149" height="20.274" rx="2.52" transform="matrix(-0.814, 0.581, -0.581, -0.814, 206.712, 160.281)" fill="#3a3768"/>
    <rect id="Rectangle_680" data-name="Rectangle 680" width="20.149" height="20.274" rx="2.52" transform="matrix(-0.814, 0.581, -0.581, -0.814, 206.712, 160.281)" opacity="0.1"/>
    <rect id="Rectangle_681" data-name="Rectangle 681" width="20.149" height="20.274" rx="2.52" transform="matrix(-0.814, 0.581, -0.581, -0.814, 207.231, 159.236)" fill="#3a3768"/>
    <path id="Path_677" data-name="Path 677" d="M713.7,347.742l1.173-.842.1.14a.82.82,0,0,0,1.123.2l3.75-2.677a.825.825,0,0,0,.191-1.151l-.1-.14,1.123-.786a1,1,0,0,1,1.4.23l12.955,18.159a1,1,0,0,1-.23,1.4l-7.376,5.26a1,1,0,0,1-1.4-.236L713.451,349.14a1,1,0,0,1,.247-1.4Z" transform="translate(-506.106 -198.165)" fill="#6c63ff"/>
    <rect id="Rectangle_682" data-name="Rectangle 682" width="0.234" height="1.784" rx="0.117" transform="matrix(-0.814, 0.581, -0.581, -0.814, 210.664, 147.646)" fill="#e6e8ec"/>
    <ellipse id="Ellipse_203" data-name="Ellipse 203" cx="0.202" cy="0.202" rx="0.202" ry="0.202" transform="translate(210.421 147.583)" fill="#e6e8ec"/>
    <path id="Path_678" data-name="Path 678" d="M717.609,99a37.609,37.609,0,0,1,37.609,37.609c0,20.769-39.405,89.554-39.405,89.554S680,157.406,680,136.609A37.609,37.609,0,0,1,717.609,99Zm0,62.689a8.163,8.163,0,1,0,0,.017Z" transform="translate(-507.014 -91.181)" fill="#6c63ff"/>
    <path id="Path_679" data-name="Path 679" d="M717.609,99a37.609,37.609,0,0,1,37.609,37.609c0,20.769-39.405,89.554-39.405,89.554S680,157.406,680,136.609A37.609,37.609,0,0,1,717.609,99Zm0,62.689a8.163,8.163,0,1,0,0,.017Z" transform="translate(-507.014 -91.181)" fill="#cf180f"/>
    <path id="Path_680" data-name="Path 680" d="M717.609,85.07a37.609,37.609,0,0,1,37.609,37.609c0,20.769-39.405,97.39-39.405,97.39S680,143.459,680,122.684A37.61,37.61,0,0,1,717.615,85.07Zm0,62.689a19.7,19.7,0,1,0-19.7-19.7,19.7,19.7,0,0,0,19.7,19.7Z" transform="translate(-507.014 -85.07)" fill="#ec231a"/>
  </g>
</svg>
