<svg width="34" height="19" viewBox="0 0 34 19" fill="none" xmlns="http://www.w3.org/2000/svg">
<path opacity="0.6" fill-rule="evenodd" clip-rule="evenodd" d="M33.2201 1.28657C33.4553 0.545571 33.2201 0 32.0939 0H28.3752C27.4289 0 26.9926 0.470929 26.756 0.990714C26.756 0.990714 24.8648 5.32814 22.186 8.14557C21.319 8.96257 20.9251 9.22179 20.452 9.22179C20.2154 9.22179 19.8598 8.96257 19.8598 8.22021V1.28657C19.8598 0.396286 19.5992 0 18.8115 0H12.9636C12.3729 0 12.0173 0.412571 12.0173 0.804786C12.0173 1.64757 13.3575 1.843 13.4949 4.21529V9.36971C13.4949 10.5002 13.2781 10.7051 12.805 10.7051C11.5442 10.7051 8.47716 6.34736 6.65678 1.36121C6.30403 0.390857 5.94704 0 4.99648 0H1.27497C0.212496 0 0 0.470929 0 0.990714C0 1.91629 1.26081 6.51429 5.87196 12.5956C8.94606 16.7485 13.2739 19 17.2164 19C19.5808 19 19.8726 18.5006 19.8726 17.6388V14.4997C19.8726 13.4995 20.0964 13.3 20.8458 13.3C21.3983 13.3 22.3432 13.5606 24.5503 15.5624C27.0719 17.936 27.487 19 28.9065 19H32.6251C33.6876 19 34.2203 18.5006 33.9143 17.5126C33.5771 16.53 32.373 15.1036 30.7764 13.4113C29.9095 12.4477 28.609 11.4095 28.2137 10.8897C27.6627 10.2234 27.8199 9.92614 28.2137 9.33307C28.2137 9.33307 32.747 3.32636 33.2187 1.28657H33.2201Z" fill="#4A4A4A"/>
</svg>
