<svg xmlns="http://www.w3.org/2000/svg" width="346.731" height="294.835" viewBox="0 0 346.731 294.835">
  <g id="Group_4006" data-name="Group 4006" transform="translate(-136.985 -901.329)">
    <path id="Path_805" data-name="Path 805" d="M6302.044,1121.267c-24.575-19.254-53.633-70.9-54.045-124.822s8.423-59.139,59.82-65.991,57.072-37,77.885-50.781,56.21-13.607,89.6,24.621,58.689-46.792,95.7-24.621,34.651,133.877-35.477,234.669S6326.619,1140.521,6302.044,1121.267Z" transform="translate(-6111 30)" fill="#d4d8e8" opacity="0.53"/>
    <path id="Path_806" data-name="Path 806" d="M6297.148,1098.633c-22.349-17.51-48.776-64.479-49.151-113.519s7.661-53.783,54.4-60.015,51.9-33.652,70.832-46.182,51.12-12.375,81.482,22.391,53.375-42.554,87.037-22.391,31.514,121.753-32.264,213.418S6319.5,1116.144,6297.148,1098.633Z" transform="translate(-6094.852 56.914)" fill="#d4d8e8" opacity="0.53"/>
    <g id="Asset_1" data-name="Asset 1" transform="translate(195.498 965.083)">
      <g id="Layer_2" data-name="Layer 2" transform="translate(0)">
        <g id="OBJECTS">
          <ellipse id="Ellipse_205" data-name="Ellipse 205" cx="103.638" cy="5.694" rx="103.638" ry="5.694" transform="translate(0 167.285)" fill="#8dccca" opacity="0.5"/>
          <path id="Path_681" data-name="Path 681" d="M139.068,65.84s-.145,1.373-.348,3.335c-.338,3.229-.648,6.274-.967,9.271l-.116.474L130,97.731l6.767.387,8.1-17.69.512-9,.3-4.5Z" transform="translate(-4.331 -2.193)" fill="#fab29a"/>
          <path id="Path_682" data-name="Path 682" d="M146.037,66.961l-.271,4.466A23.471,23.471,0,0,1,139,69.175c.2-1.933.348-3.335.348-3.335Z" transform="translate(-4.631 -2.193)" fill="#cc8a79" opacity="0.5"/>
          <path id="Path_683" data-name="Path 683" d="M156.317,173.782v4.06H133.89l.019-.039.764-1.953,3.1-1.121,2.823-1.663.9-.541.773-.445.9-.532.851-.512.88-.512,3.229-1.914,6.979,1.121,1.025,3.432Z" transform="translate(-4.46 -5.617)" fill="#fff"/>
          <rect id="Rectangle_691" data-name="Rectangle 691" width="22.775" height="2.107" transform="translate(129.265 172.177)" fill="#ec231a"/>
          <path id="Path_684" data-name="Path 684" d="M142.131,174.411a.5.5,0,0,1-.387-.174l-.889-.967a.522.522,0,0,1,0-.735.532.532,0,0,1,.735.048l.889.967a.522.522,0,0,1-.387.86Z" transform="translate(-4.687 -5.744)" fill="#ec231a"/>
          <path id="Path_685" data-name="Path 685" d="M143.871,173.4a.5.5,0,0,1-.387-.174l-.889-.967a.512.512,0,0,1,0-.725.522.522,0,0,1,.735,0l.889.967a.532.532,0,0,1,0,.735A.512.512,0,0,1,143.871,173.4Z" transform="translate(-4.745 -5.709)" fill="#ec231a"/>
          <path id="Path_686" data-name="Path 686" d="M145.741,172.431a.512.512,0,0,1-.387-.174l-.889-.967a.5.5,0,0,1,.048-.725.512.512,0,0,1,.725,0l.889.967a.522.522,0,0,1,0,.735.532.532,0,0,1-.387.164Z" transform="translate(-4.808 -5.677)" fill="#ec231a"/>
          <path id="Path_687" data-name="Path 687" d="M157.092,177.952v2.117H151.65v-2.117a1.663,1.663,0,0,1,.561-1.247l.512-1.305a1.682,1.682,0,0,1,.967-.967l2.958-1.073h.048l.193.619v4.012Z" transform="translate(-5.052 -5.775)" fill="#129486" opacity="0.5"/>
          <path id="Path_688" data-name="Path 688" d="M168.4,168.61l-10.353,6.119-3.1,1.121-.773,1.991H176.6v-4.06l-1.208-4.05Z" transform="translate(-5.136 -5.617)" fill="#fff"/>
          <rect id="Rectangle_692" data-name="Rectangle 692" width="22.775" height="2.117" transform="translate(148.86 172.177)" fill="#ec231a"/>
          <path id="Path_689" data-name="Path 689" d="M162.4,174.411a.512.512,0,0,1-.387-.174l-.889-.967a.512.512,0,0,1,.048-.735.522.522,0,0,1,.725.048l.889.967a.512.512,0,0,1,0,.725A.541.541,0,0,1,162.4,174.411Z" transform="translate(-5.363 -5.744)" fill="#ec231a"/>
          <path id="Path_690" data-name="Path 690" d="M164.141,173.4a.512.512,0,0,1-.387-.174l-.889-.967a.5.5,0,0,1,0-.725.512.512,0,0,1,.725,0l.889.967a.522.522,0,0,1,0,.735.531.531,0,0,1-.338.164Z" transform="translate(-5.421 -5.709)" fill="#ec231a"/>
          <path id="Path_691" data-name="Path 691" d="M166.012,172.432a.532.532,0,0,1-.387-.174l-.889-.967a.522.522,0,0,1,.783-.686l.889.967a.532.532,0,0,1-.048.735A.512.512,0,0,1,166.012,172.432Z" transform="translate(-5.485 -5.678)" fill="#ec231a"/>
          <path id="Path_692" data-name="Path 692" d="M175.6,168.485s-3.954.145-6.921,0l-3.1-1.411L164.554,157l-.464-4.563-2.359-23.2-1.469-14.355-.648-6.4h-3.287v6.4l.1,13.853.164,23.693v4.137l.087,12.48-5.365.184c-3.654-.551-5.075-1.6-4.891-3.577l-.135-9.667V152.4l-.319-24.66-.174-12.847-.164-11.765V99.966l-.7-9.725V89.11h26.71a9.725,9.725,0,0,0,.087,1.1,5.046,5.046,0,0,0,.058.9c.155,2.272.377,5.993.425,8.507a15.991,15.991,0,0,1-.048,2.339c0,.193-.068.532-.116.967a40.325,40.325,0,0,1-.851,6.013l.445,5.974,1.15,15.409,1.653,22.137.377,5.114Z" transform="translate(-4.828 -2.969)" fill="#ec231a"/>
          <path id="Path_693" data-name="Path 693" d="M156.7,158.757l-10.315-.551-.048-3.586h10.334Z" transform="translate(-4.875 -5.151)" fill="#129486" opacity="0.5"/>
          <path id="Path_694" data-name="Path 694" d="M175.451,159.734l-10.237-.551-.464-4.563h10.324Z" transform="translate(-5.489 -5.151)" fill="#129486" opacity="0.5"/>
          <path id="Path_695" data-name="Path 695" d="M156.492,129.633l-10.5-1.005-.174-12.847H156.4Z" transform="translate(-4.858 -3.857)" fill="#821510" opacity="0.5"/>
          <path id="Path_696" data-name="Path 696" d="M173.289,131.189l-11.03-1.054L160.79,115.78h11.349Z" transform="translate(-5.357 -3.857)" fill="#821510" opacity="0.5"/>
          <path id="Path_697" data-name="Path 697" d="M146.78,49.44l-1.025.222a16.434,16.434,0,0,0-6.013,7.018,75.841,75.841,0,0,0-2.823,10.16l9.309,1.933,1.6-14.887-.5-3.867Z" transform="translate(-4.561 -1.647)" fill="#ef4e47"/>
          <path id="Path_698" data-name="Path 698" d="M172.131,102c0,.193-.068.532-.116.967-7.231-.561-17.3-1.5-26.429-2.9l-.7-9.725,26.864.87c.155,2.272.377,6,.425,8.507A17.547,17.547,0,0,1,172.131,102Z" transform="translate(-4.827 -3.01)" fill="#129486" opacity="0.5"/>
          <path id="Path_699" data-name="Path 699" d="M174.237,97.335l-7.936.744h-8.652c-1.614,0-3.49,0-5.346-.068-4.524-.145-8.884-.445-8.884-.445s.193-17.468.184-22.234c0-3.219.338-7.366,0-10.779-.068-.338-.135-.706-.213-1.1.155-8.188.831-11.813,1.566-13.389,2.629-1.788,6.525-4.543,9.454-4.833l3.345-.1h.812l1.208-.174c8.13,1.634,11.852,5.133,11.852,5.133a62.653,62.653,0,0,1-.764,15.129c-.106,3.422-.387,9.541.358,12.567.106.464.232,1.015.348,1.624s.251,1.247.367,1.933c.213,1.247.435,2.62.648,4.031.106.677.2,1.363.309,2.04C173.657,92.434,174.237,97.335,174.237,97.335Z" transform="translate(-4.777 -1.498)" fill="#ec231a"/>
          <path id="Path_700" data-name="Path 700" d="M156.074,62.268l-1.334-.077.522-8.681,1.324.077Z" transform="translate(-5.155 -1.783)" fill="#129486"/>
          <path id="Path_701" data-name="Path 701" d="M161.527,46.947l-2.5,4.688a18.424,18.424,0,0,1-3.5,4.833L154,47.992l-.087-.445,1.392-4.273V38.75h5.8v.242l.193,4.92a5.055,5.055,0,0,0,.116.783A5.471,5.471,0,0,1,161.527,46.947Z" transform="translate(-5.127 -1.291)" fill="#fab29a"/>
          <path id="Path_702" data-name="Path 702" d="M161.353,44.695A17.613,17.613,0,0,1,154,48l-.087-.445,1.392-4.273v-2.9l5.8-1.353.193,4.92A5.055,5.055,0,0,0,161.353,44.695Z" transform="translate(-5.127 -1.3)" fill="#cc8a79" opacity="0.5"/>
          <path id="Path_703" data-name="Path 703" d="M154.345,45.778l.4-1.218c-3.548,1.237-5.075,4.456-4.543,9.619.773,7.318-1.479,11.02-1.5,11.049l.851.541c.106-.164,2.455-4,1.653-11.7C150.662,48.9,152.335,46.735,154.345,45.778Z" transform="translate(-4.954 -1.484)" fill="#280600"/>
          <path id="Path_704" data-name="Path 704" d="M151.3,67.9a2.8,2.8,0,1,1-2.629-2.9A2.774,2.774,0,0,1,151.3,67.9Z" transform="translate(-4.854 -2.165)" fill="#fff"/>
          <path id="Path_705" data-name="Path 705" d="M149.815,67.875a1.257,1.257,0,0,1-1.334,1.15,1.228,1.228,0,1,1,1.334-1.15Z" transform="translate(-4.909 -2.218)" fill="#5c96c2"/>
          <path id="Path_706" data-name="Path 706" d="M151.148,67.2s-3.3.1-3.77,1.315,2.639,30.934,2.639,30.934l21.46-2.262s.657-.561-.1-3.383-5.268-25.318-5.268-25.318Z" transform="translate(-4.908 -2.239)" fill="#129486" opacity="0.5"/>
          <path id="Path_707" data-name="Path 707" d="M148.377,30.045s-.406-1.769-1.933-1.576-.812,5.22,2.194,5.036Z" transform="translate(-4.853 -0.948)" fill="#fab29a"/>
          <path id="Path_708" data-name="Path 708" d="M148.105,30.489s-.8-.86-1.324-.551-.145.967.2,1.3a1.015,1.015,0,0,0,.764.28s-.348.4-.329.628.967.831.967.831Z" transform="translate(-4.881 -0.995)" fill="#cc8a79" opacity="0.5"/>
          <path id="Path_709" data-name="Path 709" d="M166.422,17.228a3.741,3.741,0,0,0-2.9-1.015c-.9-.6-2.9-3.345-11.272-1.75-4.3.812-7.153,5.056-5.684,8.41a22.689,22.689,0,0,0,.164,5.133,1.4,1.4,0,0,1,.609.967,8.041,8.041,0,0,1,0,1.711l.425.657V28.789c.2.5.435.967.686,1.489,2.9,5.558,11.233-5.017,13.746-8.449-.454,4.756-1.015,10.846-.967,10.875s-.387,4.253,2.765,3.867,3.586-7.675,3.78-7.666S167.94,18.745,166.422,17.228Z" transform="translate(-4.87 -0.465)" fill="#280600"/>
          <path id="Path_710" data-name="Path 710" d="M165.659,28.783a2.552,2.552,0,0,1,2.581-1.933c2.059.145,1.276,6.042-2.9,5.974Z" transform="translate(-5.508 -0.894)" fill="#fab29a"/>
          <path id="Path_711" data-name="Path 711" d="M166.1,29.293s1.092-1.054,1.827-.715.222,1.121-.242,1.518a1.643,1.643,0,0,1-1.054.367s.493.445.483.715-1.373,1.015-1.373,1.015Z" transform="translate(-5.521 -0.95)" fill="#cc8a79" opacity="0.5"/>
          <path id="Path_712" data-name="Path 712" d="M165.826,30.873a13.8,13.8,0,0,1-.319,2.223,12.567,12.567,0,0,1-5.655,8.352c-5.626,3.374-8.391.493-10.634-3.084-2.156-3.422-1.092-9.947-1.431-11.881a4.36,4.36,0,0,1-.068-.706,8.7,8.7,0,0,1,.628-3.171c7.608-8.865,16.907-.686,16.907-.686S165.942,28.814,165.826,30.873Z" transform="translate(-4.921 -0.616)" fill="#fab29a"/>
          <path id="Path_713" data-name="Path 713" d="M165.827,30.873a13.791,13.791,0,0,1-.319,2.223c-1.6-1.547-1.083-5.036-1.083-5.036-3.132-1.421-4.408-5.094-4.408-5.094-3.142,2.127-10.373,2.7-12.277,2.813a8.7,8.7,0,0,1,.628-3.171c7.608-8.865,16.907-.686,16.907-.686S165.943,28.814,165.827,30.873Z" transform="translate(-4.922 -0.616)" fill="#cc8a79" opacity="0.5"/>
          <path id="Path_714" data-name="Path 714" d="M156.115,33.251c0,.474-.8.86-1.808.86s-1.817-.367-1.817-.841.812-.86,1.808-.86S156.115,32.777,156.115,33.251Z" transform="translate(-5.08 -1.08)" fill="#e29386"/>
          <path id="Path_715" data-name="Path 715" d="M149.513,27.267a.5.5,0,0,1-.338-.155.522.522,0,0,1,0-.744,2.4,2.4,0,0,1,3.229,0,.523.523,0,1,1-.648.822,1.373,1.373,0,0,0-1.856,0,.483.483,0,0,1-.387.077Z" transform="translate(-4.964 -0.858)" fill="#280600"/>
          <path id="Path_716" data-name="Path 716" d="M158.283,27.187a.6.6,0,0,1-.338-.155.532.532,0,0,1,0-.744,2.407,2.407,0,0,1,3.238,0,.532.532,0,0,1,.087.735.522.522,0,0,1-.735.087,1.363,1.363,0,0,0-1.856,0A.5.5,0,0,1,158.283,27.187Z" transform="translate(-5.257 -0.855)" fill="#280600"/>
          <path id="Path_717" data-name="Path 717" d="M151.511,29.6c0,.715-.319,1.305-.715,1.305s-.715-.59-.715-1.305.319-1.3.715-1.3S151.511,28.88,151.511,29.6Z" transform="translate(-5 -0.943)" fill="#280600"/>
          <path id="Path_718" data-name="Path 718" d="M150.667,29.12c0,.145-.087.261-.193.261s-.174-.126-.174-.271.1-.271.193-.271S150.677,28.995,150.667,29.12Z" transform="translate(-5.007 -0.961)" fill="#fff"/>
          <path id="Path_719" data-name="Path 719" d="M160.2,29.625c0,.725-.319,1.305-.715,1.305s-.706-.59-.706-1.305.319-1.3.715-1.3S160.211,28.91,160.2,29.625Z" transform="translate(-5.29 -0.944)" fill="#280600"/>
          <path id="Path_720" data-name="Path 720" d="M159.367,29.15c0,.145-.087.261-.193.261s-.174-.126-.174-.271.087-.271.193-.271a.242.242,0,0,1,.174.28Z" transform="translate(-5.297 -0.962)" fill="#fff"/>
          <path id="Path_721" data-name="Path 721" d="M165.928,21.4s-.116-2.687-1.663-4.06l.338-.464s-6.2-3.809-10.228-2.078-7.675,3.867-7.008,10.634a36.376,36.376,0,0,0,12.567-4.137,8.062,8.062,0,0,0,4.147,4.437,19.063,19.063,0,0,0,0,5.355l1.933-.725Z" transform="translate(-4.907 -0.478)" fill="#280600"/>
          <path id="Path_722" data-name="Path 722" d="M151.7,36.086l6.767-.126s-1.131,3.1-3.586,3.219S151.7,36.086,151.7,36.086Z" transform="translate(-5.054 -1.198)" fill="#fff"/>
          <path id="Path_723" data-name="Path 723" d="M163.133,45.165a6.255,6.255,0,0,0-1.643-1.025,4.91,4.91,0,0,0,.116.725,3.34,3.34,0,0,0,.087.512,4.777,4.777,0,0,1,.783.551c1.6,1.382,2.33,3.693,2.185,6.883h.967C165.85,49.35,164.97,46.76,163.133,45.165Z" transform="translate(-5.38 -1.47)" fill="#280600"/>
          <path id="Path_724" data-name="Path 724" d="M167.738,65.941a.638.638,0,0,1-.58.619h-1.933a.6.6,0,0,1-.474-.667.619.619,0,0,1,.58-.648h.918a.58.58,0,0,0,.541-.58,42.534,42.534,0,0,0-.126-7.627,6.322,6.322,0,0,0-.967-3.132.706.706,0,0,0-.715-.29c-.7.126-1.334,1.189-1.933,2.716a40.109,40.109,0,0,0-1.7,7.733.522.522,0,0,0,.338.59l1.083.28a.638.638,0,0,1,.4.783.58.58,0,0,1-.667.5l-.967-.242c-.406-.106-1.092-.193-1.334-.648a.967.967,0,0,1,0-.609,6.439,6.439,0,0,1,.116-.967c.193-1.45.435-2.9.754-4.34a25.714,25.714,0,0,1,.909-3.277c.164-.464.348-.909.551-1.344.5-1.063,1.257-2.243,2.33-2.426a1.692,1.692,0,0,1,1.624.619,8.343,8.343,0,0,1,1.257,4.186A50.527,50.527,0,0,1,167.738,65.941Z" transform="translate(-5.335 -1.744)" fill="#fff"/>
          <path id="Path_725" data-name="Path 725" d="M167.8,57.171l-1.15-.164a6.323,6.323,0,0,0-.967-3.132.706.706,0,0,0-.715-.29c-.7.126-1.334,1.189-1.933,2.716L162,56.049c.164-.464.348-.909.551-1.344.5-1.063,1.257-2.243,2.33-2.426a1.692,1.692,0,0,1,1.624.619A8.343,8.343,0,0,1,167.8,57.171Z" transform="translate(-5.397 -1.741)" fill="#280600"/>
          <path id="Path_726" data-name="Path 726" d="M165.015,65.3l-11.832,1.315c-.329,0-.57-.213-.464-.464l.831-1.8a.474.474,0,0,1,.387-.251L163.73,63a.483.483,0,0,1,.435.164l1.2,1.576C165.557,64.933,165.344,65.262,165.015,65.3Z" transform="translate(-5.087 -2.099)" fill="#b3b3b3"/>
          <rect id="Rectangle_693" data-name="Rectangle 693" width="4.157" height="1.15" rx="0.28" transform="translate(151.608 60.999) rotate(-6.34)" fill="#e6e6e6"/>
          <rect id="Rectangle_694" data-name="Rectangle 694" width="21.518" height="31.63" rx="1.09" transform="translate(143.201 63.978) rotate(-6.34)" fill="#c98c6b"/>
          <path id="Path_727" data-name="Path 727" d="M172.782,86.356l-4.543,1.276a56.646,56.646,0,0,1-7.83,2.049c-2.755.358-7.975.967-10.16-.425a4.833,4.833,0,0,1-2.049-4.369L158.533,83.8c-1.073-.715-2.455-1.6-3.867-2.378-3.171-1.692-1.015-4.466-1.015-4.466l4.021,2.658,3.867,3.5,10.218-2.736c.126.6.251,1.247.367,1.933C172.347,83.572,172.57,84.945,172.782,86.356Z" transform="translate(-4.937 -2.564)" fill="#999" opacity="0.5"/>
          <path id="Path_728" data-name="Path 728" d="M180.311,80.379c-1.334,3.258-21.963,7.057-21.963,7.057L155.09,82.3s18.193-3.867,18.425-5.288a21.566,21.566,0,0,0-.493-4.833c-.193-1.44-.416-2.9-.59-3.973s-.3-1.933-.3-1.933l7.279-.425s.126.667.309,1.711.445,2.7.648,4.389C180.746,75.15,180.968,78.755,180.311,80.379Z" transform="translate(-5.167 -2.194)" fill="#fab29a"/>
          <path id="Path_729" data-name="Path 729" d="M180.966,72c-2.436.222-5.413.232-7.347.2-.193-1.44-.416-2.9-.59-3.973l7.289-.619C180.512,68.741,180.734,70.307,180.966,72Z" transform="translate(-5.764 -2.252)" fill="#cc8a79" opacity="0.5"/>
          <path id="Path_730" data-name="Path 730" d="M171.69,69.424c-.126,0-2.3-9.377-1.991-13.041s1.063-6.042,1.933-6.254,4.94,1.121,6.506,4.079,4,14.433,4,14.433L171.98,71.01Z" transform="translate(-5.652 -1.669)" fill="#ef4e47"/>
          <path id="Path_731" data-name="Path 731" d="M148.5,81.423a1.344,1.344,0,0,1,.416-1.382c.667-.464,3.161-.164,3.161-.164l3.548.367s-.909-.822-1.74-1.73a1.624,1.624,0,0,1-.3-1.537.532.532,0,0,1,.822-.309,30.211,30.211,0,0,0,2.745,1.653,31.9,31.9,0,0,1,3.306,2.03l4.659,3.973-4.553,2.9c-2.368,1.479-9.464,1.46-10.634.841-1.411-.725-1.228-1.692-1.228-1.692a1.663,1.663,0,0,1-.967-1.15,1.363,1.363,0,0,1,.464-1.373l-.454-.493C147.155,82.4,148.5,81.423,148.5,81.423Z" transform="translate(-4.917 -2.551)" fill="#fab29a"/>
          <rect id="Rectangle_695" data-name="Rectangle 695" width="60.138" height="4.708" transform="translate(25.782 147.265)" fill="#b3b3b3"/>
          <rect id="Rectangle_696" data-name="Rectangle 696" width="7.337" height="52.81" transform="translate(21.344 114.156)" fill="#b3b3b3"/>
          <rect id="Rectangle_697" data-name="Rectangle 697" width="2.9" height="52.81" transform="translate(25.782 114.156)" fill="#999" opacity="0.5"/>
          <rect id="Rectangle_698" data-name="Rectangle 698" width="7.337" height="9.918" transform="translate(21.344 114.156)" fill="#4d4d4d" opacity="0.5"/>
          <path id="Path_732" data-name="Path 732" d="M31.553,173.873c0-3.316-1.624-6.013-3.625-6.013H23.655v4.34a9.716,9.716,0,0,0,0,3.345v4.34h4.427C30.006,179.741,31.553,177.111,31.553,173.873Z" transform="translate(-0.783 -5.592)" fill="#4d4d4d"/>
          <ellipse id="Ellipse_206" data-name="Ellipse 206" cx="3.625" cy="6.013" rx="3.625" ry="6.013" transform="translate(19.247 162.268)" fill="#666"/>
          <path id="Path_733" data-name="Path 733" d="M22.08,166v9.754a1.208,1.208,0,0,0,1.208,1.218h.7a1.334,1.334,0,0,0,1.334-1.305V166Z" transform="translate(-0.736 -5.53)" fill="#b3b3b3"/>
          <path id="Path_734" data-name="Path 734" d="M24.733,174.016c0,1.025-.493,1.846-1.112,1.846s-1.112-.822-1.112-1.846.5-1.846,1.112-1.846S24.733,172.972,24.733,174.016Z" transform="translate(-0.75 -5.736)" fill="gray"/>
          <rect id="Rectangle_699" data-name="Rectangle 699" width="7.337" height="52.81" transform="translate(81.472 114.156)" fill="#b3b3b3"/>
          <rect id="Rectangle_700" data-name="Rectangle 700" width="2.9" height="52.81" transform="translate(85.919 114.156)" fill="#999" opacity="0.5"/>
          <rect id="Rectangle_701" data-name="Rectangle 701" width="7.337" height="9.918" transform="translate(81.472 114.156)" fill="#4d4d4d" opacity="0.5"/>
          <path id="Path_735" data-name="Path 735" d="M93.724,173.873c0-3.316-1.624-6.013-3.625-6.013H85.865v4.34a9.715,9.715,0,0,0,0,3.345v4.34h4.427C92.216,179.741,93.724,177.111,93.724,173.873Z" transform="translate(-2.856 -5.592)" fill="#4d4d4d"/>
          <path id="Path_736" data-name="Path 736" d="M89.37,173.873c0,3.325-1.624,6.013-3.625,6.013s-3.625-2.687-3.625-6.013,1.624-6.013,3.625-6.013S89.37,170.557,89.37,173.873Z" transform="translate(-2.736 -5.592)" fill="#666"/>
          <path id="Path_737" data-name="Path 737" d="M84.28,166v9.754a1.218,1.218,0,0,0,1.218,1.218h.7a1.334,1.334,0,0,0,1.334-1.305V166Z" transform="translate(-2.808 -5.53)" fill="#b3b3b3"/>
          <path id="Path_738" data-name="Path 738" d="M86.923,174.016c0,1.025-.493,1.846-1.112,1.846s-1.112-.822-1.112-1.846.5-1.846,1.112-1.846S86.923,172.972,86.923,174.016Z" transform="translate(-2.822 -5.736)" fill="gray"/>
          <rect id="Rectangle_702" data-name="Rectangle 702" width="60.138" height="4.708" transform="translate(123.194 147.265)" fill="#b3b3b3"/>
          <rect id="Rectangle_703" data-name="Rectangle 703" width="7.337" height="52.81" transform="translate(118.748 114.156)" fill="#b3b3b3"/>
          <rect id="Rectangle_704" data-name="Rectangle 704" width="2.9" height="52.81" transform="translate(123.194 114.156)" fill="#999" opacity="0.5"/>
          <rect id="Rectangle_705" data-name="Rectangle 705" width="7.337" height="9.918" transform="translate(118.748 114.156)" fill="#4d4d4d" opacity="0.5"/>
          <path id="Path_739" data-name="Path 739" d="M132.313,173.873c0-3.316-1.614-6.013-3.615-6.013h-4.273v4.34a9.716,9.716,0,0,0,0,3.345v4.34h4.418C130.776,179.741,132.313,177.111,132.313,173.873Z" transform="translate(-4.14 -5.592)" fill="#4d4d4d"/>
          <ellipse id="Ellipse_207" data-name="Ellipse 207" cx="3.625" cy="6.013" rx="3.625" ry="6.013" transform="translate(116.66 162.268)" fill="#666"/>
          <path id="Path_740" data-name="Path 740" d="M122.84,166v9.754a1.218,1.218,0,0,0,1.218,1.218h.7a1.334,1.334,0,0,0,1.334-1.305V166Z" transform="translate(-4.092 -5.53)" fill="#b3b3b3"/>
          <path id="Path_741" data-name="Path 741" d="M125.5,174.016c0,1.025-.5,1.846-1.112,1.846s-1.112-.822-1.112-1.846.493-1.846,1.112-1.846S125.5,172.972,125.5,174.016Z" transform="translate(-4.107 -5.736)" fill="gray"/>
          <rect id="Rectangle_706" data-name="Rectangle 706" width="7.337" height="52.81" transform="translate(178.885 114.156)" fill="#b3b3b3"/>
          <rect id="Rectangle_707" data-name="Rectangle 707" width="2.9" height="52.81" transform="translate(183.332 114.156)" fill="#999" opacity="0.5"/>
          <rect id="Rectangle_708" data-name="Rectangle 708" width="7.337" height="9.918" transform="translate(178.885 114.156)" fill="#4d4d4d" opacity="0.5"/>
          <path id="Path_742" data-name="Path 742" d="M194.523,173.873c0-3.316-1.614-6.013-3.615-6.013h-4.273v4.34a9.716,9.716,0,0,0,0,3.345v4.34h4.418C192.986,179.741,194.523,177.111,194.523,173.873Z" transform="translate(-6.213 -5.592)" fill="#4d4d4d"/>
          <path id="Path_743" data-name="Path 743" d="M190.13,173.873c0,3.325-1.614,6.013-3.615,6.013s-3.625-2.687-3.625-6.013,1.624-6.013,3.625-6.013S190.13,170.557,190.13,173.873Z" transform="translate(-6.093 -5.592)" fill="#666"/>
          <path id="Path_744" data-name="Path 744" d="M185.05,166v9.754a1.208,1.208,0,0,0,1.218,1.218h.667a1.334,1.334,0,0,0,1.334-1.334V166Z" transform="translate(-6.165 -5.53)" fill="#b3b3b3"/>
          <path id="Path_745" data-name="Path 745" d="M187.713,174.016c0,1.025-.5,1.846-1.112,1.846s-1.112-.822-1.112-1.846.493-1.846,1.112-1.846S187.713,172.972,187.713,174.016Z" transform="translate(-6.179 -5.736)" fill="gray"/>
          <path id="Path_746" data-name="Path 746" d="M101.25,10.049a.406.406,0,0,0-.261-.2,1.479,1.479,0,0,1-.967-.831V6.937a1.808,1.808,0,0,0-1.527-1.817,1.769,1.769,0,0,0-2.04,1.817V9.015a1.353,1.353,0,0,1-.435.551,1.5,1.5,0,0,1-.57.28.387.387,0,0,0-.3.367V10.4h1.933a1.721,1.721,0,0,0,2.175,0h1.933v-.184a.454.454,0,0,0,.058-.164ZM97.17,7.961a.735.735,0,0,1,0-.145c0-.831.493-1.479,1.044-1.479s1.044.725,1.044,1.624S98.794,9.6,98.214,9.6s-.909-.522-.967-1.228a1.806,1.806,0,0,1-.077-.406Z" transform="translate(-3.17 -0.17)" fill="#fff"/>
          <path id="Path_747" data-name="Path 747" d="M97.254,8.461H96.5V7.91h.725a.733.733,0,0,0,0,.145A1.808,1.808,0,0,0,97.254,8.461Z" transform="translate(-3.215 -0.264)" fill="#95b3ba"/>
          <path id="Path_748" data-name="Path 748" d="M101.292,10.368v.184H99.358a1.721,1.721,0,0,1-2.175,0H95.25v-.184A.377.377,0,0,1,95.54,10a1.431,1.431,0,0,0,.57-.28l5.23.483A.319.319,0,0,1,101.292,10.368Z" transform="translate(-3.173 -0.324)" fill="#9ec3cc"/>
          <rect id="Rectangle_709" data-name="Rectangle 709" width="3.557" height="2.02" transform="translate(93.266 33.689)" fill="#dcf2fd"/>
          <path id="Path_749" data-name="Path 749" d="M93.686,10.39h8.99a.4.4,0,0,1,.4.4v2.127H93.29V10.786A.4.4,0,0,1,93.686,10.39Z" transform="translate(-3.108 -0.346)" fill="#dcf2fd"/>
          <path id="Path_750" data-name="Path 750" d="M103.8,27.3c-.831-5.375,0-12.77.358-15.206a.715.715,0,0,0-.715-.822H92.8a.725.725,0,0,0-.715.822c.329,2.436,1.189,9.831.358,15.206-.58,3.751-.822,5.607-.967,6.5a.725.725,0,0,0,.715.812h11.823a.725.725,0,0,0,.725-.812C104.627,32.9,104.375,31.048,103.8,27.3Z" transform="translate(-3.047 -0.375)" fill="#77d8c5"/>
          <rect id="Rectangle_710" data-name="Rectangle 710" width="8.671" height="13.949" transform="translate(90.714 15.825)" fill="#fff"/>
          <rect id="Rectangle_711" data-name="Rectangle 711" width="8.671" height="1.779" transform="translate(90.714 27.995)" fill="#d33d48"/>
          <rect id="Rectangle_712" data-name="Rectangle 712" width="8.671" height="2.291" transform="translate(90.714 17.942)" fill="#d33d48"/>
          <path id="Path_751" data-name="Path 751" d="M100.047,35.976v.918H96.48V35.58Z" transform="translate(-3.214 -1.185)" fill="#9ec3cc"/>
          <rect id="Rectangle_713" data-name="Rectangle 713" width="0.889" height="59.316" transform="translate(94.6 35.874)" fill="#fff"/>
          <path id="Path_752" data-name="Path 752" d="M98.759,37.11v9.416l-.9.744V37.11Z" transform="translate(-3.26 -1.236)" fill="#abe1fa"/>
          <path id="Path_753" data-name="Path 753" d="M98.759,37.66v1.663l-.9-.2V37.66Z" transform="translate(-3.26 -1.255)" fill="#9ec3cc"/>
          <path id="Path_754" data-name="Path 754" d="M100.466,36.787l-.271,1.489h0a.57.57,0,0,1-.561.464H96.86a.58.58,0,0,1-.561-.464h0L96,36.787a.648.648,0,0,1,0-.193.57.57,0,0,1,.561-.474h3.306a.561.561,0,0,1,.561.474A.647.647,0,0,1,100.466,36.787Z" transform="translate(-3.198 -1.203)" fill="#fff"/>
          <path id="Path_755" data-name="Path 755" d="M100.466,36.8l-.271,1.489H96.328L96,36.8a.648.648,0,0,1,0-.193h4.437A.648.648,0,0,1,100.466,36.8Z" transform="translate(-3.198 -1.22)" fill="#dcf2fd"/>
          <path id="Path_756" data-name="Path 756" d="M94.957,14.166a.628.628,0,1,1-.287-.608.628.628,0,0,1,.287.608Z" transform="translate(-3.122 -0.448)" fill="#c7eafb"/>
          <path id="Path_757" data-name="Path 757" d="M96.337,15.039a.329.329,0,1,1-.329-.329A.329.329,0,0,1,96.337,15.039Z" transform="translate(-3.188 -0.49)" fill="#c7eafb"/>
          <path id="Path_758" data-name="Path 758" d="M96.761,13.226a.416.416,0,1,1-.416-.416.416.416,0,0,1,.416.416Z" transform="translate(-3.196 -0.427)" fill="#c7eafb"/>
          <rect id="Rectangle_714" data-name="Rectangle 714" width="7.318" height="0.116" transform="translate(91.39 17.284)" fill="#ccc"/>
          <rect id="Rectangle_715" data-name="Rectangle 715" width="7.318" height="0.116" transform="translate(91.39 20.89)" fill="#ccc"/>
          <rect id="Rectangle_716" data-name="Rectangle 716" width="7.318" height="0.116" transform="translate(91.39 21.209)" fill="#ccc"/>
          <rect id="Rectangle_717" data-name="Rectangle 717" width="7.318" height="0.116" transform="translate(91.39 21.518)" fill="#ccc"/>
          <rect id="Rectangle_718" data-name="Rectangle 718" width="7.318" height="0.116" transform="translate(91.39 21.837)" fill="#ccc"/>
          <rect id="Rectangle_719" data-name="Rectangle 719" width="7.318" height="0.116" transform="translate(91.39 22.156)" fill="#ccc"/>
          <rect id="Rectangle_720" data-name="Rectangle 720" width="7.318" height="0.116" transform="translate(91.39 22.475)" fill="#ccc"/>
          <rect id="Rectangle_721" data-name="Rectangle 721" width="7.318" height="0.116" transform="translate(91.39 22.785)" fill="#ccc"/>
          <rect id="Rectangle_722" data-name="Rectangle 722" width="7.318" height="0.116" transform="translate(91.39 23.104)" fill="#ccc"/>
          <rect id="Rectangle_723" data-name="Rectangle 723" width="7.318" height="0.116" transform="translate(91.39 23.423)" fill="#ccc"/>
          <rect id="Rectangle_724" data-name="Rectangle 724" width="7.318" height="0.116" transform="translate(91.39 23.742)" fill="#ccc"/>
          <rect id="Rectangle_725" data-name="Rectangle 725" width="3.567" height="0.116" transform="translate(95.141 24.254)" fill="#ccc"/>
          <rect id="Rectangle_726" data-name="Rectangle 726" width="3.567" height="0.116" transform="translate(95.141 24.496)" fill="#ccc"/>
          <rect id="Rectangle_727" data-name="Rectangle 727" width="3.567" height="0.116" transform="translate(95.141 24.728)" fill="#ccc"/>
          <rect id="Rectangle_728" data-name="Rectangle 728" width="3.567" height="0.116" transform="translate(95.141 24.97)" fill="#ccc"/>
          <rect id="Rectangle_729" data-name="Rectangle 729" width="3.567" height="0.116" transform="translate(95.141 25.202)" fill="#ccc"/>
          <rect id="Rectangle_730" data-name="Rectangle 730" width="3.567" height="0.116" transform="translate(95.141 25.443)" fill="#ccc"/>
          <rect id="Rectangle_731" data-name="Rectangle 731" width="3.567" height="0.116" transform="translate(95.141 25.675)" fill="#ccc"/>
          <rect id="Rectangle_732" data-name="Rectangle 732" width="3.567" height="0.116" transform="translate(95.141 25.917)" fill="#ccc"/>
          <rect id="Rectangle_733" data-name="Rectangle 733" width="3.567" height="0.116" transform="translate(95.141 26.149)" fill="#ccc"/>
          <rect id="Rectangle_734" data-name="Rectangle 734" width="3.567" height="0.116" transform="translate(95.141 26.391)" fill="#ccc"/>
          <rect id="Rectangle_735" data-name="Rectangle 735" width="3.567" height="0.116" transform="translate(95.141 26.632)" fill="#ccc"/>
          <rect id="Rectangle_736" data-name="Rectangle 736" width="3.567" height="0.116" transform="translate(95.141 26.864)" fill="#ccc"/>
          <rect id="Rectangle_737" data-name="Rectangle 737" width="3.567" height="0.116" transform="translate(95.141 27.106)" fill="#ccc"/>
          <rect id="Rectangle_738" data-name="Rectangle 738" width="3.567" height="0.116" transform="translate(95.141 27.338)" fill="#ccc"/>
          <rect id="Rectangle_739" data-name="Rectangle 739" width="3.567" height="0.116" transform="translate(95.141 27.58)" fill="#ccc"/>
          <rect id="Rectangle_740" data-name="Rectangle 740" width="7.318" height="0.116" transform="translate(91.39 16.936)" fill="#ccc"/>
          <rect id="Rectangle_741" data-name="Rectangle 741" width="7.318" height="0.116" transform="translate(91.39 16.579)" fill="#ccc"/>
          <ellipse id="Ellipse_208" data-name="Ellipse 208" cx="1.44" cy="1.44" rx="1.44" ry="1.44" transform="translate(91.39 24.534)" fill="#d33d48"/>
          <path id="Path_759" data-name="Path 759" d="M96.611,26.628h-.387v-.4a.232.232,0,0,0-.464-.019v.4h-.367a.213.213,0,1,0,0,.425h.4v.4a.222.222,0,1,0,.435,0v-.4h.387a.213.213,0,0,0,0-.425Z" transform="translate(-3.171 -0.866)" fill="#fff"/>
          <path id="Path_760" data-name="Path 760" d="M114.968,7.878a.358.358,0,0,1-.358.358h-14.5V7.52h14.5A.358.358,0,0,1,114.968,7.878Z" transform="translate(-3.335 -0.251)" fill="#ccc"/>
          <path id="Path_761" data-name="Path 761" d="M99.23,7.9a1.294,1.294,0,0,1,0,.193H95.75A1.769,1.769,0,0,1,94,6.338V3.786a.358.358,0,1,1,.706,0V6.338a1.054,1.054,0,0,0,1.054,1.044h3.432a3,3,0,0,1,.039.522Z" transform="translate(-3.131 -0.112)" fill="#ccc"/>
          <path id="Path_762" data-name="Path 762" d="M99.383,8.042a1.3,1.3,0,0,1,0,.193h-.667A1.566,1.566,0,0,0,98.6,7.52h.744a2.993,2.993,0,0,1,.039.522Z" transform="translate(-3.285 -0.251)" fill="#95b3ba"/>
          <rect id="Rectangle_742" data-name="Rectangle 742" width="0.271" height="0.715" transform="translate(96.814 7.269)" fill="#95b3ba"/>
          <rect id="Rectangle_743" data-name="Rectangle 743" width="5.5" height="0.715" transform="translate(102.304 7.269)" fill="#95b3ba"/>
          <path id="Path_763" data-name="Path 763" d="M117.822,174.08a1.634,1.634,0,0,1,1.634,1.634v3.248a1.469,1.469,0,0,1-2.9,0v-3.026H100.48v3.035a1.469,1.469,0,0,1-2.9,0v-3.248a1.634,1.634,0,0,1,1.634-1.634Z" transform="translate(-3.251 -5.799)" fill="#ccc"/>
          <rect id="Rectangle_744" data-name="Rectangle 744" width="6.68" height="1.846" transform="translate(101.947 168.281)" fill="#95b3ba"/>
          <path id="Path_764" data-name="Path 764" d="M110.012,1.131V173.2a1.131,1.131,0,1,1-2.262,0V1.131a1.128,1.128,0,0,1,1.924-.8A1.15,1.15,0,0,1,110.012,1.131Z" transform="translate(-3.59)" fill="#ccc"/>
          <path id="Path_765" data-name="Path 765" d="M110.051,1.131V173.2a1.131,1.131,0,0,1-1.131,1.131V0a1.121,1.121,0,0,1,.793.329A1.15,1.15,0,0,1,110.051,1.131Z" transform="translate(-3.629)" fill="#ccc"/>
          <path id="Path_766" data-name="Path 766" d="M89.311,56.379v56.4H14.77v-56.4c0-2.9,1.034-5.259,4.166-5.259H83.5A5.558,5.558,0,0,1,89.311,56.379Z" transform="translate(-0.492 -1.703)" fill="#b3b3b3"/>
          <path id="Path_767" data-name="Path 767" d="M21.836,112.775v-56.4c0-2.9,1.025-5.259,4.157-5.259H18.936c-3.132,0-4.166,2.359-4.166,5.259v56.4Z" transform="translate(-0.492 -1.703)" fill="#999" opacity="0.5"/>
          <path id="Path_768" data-name="Path 768" d="M80.814,114.295V72.727c0-3.248-3.016-5.877-6.767-5.877H34.307c-3.722,0-6.767,2.629-6.767,5.877v41.568Z" transform="translate(-0.917 -2.227)" fill="#999" opacity="0.5"/>
          <path id="Path_769" data-name="Path 769" d="M83.734,114.295V72.727c0-3.248-3.016-5.877-6.767-5.877H37.227c-3.722,0-6.767,2.629-6.767,5.877v41.568Z" transform="translate(-1.015 -2.227)" fill="#ec231a"/>
          <path id="Path_770" data-name="Path 770" d="M89.062,112.776h.058a6.09,6.09,0,0,0-1.527-2.5,5.384,5.384,0,0,0-1.228-.87c-.387-.2-.8-.4-1.218-.638a26.294,26.294,0,0,0-4.321-1.933l-3.49-1.044c-.174-1.45-.377-3.055-.628-4.833-.184-1.315-.425-2.571-.7-3.76l15.206,1.7V94.612c-4.988-.8-10.8-1.933-11.446-2.9v-.048c-.551-1.092-2.04-5.075-3.016-7.733l-.222-.59.831-.29c-.222-.812-.387-1.324-.387-1.324s-3.209-9.019-5.094-11.1a7.212,7.212,0,0,0-3.238-1.933l-.058-.1c-2.2-1.054-5.452-2.9-8.275-3.084,1.817-.764,3.122-2.523,4.273-4.476a8.324,8.324,0,0,0,.764-1.933,2.02,2.02,0,0,0,.706-.773c.193-.367.261-.793.474-1.15.493-.87,1.682-1.208,2.049-2.136s-.213-2.04.532-2.9a9.964,9.964,0,0,0,.87-1.015H42.448a1.934,1.934,0,0,1,.338.686,4.882,4.882,0,0,1-.155,1.489,2.455,2.455,0,0,0,1.45,2.446,3.5,3.5,0,0,1,1.344.619c.377.4.387,1.015.706,1.469.551.754,1.7.667,2.542,1.063A12.19,12.19,0,0,0,53.4,64.258l.1.967v.116a5.5,5.5,0,0,1,0,.677v.058a33.98,33.98,0,0,0-8.517,4.456q-.715.522-1.305.967A14.371,14.371,0,0,0,42.4,72.542h-.077c-.967.164-3.683,2.765-4.186,6.032s1.257,14.5,1.257,14.5.116.628.329,1.6l1.363-.261c.145.648.309,1.305.483,1.933.28,1.054.59,2.107.9,3.151a1.339,1.339,0,0,0,.1.319c.532,1.779,1.073,3.567,1.75,5.3a4.166,4.166,0,0,0,.86,1.344,11.831,11.831,0,0,0,.068,1.547c.077,1.624.184,3.258.29,4.756Z" transform="translate(-1.267 -1.703)" fill="#999" opacity="0.5"/>
          <path id="Path_771" data-name="Path 771" d="M42.959,66.86H37.227c-3.722,0-6.767,2.629-6.767,5.877V114.3h5.723V72.737C36.212,69.489,39.238,66.86,42.959,66.86Z" transform="translate(-1.015 -2.227)" fill="#ec231a"/>
          <path id="Path_772" data-name="Path 772" d="M102.5,96.7l-2.426,3.809L80.007,98.255l-1.363-.145-1.421-3.867-2.9-7.733-.329-.9-.464-1.218-.28-.773,3.209-.628,3.316-.551h0l.706,1.933.222.59c.967,2.678,2.465,6.66,3.016,7.733v.048C84.937,94.485,102.5,96.7,102.5,96.7Z" transform="translate(-2.44 -2.746)" fill="#fab29a"/>
          <path id="Path_773" data-name="Path 773" d="M80.741,84.992c-1.373.9-3.867,2.233-4.746,2.687l-.309.164L74.061,85.7l-.841-1.1.377-.116,6.177-2.03.706,1.933Z" transform="translate(-2.439 -2.747)" fill="#cc8a79" opacity="0.5"/>
          <path id="Path_774" data-name="Path 774" d="M71.1,87.246c-.116-.358-.232-.754-.358-1.218L70.312,84.8c-.126,0-2.977-7.231-2.832-10.3s.841-5.191,1.808-5.549,4.543.164,6.4,2.272,5.056,11.117,5.056,11.117.164.5.387,1.315Z" transform="translate(-2.248 -2.293)" fill="#e6e6e6"/>
          <path id="Path_775" data-name="Path 775" d="M48.3,99.417a57.7,57.7,0,0,0,0,9.1c.106,2.175.251,4.36.406,6.235v.454h32.51c-.135-2.214-.512-6.921-1.479-13.737-.184-1.315-.425-2.571-.7-3.76a44.282,44.282,0,0,0-1.2-4.369A45.037,45.037,0,0,0,75.911,88.5c-.135-1.083-.242-2.175-.3-3.219V84.047c0-.406.068-.706.1-1.112v-.416c-.967-7.733-2.968-11.832-3.867-13.379l-.058-.1c-2.2-1.054-5.452-2.9-8.275-3.084h-.58l-3.016.232H59.6l-.812.058H57.5c-.271.077-.541.174-.812.271a33.98,33.98,0,0,0-8.517,4.456q-.715.522-1.305.967a27.067,27.067,0,0,0-2.542,2.214c0,6,.454,8.555,1.15,11.233C45.76,88.8,48.738,96.353,48.3,99.417Z" transform="translate(-1.476 -2.197)" fill="#fff"/>
          <path id="Path_776" data-name="Path 776" d="M57.068,68.5l3.122,4.3a18.908,18.908,0,0,0,4.137,4.321l.387-8.439v-.619L64.3,67.2,62.781,64l-.416-2.9-.222-1.566-4.012.57-1.692.242V60.7l.329,3.258.213,1.489v.116a5.5,5.5,0,0,1,0,.677A4.8,4.8,0,0,0,57.068,68.5Z" transform="translate(-1.88 -1.983)" fill="#fab29a"/>
          <path id="Path_777" data-name="Path 777" d="M56.981,65.562a25.424,25.424,0,0,0,7.733,3.122v-.619L64.3,67.2,62.781,64l-.416-2.9-.222-1.566-4.012.57-1.692.242V60.7l.329,3.258.213,1.489Z" transform="translate(-1.88 -1.983)" fill="#cc8a79" opacity="0.5"/>
          <path id="Path_778" data-name="Path 778" d="M71.617,54.4c-.367.967-1.556,1.266-2.049,2.127-.213.367-.28.793-.474,1.16a3.084,3.084,0,0,1-2.562,1.4,22.64,22.64,0,0,0-3.035.145c-1.933.4-3.519,2.03-5.442,1.837-1.46-.155-2.629-1.334-4.06-1.643a3.528,3.528,0,0,1-1.382-.406c-.184-.135-.329-.329-.512-.474-.841-.7-2.291-.425-2.9-1.305-.348-.474-.348-1.054-.735-1.5a3.5,3.5,0,0,0-1.344-.619,2.436,2.436,0,0,1-1.45-2.446,4.882,4.882,0,0,0,.155-1.489,3.867,3.867,0,0,0-.754-1.247,3.335,3.335,0,0,1,.184-3.867c.319-.4.764-.773.793-1.286a2.388,2.388,0,0,0-.309-.967,3.3,3.3,0,0,1,.106-2.62c.377-.8,1.266-1.276,1.5-2.127.126-.464.126-.967.242-1.411a3.045,3.045,0,0,1,3.1-2.223,8.12,8.12,0,0,0,1.6.164c1.4-.174,2-1.846,3.161-2.62a3.035,3.035,0,0,1,3.142-.1,9.019,9.019,0,0,0,1.759,1.063c1.566.435,3.045-1.179,4.669-1.092a2.32,2.32,0,0,1,2.059,1.653,4.37,4.37,0,0,0,.29.967c.416.7,1.392.725,2.146.967a2.8,2.8,0,0,1,1.634,1.827c.271.9-.367,1.779-.077,2.552S72.352,41.79,73,42.35a2.446,2.446,0,0,1,.967,2.281c-.145.967-.87,1.808-.86,2.784a14.443,14.443,0,0,0,.28,1.547c.145,1.2-.541,1.74-1.237,2.533S72.052,53.4,71.617,54.4Z" transform="translate(-1.484 -1.083)" fill="#8f543f"/>
          <path id="Path_779" data-name="Path 779" d="M68.953,47.947a24.167,24.167,0,0,0-.967-6.264c-.59-1.537-3.383-4.833-9.938-4.176-5.945.57-9.213,3.258-8.7,12.026l1.933,1.382L68,49.774Z" transform="translate(-1.642 -1.247)" fill="#fab29a"/>
          <path id="Path_780" data-name="Path 780" d="M68.995,52.082s.367-1.837,1.933-1.682.967,5.336-2.088,5.239Z" transform="translate(-2.293 -1.679)" fill="#fab29a"/>
          <path id="Path_781" data-name="Path 781" d="M69.273,52.527s.8-.918,1.344-.609.174.967-.164,1.334a1.054,1.054,0,0,1-.783.309s.367.4.358.638-.967.88-.967.88Z" transform="translate(-2.301 -1.727)" fill="#cc8a79" opacity="0.5"/>
          <path id="Path_782" data-name="Path 782" d="M51.14,51.313a2.6,2.6,0,0,0-2.7-1.933c-2.107.213-1.131,6.225,3.132,6.042Z" transform="translate(-1.578 -1.645)" fill="#fab29a"/>
          <path id="Path_783" data-name="Path 783" d="M50.76,51.844s-1.16-1.044-1.933-.677-.193,1.16.29,1.547a1.682,1.682,0,0,0,1.092.348s-.493.474-.464.744,1.431.967,1.431.967Z" transform="translate(-1.614 -1.702)" fill="#cc8a79" opacity="0.5"/>
          <path id="Path_784" data-name="Path 784" d="M68.965,47.2a5.7,5.7,0,0,1,0,1.218c-.29,1.982.967,8.7-1.112,12.229-2.2,3.731-4.949,6.767-10.817,3.48-5.23-2.9-6.264-8.555-6.457-10.634a33.146,33.146,0,0,1,0-3.519c.087-2.678.309-5.674.309-5.674s9.29-8.7,17.4.193a8.942,8.942,0,0,1,.677,2.707Z" transform="translate(-1.683 -1.349)" fill="#fab29a"/>
          <path id="Path_785" data-name="Path 785" d="M61.08,55.6c0,.483.851.86,1.875.831s1.856-.435,1.837-.967-.889-.812-1.856-.783S61.07,55.115,61.08,55.6Z" transform="translate(-2.035 -1.822)" fill="#e29386"/>
          <path id="Path_786" data-name="Path 786" d="M67.751,48.756a.512.512,0,0,0,.338-.164.541.541,0,0,0,0-.764,2.475,2.475,0,0,0-3.316,0,.551.551,0,0,0-.068.764.532.532,0,0,0,.754.068,1.411,1.411,0,0,1,1.933-.087.522.522,0,0,0,.358.184Z" transform="translate(-2.152 -1.572)" fill="#8f543f"/>
          <path id="Path_787" data-name="Path 787" d="M58.72,49.368a.522.522,0,0,0,.28-.261.551.551,0,0,0-.242-.725,2.484,2.484,0,0,0-3.171.967.541.541,0,0,0,.9.6,1.392,1.392,0,0,1,1.788-.628.512.512,0,0,0,.445.048Z" transform="translate(-1.849 -1.604)" fill="#8f543f"/>
          <path id="Path_788" data-name="Path 788" d="M60.5,59.149a3.229,3.229,0,0,0,2.581,1.45,2.127,2.127,0,0,0,2.136-1.479" transform="translate(-2.016 -1.97)" fill="none" stroke="#e29386" stroke-linecap="round" stroke-miterlimit="10" stroke-width="1"/>
          <path id="Path_789" data-name="Path 789" d="M69.594,48.383a8.357,8.357,0,0,0-.068-1.431,3.125,3.125,0,0,1,0-.812s2.02,0,1.382,4.118a1.025,1.025,0,0,0-.5.068.705.705,0,0,0-.222.28,1.933,1.933,0,0,0-.106.715v2.156a1.672,1.672,0,0,1-.4,1.228c-.1,0-.116-.184-.116-.3,0-1.324-.087-2.658-.126-3.992a8.953,8.953,0,0,1,0-1.247C69.5,48.9,69.546,48.653,69.594,48.383Z" transform="translate(-2.313 -1.537)" fill="#8f543f"/>
          <path id="Path_790" data-name="Path 790" d="M49,45.555a8.828,8.828,0,0,1,.213-1.566c.29-1.624,1.643-6.293,7.946-7.115A13.534,13.534,0,0,1,64,37.58c1.353.387,6.071,2.291,6.09,9.783-.773-.541-1.054-1.6-1.933-1.933-.445-.193-.967-.222-1.411-.425s-.87-.551-1.4-.454c-.967.174-.967,1.4-1.856,1.556s-1.643-1.547-2.62-1.266c-.348.1-.58.425-.87.648a1.6,1.6,0,0,1-1.663.155c-.522-.261-.909-.822-1.489-.87-.793-.077-1.228.744-1.547,1.353a3.992,3.992,0,0,1-1.218,1.5,3.867,3.867,0,0,0-.889,1.15,5.413,5.413,0,0,0-.831,3.538c.28,3.122.86,4-.213,4.437s-2.117-2.707-1.933-7.289l-1.2-.5a1.846,1.846,0,0,0-.058-.561A17.208,17.208,0,0,1,49,45.555Z" transform="translate(-1.63 -1.223)" fill="#8f543f"/>
          <path id="Path_791" data-name="Path 791" d="M58.76,52.091c.145.7-.048,1.334-.435,1.411s-.812-.425-.967-1.121.048-1.344.435-1.421S58.615,51.385,58.76,52.091Z" transform="translate(-1.909 -1.697)" fill="#280600"/>
          <path id="Path_792" data-name="Path 792" d="M57.837,51.792c0,.145,0,.28-.135.3s-.2-.087-.222-.232,0-.28.135-.3S57.818,51.647,57.837,51.792Z" transform="translate(-1.915 -1.718)" fill="#fff"/>
          <path id="Path_793" data-name="Path 793" d="M67.38,51.161c.145.706-.048,1.344-.435,1.421s-.822-.425-.967-1.131,0-1.334.435-1.421S67.235,50.455,67.38,51.161Z" transform="translate(-2.196 -1.666)" fill="#280600"/>
          <path id="Path_794" data-name="Path 794" d="M66.457,50.872c0,.145,0,.28-.135.29s-.2-.087-.232-.232,0-.28.135-.3S66.428,50.717,66.457,50.872Z" transform="translate(-2.201 -1.687)" fill="#fff"/>
          <path id="Path_795" data-name="Path 795" d="M48.3,99.622a57.7,57.7,0,0,0,0,9.1c.106,2.175.251,4.36.406,6.235v.454h9.416l-.29-5.529a19.981,19.981,0,0,0-2.755-5.152,5.888,5.888,0,0,1-.561-.967c-1.479-2.9-2.33-8.459-2.33-8.459l2.117-.783s-.493-8.961-3.1-15.728c-1.682-4.36-3.451-6.032-4.5-6.67a27.067,27.067,0,0,0-2.542,2.214c0,6,.454,8.555,1.15,11.233C45.755,89.008,48.732,96.558,48.3,99.622Z" transform="translate(-1.471 -2.403)" fill="#ccc" opacity="0.5"/>
          <path id="Path_796" data-name="Path 796" d="M82.94,93.15c-1.74.319-3.4.686-5.007,1.092q-.783.184-1.537.406a71.148,71.148,0,0,0-21.75,9.851,56.48,56.48,0,0,0-6.245,4.94c.106,2.175.251,4.36.406,6.235v.454H81.354c-.135-2.214-.512-6.921-1.479-13.737-.184-1.315-.425-2.571-.7-3.76l20.068,2.233,2.4-3.809S84.109,94.842,82.94,93.15Z" transform="translate(-1.612 -3.103)" fill="#b3b3b3" opacity="0.5"/>
          <path id="Path_797" data-name="Path 797" d="M187.813,113.782l-51.718-.416-46.768-.377L47.76,112.66s3.693-2.542,9.039-5.645c6.593-3.867,15.689-8.555,23.423-10.45a79.268,79.268,0,0,1,23.635-2.359l1.073.1s58,4.524,68.18,6.767c.686.155,1.344.319,1.933.5a20.078,20.078,0,0,1,9.377,5.433,12.354,12.354,0,0,1,3.393,6.776Z" transform="translate(-1.591 -3.135)" fill="#ec231a"/>
          <path id="Path_798" data-name="Path 798" d="M184.479,107.015H89.86c1.711-6.525,10.266-11.088,14.017-12.809a79.268,79.268,0,0,0-23.635,2.359c-7.733,1.933-16.83,6.6-23.423,10.45-5.346,3.1-9.039,5.645-9.039,5.645l88.316.706,51.718.416A12.354,12.354,0,0,0,184.479,107.015Z" transform="translate(-1.592 -3.135)" fill="#e12017"/>
          <path id="Path_799" data-name="Path 799" d="M92.137,114.063a25.849,25.849,0,0,1-8.391,1.179,30.165,30.165,0,0,1-3.5-.077,63.345,63.345,0,0,1-7.26-1.44c-2.5-.512-5.065-.6-7.608-.9a64.875,64.875,0,0,1-12.074-2.349,14.935,14.935,0,0,1-4.485-2.1,4.253,4.253,0,0,1-1.508-1.933c-.677-1.73-1.218-3.519-1.75-5.3a1.339,1.339,0,0,0-.1-.319c-.309-1.044-.619-2.1-.9-3.151a32.867,32.867,0,0,1-.967-4.92.522.522,0,0,1,.058-.338c.2-.319.793-.348,1.17-.474l1.788-.609a10.517,10.517,0,0,1,3.258-.967,3.321,3.321,0,0,0,.087.6c.2,1.537.512,3.055.86,4.572s.812,3.306,1.247,4.949a4.369,4.369,0,0,0,.551,1.392,9.822,9.822,0,0,0,4.717,3.219,72.7,72.7,0,0,0,7.25,2.04c1.276.309,2.552.59,3.867.87l1.643.338c.309.058,1.034.358,1.324.261,1.663-.522,3.519-1.1,4.186-1.3a20.958,20.958,0,0,1,4.041-.425l4.253,1.266a26.293,26.293,0,0,1,4.321,1.933c.416.242.831.435,1.218.638a5.385,5.385,0,0,1,1.228.87,6.216,6.216,0,0,1,1.469,2.465Z" transform="translate(-1.452 -3.011)" fill="#fab29a"/>
          <path id="Path_800" data-name="Path 800" d="M50.752,95.524a60.123,60.123,0,0,1-6.216,2.165,32.867,32.867,0,0,1-.967-4.92.522.522,0,0,1,.058-.338L49.921,91C50.124,92.489,50.433,94.006,50.752,95.524Z" transform="translate(-1.451 -3.032)" fill="#cc8a79" opacity="0.5"/>
          <path id="Path_801" data-name="Path 801" d="M52.7,93.441c-.077-.435-.164-.967-.29-1.479l-.251-1.556c.126,0-1.073-9.271-2.707-12.4S46.2,73.044,45.223,73.17s-3.673,2.765-4.186,6.032S42.3,93.7,42.3,93.7s.116.628.329,1.6Z" transform="translate(-1.364 -2.437)" fill="#fff"/>
          <path id="Path_802" data-name="Path 802" d="M163.94,118.774v.967c0,3.635-1.537,6.593-3.422,6.593H19.478c-2.533,0-4.6-2.9-4.7-6.641V112.22H160.518C162.4,112.23,163.94,115.178,163.94,118.774Z" transform="translate(-0.492 -3.738)" fill="#b3b3b3"/>
          <path id="Path_803" data-name="Path 803" d="M197.676,118.262v2.04c0,3.335-1.846,6.042-4.108,6.042H140.4V112.23h53.168C195.83,112.23,197.676,114.908,197.676,118.262Z" transform="translate(-4.677 -3.739)" fill="#e6e6e6"/>
          <path id="Path_804" data-name="Path 804" d="M193.491,120v.6c0,3.335-1.846,6.042-4.108,6.042H19.478c-2.533,0-4.6-2.9-4.7-6.641Z" transform="translate(-0.492 -3.998)" fill="#999" opacity="0.5"/>
        </g>
      </g>
    </g>
  </g>
</svg>
