<svg width="1879" height="1441" viewBox="0 0 1879 1441" fill="none" xmlns="http://www.w3.org/2000/svg">
<circle cx="938.255" cy="195.206" r="122.417" fill="#F8F8F8"/>
<path d="M1098.25 264.246C1112.08 238.263 1119.3 209.269 1119.25 179.831C1119.25 80.5115 1038.74 0 939.423 0C840.104 0 759.592 80.5115 759.592 179.831C759.519 222.253 774.515 263.322 801.905 295.717L802.117 295.981C802.191 296.045 802.254 296.129 802.307 296.193H801.905L908.619 409.486C912.575 413.686 917.348 417.031 922.644 419.318C927.941 421.605 933.649 422.785 939.418 422.785C945.187 422.785 950.895 421.605 956.192 419.318C961.488 417.031 966.261 413.686 970.217 409.486L1076.94 296.193H1076.54L1076.71 295.992L1076.73 295.971C1077.49 295.061 1078.25 294.151 1079 293.22C1086.34 284.202 1092.79 274.495 1098.26 264.236L1098.25 264.246ZM939.466 248.59C922.632 248.59 906.489 241.903 894.586 230C882.683 218.098 875.996 201.954 875.996 185.12C875.996 168.287 882.683 152.143 894.586 140.24C906.489 128.338 922.632 121.651 939.466 121.651C956.299 121.651 972.443 128.338 984.346 140.24C996.249 152.143 1002.94 168.287 1002.94 185.12C1002.94 201.954 996.249 218.098 984.346 230C972.443 241.903 956.299 248.59 939.466 248.59Z" fill="#FF0000"/>
<path d="M1332 786H961.371C959.236 756.694 957.406 730.921 956 710H1020.96H1046.28H1305.18C1312.65 731.043 1321.8 756.932 1332 786Z" fill="#92A7DB"/>
<path d="M1823.69 1391.96C1823.69 1418.71 1415.44 1440.4 911.84 1440.4C408.245 1440.4 0 1418.71 0 1391.96C0 1365.2 408.245 1343.51 911.84 1343.51C1415.44 1343.51 1823.69 1365.2 1823.69 1391.96Z" fill="#626F71"/>
<path d="M1018.78 931.974C1018.78 931.974 958.59 721.916 959.681 714.046C960.699 706.194 1244.93 714.046 1244.93 714.046C1244.93 714.046 1370.5 811.762 1408.72 848.419C1428.25 867.125 1480.7 928.997 1480.7 928.997L1018.78 931.974ZM873.943 932.514H552.437C541.801 932.514 533.334 923.495 534.003 912.858L544.653 748.811C545.598 734.236 557.529 722.792 572.092 722.524L869.404 716.49C876.256 716.359 881.945 721.769 882.149 728.679L888.114 917.938C888.376 925.939 881.945 932.514 873.943 932.514ZM1878.59 1106.73C1878.38 1103.62 1878.11 1100.43 1877.7 1097.04C1874.31 1067.9 1864.69 1030.23 1850.93 1016.26C1830.61 995.737 1645.32 898.356 1645.32 898.356C1645.32 898.356 1623.91 919.569 1600.18 916.176C1576.59 912.801 1305.18 716.285 1302.05 714.046H1327.06L1314.93 707.006L1309.92 704.096L1308.37 703.21L1299.68 698.13C1299.68 698.13 1114.47 560.166 1058.02 535.368C1001.5 510.489 414.188 551.148 312.532 551.148C210.876 551.148 210.876 604.068 210.876 604.068L148.457 738.237L147.575 740.202C147.575 740.202 147.036 744.613 146.087 752.539C138.5 815.757 103.865 1101.86 97.5628 1116.49C96.006 1120.09 95.056 1124.62 94.5104 1129.63C94.1015 1132.88 93.9706 1136.27 93.9037 1139.79C93.7669 1155.65 96.3407 1172.45 97.5628 1176.79C99.3247 1183.1 102.035 1226.88 98.7165 1245.36C98.4444 1246.73 98.1709 1247.88 97.9047 1248.96C97.1598 1251.61 97.6312 1254.58 99.1196 1257.64C106.03 1272.4 134.021 1289.41 134.021 1289.41H236.018C234.325 1280.67 233.444 1271.59 233.444 1262.31C233.444 1260.75 233.444 1259.2 233.513 1257.64C233.648 1253.49 233.921 1249.43 234.461 1245.36C239.542 1201.05 264.616 1162.77 300.398 1139.79C306.298 1135.94 312.463 1132.55 318.971 1129.63C337.271 1121.29 357.668 1116.62 379.151 1116.62C400.634 1116.62 420.968 1121.29 439.332 1129.63C446.243 1132.75 452.892 1136.41 459.191 1140.61C494.298 1163.71 518.828 1201.59 523.848 1245.36C524.517 1250.92 524.866 1256.55 524.866 1262.31C524.866 1271.72 523.978 1280.94 522.218 1289.89L1423.97 1291.45H1449.46C1447.56 1282.02 1446.54 1272.27 1446.54 1262.31C1446.54 1256.55 1446.89 1250.92 1447.56 1245.36C1452.58 1201.59 1477.11 1163.71 1512.21 1140.61C1518.51 1136.41 1525.16 1132.75 1532.07 1129.63C1550.43 1121.29 1570.77 1116.62 1592.25 1116.62C1630.47 1116.62 1665.24 1131.33 1691.2 1155.45C1719.93 1182.01 1737.96 1220.1 1737.96 1262.31C1737.96 1272.27 1736.94 1282.02 1735.05 1291.45H1737.96C1737.96 1291.45 1832.85 1264.89 1850.93 1251.33C1868.96 1237.79 1873.5 1149.69 1878.04 1129.36C1878.38 1127.87 1878.65 1126.05 1878.79 1123.94C1879.13 1119.33 1879.05 1113.36 1878.59 1106.73Z" fill="#EFF4F4"/>
<path d="M1730.55 1261.04C1730.55 1336.79 1669.14 1398.2 1593.38 1398.2C1517.61 1398.2 1456.2 1336.79 1456.2 1261.04C1456.2 1185.29 1517.61 1123.89 1593.38 1123.89C1669.14 1123.89 1730.55 1185.29 1730.55 1261.04Z" fill="#211C1D"/>
<path d="M1683.61 1261.05C1683.61 1310.89 1643.21 1351.29 1593.37 1351.29C1543.53 1351.29 1503.13 1310.89 1503.13 1261.05C1503.13 1211.23 1543.53 1170.83 1593.37 1170.83C1643.21 1170.83 1683.61 1211.23 1683.61 1261.05Z" fill="#3A3A3C"/>
<path d="M1675.82 1261.04C1675.82 1306.58 1638.91 1343.49 1593.37 1343.49C1547.82 1343.49 1510.9 1306.58 1510.9 1261.04C1510.9 1215.51 1547.82 1178.6 1593.37 1178.6C1638.91 1178.6 1675.82 1215.51 1675.82 1261.04Z" fill="#A3A5A7"/>
<path d="M1626.99 1261.05C1626.99 1279.61 1611.93 1294.65 1593.38 1294.65C1574.82 1294.65 1559.78 1279.61 1559.78 1261.05C1559.78 1242.5 1574.82 1227.44 1593.38 1227.44C1611.93 1227.44 1626.99 1242.5 1626.99 1261.05Z" fill="#3A3A3C"/>
<path d="M1612.17 1261.03C1612.17 1271.4 1603.76 1279.81 1593.38 1279.81C1583.01 1279.81 1574.59 1271.4 1574.59 1261.03C1574.59 1250.65 1583.01 1242.25 1593.38 1242.25C1603.76 1242.25 1612.17 1250.65 1612.17 1261.03Z" fill="#A3A5A7"/>
<path d="M1615.39 1191.98C1615.39 1195.97 1605.54 1205.96 1593.37 1205.96C1581.2 1205.96 1571.35 1195.97 1571.35 1191.98C1571.35 1188.01 1581.2 1184.78 1593.37 1184.78C1605.54 1184.78 1615.39 1188.01 1615.39 1191.98Z" fill="#211C1D"/>
<path d="M1560.11 1196.64C1562.93 1199.44 1563.02 1213.5 1554.42 1222.09C1545.82 1230.69 1531.78 1230.59 1528.96 1227.78C1526.15 1224.97 1530.85 1215.72 1539.45 1207.12C1548.05 1198.51 1557.3 1193.82 1560.11 1196.64Z" fill="#211C1D"/>
<path d="M1524.29 1239.01C1528.27 1239.01 1538.27 1248.87 1538.27 1261.04C1538.27 1273.2 1528.27 1283.06 1524.29 1283.06C1520.32 1283.06 1517.09 1273.2 1517.09 1261.04C1517.09 1248.87 1520.32 1239.01 1524.29 1239.01Z" fill="#211C1D"/>
<path d="M1528.96 1294.31C1531.78 1291.49 1545.82 1291.4 1554.42 1300C1563.02 1308.59 1562.93 1322.63 1560.11 1325.45C1557.3 1328.26 1548.05 1323.57 1539.45 1314.97C1530.85 1306.37 1526.15 1297.11 1528.96 1294.31Z" fill="#211C1D"/>
<path d="M1571.35 1330.12C1571.35 1326.13 1581.2 1316.14 1593.37 1316.14C1605.54 1316.14 1615.39 1326.13 1615.39 1330.12C1615.39 1334.09 1605.54 1337.3 1593.37 1337.3C1581.2 1337.3 1571.35 1334.09 1571.35 1330.12Z" fill="#211C1D"/>
<path d="M1626.63 1325.45C1623.82 1322.63 1623.72 1308.59 1632.32 1300C1640.92 1291.4 1654.96 1291.49 1657.78 1294.31C1660.59 1297.11 1655.89 1306.37 1647.29 1314.97C1638.69 1323.57 1629.44 1328.26 1626.63 1325.45Z" fill="#211C1D"/>
<path d="M1662.43 1283.06C1658.45 1283.06 1648.45 1273.2 1648.45 1261.04C1648.45 1248.87 1658.45 1239.01 1662.43 1239.01C1666.41 1239.01 1669.64 1248.87 1669.64 1261.04C1669.64 1273.2 1666.41 1283.06 1662.43 1283.06Z" fill="#211C1D"/>
<path d="M1657.78 1227.78C1654.96 1230.59 1640.92 1230.69 1632.32 1222.09C1623.72 1213.5 1623.82 1199.44 1626.63 1196.64C1629.44 1193.82 1638.69 1198.51 1647.29 1207.12C1655.89 1215.72 1660.59 1224.97 1657.78 1227.78Z" fill="#211C1D"/>
<path d="M516.31 1261.04C516.31 1336.79 454.884 1398.2 379.129 1398.2C303.372 1398.2 241.959 1336.79 241.959 1261.04C241.959 1185.29 303.372 1123.89 379.129 1123.89C454.884 1123.89 516.31 1185.29 516.31 1261.04Z" fill="#211C1D"/>
<path d="M469.378 1261.05C469.378 1310.89 428.975 1351.29 379.132 1351.29C329.29 1351.29 288.889 1310.89 288.889 1261.05C288.889 1211.23 329.29 1170.83 379.132 1170.83C428.975 1170.83 469.378 1211.23 469.378 1261.05Z" fill="#3A3A3C"/>
<path d="M461.592 1261.04C461.592 1306.58 424.671 1343.49 379.131 1343.49C333.591 1343.49 296.668 1306.58 296.668 1261.04C296.668 1215.51 333.591 1178.6 379.131 1178.6C424.671 1178.6 461.592 1215.51 461.592 1261.04Z" fill="#A3A5A7"/>
<path d="M412.753 1261.05C412.753 1279.61 397.703 1294.65 379.141 1294.65C360.579 1294.65 345.531 1279.61 345.531 1261.05C345.531 1242.5 360.579 1227.44 379.141 1227.44C397.703 1227.44 412.753 1242.5 412.753 1261.05Z" fill="#3A3A3C"/>
<path d="M397.914 1261.03C397.914 1271.4 389.503 1279.81 379.131 1279.81C368.753 1279.81 360.348 1271.4 360.348 1261.03C360.348 1250.65 368.753 1242.25 379.131 1242.25C389.503 1242.25 397.914 1250.65 397.914 1261.03Z" fill="#A3A5A7"/>
<path d="M401.164 1191.98C401.164 1195.97 391.298 1205.96 379.135 1205.96C366.973 1205.96 357.107 1195.97 357.107 1191.98C357.107 1188.01 366.973 1184.78 379.135 1184.78C391.298 1184.78 401.164 1188.01 401.164 1191.98Z" fill="#211C1D"/>
<path d="M345.874 1196.64C348.688 1199.44 348.784 1213.5 340.185 1222.09C331.581 1230.69 317.537 1230.59 314.724 1227.78C311.911 1224.97 316.606 1215.72 325.21 1207.12C333.809 1198.51 343.06 1193.82 345.874 1196.64Z" fill="#211C1D"/>
<path d="M310.069 1239.01C314.047 1239.01 324.049 1248.87 324.049 1261.04C324.049 1273.2 314.047 1283.06 310.069 1283.06C306.09 1283.06 302.867 1273.2 302.867 1261.04C302.867 1248.87 306.09 1239.01 310.069 1239.01Z" fill="#211C1D"/>
<path d="M314.724 1294.31C317.537 1291.49 331.581 1291.4 340.185 1300C348.784 1308.59 348.688 1322.63 345.874 1325.45C343.06 1328.26 333.809 1323.57 325.21 1314.97C316.606 1306.37 311.911 1297.11 314.724 1294.31Z" fill="#211C1D"/>
<path d="M357.107 1330.12C357.107 1326.13 366.973 1316.14 379.135 1316.14C391.298 1316.14 401.164 1326.13 401.164 1330.12C401.164 1334.09 391.298 1337.3 379.135 1337.3C366.973 1337.3 357.107 1334.09 357.107 1330.12Z" fill="#211C1D"/>
<path d="M412.411 1325.45C409.598 1322.63 409.501 1308.59 418.101 1300C426.705 1291.4 440.745 1291.49 443.553 1294.31C446.376 1297.11 441.676 1306.37 433.076 1314.97C424.476 1323.57 415.225 1328.26 412.411 1325.45Z" fill="#211C1D"/>
<path d="M448.189 1283.06C444.217 1283.06 434.215 1273.2 434.215 1261.04C434.215 1248.87 444.217 1239.01 448.189 1239.01C452.176 1239.01 455.391 1248.87 455.391 1261.04C455.391 1273.2 452.176 1283.06 448.189 1283.06Z" fill="#211C1D"/>
<path d="M443.553 1227.78C440.745 1230.59 426.705 1230.69 418.101 1222.09C409.501 1213.5 409.598 1199.44 412.411 1196.64C415.225 1193.82 424.476 1198.51 433.076 1207.12C441.676 1215.72 446.376 1224.97 443.553 1227.78Z" fill="#211C1D"/>
<path d="M119.657 1028.37L118.834 1028.28C110.86 1027.27 105.217 1019.98 106.229 1012.01L126.853 849.285C127.859 841.312 135.145 835.669 143.112 836.688L143.943 836.789C151.91 837.806 157.553 845.08 156.548 853.053L135.923 1015.77C134.912 1023.75 127.632 1029.4 119.657 1028.37Z" fill="#EB1D27"/>
<path d="M148.296 918.156L118.602 914.4L125.274 861.741L154.968 865.497L148.296 918.156Z" fill="#E83735"/>
<path d="M120.931 994.949L108.604 993.381L115.281 940.717L127.603 942.291L120.931 994.949Z" fill="#BDC2C5"/>
<path d="M144.968 944.484L115.279 940.711L118.615 914.395L148.31 918.151L144.968 944.484Z" fill="#F29211"/>
<path d="M1314.91 707.005L1314.71 710.392C1314.71 710.392 1234.67 707.482 1114.45 706.802C1084.37 706.802 1051.83 706.727 1017.4 706.727C982.901 706.874 946.645 707.136 909.035 707.676C871.499 708.284 832.725 709.103 793.283 710.194C753.84 711.342 713.786 712.359 673.732 713.841C593.698 716.694 513.59 720.49 438.706 725.564C401.296 728.014 365.109 731.065 330.817 733.843C296.593 736.809 264.192 739.867 234.378 742.851C204.558 746.032 177.177 748.744 152.983 751.663C150.681 751.999 148.311 752.261 146.072 752.539C147.021 744.612 147.561 740.202 147.561 740.202L148.442 738.236L151.016 737.833C175.216 734.105 202.523 729.702 232.479 726.122C247.455 724.212 263.044 722.524 279.173 720.694C295.371 719.138 312.108 717.507 329.26 715.808C363.683 712.767 400.011 710.12 437.557 707.818C512.717 703.005 592.956 699.482 673.194 696.982C713.321 695.686 753.36 694.669 792.948 693.999C832.463 693.391 871.295 693.111 908.977 692.982C946.587 692.982 982.901 693.111 1017.4 693.447C1051.89 693.856 1084.5 694.408 1114.59 695.209C1174.77 696.777 1224.93 698.801 1259.96 700.504C1283.14 701.652 1299.74 702.67 1308.35 703.21L1309.91 704.096L1314.91 707.005Z" fill="#BDC2C5"/>
<path d="M346.429 614.702H305.492C297.615 614.702 291.232 621.09 291.232 628.96V669.6C291.232 677.487 297.615 683.875 305.492 683.875H346.429C354.306 683.875 360.693 677.487 360.693 669.6V628.96C360.693 621.09 354.306 614.702 346.429 614.702Z" fill="#2A4285"/>
<path d="M355.965 630.091V668.51C355.965 674.403 351.22 679.148 345.258 679.148H306.623C300.73 679.148 295.922 674.403 295.922 668.51V630.091C295.922 624.198 300.73 619.386 306.623 619.386H345.258C351.22 619.386 355.965 624.198 355.965 630.091Z" fill="#213564"/>
<path d="M355.965 630.07V642.408C347.628 643.759 338.615 644.504 329.197 644.504C317.268 644.504 306.015 643.35 295.922 641.186V630.07C295.922 624.178 300.73 619.365 306.623 619.365H345.258C351.22 619.365 355.965 624.178 355.965 630.07Z" fill="#3855AE"/>
<path d="M997.281 584.805H956.34C948.469 584.805 942.082 591.193 942.082 599.063V639.703C942.082 647.575 948.469 653.961 956.34 653.961H997.281C1005.15 653.961 1011.54 647.575 1011.54 639.703V599.063C1011.54 591.193 1005.15 584.805 997.281 584.805Z" fill="#7F1D24"/>
<path d="M1006.81 600.177V638.596C1006.81 644.489 1002.07 649.234 996.106 649.234H957.478C951.585 649.234 946.77 644.489 946.77 638.596V600.177C946.77 594.274 951.585 589.472 957.478 589.472H996.106C1002.07 589.472 1006.81 594.274 1006.81 600.177Z" fill="#61191E"/>
<path d="M1006.81 600.187V612.513C998.477 613.876 989.471 614.621 980.043 614.621C968.113 614.621 956.867 613.473 946.77 611.303V600.187C946.77 594.284 951.585 589.482 957.478 589.482H996.106C1002.07 589.482 1006.81 594.284 1006.81 600.187Z" fill="#AB232B"/>
<path d="M935.075 527.305H905.424V511.002H935.075V527.305Z" fill="#211C1D"/>
<path d="M1600.17 915.898C1576.59 912.51 1305.17 716.006 1302.05 713.767H1327.06L1645.32 898.078C1645.32 898.078 1623.9 919.291 1600.17 915.898ZM1314.92 706.988H1281.18L1298.12 719.251C1344.21 752.596 1575.23 919.142 1599.23 922.603C1601.26 922.881 1603.36 923.012 1605.39 923.012C1629.46 923.012 1649.25 903.692 1650.06 902.879L1651.4 901.555L1314.92 706.988Z" fill="#505256"/>
<path d="M1605.39 916.273C1603.68 916.273 1601.93 916.159 1600.17 915.91C1592.53 914.807 1558.81 893.389 1516.64 864.892H1587.98L1601.14 872.501L1645.32 898.09C1645.32 898.09 1626.94 916.273 1605.39 916.273Z" fill="#3C61A4"/>
<path d="M1587.98 864.883H1516.64C1477.02 838.119 1429.96 805.081 1390.01 776.732V750.399L1587.98 864.883Z" fill="#92A7DB"/>
<path d="M1382.06 745.801H1346.61C1336.81 738.789 1328.22 732.623 1321.27 727.617H1350.6L1382.06 745.801Z" fill="#92A7DB"/>
<path d="M1390.01 776.746C1374.11 765.455 1359.34 754.925 1346.61 745.816H1382.05L1390.01 750.413V776.746Z" fill="#92A7DB"/>
<path d="M1350.6 727.609H1321.27C1310.85 720.119 1304.09 715.227 1302.43 714.022H1327.06L1326.59 713.761H1326.65L1350.6 727.609Z" fill="#5D92D4"/>
<path d="M1327.05 714.051H1302.42C1302.23 713.92 1302.1 713.818 1302.04 713.789H1326.59L1327.05 714.051Z" fill="#93A8DC"/>
<path d="M1605.39 916.273C1603.68 916.273 1601.93 916.159 1600.17 915.91C1576.59 912.522 1305.17 716.017 1302.04 713.778C1302.1 713.807 1302.23 713.909 1302.42 714.04C1304.08 715.245 1310.85 720.137 1321.26 727.627C1328.22 732.633 1336.8 738.799 1346.61 745.811C1359.34 754.92 1374.11 765.45 1390.01 776.741C1429.96 805.09 1477.03 838.128 1516.64 864.892C1558.81 893.389 1592.53 914.807 1600.17 915.91C1601.93 916.159 1603.68 916.273 1605.39 916.273C1626.94 916.273 1645.32 898.09 1645.32 898.09C1645.32 898.09 1626.94 916.273 1605.39 916.273ZM1601.15 872.501L1587.98 864.892L1390.01 750.408L1382.05 745.811L1350.6 727.627L1326.65 713.778H1327.05L1601.15 872.501Z" fill="#425990"/>
<path d="M1018.77 931.701C1018.77 931.701 958.577 721.639 959.668 713.785C960.687 705.915 1244.92 713.785 1244.92 713.785C1244.92 713.785 1370.49 811.495 1408.71 848.158C1428.24 866.848 1480.69 928.718 1480.69 928.718L1018.77 931.701ZM1485.84 924.309C1483.74 921.808 1432.98 861.978 1413.46 843.266C1375.37 806.755 1254.2 712.434 1249.05 708.433L1247.35 707.081L1245.12 707.006C1243.83 706.932 1117.7 703.483 1034.07 703.483C954.169 703.483 953.907 705.654 952.888 712.899C951.87 720.564 984.606 837.101 1012.19 933.606L1013.62 938.48L1495.26 935.424L1485.84 924.309Z" fill="#505256"/>
<path d="M1196.65 930.551H1018.43C1016.79 924.777 1009.09 897.894 999.797 864.89H1389.93V864.901H1424.54C1446.78 889.092 1477.52 925.26 1480.46 928.721L1196.65 930.551Z" fill="#3C61A4"/>
<path d="M1424.55 864.883H1389.94L1390.01 864.871V831.499C1397.4 837.926 1403.79 843.676 1408.72 848.404C1412.81 852.33 1418.35 858.149 1424.55 864.883Z" fill="#92A7DB"/>
<path d="M1039.95 727.609H1018.21V710.573C1023.29 710.544 1028.59 710.534 1034.07 710.534C1036.01 710.534 1037.97 710.534 1039.95 710.544V727.609Z" fill="#92A7DB"/>
<path d="M1390.02 864.875H999.808C992.534 839.054 984.27 809.494 977.141 783.378H1332.23C1353.06 800.271 1373.91 817.495 1390.02 831.503V864.875Z" fill="#92A7DB"/>
<path d="M1018.77 931.703C1018.77 931.703 1018.66 931.312 1018.44 930.549H1196.65L1018.77 931.703Z" fill="#778EC7"/>
<path d="M1480.46 928.723C1477.52 925.262 1446.78 889.094 1424.55 864.903C1418.35 858.169 1412.81 852.351 1408.72 848.424C1403.79 843.696 1397.4 837.946 1390.01 831.519C1373.9 817.512 1353.06 800.288 1332.22 783.395C1315.81 770.103 1299.4 756.995 1285.3 745.822C1276.54 738.868 1268.69 732.673 1262.27 727.639C1251.58 719.229 1244.93 714.052 1244.93 714.052C1244.93 714.052 1124.33 710.722 1039.96 710.573C1037.98 710.563 1036.02 710.563 1034.08 710.563C1028.6 710.563 1023.3 710.574 1018.22 710.603C984.105 710.824 959.968 711.784 959.677 714.052C959.662 714.097 959.662 714.138 959.662 714.183C959.662 714.138 959.662 714.081 959.662 714.034C959.662 713.932 959.662 713.864 959.677 713.79C960.011 711.171 991.83 710.296 1034.08 710.296C1118.6 710.296 1244.93 713.79 1244.93 713.79C1244.93 713.79 1370.5 811.499 1408.72 848.162C1428.25 866.853 1480.69 928.723 1480.69 928.723H1480.46Z" fill="#93A8DC"/>
<path d="M1018.78 931.703C1018.78 931.703 959.648 725.323 959.662 714.031C959.662 714.078 959.662 714.135 959.662 714.18C959.72 715.822 960.724 720.577 962.441 727.636C963.649 732.641 965.22 738.808 967.053 745.819C969.876 756.656 973.353 769.533 977.136 783.392C984.265 809.508 992.529 839.067 999.803 864.889C1009.1 897.893 1016.8 924.776 1018.44 930.55C1018.66 931.312 1018.78 931.703 1018.78 931.703L1196.65 930.55L1480.46 928.72H1480.69L1018.78 931.703Z" fill="#425990"/>
<path d="M873.941 932.213H552.434C541.799 932.213 533.331 923.213 534.001 912.575L544.651 748.517C545.596 733.953 557.527 722.503 572.09 722.231L869.401 716.189C876.254 716.058 881.943 721.486 882.146 728.396L888.111 917.655C888.373 925.655 881.943 932.213 873.941 932.213ZM888.926 728.191C888.65 717.69 880.109 709.428 869.27 709.428L571.959 715.45C554.006 715.786 539.02 730.157 537.871 748.052L527.293 912.172C526.828 919.082 529.33 925.991 534.073 931.065C538.816 936.083 545.523 938.992 552.434 938.992H873.941C879.629 938.992 884.998 936.771 888.984 932.623C892.985 928.565 895.022 923.139 894.891 917.451L888.926 728.191Z" fill="#505256"/>
<path d="M880.693 930.551H544.724C538.396 927.63 534.016 921.26 533.973 913.924C533.973 913.577 533.987 913.225 534.002 912.862L537.115 864.89H886.44L888.113 917.941C888.113 918.072 888.113 918.186 888.113 918.305C888.069 923.602 885.072 928.199 880.693 930.551Z" fill="#3C61A4"/>
<path d="M691.26 727.609H669.523V720.524L691.26 720.074V727.609Z" fill="#5C7BC6"/>
<path d="M882.677 745.801H544.992C546.287 738.277 550.55 731.821 556.486 727.617H669.518H691.255H882.066C882.095 727.963 882.124 728.315 882.139 728.663L882.677 745.801Z" fill="#5C7BC6"/>
<path d="M886.434 864.875H537.109L542.405 783.378H883.859L886.434 864.875Z" fill="#5C7BC6"/>
<path d="M883.852 783.387H542.398L544.639 748.808C544.697 747.791 544.814 746.792 544.988 745.815H882.673L883.852 783.387Z" fill="#5A79C5"/>
<path d="M669.513 727.609H556.48C560.918 724.483 566.287 722.602 572.077 722.501L669.513 720.524V727.609Z" fill="#5478C4"/>
<path d="M882.074 727.609H691.262V720.074L869.401 716.466C869.488 716.466 869.576 716.466 869.663 716.466C876.036 716.466 881.361 721.296 882.074 727.609Z" fill="#5075C3"/>
<path d="M873.934 932.215H552.428C549.678 932.215 547.059 931.618 544.717 930.527H880.685C878.677 931.607 876.378 932.215 873.934 932.215Z" fill="#5371C0"/>
<path d="M888.113 918.285C888.113 918.166 888.113 918.052 888.113 917.921L886.44 864.87L883.864 783.373L882.686 745.801L882.147 728.663C882.133 728.316 882.104 727.964 882.075 727.617C881.362 721.304 876.037 716.474 869.664 716.474C869.577 716.474 869.49 716.474 869.402 716.474L691.263 720.082L669.527 720.531L572.091 722.508C566.301 722.61 560.932 724.491 556.495 727.617C550.559 731.821 546.296 738.277 545.001 745.801C544.826 746.779 544.71 747.778 544.652 748.795L542.411 783.373L537.115 864.87L534.002 912.842C533.987 913.205 533.973 913.557 533.973 913.904C533.973 913.876 533.973 913.847 533.973 913.819C533.973 913.411 533.973 912.99 534.002 912.58L544.652 748.523C545.597 733.958 557.528 722.508 572.091 722.236L869.402 716.195C869.49 716.195 869.577 716.195 869.65 716.195C876.386 716.195 881.944 721.582 882.147 728.401L888.113 917.66C888.113 917.82 888.113 917.967 888.113 918.127C888.113 918.183 888.113 918.228 888.113 918.285Z" fill="#5C7BC6"/>
<path d="M873.942 932.215H552.435C542.222 932.215 533.987 923.897 533.973 913.816C533.973 913.843 533.973 913.872 533.973 913.9C534.016 921.236 538.396 927.606 544.724 930.527C547.067 931.618 549.686 932.215 552.435 932.215H873.942C876.386 932.215 878.685 931.607 880.693 930.527C885.072 928.175 888.069 923.578 888.113 918.282C888.113 918.225 888.113 918.18 888.113 918.123C888.127 925.901 881.784 932.215 873.942 932.215Z" fill="#3F5CAF"/>
<path d="M539.873 1290.3L501.754 944.881L512.68 716.3L519.94 716.652L508.999 944.66L547.103 1289.52L539.873 1290.3Z" fill="#BDC2C5"/>
<path d="M929.519 1289.99L921.052 944.572L912.584 703.586L919.859 703.336L928.326 944.351L936.794 1289.82L929.519 1289.99Z" fill="#BDC2C5"/>
<path d="M1420.33 1291.57C1415.25 1158.16 1492.15 1128.84 1507.55 1124.32L1527.34 933.212L1261.29 706.239L1266.01 700.692L1534.98 930.172L1514.25 1130.24L1511.63 1130.76C1507.98 1131.49 1422.24 1150.3 1427.61 1291.29L1420.33 1291.57Z" fill="#BDC2C5"/>
<path d="M1021.07 1290.5L963.467 941.312L930.004 703.98L937.22 702.945L970.654 940.209L1028.24 1289.31L1021.07 1290.5Z" fill="#BDC2C5"/>
<path d="M891.331 983.928H832.683C827.358 983.928 823.037 988.246 823.037 993.57C823.037 998.895 827.358 1003.22 832.683 1003.22H891.331C896.656 1003.22 900.977 998.895 900.977 993.57C900.977 988.246 896.656 983.928 891.331 983.928Z" fill="#505256"/>
<path d="M1079.83 983.928H1021.19C1015.86 983.928 1011.54 988.246 1011.54 993.57C1011.54 998.895 1015.86 1003.22 1021.19 1003.22H1079.83C1085.16 1003.22 1089.48 998.895 1089.48 993.57C1089.48 988.246 1085.16 983.928 1079.83 983.928Z" fill="#505256"/>
<path d="M318.966 1129.61C312.458 1132.53 306.292 1135.92 300.393 1139.77H93.8984C93.9654 1136.26 94.1021 1132.86 94.5051 1129.61H318.966Z" fill="#BDC2C5"/>
<path d="M234.452 1245.36C233.907 1249.44 233.639 1253.5 233.504 1257.64H99.1105C97.6221 1254.59 97.1449 1251.61 97.8956 1248.96C98.1619 1247.88 98.4354 1246.73 98.7017 1245.36H234.452Z" fill="#BDC2C5"/>
<path d="M1449.46 1291.45H1423.97L522.215 1289.89C523.975 1280.94 524.848 1271.72 524.848 1262.31C524.848 1256.55 524.514 1250.92 523.844 1245.36H1447.55C1446.88 1250.92 1446.53 1256.55 1446.53 1262.31C1446.53 1272.27 1447.55 1282.02 1449.46 1291.45Z" fill="#BDC2C5"/>
<path d="M1532.07 1129.63C1525.16 1132.75 1518.51 1136.41 1512.21 1140.61H459.19C452.89 1136.41 446.241 1132.75 439.33 1129.63H1532.07Z" fill="#BDC2C5"/>
<path d="M1878.58 1106.73L1831.06 1113.02L1782.82 1129.62C1782.82 1129.62 1724.4 1031.04 1717.62 1016.26C1714.03 1008.47 1751.23 1008.88 1787.23 1011.05C1819.56 1012.94 1850.92 1016.26 1850.92 1016.26C1855.61 1021.01 1859.87 1028.59 1863.54 1037.61C1866.37 1044.72 1868.89 1052.78 1871.06 1061.12C1874.1 1073.12 1876.41 1085.72 1877.69 1097.04C1878.1 1100.42 1878.38 1103.61 1878.58 1106.73Z" fill="#BDC2C5"/>
<path d="M1831.06 1113.02L1782.82 1129.62C1782.82 1129.62 1724.4 1031.04 1717.62 1016.26C1714.03 1008.47 1751.23 1008.88 1787.23 1011.05C1794.6 1022.09 1801.51 1034.02 1807.76 1046.76C1818.67 1069.05 1826.39 1091.55 1831.06 1113.02Z" fill="#F29211"/>
<path d="M1878.78 1123.94C1878.64 1126.05 1878.37 1127.87 1878.03 1129.37C1873.49 1149.69 1868.95 1237.79 1850.92 1251.33C1832.84 1264.89 1737.95 1291.45 1737.95 1291.45H1735.04C1736.93 1282.02 1737.95 1272.27 1737.95 1262.31C1737.95 1220.1 1719.92 1182.01 1691.19 1155.45L1701.49 1152.2L1878.78 1123.94Z" fill="#BDC2C5"/>
<path d="M394.508 871.844C394.508 913.565 360.687 947.387 318.966 947.387C277.245 947.387 243.424 913.565 243.424 871.844C243.424 830.136 277.245 796.314 318.966 796.314C360.687 796.314 394.508 830.136 394.508 871.844Z" fill="#EA1E29"/>
<path d="M333.861 929.223H304.08V814.477H333.861V929.223Z" fill="#EFF2F2"/>
<path d="M376.354 856.97V886.746H261.586V856.97H376.354Z" fill="#EFF2F2"/>
<path d="M409.998 785.301H237.299V958H409.998V785.301Z" fill="#FF0000"/>
<path d="M237.299 850.062H392.729V893.237H237.299V850.062Z" fill="white"/>
<path d="M345.232 802.567L345.232 940.727L302.058 940.727L302.058 802.567L345.232 802.567Z" fill="white"/>
</svg>
