<svg width="1108" height="1506" viewBox="0 0 1108 1506" fill="none" xmlns="http://www.w3.org/2000/svg">
<path d="M495.535 197.536C497.488 195.583 497.488 192.417 495.535 190.464L463.715 158.645C461.763 156.692 458.597 156.692 456.644 158.645C454.692 160.597 454.692 163.763 456.644 165.716L484.929 194L456.644 222.284C454.692 224.237 454.692 227.403 456.644 229.355C458.597 231.308 461.763 231.308 463.715 229.355L495.535 197.536ZM64.6946 638.3C54.434 565.742 83.2897 455.811 154.03 363.925C224.595 272.267 336.515 199 492 199V189C332.985 189 218.288 264.067 146.106 357.825C74.0997 451.356 44.0775 563.925 54.7931 639.7L64.6946 638.3Z" fill="#4A4A4A"/>
<path d="M483.598 199.851C549.739 190.649 617.043 194.564 681.67 211.373C746.297 228.182 806.981 257.556 860.256 297.817C913.531 338.078 958.354 388.439 992.167 446.023C1025.98 503.607 1048.12 567.287 1057.32 633.427" stroke="#4A4A4A" stroke-width="6" stroke-linecap="round" stroke-dasharray="40 40"/>
<circle cx="54" cy="574" r="37" fill="#F8F8F8"/>
<path d="M102.357 594.867C106.539 587.014 108.72 578.251 108.707 569.353C108.707 539.334 84.3724 515 54.3534 515C24.3344 515 7.97321e-05 539.334 7.97321e-05 569.353C-0.0219226 582.175 4.51043 594.588 12.7891 604.379L12.853 604.459C12.8754 604.478 12.8946 604.504 12.9106 604.523H12.7891L45.043 638.766C46.2386 640.035 47.6812 641.046 49.282 641.737C50.8828 642.429 52.6081 642.785 54.3518 642.785C56.0954 642.785 57.8207 642.429 59.4215 641.737C61.0223 641.046 62.4649 640.035 63.6606 638.766L95.9176 604.523H95.7962L95.8473 604.462L95.8537 604.456C96.0839 604.181 96.3141 603.906 96.5411 603.625C98.7588 600.899 100.708 597.965 102.36 594.864L102.357 594.867ZM54.3662 590.135C49.2784 590.135 44.399 588.114 40.8014 584.517C37.2038 580.919 35.1826 576.04 35.1826 570.952C35.1826 565.864 37.2038 560.985 40.8014 557.387C44.399 553.79 49.2784 551.768 54.3662 551.768C59.4539 551.768 64.3333 553.79 67.9309 557.387C71.5286 560.985 73.5497 565.864 73.5497 570.952C73.5497 576.04 71.5286 580.919 67.9309 584.517C64.3333 588.114 59.4539 590.135 54.3662 590.135Z" fill="#FF0000"/>
<circle cx="54" cy="703" r="37" fill="#FF0000"/>
<circle cx="554" cy="59" r="37" fill="#F8F8F8"/>
<path d="M602.357 79.8673C606.539 72.014 608.72 63.2507 608.707 54.3533C608.707 24.3343 584.372 0 554.353 0C524.334 0 500 24.3343 500 54.3533C499.978 67.1751 504.51 79.5881 512.789 89.3792L512.853 89.4591C512.875 89.4783 512.895 89.5039 512.911 89.523H512.789L545.043 123.766C546.239 125.035 547.681 126.046 549.282 126.737C550.883 127.429 552.608 127.785 554.352 127.785C556.095 127.785 557.821 127.429 559.422 126.737C561.022 126.046 562.465 125.035 563.661 123.766L595.918 89.523H595.796L595.847 89.4623L595.854 89.4559C596.084 89.1809 596.314 88.906 596.541 88.6246C598.759 85.899 600.708 82.9651 602.36 79.8641L602.357 79.8673ZM554.366 75.1354C549.278 75.1354 544.399 73.1143 540.801 69.5167C537.204 65.9191 535.183 61.0397 535.183 55.9519C535.183 50.8641 537.204 45.9847 540.801 42.3871C544.399 38.7895 549.278 36.7684 554.366 36.7684C559.454 36.7684 564.333 38.7895 567.931 42.3871C571.529 45.9847 573.55 50.8641 573.55 55.9519C573.55 61.0397 571.529 65.9191 567.931 69.5167C564.333 73.1143 559.454 75.1354 554.366 75.1354Z" fill="#FF0000"/>
<circle cx="554" cy="188" r="37" fill="#FF0000"/>
<circle cx="1053" cy="574" r="37" fill="#F8F8F8"/>
<path d="M1101.36 594.867C1105.54 587.014 1107.72 578.251 1107.71 569.353C1107.71 539.334 1083.37 515 1053.35 515C1023.33 515 999 539.334 999 569.353C998.978 582.175 1003.51 594.588 1011.79 604.379L1011.85 604.459C1011.88 604.478 1011.89 604.504 1011.91 604.523H1011.79L1044.04 638.766C1045.24 640.035 1046.68 641.046 1048.28 641.737C1049.88 642.429 1051.61 642.785 1053.35 642.785C1055.1 642.785 1056.82 642.429 1058.42 641.737C1060.02 641.046 1061.46 640.035 1062.66 638.766L1094.92 604.523H1094.8L1094.85 604.462L1094.85 604.456C1095.08 604.181 1095.31 603.906 1095.54 603.625C1097.76 600.899 1099.71 597.965 1101.36 594.864L1101.36 594.867ZM1053.37 590.135C1048.28 590.135 1043.4 588.114 1039.8 584.517C1036.2 580.919 1034.18 576.04 1034.18 570.952C1034.18 565.864 1036.2 560.985 1039.8 557.387C1043.4 553.79 1048.28 551.768 1053.37 551.768C1058.45 551.768 1063.33 553.79 1066.93 557.387C1070.53 560.985 1072.55 565.864 1072.55 570.952C1072.55 576.04 1070.53 580.919 1066.93 584.517C1063.33 588.114 1058.45 590.135 1053.37 590.135Z" fill="#FF0000"/>
<circle cx="1053" cy="703" r="37" fill="#FF0000"/>
<path d="M390.436 736.612C390.436 736.612 419.662 790.785 397.98 790.719C376.293 790.665 307.608 697.212 283.112 678.079L305.068 664.305C327.281 690.705 366.648 729.759 390.436 736.612Z" fill="#F7D4AB"/>
<path d="M243.041 628.23C243.041 628.23 246.239 624.878 247.909 623.621C247.909 623.621 245.312 622.851 244.25 622.472C243.192 622.094 239.955 625.054 240.432 626.649C240.658 627.392 243.041 628.23 243.041 628.23Z" fill="#FFD9B3"/>
<path d="M306.858 666.574C306.858 666.574 305.137 654.64 294.819 647.882C292.228 646.193 269.999 637.61 268.246 636.218C266.492 634.812 255.76 624.838 253.68 623.743C251.6 622.648 244.487 620.999 241.671 624.54C239.468 627.311 244.85 629.582 247.674 631.65C249.448 632.947 259.344 641.367 259.344 641.367C259.344 641.367 238.056 643.462 235.899 643.638C233.74 643.814 204.71 642.192 201.94 642.327C199.172 642.462 184.665 643.111 185.02 648.233C185.528 655.572 228.295 647.598 228.295 647.598L306.858 666.574Z" fill="url(#paint0_linear_1401_3)"/>
<path d="M246.458 648.973C246.458 648.973 231.855 647.034 217.383 645.603C210.295 644.894 194.91 644.479 185.053 647.649C185.053 647.649 184.81 648.666 185.624 650.07L246.458 648.973" fill="url(#paint1_linear_1401_3)"/>
<path d="M251.082 658.551L289.12 648.3C289.12 648.3 233.204 647.939 225.241 647.405C217.279 646.857 196.605 646.884 192.192 647.525C187.777 648.153 177.763 649.209 177.118 652.323C176.111 657.228 181.793 656.279 184.303 656.012C186.814 655.731 204.882 654.715 204.882 654.715L251.082 658.551" fill="url(#paint2_linear_1401_3)"/>
<path d="M246.405 652.791C246.405 652.791 232.825 649.562 218.174 650.122C209.02 650.482 193.057 652.297 187.479 655.754L246.405 652.791Z" fill="url(#paint3_linear_1401_3)"/>
<path d="M264.701 651.468C264.701 651.468 224.852 649.867 206.685 652.295C196.303 653.682 188.005 655.083 188.576 659.472C188.995 662.754 197.393 661.033 201.259 660.793C205.921 660.526 239.377 657.364 242.146 657.444L264.701 651.468Z" fill="url(#paint4_linear_1401_3)"/>
<path d="M210.518 660.014L206.253 660.414C206.253 660.414 209.429 657.681 212.017 656.814C215.06 655.787 224.481 653.494 227.322 653.454C229.602 653.414 240.533 653.054 253.97 653.947L210.518 660.014" fill="url(#paint5_linear_1401_3)"/>
<path d="M312.447 674.182C312.447 674.182 301.076 654.801 297.023 651.868C283.664 642.198 265.445 648.989 260.511 650.958C251.791 654.453 241.612 654.172 238.843 654.306C236.075 654.44 207.998 655.391 206.611 663.574C206.131 666.413 207.965 666.534 214.151 665.677C220.333 664.806 223.959 665.088 231.654 664.646C239.346 664.204 243.449 665.315 248.653 665.583C253.938 665.838 279.89 674.932 284.011 677.758C288.129 680.584 295.823 689.504 295.823 689.504L312.447 674.182" fill="#F7D4AB"/>
<path d="M303.859 660.455C303.859 660.455 299.616 651.391 292.061 648.611C282.464 645.095 273.807 645.844 261.981 649.921C250.936 653.744 239.491 653.851 235.582 653.824C231.673 653.811 211.279 656.017 207.314 661.898C207.314 661.898 210.866 659.372 217.172 657.795C222.73 656.404 239.416 655.121 242.029 654.974C244.644 654.827 253.714 655.682 263.527 651.939C271.509 648.892 280.873 648.009 286.798 648.771C291.815 649.426 298.275 652.501 303.859 660.455" fill="url(#paint6_linear_1401_3)"/>
<path d="M247.498 631.62C246.423 630.716 243.381 629.045 242.657 628.223C242.657 628.223 246.623 628.856 247.724 629.638C248.825 630.433 262.185 641.311 262.185 641.311L259.35 641.352C259.35 641.352 252.339 635.69 247.498 631.62" fill="url(#paint7_linear_1401_3)"/>
<path d="M258.596 641.436C258.596 641.436 237.739 643.446 235.744 643.473C233.748 643.5 212.127 642.401 207.292 642.481C217.952 643.674 229.025 645.724 236.354 645.027C243.676 644.317 258.596 641.436 258.596 641.436" fill="url(#paint8_linear_1401_3)"/>
<path d="M298.049 657.758C294.656 654.745 284.774 653.918 280.456 654.585C273.953 655.598 252.348 659.185 266.829 663.025C268.05 663.345 293.398 672.678 298.156 668.732C302.913 664.785 302.788 661.972 298.049 657.758Z" fill="url(#paint9_linear_1401_3)"/>
<path d="M283.823 643.035C283.823 643.035 269.269 636.565 268.536 636.039C267.801 635.512 257.004 625.436 253.677 623.748C255.352 626.03 266.761 637.876 268.209 639.253C269.656 640.617 283.823 643.035 283.823 643.035Z" fill="url(#paint10_linear_1401_3)"/>
<path d="M216.188 665.386C216.188 665.386 232.764 661.586 236.095 661.692C239.423 661.799 253.385 666.492 253.385 666.492C253.385 666.492 236.388 663.999 216.188 665.386Z" fill="url(#paint11_linear_1401_3)"/>
<path d="M286.209 674.921C291.668 676.561 317.608 710.134 323.064 717.254C352.153 751.907 386.671 785.387 403.528 790.307C388.68 806.547 303.356 694.694 283.292 679.294C280.029 676.787 272.717 674.267 268.261 672.787C263.803 671.307 253.385 666.494 253.385 666.494C253.385 666.494 280.097 673.094 286.209 674.921Z" fill="url(#paint12_linear_1401_3)"/>
<path d="M473.057 596.407C466.931 597.829 452.728 601.124 445.742 607.524C437.622 614.977 423.569 659.323 417.431 677.113C415.721 682.05 398.224 724.372 392.156 737.322C395.091 761.033 398.648 770.605 399.788 794.316C411.424 791.185 432.422 757.491 440.609 745.882C449.582 733.123 465.085 683.745 465.085 683.745C474.014 656.916 473.057 596.407 473.057 596.407" fill="#F7D4AB"/>
<path d="M464.458 650.947C465.605 651.067 469.407 662.099 468.26 670.143C466.966 679.201 463.977 687.685 463.017 691.207C458.215 708.775 446.889 737.416 438.338 754.304C434.176 762.521 423.811 782.251 416.942 788.467C414.936 790.282 406.803 796.391 401.141 795.844C394.254 795.177 377.419 778.716 377.419 778.716C377.419 778.716 395.453 793.537 409.2 781.504C434.376 759.48 449.264 714.845 458.535 673.905C461.016 662.926 463.324 650.813 464.458 650.947" fill="url(#paint13_linear_1401_3)"/>
<path d="M408.099 718.151C391.445 744.564 416.933 677.496 419.765 669.708C429.991 641.511 440.938 606.057 448.671 606.057C468.209 606.057 426.364 689.178 408.099 718.151Z" fill="url(#paint14_linear_1401_3)"/>
<path d="M309.331 669.226C309.331 669.226 348.657 713.653 392.157 737.319C392.157 737.319 403.999 763.493 395.871 758.946C327.156 698.786 309.331 669.226 309.331 669.226" fill="url(#paint15_linear_1401_3)"/>
<path d="M406.469 703.801L401.609 715.68C401.609 715.68 419.377 726.881 444.929 740.254C444.929 740.254 453.596 720.854 453.756 719.147L406.469 703.801Z" fill="url(#paint16_linear_1401_3)"/>
<path d="M730.166 772.422C729.77 767.956 711.702 703.632 710.431 698.265C696.351 639.417 702.333 604.537 678.256 600.276C672.479 599.252 659.027 632.807 659.177 646.573C659.327 660.326 663.342 672.631 666.333 689.688C669.311 706.595 676.33 738.375 684.675 764.078C684.675 764.078 715.28 764.105 730.166 772.422" fill="#F7D4AB"/>
<path d="M677.396 741.508L719.596 731.881L712.009 704.174L675.529 735.735L677.396 741.508Z" fill="url(#paint17_linear_1401_3)"/>
<path d="M537.466 406.988C565.292 402.402 632.606 423.595 635.233 479.768C637.875 535.941 637.044 588.908 628.926 596.981C620.793 605.055 500.972 594.592 498.346 592.47C495.72 590.348 487.812 543.005 490.453 525.7C493.079 508.381 499.479 423.595 502.852 418.994C506.239 414.408 537.466 406.988 537.466 406.988" fill="url(#paint18_linear_1401_3)"/>
<path d="M506.858 498.714V503.196C506.858 503.196 503.605 512.602 503.538 525.149C503.458 539.836 531.292 547.202 527.324 581.93L479.565 595.133C479.565 595.133 480.499 557.022 482.684 543.562C484.871 530.116 506.858 498.714 506.858 498.714" fill="url(#paint19_linear_1401_3)"/>
<path d="M620.408 517.491C620.408 517.491 611.163 535.826 608.855 540.965C606.547 546.105 602.441 559.06 603.206 570.302C603.97 581.53 610.88 596.977 610.88 596.977H644.45C644.45 596.977 642.623 529.823 620.408 517.491" fill="url(#paint20_linear_1401_3)"/>
<path d="M493.502 1448.64C493.502 1448.64 493.782 1457.26 492.489 1461.43C488.489 1474.42 471.276 1488.87 470.849 1494.36C470.102 1503.84 474.289 1502.95 474.289 1502.95C474.289 1502.95 492.089 1505.78 506.342 1504.97C515.902 1504.43 520.742 1500.78 521.502 1499.64C523.756 1496.26 529.262 1490.43 529.262 1490.43L541.996 1488.55C541.996 1488.55 542.182 1474.26 540.516 1473.47L536.836 1454.04C536.836 1454.04 496.756 1446.52 493.502 1448.64" fill="#F1F0F5"/>
<path d="M629.623 1448.2C629.623 1448.2 629.343 1456.81 630.636 1460.99C634.636 1473.99 651.849 1488.43 652.276 1493.92C653.023 1503.4 648.823 1502.51 648.823 1502.51C648.823 1502.51 631.036 1505.34 616.783 1504.53C607.223 1503.99 602.383 1500.34 601.623 1499.2C599.369 1495.82 593.863 1489.99 593.863 1489.99L581.129 1488.11C581.129 1488.11 580.943 1473.81 582.609 1473.03L586.276 1453.6C586.276 1453.6 626.369 1446.08 629.623 1448.2" fill="#F1F0F5"/>
<path d="M675.089 980.826C676.382 970.972 671.462 920.306 671.462 920.306L467.516 919.986C467.516 943.012 462.356 993.986 466.222 1015.36C470.089 1036.75 483.022 1212.81 482.329 1216.69C481.889 1219.12 482.449 1304.11 483.209 1315.27C484.356 1331.99 489.022 1391.03 490.716 1429.08C491.036 1436.27 486.942 1453.72 486.942 1453.72L491.329 1463.17C491.969 1462.12 491.942 1456.37 507.422 1458.49C522.902 1460.6 540.556 1473.49 540.556 1473.49L541.009 1444.31C541.009 1444.31 545.542 1431.33 545.542 1429.08C545.542 1426.83 543.596 1248.03 543.822 1243.2C544.222 1235.08 543.396 1228.85 543.582 1225.21C543.756 1224.64 545.809 1216.95 546.716 1212.96C547.542 1209.39 562.436 1009.6 562.436 1009.6L571.596 1008.23C571.596 1008.23 583.382 1191.29 582.996 1194.57C582.609 1197.87 583.569 1221.21 584.889 1225.08C585.116 1231.11 582.996 1234.32 582.996 1239.09C582.996 1243.87 577.409 1436.39 577.222 1437.77C577.049 1439.16 582.609 1446.11 582.609 1446.11C582.609 1446.11 582.742 1471.51 582.489 1473.11C585.916 1471.77 597.342 1461.12 617.462 1457.43C631.662 1454.81 632.182 1461.64 632.182 1461.64C632.182 1461.64 633.929 1457.03 636.076 1452.79C636.822 1451.31 629.436 1441.99 629.836 1433.35C631.449 1397.39 638.529 1339.65 640.182 1328.52C641.476 1319.89 645.889 1216.81 645.889 1211.51C645.889 1207.83 645.289 1194.41 645.289 1190.69C645.289 1186.99 673.796 990.692 675.089 980.826" fill="#DEEFFF"/>
<path d="M528.275 995.547L612.315 997.534C612.315 997.534 597.062 1009.07 594.942 1026.17C592.809 1043.28 581.049 1156.53 581.049 1156.53L579.342 1006.28L554.155 1003.49L550.675 1158.09C550.675 1158.09 542.582 1054.64 537.609 1029.59C532.649 1004.52 531.115 998.72 528.275 995.547" fill="url(#paint21_linear_1401_3)"/>
<path d="M537.609 1000.71H594.822L581.582 1005.48L581.516 1166.31L570.649 1008.24L562.916 1009.88L550.129 1171.92L549.436 1008.67L537.609 1000.71" fill="url(#paint22_linear_1401_3)"/>
<path d="M486.942 1453.72C486.596 1455.19 491.329 1463.17 491.329 1463.17C491.329 1463.17 495.463 1458.51 500.716 1458.36C515.996 1457.95 531.463 1467.71 531.463 1467.71C531.463 1467.71 514.756 1450.49 503.596 1449.71C495.729 1449.15 488.662 1451.15 486.942 1453.72Z" fill="url(#paint23_linear_1401_3)"/>
<path d="M463.809 1002.02L466.462 1016.76L561.902 1022.85L563.183 1007.41L463.809 1002.02" fill="url(#paint24_linear_1401_3)"/>
<path d="M570.289 1007.72L571.662 1022.92L669.569 1019.44L672.116 1002.26L570.289 1007.72" fill="url(#paint25_linear_1401_3)"/>
<path d="M589.287 519.12C589.287 519.12 589.287 566.787 594.89 570.989C603.563 577.483 675.834 599.626 678.932 603.163C690.081 615.882 691.624 616.123 694.411 642.75C699.759 693.529 439.511 645.637 442.058 645.863C442.058 645.863 449.231 611.157 458.457 606.006C467.671 600.842 531.943 579.775 537.419 574.314C542.908 568.867 541.621 527.525 541.621 527.525L589.287 519.12" fill="#F6D3AA"/>
<path d="M595.686 570.635C592.053 567.184 591.561 538.749 591.561 538.749C591.561 538.749 538.619 541.653 537.792 540.727C537.834 544.444 538.297 565.95 537.918 568.769C537.497 572.01 537.918 575.839 501.585 583.625C501.585 583.625 514.028 584.453 538.156 584.691C542.351 584.719 545.746 577.86 546.237 571.631C546.237 571.631 564.291 573.805 582.569 562.485C583.846 571.855 585.249 583.387 588.251 585.336C591.267 587.286 618.285 584.369 618.285 584.369L621.806 580.904C614.217 578.785 599.319 574.086 595.686 570.635" fill="url(#paint26_linear_1401_3)"/>
<path d="M558.293 592.656C558.293 592.656 555.596 585.693 551.839 584.757C548.096 583.821 512.315 583.078 507.443 582.128C507.443 582.128 520.2 585.514 530.88 586.752C541.545 588.005 549.912 586.133 558.293 592.656Z" fill="url(#paint27_linear_1401_3)"/>
<path d="M570.982 592.027C570.982 592.027 573.581 586.692 578.201 585.138C582.808 583.584 617.734 584.024 624.073 584.657C624.073 584.657 579.934 586.486 570.982 592.027Z" fill="url(#paint28_linear_1401_3)"/>
<path d="M500.2 584.942L562.927 646.73L625.653 582.57L611.63 577.716L562.927 628.129L516.554 579.757L500.2 584.942" fill="url(#paint29_linear_1401_3)"/>
<path d="M406.828 708.109C406.828 708.109 435.634 622.633 442.408 612.034C452.622 596.061 511.403 581.452 511.403 581.452C511.403 581.452 540.593 620.345 563.499 635.588C591.987 607.679 615.223 578.999 615.223 578.999C615.223 578.999 674.541 593.897 678.427 600.141C689.122 617.313 723.935 720.195 723.935 720.195L662.344 739.518C662.344 739.518 655.067 748.076 657.341 809.337C660.015 881.004 676.305 967.238 677.187 1009.51C677.187 1009.51 573.725 1019.22 459.474 1006.86C464.324 924.128 474.219 872.294 477.692 811.625C479.815 774.29 475.294 713.594 474.219 706.551C470.03 717.163 463.855 728.01 462.622 737.409C442.847 726.88 411.837 710.259 406.828 708.109" fill="#DEEFFF"/>
<path d="M495.979 585.997C495.979 585.997 454.612 597.592 444.105 608.624C434.785 618.42 399.862 709.573 399.862 709.573L411.951 715.055C411.951 715.055 451.958 616.799 454.358 612.086C459.93 601.151 480.057 591.465 495.979 585.997" fill="url(#paint30_linear_1401_3)"/>
<path d="M509.248 637.748C509.248 637.748 546.654 643.387 592.936 638.903C639.217 634.432 669.722 636.258 646.575 658.653C619.332 685.023 570.164 696.744 524.165 679.558C502.307 671.382 449.97 630.619 509.248 637.748" fill="#CCE6FE"/>
<path d="M463.542 744.867C463.542 744.867 412.744 716.667 399.86 709.574L404.127 698.587L461.209 731.094L463.542 744.867" fill="url(#paint31_linear_1401_3)"/>
<path d="M495.975 585.787L511.783 581.128C511.783 581.128 536.949 612.951 563.947 635.457C563.947 635.457 596.211 601.526 615.671 578.868L626.669 582.313C626.669 582.313 591.002 631.956 563.52 654.062C563.52 654.062 532.097 629.007 495.975 585.787" fill="#D3EAFF"/>
<path d="M463.543 744.867L474.796 713.574L473.996 683.654L453.796 739.467L463.543 744.867Z" fill="url(#paint32_linear_1401_3)"/>
<path d="M599.623 674.574C599.623 674.574 650.116 673.908 653.969 673.574L654.342 682.721L599.623 683.574V674.574Z" fill="#CCE6FE"/>
<path d="M473.369 669.812L492.969 809.199C492.969 809.199 461.889 993.825 459.929 1006.72C459.516 926.519 478.142 811.479 478.142 811.479L474.796 713.572L473.369 669.812Z" fill="url(#paint33_linear_1401_3)"/>
<path d="M663.209 669.148L666.742 704.815L660.862 806.428C660.862 806.428 676.382 916.028 677.649 1009.38C672.396 989.735 646.636 806.428 646.636 806.428L663.209 669.148" fill="url(#paint34_linear_1401_3)"/>
<path d="M671.462 907.841C671.462 907.841 640.702 911.508 615.636 911.215C615.636 911.215 619.156 979.481 622.222 980.828C625.276 982.188 674.102 978.121 676.622 976.455C679.156 974.801 671.462 907.841 671.462 907.841" fill="#D1E7FA"/>
<path d="M615.636 911.213C615.636 911.213 648.982 911.933 671.462 907.84C671.462 907.84 631.422 907.84 615.636 911.213Z" fill="#AAC4DC"/>
<path d="M516.329 911.72C516.329 911.72 488.276 911.4 465.689 907.893C465.689 907.893 459.543 974.72 462.196 976.453C464.849 978.186 511.289 982.133 513.689 980.813C516.103 979.48 516.329 911.72 516.329 911.72Z" fill="#D1E7FA"/>
<path d="M465.689 907.893C465.689 907.893 495.729 912.893 516.329 911.72C516.329 911.72 482.409 907.44 465.689 907.893Z" fill="#AAC4DC"/>
<path d="M465.689 907.894L464.916 916.681C464.916 916.681 492.569 920.414 516.329 920.228V911.721C516.329 911.721 488.929 911.414 465.689 907.894" fill="url(#paint35_linear_1401_3)"/>
<path d="M615.636 911.213L616.102 919.667C616.102 919.667 633.569 920.613 672.462 916.76L671.462 907.84C671.462 907.84 630.822 911.267 615.636 911.213Z" fill="url(#paint36_linear_1401_3)"/>
<path d="M582.782 1247.99L577.116 1438.24C579.022 1441.89 582.609 1446.11 582.609 1446.11L582.489 1473.11C582.489 1473.11 585.316 1471.88 590.009 1468.37C590.249 1467.69 594.622 1447.73 595.502 1445C596.369 1442.25 583.049 1435.53 583.916 1432.41C584.782 1429.31 582.782 1247.99 582.782 1247.99" fill="url(#paint37_linear_1401_3)"/>
<path d="M543.929 1238.79C543.929 1238.79 545.542 1424.59 545.542 1429.08C545.542 1433.57 541.009 1444.31 541.009 1444.31L540.556 1473.49L534.916 1469.76C534.916 1469.76 525.769 1446.08 525.769 1444.49C525.756 1441.79 533.609 1429.05 534.916 1426.07C536.222 1423.08 543.929 1238.79 543.929 1238.79" fill="url(#paint38_linear_1401_3)"/>
<path d="M637.485 585.063C637.485 585.063 680.587 592.746 695.966 609.513C705.106 619.478 728.003 726.406 728.003 726.406L715.469 727.918C715.469 727.918 684.614 616.591 682.208 611.877C676.628 600.951 653.428 590.533 637.485 585.063Z" fill="url(#paint39_linear_1401_3)"/>
<path d="M538.073 562.721C538.073 562.721 537.736 541.941 536.612 535.183L591.66 541.126L592.096 550.989C592.096 550.989 569.602 572.752 538.073 562.721Z" fill="url(#paint40_linear_1401_3)"/>
<path d="M645.6 492.326C648.033 497.292 651.625 503.819 654.445 508.571C657.694 514.01 660.886 519.563 662.689 525.675C664.693 532.445 664.55 539.229 663.033 546.085C662.274 549.463 661.315 552.812 660.227 556.09C659.14 559.31 657.766 562.431 656.678 565.651C655.433 569.315 655.175 572.951 655.991 576.743C656.821 580.622 654.66 584.286 656.12 587.965C652.484 584.358 653.085 579.706 651.726 574.74C649.879 567.97 652.455 561.586 654.345 555.145C656.248 548.662 658.41 541.849 658.524 535.036C658.667 528.452 656.678 522.082 654.316 516.014C651.511 508.771 647.389 499.912 645.6 492.326Z" fill="url(#paint41_linear_1401_3)"/>
<path d="M516.476 562.607C504.036 548.826 491.795 544.922 498.369 526.456C503.288 512.675 512.876 496.551 519.276 476.726C527.169 452.259 504.596 489.451 504.596 489.451C504.596 489.451 487.396 504.779 478.422 531.011C467.33 563.446 475.023 571.746 478.422 580.639C480.943 587.233 506.369 591.629 493.156 597.645C517.57 601.882 528.156 575.578 516.476 562.607" fill="url(#paint42_linear_1401_3)"/>
<path d="M507.032 485.413C509.273 503.616 509.913 517.473 509.913 517.473C502.633 517.473 501.193 509.674 498.352 502.796C494.005 492.277 491.646 480.953 503.099 479.96C505.032 479.787 507.032 485.413 507.032 485.413" fill="url(#paint43_linear_1401_3)"/>
<path d="M505.711 511.352C505.711 511.352 502.139 507.329 503.245 499.385C505.858 480.667 493.992 479.388 496.685 492.159C496.685 492.159 498.324 486.14 499.818 487.936C501.672 490.148 497.845 491.369 499.805 501.037C500.818 506.065 505.711 511.352 505.711 511.352" fill="url(#paint44_linear_1401_3)"/>
<path d="M621.076 485.377C618.832 503.591 618.199 517.445 618.199 517.445C625.493 517.445 626.917 509.633 629.766 502.756C634.111 492.239 636.672 480.96 626.788 480.355C624.845 480.24 621.076 485.377 621.076 485.377" fill="#F0C499"/>
<path d="M622.391 511.324C622.391 511.324 625.968 507.302 624.862 499.357C622.247 480.637 634.128 479.359 631.427 492.131C631.427 492.131 629.789 486.111 628.281 487.907C626.428 490.119 630.249 491.34 628.309 501.009C627.289 506.037 622.391 511.324 622.391 511.324" fill="url(#paint45_linear_1401_3)"/>
<path d="M572.833 403.873C509.92 403.13 513.494 429.997 507 469.035C503.361 490.938 504.801 510.494 515.894 526.603C520.401 533.126 525.96 536.277 532.441 541.418C536.548 544.687 542.973 551.702 547.373 555.104C551.374 558.195 555.72 560.692 561.094 560.9C577.395 561.524 588.11 548.67 592.805 544.034C609.256 527.762 624.353 521.714 621.054 476.405C618.439 440.815 595.54 404.631 572.833 403.873Z" fill="#F6D3AA"/>
<path d="M591.184 459.645C571.874 463.304 572.643 478.708 571.191 496.711C602.392 510.228 620.395 494.286 620.395 494.286C620.395 494.286 620.308 474.367 616.011 467.543C614.355 464.901 609.23 456.233 591.184 459.645" fill="url(#paint46_linear_1401_3)"/>
<path d="M598.974 483.178C589.876 485.147 580.908 495.883 582.877 506.173C584.875 516.464 591.241 525.288 599.865 528.881C611.147 533.595 619.238 514.466 621.193 495.524C622.256 485.104 608.057 481.223 598.974 483.178Z" fill="url(#paint47_radial_1401_3)"/>
<path d="M532.17 460.53C524.209 459.935 517.65 461.299 513.529 464.549C503.956 472.137 509.689 493.116 509.689 493.116C509.689 493.116 524.649 511.615 556.181 498.47C553.975 484.208 557.704 462.416 532.17 460.53" fill="url(#paint48_linear_1401_3)"/>
<path d="M530.251 485.583C539.325 487.55 548.313 498.275 546.346 508.569C544.35 518.863 537.975 527.693 529.361 531.297C518.076 536.006 508.876 521.16 508.036 497.93C507.663 487.463 521.17 483.63 530.251 485.583Z" fill="url(#paint49_radial_1401_3)"/>
<path d="M609.646 492.72C606.555 493.55 604.408 495.654 604.823 497.429C605.238 499.218 608.1 499.991 611.177 499.175C614.255 498.345 616.43 496.241 616.001 494.466C615.571 492.692 612.723 491.905 609.646 492.72Z" fill="url(#paint50_linear_1401_3)"/>
<path d="M517.054 493.203C513.956 492.588 511.196 493.518 510.863 495.307C510.542 497.095 512.783 499.042 515.876 499.685C518.986 500.301 521.762 499.371 522.077 497.582C522.391 495.793 520.159 493.833 517.054 493.203Z" fill="url(#paint51_linear_1401_3)"/>
<path d="M587.463 400.67C587.463 400.67 530.954 384.305 513.448 413.308C501.115 433.727 501.994 490.764 507.501 510.75C507.501 510.75 509.487 488.454 516.941 483.431C516.941 483.431 516.127 479.75 521.235 451.06C525.101 429.33 544.167 407.869 546.087 408.345C571.06 414.545 568.647 434.412 576.234 444.502C595.913 470.703 619.64 481.807 618.076 495.578C618.076 495.578 628.285 466.784 621.191 445.248C614.454 424.889 605.497 404.396 587.463 400.67" fill="url(#paint52_linear_1401_3)"/>
<path d="M564.233 544.717C559.924 544.479 556.3 545.57 556.118 547.165C555.95 548.747 559.28 550.23 563.604 550.467C567.899 550.705 571.523 549.614 571.691 548.019C571.873 546.438 568.515 544.955 564.233 544.717Z" fill="url(#paint53_linear_1401_3)"/>
<path d="M616.351 515.691C612.752 522.535 607.622 528.401 603.386 532.439C592.262 542.996 587.686 549.004 585.9 550.789C587.502 549.301 602.323 535.642 606.545 532.482C608.685 530.881 614.155 525.44 618.079 517.618C617.314 517.207 616.733 516.513 616.351 515.691Z" fill="url(#paint54_linear_1401_3)"/>
<path d="M525.624 534.675C503.615 517.883 510.187 487.868 510.187 487.868C498.708 518.341 518.467 532.036 522.469 534.847C530.715 540.626 544.41 552.586 544.41 552.586C541.341 549.618 537.742 543.91 525.624 534.675" fill="#F0C498"/>
<path d="M546.625 554.5C546.625 554.5 560.116 573.301 582.401 553.636C582.401 553.636 564.492 568.423 546.625 554.5Z" fill="url(#paint55_linear_1401_3)"/>
<path d="M614.505 477.643C614.505 477.643 619.245 488.464 617.574 498.017C613.972 518.708 602.56 522.67 601.926 536.301C601.926 536.301 603.814 534.788 606.551 532.482C609.275 530.163 617.041 524.212 621.536 510.135C626.018 496.043 616.681 477.686 615.067 476.721L614.505 477.643Z" fill="url(#paint56_linear_1401_3)"/>
<path d="M564.613 518.063C566.716 517.793 574.528 510.095 574.528 510.095L552.256 510.08C552.256 510.08 562.525 518.347 564.613 518.063Z" fill="url(#paint57_linear_1401_3)"/>
<path d="M563.435 500.786C557.531 500.943 555.848 502.44 556.29 504.023C557.346 507.845 559.842 508.573 563.535 508.558C567.415 508.544 570.467 507.688 571.051 503.567C571.237 502.34 569.34 500.615 563.435 500.786Z" fill="url(#paint58_linear_1401_3)"/>
<path d="M567.388 511.085C567.388 511.085 578.238 511.255 574.74 507.672C573.56 506.477 567.388 511.085 567.388 511.085Z" fill="url(#paint59_linear_1401_3)"/>
<path d="M552.309 508.15C548.684 511.235 560.114 511.065 560.114 511.065C560.114 511.065 553.589 507.055 552.309 508.15Z" fill="url(#paint60_linear_1401_3)"/>
<path d="M563.518 509.642C552.538 509.486 551.285 504.103 549.79 507.549C549.177 508.959 550.345 509.386 552.268 510.069C552.268 510.069 551.641 508.489 554.105 508.645C555.899 508.759 557.323 512.561 563.674 512.376C570.453 512.177 571.378 508.773 573.116 508.674C574.711 508.602 574.54 510.069 574.54 510.069C574.54 510.069 577.744 508.417 576.534 506.922C574.326 504.231 573.657 509.77 563.518 509.642Z" fill="#F0C498"/>
<path d="M577.184 487.102C577.184 487.102 578.556 479.041 584.493 474.318C592.712 467.803 603.503 472.064 607.461 474.896C611.881 478.073 611.65 481.627 611.65 481.627C611.65 481.627 612.112 486.683 605.698 490.525C602.275 492.576 596.237 494.122 591.788 493.515C587.093 492.88 582.558 491.377 577.184 487.102" fill="url(#paint61_linear_1401_3)"/>
<path d="M578.054 486.936C580.186 483.191 585.645 476.492 595.282 477.515C604.904 478.523 608.462 485.74 608.462 485.74C608.462 485.74 604.199 490.292 600.108 491.185C588.238 493.793 581.496 489.212 578.054 486.936Z" fill="url(#paint62_linear_1401_3)"/>
<path d="M578.047 486.949C578.047 486.949 585.683 480.985 593.721 481.619C601.904 482.267 604.843 484.918 607.364 486.992C607.364 486.992 607.739 486.603 608.459 485.753C608.459 485.753 605.074 477.902 592.05 477.297C587.858 477.11 580.367 482.714 578.047 486.949" fill="#DDDDDD"/>
<path d="M601.945 484.867C601.8 479.923 597.477 476.061 592.303 476.219C587.129 476.378 583.05 480.5 583.209 485.429C583.281 487.922 584.621 490.185 586.091 490.949C590.444 492.318 594.32 492.765 598.37 491.756C600.907 490.098 602.045 488.008 601.945 484.867Z" fill="url(#paint63_linear_1401_3)"/>
<path d="M583.31 483.84C583.31 483.84 591.78 478.107 601.778 483.35C601.778 483.35 601.288 479.461 597.946 477.285H587.286C587.286 477.285 583.8 479.662 583.31 483.84Z" fill="url(#paint64_linear_1401_3)"/>
<path d="M586.112 483.787C585.781 486.81 588.257 489.488 591.625 489.804C595.023 490.107 598.017 487.904 598.348 484.895C598.679 481.886 596.218 479.194 592.835 478.892C589.452 478.59 586.443 480.778 586.112 483.787" fill="url(#paint65_radial_1401_3)"/>
<path d="M578.046 486.945C578.046 486.945 581.696 478.622 594.087 478.752C603.723 478.853 608.094 486.036 609.147 485.878C613.417 485.257 613.691 479.848 613.676 479.314C609.147 481.319 602.959 474.164 594.837 474.092C584.912 473.991 578.666 480.151 578.046 486.945Z" fill="url(#paint66_linear_1401_3)"/>
<path d="M579.187 481.219C579.216 481.175 580.834 476.264 585.846 472.999C589.328 470.731 596.58 469.214 604.048 472.97C604.048 472.97 594.081 469.474 587.681 473.173C582.018 476.423 579.187 481.219 579.187 481.219" fill="url(#paint67_linear_1401_3)"/>
<path d="M578.039 486.945C578.039 486.945 582.273 478.909 593.175 479.024C602.133 479.111 608.052 485.332 608.052 485.332C608.052 485.332 603.948 478.132 593.636 477.915C587.285 477.8 581.351 479.5 578.039 486.945Z" fill="url(#paint68_linear_1401_3)"/>
<path d="M592.842 484.507C592.512 485.268 591.663 485.599 590.945 485.254C590.211 484.923 589.895 484.032 590.24 483.27C590.585 482.523 591.433 482.178 592.166 482.523C592.871 482.868 593.187 483.745 592.842 484.507Z" fill="white"/>
<path d="M598.406 486.227C597.946 487.204 596.768 487.635 595.777 487.175C594.771 486.715 594.311 485.551 594.785 484.56C595.231 483.583 596.423 483.152 597.429 483.611C598.435 484.071 598.866 485.235 598.406 486.227Z" fill="white"/>
<path d="M609.155 485.867C609.744 485.307 607.504 484.905 607.776 484.589C604.43 489.63 598.758 491.583 593.861 492.301C598.313 492.416 602.075 491.267 605.637 488.797C609.902 489.4 613.162 485.006 613.162 485.006C610.304 487.088 609.155 485.867 609.155 485.867" fill="url(#paint69_linear_1401_3)"/>
<path d="M549.955 487.002C549.955 487.002 548.54 478.956 542.559 474.261C534.326 467.79 523.537 472.123 519.616 474.969C515.204 478.176 515.443 481.729 515.443 481.729C515.443 481.729 515.03 486.785 521.457 490.584C524.911 492.621 530.946 494.137 535.395 493.502C540.089 492.837 544.611 491.321 549.955 487.002" fill="url(#paint70_linear_1401_3)"/>
<path d="M549.099 486.851C546.953 483.12 541.436 476.451 531.828 477.517C522.198 478.597 518.679 485.829 518.679 485.829C518.679 485.829 522.972 490.352 527.074 491.23C538.958 493.766 545.686 489.142 549.099 486.851" fill="url(#paint71_linear_1401_3)"/>
<path d="M549.103 486.85C549.103 486.85 541.425 480.929 533.386 481.621C525.193 482.312 522.287 484.977 519.767 487.066C519.767 487.066 519.407 486.677 518.674 485.827C518.674 485.827 522.008 477.961 535.043 477.284C539.22 477.068 546.741 482.629 549.103 486.85Z" fill="#DDDDDD"/>
<path d="M525.195 484.909C525.315 479.966 529.61 476.074 534.784 476.204C539.958 476.334 544.065 480.427 543.936 485.37C543.878 487.849 542.595 490.011 540.909 490.962C536.556 492.346 533.17 492.677 528.803 491.784C526.276 490.126 525.116 488.051 525.195 484.909Z" fill="url(#paint72_linear_1401_3)"/>
<path d="M543.826 483.773C543.826 483.773 535.313 478.098 525.357 483.399C525.357 483.399 525.771 479.999 529.147 477.306L538.597 477.781C538.597 477.781 543.236 478.688 543.826 483.773Z" fill="url(#paint73_linear_1401_3)"/>
<path d="M541.01 483.743C541.37 486.752 538.893 489.459 535.525 489.79C532.156 490.106 529.119 487.933 528.773 484.924C528.413 481.915 530.875 479.209 534.258 478.878C537.627 478.561 540.664 480.735 541.01 483.743Z" fill="url(#paint74_radial_1401_3)"/>
<path d="M549.094 486.859C549.094 486.859 545.315 478.522 532.909 478.724C523.274 478.882 519.048 486.109 517.98 485.965C513.713 485.359 512.793 479.531 512.807 478.998C517.673 481.854 524.127 474.208 532.231 474.093C542.156 473.934 548.445 480.065 549.094 486.859" fill="url(#paint75_linear_1401_3)"/>
<path d="M547.941 481.129C547.912 481.086 546.265 476.188 541.238 472.953C537.742 470.699 530.482 469.226 523.042 473.025C523.042 473.025 532.975 469.471 539.403 473.126C545.081 476.347 547.941 481.129 547.941 481.129" fill="url(#paint76_linear_1401_3)"/>
<path d="M549.092 486.859C549.092 486.859 544.815 478.838 533.913 479.011C524.952 479.155 519.072 485.405 519.072 485.405C519.072 485.405 523.139 478.19 533.452 477.916C539.803 477.757 545.751 479.428 549.092 486.859" fill="url(#paint77_linear_1401_3)"/>
<path d="M536.172 484.542C535.799 485.289 534.907 485.591 534.189 485.232C533.455 484.844 533.182 483.924 533.556 483.176C533.93 482.414 534.821 482.112 535.54 482.5C536.259 482.86 536.546 483.78 536.172 484.542Z" fill="white"/>
<path d="M541.725 486.488C541.222 487.465 540.015 487.853 538.995 487.35C538.018 486.847 537.616 485.64 538.119 484.663C538.621 483.672 539.857 483.284 540.834 483.787C541.854 484.304 542.242 485.511 541.725 486.488" fill="white"/>
<path d="M533.379 492.285C528.482 491.595 522.724 489.7 519.351 484.674C519.631 484.99 517.39 485.406 517.978 485.966C518.005 485.981 518.018 485.995 518.045 486.009C517.778 486.225 516.591 486.914 514.098 485.119C514.098 485.119 517.311 489.427 521.538 488.881C525.093 491.308 528.942 492.428 533.379 492.285" fill="url(#paint78_linear_1401_3)"/>
<path d="M585.957 460.192C581.674 462.123 578.568 467.682 582.255 466.507C585.971 465.345 599.631 463.139 602.621 463.095C607.237 463.052 614.016 465.563 615.802 466.695C615.802 466.695 609.023 460.192 603.942 459.611C598.876 459.031 588.25 459.147 585.957 460.192" fill="url(#paint79_linear_1401_3)"/>
<path d="M541.088 460.105C545.4 461.949 547.926 467.059 544.195 465.985C540.464 464.896 526.683 463.038 523.723 462.907C519.51 462.733 512.363 465.738 510.604 466.914C510.604 466.914 517.244 460.12 522.309 459.408C527.363 458.712 538.78 459.103 541.088 460.105" fill="url(#paint80_linear_1401_3)"/>
<path d="M537.308 522.259C535.878 521.792 535.072 520.66 535.666 519.556C536.176 518.579 542.19 522.782 544.511 526.094C541.383 523.801 538.723 522.726 537.308 522.259Z" fill="#F0C498"/>
<path d="M590.477 521.521C591.865 520.926 592.558 519.723 591.879 518.689C591.27 517.755 585.636 522.441 583.611 525.938C586.528 523.389 589.09 522.101 590.477 521.521Z" fill="#F0C498"/>
<path d="M550.112 533.37C552.841 539.107 567.677 547.053 578.533 533.074C578.533 533.074 563.05 540.092 550.112 533.37Z" fill="url(#paint81_linear_1401_3)"/>
<path d="M562.554 523.459C548.608 523.374 540.489 521.323 537.18 520.644V520.672C537.293 520.814 537.349 520.899 537.42 521.026C539.174 521.804 541.197 522.299 543.771 524.123C545.525 525.382 547.321 533.954 564.648 533.657C574.11 533.487 579.81 530.22 585.355 523.713C587.094 521.691 588.749 521.04 590.135 520.234C590.15 520.078 590.234 520.007 590.277 519.838C586.472 520.941 578.877 523.558 562.554 523.459" fill="#961B27"/>
<path d="M578.181 524.892C568.47 527.15 555.246 526.952 550.433 526.105C547.638 524.891 547.935 528.42 547.935 528.42C554.06 534.63 558.958 533.43 563.855 533.529C568.696 533.628 575.908 531.624 580.171 527.785C580.566 526.628 579.535 524.581 578.181 524.892" fill="url(#paint82_linear_1401_3)"/>
<path d="M582.457 521.272C582.457 521.272 579.291 522.841 571.856 523.675C564.336 524.509 561.183 524.085 554.413 523.802C551.317 523.675 549.423 523.222 545.536 522.332C545.536 522.332 546.257 523.222 546.723 524.254C547.331 525.611 550.285 530.205 564.237 529.951C574.725 529.753 580.238 525.979 580.959 523.717C581.411 522.346 582.372 521.738 582.457 521.272Z" fill="url(#paint83_linear_1401_3)"/>
<path d="M565.571 533.016C544.259 533.13 551.613 524.376 537.429 521.024C537.514 521.052 540.695 522.735 544.457 527.034C548.601 531.772 552.193 539.253 564.143 539.083C574.919 538.913 580.801 531.022 584.224 526.695C588.127 521.745 590.093 520.26 590.177 520.232C578.624 523.471 582.513 532.38 565.571 533.016" fill="#F86D78"/>
<path d="M552.946 531.122C549.672 529.47 546.723 525.914 546.102 525.462C546.878 526.493 551.563 537.769 563.559 537.43C577.432 537.035 579.888 527.706 582.344 524.926C581.186 526.168 578.265 529.513 574.652 530.783C572.281 531.616 568.259 532.618 563.785 532.843C560.92 532.999 556.15 532.434 552.946 531.122" fill="url(#paint84_linear_1401_3)"/>
<path d="M574.233 532.199C574.416 532.677 573.093 534.309 570.264 535.112C566.648 536.153 563.749 535.196 563.566 534.703C563.369 534.225 568.196 533.859 569.603 533.353C570.996 532.86 574.05 531.706 574.233 532.199" fill="#FF9AA2"/>
<path d="M537.661 521.87C538.496 522.252 539.146 521.601 542.498 522.789C542.498 522.789 536.77 519.861 536.402 520.031C536.148 520.158 536.402 521.304 537.661 521.87Z" fill="#961B27"/>
<path d="M590.193 521.083C589.344 521.493 588.41 520.885 585.51 522.215C585.51 522.215 590.915 518.904 591.382 519.215C591.623 519.371 591.41 520.489 590.193 521.083Z" fill="#961B27"/>
<path d="M545.834 522.647L546.752 524.3C546.752 524.3 552.814 527.522 565.206 527.395C574.164 527.31 580.918 523.862 580.918 523.862L581.61 522.209L545.834 522.647Z" fill="url(#paint85_linear_1401_3)"/>
<path d="M564.466 521.868C561.001 521.84 545.119 522.095 538.33 520.737C538.33 520.737 540.862 522.264 553.378 524.598C557.098 525.291 560.393 525.984 564.211 525.885C568.794 525.871 572.584 524.895 576.12 524.273C582.116 523.212 589.202 520.185 589.23 520.058C586.034 520.977 567.266 521.897 564.466 521.868" fill="#F86D78"/>
<path d="M550.554 522.643C550.667 522.205 556.856 522.46 557.887 522.46C558.904 522.446 568.456 522.559 569.515 522.53C570.985 522.488 578.078 522.078 578.021 522.601C577.936 523.138 567 524.523 565.714 524.636C564.429 524.763 550.215 523.929 550.554 522.643Z" fill="url(#paint86_linear_1401_3)"/>
<path d="M544.302 396.398C547.595 386.547 582.754 372.925 620.411 407.82C641.953 427.79 644.887 458.075 642.373 477.865C640.771 490.455 664.558 523.36 654.409 548.479C654.409 548.479 672.822 608.315 621.25 602.626C621.25 602.626 643.256 597.641 617.328 571.039C613.016 566.623 605.202 561.084 605.037 550.785C604.828 536.982 631.834 513.105 623.51 480.665C620.651 469.497 590.052 447.057 580.782 425.41C569.169 398.299 546.088 408.344 546.088 408.344C546.088 408.344 545.648 404.122 544.302 396.398" fill="url(#paint87_linear_1401_3)"/>
<path d="M629.345 575.65C641.642 591.149 641.352 603.695 621.243 602.632C630.973 602.632 638.689 595.097 629.345 575.65Z" fill="url(#paint88_linear_1401_3)"/>
<path d="M490.26 427.429C481.98 448.239 484.22 456.658 484.22 465.989C484.22 475.334 488.114 482.052 475.926 504.608C468.94 517.551 473.606 530.076 477.313 542.616C473.206 549.513 477.7 529.927 494.767 499.518C504.634 484.336 510.114 480.693 512.047 462.107C516.473 419.83 546.087 408.35 546.087 408.35L545.073 396.139C526.486 382.106 498.526 406.633 490.26 427.429" fill="url(#paint89_linear_1401_3)"/>
<path d="M546.096 408.336C576.24 406.374 579.183 434.466 587.982 446.744C596.781 459.036 623.655 477.497 621.53 491.663C618.661 510.896 610.501 536.373 610.412 545.574C610.263 560.631 617.858 563.083 624.889 570.456C637.969 584.19 642.369 601.09 627.966 610.023C627.966 610.023 678.102 602.755 659.7 564.748C648.389 541.412 622.57 548.903 622.734 525.671C622.808 516.589 651.317 473.826 623.521 459.482C591.698 443.058 575.675 384.182 546.096 408.336" fill="url(#paint90_linear_1401_3)"/>
<path d="M473.081 497.689C468.281 504.119 463.534 511.32 463.068 519.583C462.601 527.584 465.614 534.945 469.589 541.739C470.361 543.063 471.161 544.358 471.988 545.652C472.561 544.532 473.575 543.63 474.749 543.237C473.348 539.964 471.961 536.706 470.854 533.345C469.667 529.781 468.789 526.042 468.841 522.26C468.895 518.637 469.801 515.175 471.295 511.873C474.468 504.875 479.442 498.693 483.735 492.35C488.055 486.022 494.574 474.325 495.521 454.075C491.055 477.962 478.001 491.142 473.081 497.689" fill="url(#paint91_linear_1401_3)"/>
<path d="M613.981 402.286C630.63 414.818 634.302 424.555 639.936 438.617C643.251 446.912 644.262 455.623 644.024 464.498C643.771 473.64 642.448 482.723 642.418 491.88C642.359 501.869 644.336 511.695 648.364 520.867C643.86 515.813 640.887 509.302 639.118 502.836C636.948 494.883 636.844 486.573 637.23 478.397C637.632 469.834 638.538 461.242 637.751 452.695C636.918 443.835 633.9 435.466 629.619 427.706C624.803 418.995 620.195 410.046 613.981 402.286" fill="url(#paint92_linear_1401_3)"/>
<path d="M551.212 403.396C552.106 397.62 557.066 393.53 562.705 392.65C569.838 391.56 576.746 395.068 581.901 399.725C587.305 404.59 591.603 410.71 595.738 416.666C599.962 422.77 603.992 429.039 608.649 434.846C613.335 440.682 619.112 447.204 626.963 448.309C621.41 449.637 615.649 446.95 611.261 443.756C605.619 439.681 600.977 434.278 596.827 428.726C592.558 423.024 588.752 417.009 584.618 411.203C580.692 405.65 576.319 399.784 569.932 396.934C566.372 395.351 562.292 394.799 558.572 396.142C555.226 397.336 552.306 399.949 551.212 403.396" fill="url(#paint93_linear_1401_3)"/>
<path d="M544.525 395.85C544.364 391.786 546.644 388.457 549.658 385.757C553.338 382.443 558.231 381.049 563.111 381.004C568.337 380.944 573.47 382.248 578.418 383.808C583.324 385.352 588.104 387.287 592.678 389.641C597.566 392.191 602.245 395.205 606.444 398.789C602.965 398.324 599.516 397.095 596.172 396.045C592.153 394.77 588.134 393.42 584.124 392.071C579.497 390.526 574.871 388.921 570.177 387.587C565.404 386.222 560.218 385.112 555.298 386.372C550.511 387.617 545.564 390.826 544.525 395.85" fill="url(#paint94_linear_1401_3)"/>
<path d="M658.186 552.96C650.459 541.011 635.866 532.278 631.844 518.059C629.072 508.336 633.625 494.375 635.435 484.221C628.57 497.636 623.011 512.616 630.063 526.634C636.843 540.106 652.914 548.408 656.419 563.56C661.546 585.621 654.035 603.69 627.952 610.023C665.223 606.576 671.959 574.935 658.186 552.96Z" fill="url(#paint95_linear_1401_3)"/>
<path d="M544.532 395.834C529.357 385.527 510.238 403.976 501.305 415.164C490.239 429.042 483.144 448.268 484.224 465.984C483.331 455.094 483.304 445.698 485.131 436.69C487.025 427.324 490.265 419.018 496.424 411.729C505.879 400.585 530.772 380.911 544.532 395.834Z" fill="url(#paint96_linear_1401_3)"/>
<path d="M599.601 438.188C599.601 438.188 612.269 452.54 618.859 456.333C626.035 460.463 635.54 464.241 635.54 477.656C635.54 477.656 632.581 467.58 625.742 463.568C618.917 459.555 609.706 457.109 599.601 438.188Z" fill="url(#paint97_linear_1401_3)"/>
<path d="M620.897 536.987C620.069 553.989 635.876 557.948 640.579 563.577C646.349 570.47 650.659 579.568 644.258 585.871C648.904 561.921 610.354 563.914 620.897 536.987" fill="url(#paint98_linear_1401_3)"/>
<path d="M608.848 468.505C631.809 487.577 624.146 502.86 615.369 521.122C610.699 530.853 604.669 539.441 605.089 549.562C605.436 557.905 609.426 567 623.235 573.348C599.218 568.851 595.531 545.557 609.339 522.22C621.962 500.864 624.42 488.878 608.848 468.505Z" fill="url(#paint99_linear_1401_3)"/>
<path d="M630.623 442.23C620.571 425.264 609.492 412.327 595.916 401.501C620.823 411.88 627.084 424.461 630.623 442.23Z" fill="url(#paint100_linear_1401_3)"/>
<path d="M546.087 408.347C546.087 408.347 563.1 405.216 576.232 423.941C576.232 423.941 565.714 400.676 546.087 408.347Z" fill="url(#paint101_linear_1401_3)"/>
<path d="M503.533 482.582C503.906 482.985 504.481 494.911 505.56 500.586C505.56 500.586 506.361 486.931 508.88 477.569L503.533 482.582" fill="url(#paint102_linear_1401_3)"/>
<path d="M546.055 408.332C546.055 408.332 515.094 410.928 512.616 449.629C511.282 470.322 513.988 484.295 496.575 507.866C487.842 519.688 483.002 525.31 479.268 538.349C473.175 559.59 503.561 566.592 505.722 582.004C507.522 594.835 501.642 608.319 475.695 609.387C484.429 607.948 485.242 597.668 482.695 591.616C481.214 588.056 475.561 584.971 469.321 578.874C438.575 548.747 480.842 519.006 488.495 503.326C496.149 487.633 495.895 485.6 498.188 468.571C499.322 460.176 499.375 436.605 505.682 426.459C511.988 416.298 522.775 404.372 546.055 408.332" fill="url(#paint103_linear_1401_3)"/>
<path d="M511.016 419.194C511.016 419.194 501.775 428.036 501.002 439.83C500.241 451.625 499.015 458.873 498.188 468.571C497.575 475.716 489.855 502.98 481.375 514.066C481.375 514.066 502.615 491.23 502.348 464.969C502.082 438.694 505.042 429.35 511.016 419.194Z" fill="url(#paint104_linear_1401_3)"/>
<path d="M511.84 466.811C510.347 499.078 498.973 495.012 493.081 527.206C489.373 547.507 508.826 564.943 482.227 572.395C503.014 567.128 483.56 539.91 485.04 525.427C487.574 500.771 506.32 500.8 511.84 466.811" fill="url(#paint105_linear_1401_3)"/>
<path d="M472.857 561.765C472.645 594.58 480.338 602.787 501.391 606.273C470.498 609.522 463.004 590.969 472.857 561.765Z" fill="#824137"/>
<path d="M482.687 555.375C482.687 555.375 489.914 562.825 499.203 571.056C502.907 574.342 508.687 582.28 505.72 592.154C502.74 602.027 494.774 609.395 475.693 609.395C475.693 609.395 499.3 605.662 500.721 591.625C502.113 577.573 491.613 568.173 482.687 555.375" fill="url(#paint106_linear_1401_3)"/>
<path d="M479.591 524.663C474.485 535.531 465.618 552.44 471.272 564.099C476.166 574.177 505.857 581.036 488.551 597C494.913 580.472 476.859 580.768 469.512 571.396C455.338 553.33 473.045 541.05 479.591 524.663Z" fill="url(#paint107_linear_1401_3)"/>
<path d="M508.79 567.805C516.643 573.885 519.025 591.336 506.519 594.203C512.696 587.971 513.056 573.788 508.79 567.805Z" fill="url(#paint108_linear_1401_3)"/>
<path d="M568.329 414.629C568.241 414.57 568.196 414.54 568.196 414.54C568.241 414.57 568.285 414.599 568.329 414.629Z" fill="url(#paint109_linear_1401_3)"/>
<path d="M593.788 447.493C579.945 429.908 585.358 424.095 568.32 414.63C569.237 415.163 574.251 418.608 580.063 431.239C582.622 436.8 584.781 443.78 591.126 450.613C592.649 452.24 594.039 453.749 595.341 455.109L595.356 455.124C605.161 465.491 608.844 468.523 608.844 468.523C603.505 462.696 601.331 457.047 593.788 447.493" fill="url(#paint110_linear_1401_3)"/>
<path d="M601.156 676.425C601.049 685.092 607.942 692.212 616.556 692.319C625.182 692.439 632.249 685.505 632.369 676.839C632.489 668.172 625.595 661.052 616.969 660.945C608.355 660.825 601.276 667.759 601.156 676.425Z" fill="url(#paint111_linear_1401_3)"/>
<path d="M603.129 675.921C603.036 683.695 609.209 690.081 616.942 690.174C624.676 690.281 631.022 684.068 631.129 676.294C631.222 668.521 625.049 662.134 617.316 662.028C609.582 661.934 603.236 668.148 603.129 675.921Z" fill="url(#paint112_linear_1401_3)"/>
<path d="M621.389 661.294C629.644 621.669 633.279 573.068 593.446 563.827C593.598 564.743 593.932 566.866 594.389 568.003C635.513 579.63 621.458 642.009 617.393 660.878C617.004 662.751 615.52 664.985 615.797 667.413C616.061 669.827 619.238 670.756 620.445 668.745C621.652 666.747 621.07 662.723 621.389 661.294" fill="#023C74"/>
<path d="M609.902 675.694C610.249 680.654 614.502 684.387 619.409 684.04C624.316 683.707 628.009 679.414 627.662 674.454C627.316 669.507 623.062 665.76 618.156 666.107C613.249 666.44 609.556 670.734 609.902 675.694Z" fill="url(#paint113_linear_1401_3)"/>
<path d="M611.863 674.812C612.143 678.959 615.783 682.079 619.969 681.786C624.156 681.506 627.316 677.919 627.023 673.772C626.729 669.639 623.103 666.519 618.916 666.812C614.729 667.092 611.569 670.679 611.863 674.812" fill="url(#paint114_linear_1401_3)"/>
<path d="M522.222 657.413C522.222 657.413 535.569 713.626 500.676 715.213C500.676 715.213 498.849 718.213 503.902 718.373C508.942 718.533 537.356 710.853 525.956 656.626L522.222 657.413Z" fill="url(#paint115_linear_1401_3)"/>
<path d="M505.262 662.226C505.262 662.226 521.582 717.653 552.662 701.693C552.662 701.693 555.742 703.399 551.436 706.039C547.129 708.693 518.662 716.119 501.636 663.399L505.262 662.226" fill="url(#paint116_linear_1401_3)"/>
<path d="M550.009 703.026C550.009 703.026 553.222 699.586 554.316 700.093C555.409 700.613 556.982 704.853 556.529 705.546C556.076 706.226 552.636 706.613 551.289 706.359C550.916 705.719 550.395 704.533 550.009 703.026Z" fill="#023C74"/>
<path d="M506.036 718.119C506.036 718.119 502.009 720.573 501.089 719.786C500.169 718.999 499.796 714.493 500.409 713.959C501.036 713.413 504.449 713.972 505.676 714.572C505.876 715.279 506.062 716.559 506.036 718.119Z" fill="#023C74"/>
<path d="M538.088 563.698C502.929 572.106 501.597 614.162 503.664 628.231C490.622 634.808 500.848 664.986 501.278 665.166C501.722 665.361 506.217 663.848 506.55 663.252C506.883 662.655 494.84 634.586 506.647 632.463C519.593 630.132 521.591 659.88 521.827 660.352C522.062 660.824 527.557 659.963 527.876 659.367C528.209 658.77 523.006 627.773 507.508 627.565C505.981 615.91 510.338 574.784 537.991 568.083C538.116 567.084 538.074 564.947 538.088 563.698" fill="#023C74"/>
<path d="M664.116 739.375C664.116 739.375 720.409 727.975 728.009 726.402L725.769 716.188L663.916 730.295L664.116 739.375" fill="url(#paint117_linear_1401_3)"/>
<path d="M663.463 739.531L662.916 664.171L674.689 737.225L663.463 739.531Z" fill="url(#paint118_linear_1401_3)"/>
<path d="M547.089 833.092C547.089 833.092 566.036 878.318 567.329 879.852L666.289 849.918L663.422 825.932L547.089 833.092" fill="url(#paint119_linear_1401_3)"/>
<path d="M675.289 835L627.716 685.894L514.902 723.934L510.676 725.52C510.676 725.52 505.849 726.854 507.062 728.574L508.996 729.667L561.889 876.094L675.289 835Z" fill="#EC231A"/>
<path d="M508.729 728.721C508.729 728.721 505.663 729.441 510.329 727.148C515.409 724.654 626.169 687.548 626.169 687.548L628.049 689.388L674.823 836.441L669.889 838.348L619.823 697.854L508.729 728.721" fill="url(#paint120_linear_1401_3)"/>
<path d="M507 728.093C507 728.093 507.467 729.093 511.547 727.706C515.627 726.333 629.534 688 629.534 688L678.161 837.346L562.494 878.066L507 728.093" fill="url(#paint121_linear_1401_3)"/>
<path d="M517.947 755.748L601.309 726.469L609.442 749.625L526.08 778.904L517.947 755.748Z" fill="white"/>
<path d="M566.89 709.944L592.916 784.043L569.76 792.176L543.734 718.077L566.89 709.944Z" fill="white"/>
<path d="M533.676 800.666L525.516 778.453C525.516 778.453 529.556 776.172 534.796 776.599C540.049 777.026 550.222 775.599 551.249 775.426C552.262 775.253 575.062 791.959 578.142 791.199C581.222 790.439 611.436 787.319 656.102 770.079L672.729 821.172C672.729 821.172 643.502 825.692 632.196 825.532C623.676 825.412 600.502 825.466 586.796 830.132C582.462 831.612 553.809 840.532 548.102 839.572L533.676 800.666" fill="url(#paint122_linear_1401_3)"/>
<path d="M684.676 764.066C680.796 766.84 671.622 772.52 652.889 779.146C627.809 788 611.556 790.426 611.556 790.426L619.449 820.906C619.449 820.906 663.089 816.2 680.849 812.706C697.209 809.48 728.396 801.173 730.916 797.32C732.902 794.293 731.916 784.6 730.169 772.413C715.289 764.093 701.596 760.386 684.676 764.066" fill="#F7D4AB"/>
<path d="M611.556 790.426C611.556 790.426 580.383 794.852 576.516 794.532C572.649 794.226 553.703 780.519 551.463 779.306C549.223 778.079 531.396 780.266 529.303 780.612C527.196 780.959 521.836 792.466 520.329 795.199C518.809 797.932 522.596 801.572 529.823 796.492C533.129 794.159 534.596 791.946 535.996 790.759C538.396 788.719 544.703 790.679 545.956 791.306C547.196 791.919 537.183 795.279 532.889 796.999C528.129 798.919 523.516 800.652 522.849 802.412C521.463 806.106 524.503 810.852 527.116 810.546C525.103 812.972 525.383 815.186 526.569 817.252C528.623 820.786 529.463 820.079 531.223 820.746C529.903 824.266 531.289 825.866 532.249 827.319C533.863 829.786 535.543 829.212 537.583 829.639C538.343 829.799 536.583 835.532 543.543 836.092C551.023 836.706 560.143 834.999 564.823 832.892C570.209 830.479 583.623 824.319 590.489 822.812C594.849 821.839 619.449 820.906 619.449 820.906L611.556 790.426" fill="#F7D4AB"/>
<path d="M524.422 787.36C524.422 787.36 518.329 797.106 519.222 798.106C519.222 798.106 521.169 799.506 524.409 794.386C527.649 789.28 525.382 788.28 524.422 787.36Z" fill="url(#paint123_linear_1401_3)"/>
<path d="M525.889 784.773C525.889 784.773 527.996 781.013 529.116 780.627C530.343 780.2 548.849 777.987 551.262 779.067C553.662 780.147 561.462 786 561.462 786C561.462 786 553.489 781.307 550.356 780.32C547.222 779.347 530.596 781.12 529.596 781.613C528.596 782.08 525.889 784.773 525.889 784.773" fill="url(#paint124_linear_1401_3)"/>
<path d="M562.542 786.709C562.542 786.709 573.943 794.335 576.516 794.535C579.076 794.749 606.449 790.989 611.556 790.429C611.556 790.429 582.849 799.602 578.609 798.455C574.356 797.309 562.542 786.709 562.542 786.709" fill="url(#paint125_linear_1401_3)"/>
<path d="M552.582 795.372C552.582 795.372 528.356 798.346 527.996 801.319C527.622 804.306 528.916 807.665 530.436 808.265C531.462 808.679 533.502 808.639 535.982 808.345C533.822 809.105 532.356 809.932 532.289 810.786C532.062 813.479 533.289 816.439 534.782 817.079C535.676 817.452 536.822 817.652 538.129 817.719C538.116 817.732 538.102 817.745 538.102 817.759C536.676 824.279 542.996 824.279 544.516 824.839C544.649 824.892 544.796 824.932 544.942 824.972C544.889 825.052 544.862 825.145 544.849 825.225C544.489 828.212 545.489 829.559 546.969 830.225C559.769 835.972 571.902 826.105 571.902 826.105L552.582 795.372Z" fill="url(#paint126_linear_1401_3)"/>
<path d="M567.329 831.812C567.329 831.812 580.222 821.599 586.076 820.639C591.942 819.666 616.889 821.013 616.889 821.013C616.889 821.013 591.289 822.973 589.742 823.106C587.676 823.279 567.329 831.812 567.329 831.812Z" fill="url(#paint127_linear_1401_3)"/>
<path d="M525.796 798.613C527.849 798 531.756 795.787 534.103 792.84C536.449 789.893 538.236 789.493 541.729 790.213C545.236 790.907 545.929 791.267 545.836 791.56C545.756 791.867 530.276 798.053 530.276 798.053C530.276 798.053 546.463 794.213 549.849 791.227C553.223 788.253 546.103 788.28 543.956 788.093C541.796 787.92 535.236 790.093 534.089 790.133C534.089 790.133 528.103 797.72 525.796 798.613" fill="url(#paint128_linear_1401_3)"/>
<path d="M524.902 809.72C525.156 809.933 526.076 810.626 526.996 810.626C526.996 810.626 526.302 811.346 525.969 812.52C525.969 812.52 529.076 810.266 531.756 809.879C531.756 809.879 526.422 810.266 524.902 809.72Z" fill="url(#paint129_linear_1401_3)"/>
<path d="M528.649 819.852C529.503 820.438 531.183 820.758 531.183 820.758C531.183 820.758 530.409 822.918 530.729 824.012C530.729 824.012 532.076 820.212 533.969 819.638C533.969 819.638 530.636 820.252 528.649 819.852Z" fill="url(#paint130_linear_1401_3)"/>
<path d="M534.129 829.012C534.956 829.372 536.329 829.559 537.529 829.679C537.529 829.679 537.662 830.933 538.089 832.199C538.089 832.199 537.782 829.839 540.609 828.386C540.609 828.386 538.262 829.292 534.129 829.012Z" fill="url(#paint131_linear_1401_3)"/>
<path d="M619.449 820.906C619.449 820.906 640.382 819.52 655.996 817.92C671.609 816.32 692.209 814.853 729.583 800.24C734.049 798.493 731.009 778.746 731.009 778.746C731.009 778.746 731.156 792.706 722.956 795.72C708.303 801.08 683.076 812.506 619.449 820.906" fill="url(#paint132_linear_1401_3)"/>
<path d="M621.862 791.252C621.862 791.252 711.702 767.918 718.582 772.278C725.462 776.638 723.196 788.932 683.649 794.932C644.089 800.945 621.862 791.252 621.862 791.252Z" fill="url(#paint133_linear_1401_3)"/>
<path d="M646.396 781.359C661.329 778.253 700.035 766.119 700.035 766.119C696.222 760.973 691.489 747.626 688.062 739.079C684.369 739.533 681.662 740.133 677.396 741.506C679.836 749.506 684.182 762.946 684.182 762.946C669.849 773.706 646.396 781.359 646.396 781.359" fill="url(#paint134_linear_1401_3)"/>
<defs>
<linearGradient id="paint0_linear_1401_3" x1="337.424" y1="678.4" x2="236.287" y2="604.475" gradientUnits="userSpaceOnUse">
<stop stop-color="#F0C499"/>
<stop offset="0.20799" stop-color="#F0C499"/>
<stop offset="1" stop-color="#F7D4AB"/>
</linearGradient>
<linearGradient id="paint1_linear_1401_3" x1="246.791" y1="638.273" x2="124.855" y2="649.695" gradientUnits="userSpaceOnUse">
<stop stop-color="#F0C499"/>
<stop offset="0.20799" stop-color="#F0C499"/>
<stop offset="1" stop-color="#F7D4AB"/>
</linearGradient>
<linearGradient id="paint2_linear_1401_3" x1="350.481" y1="702.279" x2="184.406" y2="621.739" gradientUnits="userSpaceOnUse">
<stop stop-color="#F0C499"/>
<stop offset="0.20799" stop-color="#F0C499"/>
<stop offset="1" stop-color="#F7D4AB"/>
</linearGradient>
<linearGradient id="paint3_linear_1401_3" x1="244.339" y1="648.334" x2="126.964" y2="659.329" gradientUnits="userSpaceOnUse">
<stop stop-color="#F0C499"/>
<stop offset="0.20799" stop-color="#F0C499"/>
<stop offset="1" stop-color="#F7D4AB"/>
</linearGradient>
<linearGradient id="paint4_linear_1401_3" x1="355.723" y1="698.504" x2="195.869" y2="644.329" gradientUnits="userSpaceOnUse">
<stop stop-color="#F0C499"/>
<stop offset="0.20799" stop-color="#F0C499"/>
<stop offset="1" stop-color="#F7D4AB"/>
</linearGradient>
<linearGradient id="paint5_linear_1401_3" x1="251.578" y1="653.667" x2="155.861" y2="662.634" gradientUnits="userSpaceOnUse">
<stop stop-color="#F0C499"/>
<stop offset="0.20799" stop-color="#F0C499"/>
<stop offset="1" stop-color="#F7D4AB"/>
</linearGradient>
<linearGradient id="paint6_linear_1401_3" x1="301.076" y1="647.287" x2="227.461" y2="652.998" gradientUnits="userSpaceOnUse">
<stop stop-color="#F0C499"/>
<stop offset="0.20799" stop-color="#F0C499"/>
<stop offset="1" stop-color="#F7D4AB"/>
</linearGradient>
<linearGradient id="paint7_linear_1401_3" x1="273.453" y1="610.039" x2="236.804" y2="613.472" gradientUnits="userSpaceOnUse">
<stop stop-color="#F0C499"/>
<stop offset="0.20799" stop-color="#F0C499"/>
<stop offset="1" stop-color="#F7D4AB"/>
</linearGradient>
<linearGradient id="paint8_linear_1401_3" x1="261.68" y1="629.927" x2="159.372" y2="639.511" gradientUnits="userSpaceOnUse">
<stop stop-color="#FFD9B3"/>
<stop offset="0.610346" stop-color="#FFD9B3"/>
<stop offset="1" stop-color="#F7D4AB"/>
</linearGradient>
<linearGradient id="paint9_linear_1401_3" x1="300.353" y1="671.838" x2="262.336" y2="648.429" gradientUnits="userSpaceOnUse">
<stop stop-color="#FFD9B3"/>
<stop offset="0.610346" stop-color="#FFD9B3"/>
<stop offset="1" stop-color="#F7D4AB"/>
</linearGradient>
<linearGradient id="paint10_linear_1401_3" x1="253.72" y1="614.779" x2="285.699" y2="604.372" gradientUnits="userSpaceOnUse">
<stop stop-color="#FFD9B3"/>
<stop offset="0.610346" stop-color="#FFD9B3"/>
<stop offset="1" stop-color="#F7D4AB"/>
</linearGradient>
<linearGradient id="paint11_linear_1401_3" x1="251.121" y1="663.586" x2="222.928" y2="665.773" gradientUnits="userSpaceOnUse">
<stop stop-color="#FFD9B3"/>
<stop offset="0.610346" stop-color="#FFD9B3"/>
<stop offset="1" stop-color="#F7D4AB"/>
</linearGradient>
<linearGradient id="paint12_linear_1401_3" x1="176.692" y1="623.894" x2="415.305" y2="783.027" gradientUnits="userSpaceOnUse">
<stop stop-color="#F0C499"/>
<stop offset="0.65316" stop-color="#F0C499"/>
<stop offset="1" stop-color="#F7D4AB"/>
</linearGradient>
<linearGradient id="paint13_linear_1401_3" x1="407.623" y1="855.9" x2="441.21" y2="575.607" gradientUnits="userSpaceOnUse">
<stop stop-color="#F7D4AB"/>
<stop offset="0.34684" stop-color="#F0C499"/>
<stop offset="1" stop-color="#F0C499"/>
</linearGradient>
<linearGradient id="paint14_linear_1401_3" x1="486.181" y1="556.13" x2="381.013" y2="765.818" gradientUnits="userSpaceOnUse">
<stop stop-color="#FFD9B3"/>
<stop offset="0.0176914" stop-color="#FFD9B3"/>
<stop offset="1" stop-color="#F7D4AB"/>
</linearGradient>
<linearGradient id="paint15_linear_1401_3" x1="299.027" y1="664.719" x2="409.146" y2="761.414" gradientUnits="userSpaceOnUse">
<stop stop-color="#F7D4AB"/>
<stop offset="0.389654" stop-color="#FFD9B3"/>
<stop offset="1" stop-color="#FFD9B3"/>
</linearGradient>
<linearGradient id="paint16_linear_1401_3" x1="423.742" y1="750.307" x2="430.751" y2="691.816" gradientUnits="userSpaceOnUse">
<stop stop-color="#F0C499"/>
<stop offset="0.65316" stop-color="#F0C499"/>
<stop offset="1" stop-color="#F7D4AB"/>
</linearGradient>
<linearGradient id="paint17_linear_1401_3" x1="719.303" y1="730.041" x2="685.576" y2="720.172" gradientUnits="userSpaceOnUse">
<stop stop-color="#F7D4AB"/>
<stop offset="0.34684" stop-color="#F0C499"/>
<stop offset="1" stop-color="#F0C499"/>
</linearGradient>
<linearGradient id="paint18_linear_1401_3" x1="728.509" y1="234.922" x2="738.216" y2="357.515" gradientUnits="userSpaceOnUse">
<stop stop-color="#492219"/>
<stop offset="0.233503" stop-color="#492219"/>
<stop offset="0.590918" stop-color="#56281E"/>
<stop offset="1" stop-color="#652F23"/>
</linearGradient>
<linearGradient id="paint19_linear_1401_3" x1="631.836" y1="274.216" x2="600.676" y2="424.375" gradientUnits="userSpaceOnUse">
<stop stop-color="#492219"/>
<stop offset="0.233503" stop-color="#492219"/>
<stop offset="0.590918" stop-color="#56281E"/>
<stop offset="1" stop-color="#652F23"/>
</linearGradient>
<linearGradient id="paint20_linear_1401_3" x1="733.238" y1="344.303" x2="718.546" y2="443.996" gradientUnits="userSpaceOnUse">
<stop stop-color="#492219"/>
<stop offset="0.233503" stop-color="#492219"/>
<stop offset="0.590918" stop-color="#56281E"/>
<stop offset="1" stop-color="#652F23"/>
</linearGradient>
<linearGradient id="paint21_linear_1401_3" x1="571.315" y1="891.694" x2="568.689" y2="1160.9" gradientUnits="userSpaceOnUse">
<stop stop-color="#DEEFFF"/>
<stop offset="0.65316" stop-color="#DEEFFF"/>
<stop offset="1" stop-color="#C7E4FF"/>
</linearGradient>
<linearGradient id="paint22_linear_1401_3" x1="567.036" y1="1188.12" x2="566.058" y2="964.884" gradientUnits="userSpaceOnUse">
<stop stop-color="#DEEFFF"/>
<stop offset="0.198821" stop-color="#DEEFFF"/>
<stop offset="1" stop-color="#BDDFFF"/>
</linearGradient>
<linearGradient id="paint23_linear_1401_3" x1="508.729" y1="1468.64" x2="510.142" y2="1444.98" gradientUnits="userSpaceOnUse">
<stop stop-color="#ADD2F4"/>
<stop offset="1" stop-color="#ADD2F4"/>
</linearGradient>
<linearGradient id="paint24_linear_1401_3" x1="462.182" y1="1005.94" x2="559.688" y2="1017.33" gradientUnits="userSpaceOnUse">
<stop stop-color="#D3EAFF"/>
<stop offset="0.65316" stop-color="#D3EAFF"/>
<stop offset="1" stop-color="#C7E4FF"/>
</linearGradient>
<linearGradient id="paint25_linear_1401_3" x1="676.009" y1="1013.99" x2="573.55" y2="1011.35" gradientUnits="userSpaceOnUse">
<stop stop-color="#0C5DA5"/>
<stop offset="0.0001" stop-color="#D3EAFF"/>
<stop offset="0.65316" stop-color="#D3EAFF"/>
<stop offset="1" stop-color="#C7E4FF"/>
</linearGradient>
<linearGradient id="paint26_linear_1401_3" x1="575.359" y1="444.452" x2="701.835" y2="444.452" gradientUnits="userSpaceOnUse">
<stop stop-color="#F0C498"/>
<stop offset="0.337696" stop-color="#F0C498"/>
<stop offset="1" stop-color="#F6D3AA"/>
</linearGradient>
<linearGradient id="paint27_linear_1401_3" x1="525.21" y1="480.358" x2="624.64" y2="540.77" gradientUnits="userSpaceOnUse">
<stop stop-color="#F0C499"/>
<stop offset="0.65316" stop-color="#F0C499"/>
<stop offset="1" stop-color="#F7D4AB"/>
</linearGradient>
<linearGradient id="paint28_linear_1401_3" x1="718.911" y1="495.03" x2="609.8" y2="525.681" gradientUnits="userSpaceOnUse">
<stop stop-color="#F0C499"/>
<stop offset="0.65316" stop-color="#F0C499"/>
<stop offset="1" stop-color="#F7D4AB"/>
</linearGradient>
<linearGradient id="paint29_linear_1401_3" x1="576.481" y1="541.161" x2="726.665" y2="500.236" gradientUnits="userSpaceOnUse">
<stop stop-color="#F0C498"/>
<stop offset="0.337696" stop-color="#F0C498"/>
<stop offset="1" stop-color="#F6D3AA"/>
</linearGradient>
<linearGradient id="paint30_linear_1401_3" x1="476.114" y1="636.54" x2="504.994" y2="516.113" gradientUnits="userSpaceOnUse">
<stop stop-color="#D3EAFF"/>
<stop offset="0.611146" stop-color="#CAE6FF"/>
<stop offset="1" stop-color="#D3EAFF"/>
</linearGradient>
<linearGradient id="paint31_linear_1401_3" x1="395.323" y1="711.787" x2="514.516" y2="742.567" gradientUnits="userSpaceOnUse">
<stop stop-color="#D3EAFF"/>
<stop offset="1" stop-color="#C7E4FF"/>
</linearGradient>
<linearGradient id="paint32_linear_1401_3" x1="465.929" y1="751.441" x2="456.013" y2="557.194" gradientUnits="userSpaceOnUse">
<stop stop-color="#D3EAFF"/>
<stop offset="1" stop-color="#C7E4FF"/>
</linearGradient>
<linearGradient id="paint33_linear_1401_3" x1="482.049" y1="1040.84" x2="462.372" y2="574.496" gradientUnits="userSpaceOnUse">
<stop stop-color="#C7E4FF"/>
<stop offset="1" stop-color="#D3EAFF"/>
</linearGradient>
<linearGradient id="paint34_linear_1401_3" x1="668.902" y1="1045.27" x2="648.963" y2="572.69" gradientUnits="userSpaceOnUse">
<stop stop-color="#C7E4FF"/>
<stop offset="1" stop-color="#D3EAFF"/>
</linearGradient>
<linearGradient id="paint35_linear_1401_3" x1="457.236" y1="913.828" x2="515.731" y2="914.245" gradientUnits="userSpaceOnUse">
<stop stop-color="#DFF0FF"/>
<stop offset="0.136062" stop-color="#DDEEFE"/>
<stop offset="1" stop-color="#D2E3F2"/>
</linearGradient>
<linearGradient id="paint36_linear_1401_3" x1="677.316" y1="913.533" x2="609.324" y2="914.152" gradientUnits="userSpaceOnUse">
<stop stop-color="#DEEFFF"/>
<stop offset="0.136062" stop-color="#DEEFFF"/>
<stop offset="1" stop-color="#D0E1F0"/>
</linearGradient>
<linearGradient id="paint37_linear_1401_3" x1="586.129" y1="1490.91" x2="587.125" y2="1241.86" gradientUnits="userSpaceOnUse">
<stop stop-color="#ADD2F4"/>
<stop offset="0.34684" stop-color="#C7E4FF"/>
<stop offset="1" stop-color="#C7E4FF"/>
</linearGradient>
<linearGradient id="paint38_linear_1401_3" x1="535.436" y1="1492.02" x2="536.475" y2="1232.34" gradientUnits="userSpaceOnUse">
<stop stop-color="#ADD2F4"/>
<stop offset="0.34684" stop-color="#C7E4FF"/>
<stop offset="1" stop-color="#C7E4FF"/>
</linearGradient>
<linearGradient id="paint39_linear_1401_3" x1="746.255" y1="647.461" x2="714.683" y2="515.809" gradientUnits="userSpaceOnUse">
<stop stop-color="#D3EAFF"/>
<stop offset="0.388854" stop-color="#D3EAFF"/>
<stop offset="1" stop-color="#C5E3FF"/>
</linearGradient>
<linearGradient id="paint40_linear_1401_3" x1="640.582" y1="413.749" x2="647.576" y2="443.377" gradientUnits="userSpaceOnUse">
<stop stop-color="#DBA379"/>
<stop offset="0.177916" stop-color="#DBA379"/>
<stop offset="1" stop-color="#F0C499"/>
</linearGradient>
<linearGradient id="paint41_linear_1401_3" x1="779.139" y1="178.372" x2="766.035" y2="421.501" gradientUnits="userSpaceOnUse">
<stop stop-color="#673024"/>
<stop offset="0.457989" stop-color="#673024"/>
<stop offset="1" stop-color="#824137"/>
</linearGradient>
<linearGradient id="paint42_linear_1401_3" x1="624.402" y1="311.254" x2="598.499" y2="514.409" gradientUnits="userSpaceOnUse">
<stop stop-color="#673024"/>
<stop offset="0.457989" stop-color="#673024"/>
<stop offset="1" stop-color="#824137"/>
</linearGradient>
<linearGradient id="paint43_linear_1401_3" x1="606.338" y1="314.439" x2="622.69" y2="314.439" gradientUnits="userSpaceOnUse">
<stop stop-color="#DAA279"/>
<stop offset="0.177916" stop-color="#DAA279"/>
<stop offset="1" stop-color="#F0C498"/>
</linearGradient>
<linearGradient id="paint44_linear_1401_3" x1="613.887" y1="330.201" x2="621.769" y2="365.544" gradientUnits="userSpaceOnUse">
<stop stop-color="#DBA379"/>
<stop offset="0.177916" stop-color="#DBA379"/>
<stop offset="1" stop-color="#F0C499"/>
</linearGradient>
<linearGradient id="paint45_linear_1401_3" x1="741.76" y1="486.298" x2="740.172" y2="541.873" gradientUnits="userSpaceOnUse">
<stop stop-color="#DBA379"/>
<stop offset="0.177916" stop-color="#DBA379"/>
<stop offset="1" stop-color="#F0C499"/>
</linearGradient>
<linearGradient id="paint46_linear_1401_3" x1="730.534" y1="295.018" x2="728.323" y2="261.066" gradientUnits="userSpaceOnUse">
<stop stop-color="#F6D3AA"/>
<stop offset="0.65316" stop-color="#F6D3AA"/>
<stop offset="1" stop-color="#F0C498"/>
</linearGradient>
<radialGradient id="paint47_radial_1401_3" cx="0" cy="0" r="1" gradientUnits="userSpaceOnUse" gradientTransform="translate(720.648 324.941) scale(22.4247 23.7274)">
<stop stop-color="#F9B28D"/>
<stop offset="0.136144" stop-color="#F9B28D"/>
<stop offset="1" stop-color="#F6D3AA"/>
</radialGradient>
<linearGradient id="paint48_linear_1401_3" x1="656.378" y1="254.113" x2="661.308" y2="299.78" gradientUnits="userSpaceOnUse">
<stop stop-color="#F0C498"/>
<stop offset="0.34684" stop-color="#F6D3AA"/>
<stop offset="1" stop-color="#F6D3AA"/>
</linearGradient>
<radialGradient id="paint49_radial_1401_3" cx="0" cy="0" r="1" gradientUnits="userSpaceOnUse" gradientTransform="translate(637.415 330.163) rotate(180) scale(22.4331 23.7362)">
<stop stop-color="#F9B28D"/>
<stop offset="0.136144" stop-color="#F9B28D"/>
<stop offset="1" stop-color="#F6D3AA"/>
</radialGradient>
<linearGradient id="paint50_linear_1401_3" x1="716.159" y1="324.89" x2="728.272" y2="324.89" gradientUnits="userSpaceOnUse">
<stop stop-color="#FFD8B2"/>
<stop offset="0.242659" stop-color="#FFD8B2"/>
<stop offset="1" stop-color="#F6D3AA"/>
</linearGradient>
<linearGradient id="paint51_linear_1401_3" x1="615.572" y1="325.987" x2="627.666" y2="325.987" gradientUnits="userSpaceOnUse">
<stop stop-color="#FFD8B2"/>
<stop offset="0.242659" stop-color="#FFD8B2"/>
<stop offset="1" stop-color="#F6D3AA"/>
</linearGradient>
<linearGradient id="paint52_linear_1401_3" x1="745.817" y1="32.2163" x2="735.151" y2="235.265" gradientUnits="userSpaceOnUse">
<stop stop-color="#F6D3AA"/>
<stop offset="0.662304" stop-color="#F0C498"/>
<stop offset="1" stop-color="#F0C498"/>
</linearGradient>
<linearGradient id="paint53_linear_1401_3" x1="623.251" y1="435.106" x2="644.726" y2="435.106" gradientUnits="userSpaceOnUse">
<stop stop-color="#FFD8B2"/>
<stop offset="0.610346" stop-color="#FFD8B2"/>
<stop offset="1" stop-color="#F6D3AA"/>
</linearGradient>
<linearGradient id="paint54_linear_1401_3" x1="679.972" y1="389.482" x2="718.727" y2="389.482" gradientUnits="userSpaceOnUse">
<stop stop-color="#FFD8B2"/>
<stop offset="0.610346" stop-color="#FFD8B2"/>
<stop offset="1" stop-color="#F6D3AA"/>
</linearGradient>
<linearGradient id="paint55_linear_1401_3" x1="631.737" y1="458.851" x2="632.978" y2="488.23" gradientUnits="userSpaceOnUse">
<stop stop-color="#DAA279"/>
<stop offset="0.177916" stop-color="#DAA279"/>
<stop offset="1" stop-color="#F0C498"/>
</linearGradient>
<linearGradient id="paint56_linear_1401_3" x1="748.376" y1="288.63" x2="726.962" y2="343.368" gradientUnits="userSpaceOnUse">
<stop stop-color="#F1C397"/>
<stop offset="0.543911" stop-color="#F9B28D"/>
<stop offset="0.548387" stop-color="#F9B28D"/>
<stop offset="0.997235" stop-color="#F0C498"/>
<stop offset="1" stop-color="#F0C498"/>
</linearGradient>
<linearGradient id="paint57_linear_1401_3" x1="659.979" y1="371.136" x2="659.866" y2="358.573" gradientUnits="userSpaceOnUse">
<stop stop-color="#F6D3AA"/>
<stop offset="0.65316" stop-color="#F6D3AA"/>
<stop offset="1" stop-color="#F0C498"/>
</linearGradient>
<linearGradient id="paint58_linear_1401_3" x1="669.129" y1="348.642" x2="661.096" y2="327.912" gradientUnits="userSpaceOnUse">
<stop stop-color="#FFD8B2"/>
<stop offset="0.242659" stop-color="#FFD8B2"/>
<stop offset="1" stop-color="#F6D3AA"/>
</linearGradient>
<linearGradient id="paint59_linear_1401_3" x1="674.053" y1="354.167" x2="666.141" y2="358.084" gradientUnits="userSpaceOnUse">
<stop stop-color="#DAA279"/>
<stop offset="0.177916" stop-color="#DAA279"/>
<stop offset="1" stop-color="#F0C498"/>
</linearGradient>
<linearGradient id="paint60_linear_1401_3" x1="649.315" y1="354.998" x2="657.773" y2="358.444" gradientUnits="userSpaceOnUse">
<stop stop-color="#DAA279"/>
<stop offset="0.177916" stop-color="#DAA279"/>
<stop offset="1" stop-color="#F0C498"/>
</linearGradient>
<linearGradient id="paint61_linear_1401_3" x1="737.48" y1="286.259" x2="705.913" y2="287.442" gradientUnits="userSpaceOnUse">
<stop stop-color="#DBA379"/>
<stop offset="0.177916" stop-color="#DBA379"/>
<stop offset="1" stop-color="#F0C499"/>
</linearGradient>
<linearGradient id="paint62_linear_1401_3" x1="697.903" y1="297.078" x2="730.771" y2="296.075" gradientUnits="userSpaceOnUse">
<stop stop-color="white"/>
<stop offset="0.651246" stop-color="white"/>
<stop offset="1" stop-color="#ECE7E7"/>
</linearGradient>
<linearGradient id="paint63_linear_1401_3" x1="722.258" y1="302.651" x2="709.082" y2="290.541" gradientUnits="userSpaceOnUse">
<stop stop-color="#715241"/>
<stop offset="0.997317" stop-color="#B89C8C"/>
<stop offset="1" stop-color="#B89C8C"/>
</linearGradient>
<linearGradient id="paint64_linear_1401_3" x1="707.613" y1="435.683" x2="709.8" y2="384.767" gradientUnits="userSpaceOnUse">
<stop stop-color="#B89C8C"/>
<stop offset="0.00268278" stop-color="#B89C8C"/>
<stop offset="1" stop-color="#715241"/>
</linearGradient>
<radialGradient id="paint65_radial_1401_3" cx="0" cy="0" r="1" gradientUnits="userSpaceOnUse" gradientTransform="translate(714.033 298.64) rotate(-174.841) scale(7.67395 6.97336)">
<stop stop-color="#2A3A3B"/>
<stop offset="0.0107629" stop-color="#2A3A3B"/>
<stop offset="1" stop-color="#1C2727"/>
</radialGradient>
<linearGradient id="paint66_linear_1401_3" x1="700.041" y1="288.74" x2="738.806" y2="287.557" gradientUnits="userSpaceOnUse">
<stop stop-color="#5A2A1F"/>
<stop offset="0.524021" stop-color="#391B13"/>
<stop offset="1" stop-color="#391B13"/>
</linearGradient>
<linearGradient id="paint67_linear_1401_3" x1="721.103" y1="276.551" x2="691.577" y2="292.56" gradientUnits="userSpaceOnUse">
<stop stop-color="#DBA379"/>
<stop offset="0.177916" stop-color="#DBA379"/>
<stop offset="1" stop-color="#F0C499"/>
</linearGradient>
<linearGradient id="paint68_linear_1401_3" x1="690.501" y1="295.072" x2="722.941" y2="294.3" gradientUnits="userSpaceOnUse">
<stop stop-color="#5A2A1F"/>
<stop offset="0.524021" stop-color="#391B13"/>
<stop offset="1" stop-color="#391B13"/>
</linearGradient>
<linearGradient id="paint69_linear_1401_3" x1="709.922" y1="308.631" x2="730.867" y2="308.132" gradientUnits="userSpaceOnUse">
<stop stop-color="#5A2A1F"/>
<stop offset="0.524021" stop-color="#391B13"/>
<stop offset="1" stop-color="#391B13"/>
</linearGradient>
<linearGradient id="paint70_linear_1401_3" x1="636.004" y1="286.362" x2="667.577" y2="287.362" gradientUnits="userSpaceOnUse">
<stop stop-color="#DBA379"/>
<stop offset="0.177916" stop-color="#DBA379"/>
<stop offset="1" stop-color="#F0C499"/>
</linearGradient>
<linearGradient id="paint71_linear_1401_3" x1="666.73" y1="296.98" x2="633.856" y2="296.167" gradientUnits="userSpaceOnUse">
<stop stop-color="white"/>
<stop offset="0.651246" stop-color="white"/>
<stop offset="1" stop-color="#ECE7E7"/>
</linearGradient>
<linearGradient id="paint72_linear_1401_3" x1="646.248" y1="287.764" x2="657.668" y2="304.303" gradientUnits="userSpaceOnUse">
<stop stop-color="#715241"/>
<stop offset="0.997317" stop-color="#B89C8C"/>
<stop offset="1" stop-color="#B89C8C"/>
</linearGradient>
<linearGradient id="paint73_linear_1401_3" x1="650.856" y1="297.197" x2="655.509" y2="246.448" gradientUnits="userSpaceOnUse">
<stop stop-color="#715241"/>
<stop offset="0.997317" stop-color="#B89C8C"/>
<stop offset="1" stop-color="#B89C8C"/>
</linearGradient>
<radialGradient id="paint74_radial_1401_3" cx="0" cy="0" r="1" gradientUnits="userSpaceOnUse" gradientTransform="translate(648.59 298.642) rotate(-5.49381) scale(7.67426 6.97265)">
<stop stop-color="#2A3A3B"/>
<stop offset="0.0107629" stop-color="#2A3A3B"/>
<stop offset="1" stop-color="#1C2727"/>
</radialGradient>
<linearGradient id="paint75_linear_1401_3" x1="669.084" y1="288.641" x2="629.636" y2="287.666" gradientUnits="userSpaceOnUse">
<stop stop-color="#5A2A1F"/>
<stop offset="0.524021" stop-color="#391B13"/>
<stop offset="1" stop-color="#391B13"/>
</linearGradient>
<linearGradient id="paint76_linear_1401_3" x1="652.529" y1="276.548" x2="682.148" y2="292.386" gradientUnits="userSpaceOnUse">
<stop stop-color="#DBA379"/>
<stop offset="0.177916" stop-color="#DBA379"/>
<stop offset="1" stop-color="#F0C499"/>
</linearGradient>
<linearGradient id="paint77_linear_1401_3" x1="673.378" y1="294.927" x2="640.934" y2="294.343" gradientUnits="userSpaceOnUse">
<stop stop-color="#5A2A1F"/>
<stop offset="0.524021" stop-color="#391B13"/>
<stop offset="1" stop-color="#391B13"/>
</linearGradient>
<linearGradient id="paint78_linear_1401_3" x1="623.975" y1="308.335" x2="644.882" y2="308.711" gradientUnits="userSpaceOnUse">
<stop stop-color="#391B13"/>
<stop offset="0.475979" stop-color="#391B13"/>
<stop offset="1" stop-color="#5A2A1F"/>
</linearGradient>
<linearGradient id="paint79_linear_1401_3" x1="713.336" y1="253.019" x2="751.627" y2="254.479" gradientUnits="userSpaceOnUse">
<stop stop-color="#5A2A1F"/>
<stop offset="0.524021" stop-color="#391B13"/>
<stop offset="1" stop-color="#391B13"/>
</linearGradient>
<linearGradient id="paint80_linear_1401_3" x1="675.479" y1="252.051" x2="636.962" y2="254.381" gradientUnits="userSpaceOnUse">
<stop stop-color="#5A2A1F"/>
<stop offset="0.524021" stop-color="#391B13"/>
<stop offset="1" stop-color="#391B13"/>
</linearGradient>
<linearGradient id="paint81_linear_1401_3" x1="630.229" y1="411.754" x2="660.196" y2="411.754" gradientUnits="userSpaceOnUse">
<stop stop-color="#DBA379"/>
<stop offset="0.177916" stop-color="#DBA379"/>
<stop offset="1" stop-color="#F0C499"/>
</linearGradient>
<linearGradient id="paint82_linear_1401_3" x1="667.365" y1="394" x2="634.076" y2="395.825" gradientUnits="userSpaceOnUse">
<stop stop-color="#E8D8D7"/>
<stop offset="0.386349" stop-color="white"/>
<stop offset="0.568528" stop-color="white"/>
<stop offset="0.585784" stop-color="white"/>
<stop offset="1" stop-color="#E8D2D1"/>
</linearGradient>
<linearGradient id="paint83_linear_1401_3" x1="625.513" y1="387.833" x2="678.074" y2="387.82" gradientUnits="userSpaceOnUse">
<stop stop-color="#E8D8D7"/>
<stop offset="0.271215" stop-color="white"/>
<stop offset="0.568528" stop-color="white"/>
<stop offset="0.702685" stop-color="white"/>
<stop offset="1" stop-color="#E8D2D1"/>
</linearGradient>
<linearGradient id="paint84_linear_1401_3" x1="633.489" y1="398.221" x2="671.41" y2="393.822" gradientUnits="userSpaceOnUse">
<stop stop-color="#F96E7E"/>
<stop offset="0.2086" stop-color="#FF7D88"/>
<stop offset="0.527919" stop-color="#FF7D88"/>
<stop offset="0.766071" stop-color="#FF7D88"/>
<stop offset="1" stop-color="#F86D7D"/>
</linearGradient>
<linearGradient id="paint85_linear_1401_3" x1="632.321" y1="387.44" x2="672.993" y2="387.41" gradientUnits="userSpaceOnUse">
<stop stop-color="#E8D8D7"/>
<stop offset="0.328579" stop-color="#FBF6F6"/>
<stop offset="0.483517" stop-color="#FBF6F6"/>
<stop offset="1" stop-color="#E8D2D1"/>
</linearGradient>
<linearGradient id="paint86_linear_1401_3" x1="637.985" y1="386.251" x2="667.089" y2="385.791" gradientUnits="userSpaceOnUse">
<stop stop-color="#F96E7E"/>
<stop offset="0.2086" stop-color="#FF7D88"/>
<stop offset="0.527919" stop-color="#FF7D88"/>
<stop offset="0.766071" stop-color="#FF7D88"/>
<stop offset="1" stop-color="#F86D7D"/>
</linearGradient>
<linearGradient id="paint87_linear_1401_3" x1="794.694" y1="49.0007" x2="775.069" y2="422.625" gradientUnits="userSpaceOnUse">
<stop stop-color="#673024"/>
<stop offset="0.457989" stop-color="#673024"/>
<stop offset="1" stop-color="#824137"/>
</linearGradient>
<linearGradient id="paint88_linear_1401_3" x1="690.362" y1="500.776" x2="659.805" y2="573.661" gradientUnits="userSpaceOnUse">
<stop stop-color="#673024"/>
<stop offset="0.457989" stop-color="#673024"/>
<stop offset="1" stop-color="#824137"/>
</linearGradient>
<linearGradient id="paint89_linear_1401_3" x1="669.726" y1="296.954" x2="690.327" y2="49.934" gradientUnits="userSpaceOnUse">
<stop stop-color="#824137"/>
<stop offset="0.542011" stop-color="#673024"/>
<stop offset="1" stop-color="#673024"/>
</linearGradient>
<linearGradient id="paint90_linear_1401_3" x1="776.04" y1="501.844" x2="778.234" y2="314.782" gradientUnits="userSpaceOnUse">
<stop stop-color="#673024"/>
<stop offset="0.132833" stop-color="#673024"/>
<stop offset="1" stop-color="#824137"/>
</linearGradient>
<linearGradient id="paint91_linear_1401_3" x1="591.346" y1="369.99" x2="604.141" y2="288.36" gradientUnits="userSpaceOnUse">
<stop stop-color="#CB8076"/>
<stop offset="0.132833" stop-color="#CB8076"/>
<stop offset="1" stop-color="#824137"/>
</linearGradient>
<linearGradient id="paint92_linear_1401_3" x1="789.526" y1="189.98" x2="827.857" y2="189.98" gradientUnits="userSpaceOnUse">
<stop stop-color="#673024"/>
<stop offset="0.132833" stop-color="#673024"/>
<stop offset="1" stop-color="#824137"/>
</linearGradient>
<linearGradient id="paint93_linear_1401_3" x1="761.133" y1="103.041" x2="797.061" y2="277.047" gradientUnits="userSpaceOnUse">
<stop stop-color="#824137"/>
<stop offset="0.867167" stop-color="#673024"/>
<stop offset="1" stop-color="#673024"/>
</linearGradient>
<linearGradient id="paint94_linear_1401_3" x1="726.414" y1="86.133" x2="796.067" y2="86.133" gradientUnits="userSpaceOnUse">
<stop stop-color="#824137"/>
<stop offset="0.867167" stop-color="#673024"/>
<stop offset="1" stop-color="#673024"/>
</linearGradient>
<linearGradient id="paint95_linear_1401_3" x1="727.759" y1="506.799" x2="766.295" y2="367.168" gradientUnits="userSpaceOnUse">
<stop stop-color="#CB8076"/>
<stop offset="0.132833" stop-color="#CB8076"/>
<stop offset="1" stop-color="#824137"/>
</linearGradient>
<linearGradient id="paint96_linear_1401_3" x1="661.84" y1="287.114" x2="695.818" y2="67.8649" gradientUnits="userSpaceOnUse">
<stop stop-color="#673024"/>
<stop offset="0.132833" stop-color="#673024"/>
<stop offset="1" stop-color="#824137"/>
</linearGradient>
<linearGradient id="paint97_linear_1401_3" x1="758.573" y1="214.763" x2="831.966" y2="282.148" gradientUnits="userSpaceOnUse">
<stop stop-color="#824137"/>
<stop offset="0.867167" stop-color="#CB8076"/>
<stop offset="1" stop-color="#CB8076"/>
</linearGradient>
<linearGradient id="paint98_linear_1401_3" x1="723.886" y1="420.998" x2="664.906" y2="556.198" gradientUnits="userSpaceOnUse">
<stop stop-color="#824137"/>
<stop offset="0.867167" stop-color="#CB8076"/>
<stop offset="1" stop-color="#CB8076"/>
</linearGradient>
<linearGradient id="paint99_linear_1401_3" x1="740.05" y1="399.839" x2="744.48" y2="275.338" gradientUnits="userSpaceOnUse">
<stop stop-color="#824137"/>
<stop offset="0.867167" stop-color="#673024"/>
<stop offset="1" stop-color="#673024"/>
</linearGradient>
<linearGradient id="paint100_linear_1401_3" x1="798.968" y1="210.078" x2="779.667" y2="79.886" gradientUnits="userSpaceOnUse">
<stop stop-color="#824137"/>
<stop offset="0.867167" stop-color="#673024"/>
<stop offset="1" stop-color="#673024"/>
</linearGradient>
<linearGradient id="paint101_linear_1401_3" x1="710.809" y1="143.467" x2="744.354" y2="143.467" gradientUnits="userSpaceOnUse">
<stop stop-color="#824137"/>
<stop offset="0.542011" stop-color="#673024"/>
<stop offset="1" stop-color="#673024"/>
</linearGradient>
<linearGradient id="paint102_linear_1401_3" x1="616.402" y1="277.563" x2="622.86" y2="309.344" gradientUnits="userSpaceOnUse">
<stop stop-color="#824137"/>
<stop offset="0.542011" stop-color="#673024"/>
<stop offset="1" stop-color="#673024"/>
</linearGradient>
<linearGradient id="paint103_linear_1401_3" x1="637.479" y1="495.02" x2="667.703" y2="145.76" gradientUnits="userSpaceOnUse">
<stop stop-color="#673024"/>
<stop offset="0.225998" stop-color="#824137"/>
<stop offset="1" stop-color="#824137"/>
</linearGradient>
<linearGradient id="paint104_linear_1401_3" x1="648.578" y1="194.655" x2="635.137" y2="388.125" gradientUnits="userSpaceOnUse">
<stop stop-color="#824137"/>
<stop offset="0.867167" stop-color="#CB8076"/>
<stop offset="1" stop-color="#CB8076"/>
</linearGradient>
<linearGradient id="paint105_linear_1401_3" x1="620.434" y1="278.534" x2="608.909" y2="416.316" gradientUnits="userSpaceOnUse">
<stop stop-color="#673024"/>
<stop offset="0.225998" stop-color="#824137"/>
<stop offset="1" stop-color="#824137"/>
</linearGradient>
<linearGradient id="paint106_linear_1401_3" x1="546.677" y1="570.248" x2="556.783" y2="466.726" gradientUnits="userSpaceOnUse">
<stop stop-color="#CB8076"/>
<stop offset="0.132833" stop-color="#CB8076"/>
<stop offset="1" stop-color="#824137"/>
</linearGradient>
<linearGradient id="paint107_linear_1401_3" x1="567.834" y1="508.107" x2="555.677" y2="394.356" gradientUnits="userSpaceOnUse">
<stop stop-color="#673024"/>
<stop offset="0.457989" stop-color="#673024"/>
<stop offset="1" stop-color="#824137"/>
</linearGradient>
<linearGradient id="paint108_linear_1401_3" x1="561.156" y1="450.816" x2="566.059" y2="500.496" gradientUnits="userSpaceOnUse">
<stop stop-color="#492219"/>
<stop offset="0.233503" stop-color="#492219"/>
<stop offset="0.590918" stop-color="#56281E"/>
<stop offset="1" stop-color="#652F23"/>
</linearGradient>
<linearGradient id="paint109_linear_1401_3" x1="730.352" y1="151.565" x2="730.26" y2="151.314" gradientUnits="userSpaceOnUse">
<stop stop-color="#CB8076"/>
<stop offset="0.132833" stop-color="#CB8076"/>
<stop offset="1" stop-color="#824137"/>
</linearGradient>
<linearGradient id="paint110_linear_1401_3" x1="792.871" y1="291.699" x2="745.677" y2="161.916" gradientUnits="userSpaceOnUse">
<stop stop-color="#CB8076"/>
<stop offset="0.132833" stop-color="#CB8076"/>
<stop offset="1" stop-color="#824137"/>
</linearGradient>
<linearGradient id="paint111_linear_1401_3" x1="619.769" y1="661.679" x2="613.625" y2="692.269" gradientUnits="userSpaceOnUse">
<stop stop-color="#B9BBBB"/>
<stop offset="0.220127" stop-color="#B9BBBB"/>
<stop offset="1" stop-color="#CDCECE"/>
</linearGradient>
<linearGradient id="paint112_linear_1401_3" x1="631.116" y1="676.294" x2="603.124" y2="675.925" gradientUnits="userSpaceOnUse">
<stop stop-color="#D2D4D5"/>
<stop offset="1" stop-color="#DDDFE0"/>
</linearGradient>
<linearGradient id="paint113_linear_1401_3" x1="621.209" y1="666.374" x2="613.866" y2="692.646" gradientUnits="userSpaceOnUse">
<stop stop-color="#B9BBBB"/>
<stop offset="0.220127" stop-color="#B9BBBB"/>
<stop offset="1" stop-color="#CDCECE"/>
</linearGradient>
<linearGradient id="paint114_linear_1401_3" x1="619.769" y1="668.039" x2="618.808" y2="686.502" gradientUnits="userSpaceOnUse">
<stop stop-color="#E2E3E3"/>
<stop offset="0.220127" stop-color="#E2E3E3"/>
<stop offset="1" stop-color="#F1F1F1"/>
</linearGradient>
<linearGradient id="paint115_linear_1401_3" x1="519.756" y1="650.573" x2="511.571" y2="727.527" gradientUnits="userSpaceOnUse">
<stop stop-color="#A7AAAB"/>
<stop offset="0.233621" stop-color="#D2D4D5"/>
<stop offset="0.346154" stop-color="#D2D4D5"/>
<stop offset="0.67033" stop-color="#E1E3E3"/>
<stop offset="0.833691" stop-color="#E1E3E3"/>
<stop offset="1" stop-color="#A7AAAB"/>
</linearGradient>
<linearGradient id="paint116_linear_1401_3" x1="507.796" y1="689.266" x2="548.135" y2="679.658" gradientUnits="userSpaceOnUse">
<stop stop-color="#A7AAAB"/>
<stop offset="0.233621" stop-color="#D2D4D5"/>
<stop offset="0.346154" stop-color="#D2D4D5"/>
<stop offset="0.67033" stop-color="#E1E3E3"/>
<stop offset="0.833691" stop-color="#E1E3E3"/>
<stop offset="1" stop-color="#A7AAAB"/>
</linearGradient>
<linearGradient id="paint117_linear_1401_3" x1="730.316" y1="719.482" x2="619.555" y2="748.084" gradientUnits="userSpaceOnUse">
<stop stop-color="#D3EAFF"/>
<stop offset="1" stop-color="#C7E4FF"/>
</linearGradient>
<linearGradient id="paint118_linear_1401_3" x1="666.383" y1="747.985" x2="678.695" y2="506.811" gradientUnits="userSpaceOnUse">
<stop stop-color="#C7E4FF"/>
<stop offset="1" stop-color="#D3EAFF"/>
</linearGradient>
<linearGradient id="paint119_linear_1401_3" x1="586.449" y1="943.772" x2="602.343" y2="863.465" gradientUnits="userSpaceOnUse">
<stop stop-color="#EC231A"/>
<stop offset="0.863938" stop-color="#EC231A"/>
<stop offset="1" stop-color="#EC231A"/>
</linearGradient>
<linearGradient id="paint120_linear_1401_3" x1="738.983" y1="839.188" x2="422.084" y2="591.517" gradientUnits="userSpaceOnUse">
<stop stop-color="#E9E2D6"/>
<stop offset="0.105929" stop-color="#E9E2D6"/>
<stop offset="1" stop-color="white"/>
</linearGradient>
<linearGradient id="paint121_linear_1401_3" x1="624.254" y1="684.64" x2="561.71" y2="878.276" gradientUnits="userSpaceOnUse">
<stop stop-color="#C75454"/>
<stop offset="0.067646" stop-color="#FF3333"/>
<stop offset="1" stop-color="#FF0000"/>
</linearGradient>
<linearGradient id="paint122_linear_1401_3" x1="599.122" y1="839.645" x2="599.122" y2="770.079" gradientUnits="userSpaceOnUse">
<stop stop-color="#FF1818"/>
<stop offset="1" stop-color="#FF2B2C"/>
</linearGradient>
<linearGradient id="paint123_linear_1401_3" x1="520.249" y1="801.733" x2="527.348" y2="778.745" gradientUnits="userSpaceOnUse">
<stop stop-color="#FFD9B3"/>
<stop offset="0.610346" stop-color="#FFD9B3"/>
<stop offset="1" stop-color="#F7D4AB"/>
</linearGradient>
<linearGradient id="paint124_linear_1401_3" x1="569.782" y1="790.307" x2="501.763" y2="772.008" gradientUnits="userSpaceOnUse">
<stop stop-color="#FFD9B3"/>
<stop offset="0.610346" stop-color="#FFD9B3"/>
<stop offset="1" stop-color="#F7D4AB"/>
</linearGradient>
<linearGradient id="paint125_linear_1401_3" x1="621.743" y1="801.616" x2="527.023" y2="776.134" gradientUnits="userSpaceOnUse">
<stop stop-color="#FFD9B3"/>
<stop offset="0.610346" stop-color="#FFD9B3"/>
<stop offset="1" stop-color="#F7D4AB"/>
</linearGradient>
<linearGradient id="paint126_linear_1401_3" x1="511.982" y1="826.279" x2="552.481" y2="813.341" gradientUnits="userSpaceOnUse">
<stop stop-color="#FFD9B3"/>
<stop offset="0.610346" stop-color="#FFD9B3"/>
<stop offset="1" stop-color="#F7D4AB"/>
</linearGradient>
<linearGradient id="paint127_linear_1401_3" x1="631.316" y1="813.906" x2="571.143" y2="827.837" gradientUnits="userSpaceOnUse">
<stop stop-color="#F0C499"/>
<stop offset="0.65316" stop-color="#F0C499"/>
<stop offset="1" stop-color="#F7D4AB"/>
</linearGradient>
<linearGradient id="paint128_linear_1401_3" x1="558.649" y1="787.933" x2="527.457" y2="795.155" gradientUnits="userSpaceOnUse">
<stop stop-color="#F0C499"/>
<stop offset="0.65316" stop-color="#F0C499"/>
<stop offset="1" stop-color="#F7D4AB"/>
</linearGradient>
<linearGradient id="paint129_linear_1401_3" x1="524.756" y1="811.266" x2="532.022" y2="809.621" gradientUnits="userSpaceOnUse">
<stop stop-color="#F0C499"/>
<stop offset="0.65316" stop-color="#F0C499"/>
<stop offset="1" stop-color="#F7D4AB"/>
</linearGradient>
<linearGradient id="paint130_linear_1401_3" x1="528.783" y1="822.132" x2="534.502" y2="820.837" gradientUnits="userSpaceOnUse">
<stop stop-color="#F0C499"/>
<stop offset="0.65316" stop-color="#F0C499"/>
<stop offset="1" stop-color="#F7D4AB"/>
</linearGradient>
<linearGradient id="paint131_linear_1401_3" x1="534.116" y1="831.053" x2="541.179" y2="829.453" gradientUnits="userSpaceOnUse">
<stop stop-color="#F0C499"/>
<stop offset="0.65316" stop-color="#F0C499"/>
<stop offset="1" stop-color="#F7D4AB"/>
</linearGradient>
<linearGradient id="paint132_linear_1401_3" x1="735.823" y1="792.24" x2="613.663" y2="810.716" gradientUnits="userSpaceOnUse">
<stop stop-color="#F7D4AB"/>
<stop offset="0.34684" stop-color="#F0C499"/>
<stop offset="1" stop-color="#F0C499"/>
</linearGradient>
<linearGradient id="paint133_linear_1401_3" x1="616.649" y1="792.212" x2="734.342" y2="779.541" gradientUnits="userSpaceOnUse">
<stop stop-color="#F7D4AB"/>
<stop offset="0.389654" stop-color="#FFD9B3"/>
<stop offset="1" stop-color="#FFD9B3"/>
</linearGradient>
<linearGradient id="paint134_linear_1401_3" x1="663.155" y1="792.573" x2="694.027" y2="734.806" gradientUnits="userSpaceOnUse">
<stop stop-color="#F7D4AB"/>
<stop offset="0.34684" stop-color="#F0C499"/>
<stop offset="1" stop-color="#F0C499"/>
</linearGradient>
</defs>
</svg>
