<svg xmlns="http://www.w3.org/2000/svg" width="28" height="28" viewBox="0 0 28 28">
  <g id="Group_3936" data-name="Group 3936" transform="translate(-798 -42)">
    <circle id="Ellipse_44" data-name="Ellipse 44" cx="14" cy="14" r="14" transform="translate(798 42)" fill="#ec231a"/>
    <path id="ic_phone_24px" d="M5.816,9.059a11.782,11.782,0,0,0,5.126,5.126l1.711-1.711a.773.773,0,0,1,.793-.187,8.872,8.872,0,0,0,2.777.443.78.78,0,0,1,.778.778v2.714a.78.78,0,0,1-.778.778A13.221,13.221,0,0,1,3,3.778.78.78,0,0,1,3.778,3H6.5a.78.78,0,0,1,.778.778,8.836,8.836,0,0,0,.443,2.777.781.781,0,0,1-.194.793Z" transform="translate(802 46)" fill="#fff"/>
  </g>
</svg>
