<svg id="Apple_Store_Dark" data-name="Apple Store Dark" xmlns="http://www.w3.org/2000/svg" width="166.406" height="50" viewBox="0 0 166.406 50">
  <rect id="button" width="166.406" height="50" rx="10" fill="none"/>
  <text id="Download_on_the" data-name="Download on the" transform="translate(53.125 18.25)" fill="#fff" font-size="11" font-family="Roboto-Regular, Roboto"><tspan x="0" y="0" letter-spacing="0.08em">Download on th</tspan><tspan y="0">e</tspan></text>
  <text id="App_Store" data-name="App Store" transform="translate(53.125 40.969)" fill="#fff" font-size="21" font-family="Roboto-Medium, Roboto" font-weight="500"><tspan x="0" y="0">App Store</tspan></text>
  <path id="logo" d="M8.531,32.74c-2.024,0-3.555-1.961-5.075-4.145A20.576,20.576,0,0,1,.271,20.7a12.908,12.908,0,0,1,1.106-8.6,8.354,8.354,0,0,1,2.89-2.97,7.767,7.767,0,0,1,3.9-1.134h.083a9.188,9.188,0,0,1,3.306.843,6.265,6.265,0,0,0,2.036.583,6.385,6.385,0,0,0,1.968-.574,10.66,10.66,0,0,1,3.8-.951,5.233,5.233,0,0,1,.523.026,7.63,7.63,0,0,1,6.007,3.242l-.026.016a7.335,7.335,0,0,0-3.52,6.219,7.22,7.22,0,0,0,4.4,6.617l.009,0-.01.033a17.969,17.969,0,0,1-2.265,4.624C23.2,30.54,21.749,32.654,19.453,32.7h-.1a5.674,5.674,0,0,1-2.445-.613,6.581,6.581,0,0,0-2.88-.687,6.994,6.994,0,0,0-3.022.71,6.254,6.254,0,0,1-2.363.631ZM13.669,7.559c-.111,0-.223,0-.333-.013A6.812,6.812,0,0,1,15.081,2.48,7.355,7.355,0,0,1,19.92,0,7.218,7.218,0,0,1,18.21,5.229,6.182,6.182,0,0,1,13.669,7.559Z" transform="translate(13.143 8.594)" fill="#fff"/>
</svg>
