<svg xmlns="http://www.w3.org/2000/svg" width="150" height="150" viewBox="0 0 78.537 76.261">
  <g id="Group_4188" data-name="Group 4188" transform="translate(-114.283 -1077.5)">
    <g id="Path_6" data-name="Path 6" transform="translate(147.752 1174.612)" fill="none">
      <path d="M44.069-34.659H30.95v12.808H19V-34.659H5.8V-45.992H19V-58.8H30.95v12.808H44.069Z" stroke="none"/>
      <path d="M 30.95011901855469 -21.85106086730957 L 30.95011901855469 -34.65900039672852 L 34.66635894775391 -34.65900039672852 L 44.06853866577148 -34.65900039672852 L 44.06853866577148 -45.99206924438477 L 30.95011901855469 -45.99206924438477 L 30.95011901855469 -58.79999923706055 L 18.99604988098145 -58.79999923706055 L 18.99604988098145 -45.99206924438477 L 5.799998760223389 -45.99206924438477 L 5.799998760223389 -34.65900039672852 L 18.99604988098145 -34.65900039672852 L 18.99604988098145 -21.85106086730957 L 30.95011901855469 -21.85106086730957 M 31.95011901855469 -20.85106086730957 L 30.95011901855469 -20.85106086730957 L 18.99604988098145 -20.85106086730957 L 17.99604988098145 -20.85106086730957 L 17.99604988098145 -21.85106086730957 L 17.99604988098145 -33.65900039672852 L 5.799998760223389 -33.65900039672852 L 4.799998760223389 -33.65900039672852 L 4.799998760223389 -34.65900039672852 L 4.799998760223389 -45.99206924438477 L 4.799998760223389 -46.99206924438477 L 5.799998760223389 -46.99206924438477 L 17.99604988098145 -46.99206924438477 L 17.99604988098145 -58.79999923706055 L 17.99604988098145 -59.79999923706055 L 18.99604988098145 -59.79999923706055 L 30.95011901855469 -59.79999923706055 L 31.95011901855469 -59.79999923706055 L 31.95011901855469 -58.79999923706055 L 31.95011901855469 -46.99206924438477 L 44.06853866577148 -46.99206924438477 L 45.06853866577148 -46.99206924438477 L 45.06853866577148 -45.99206924438477 L 45.06853866577148 -34.65900039672852 L 45.06853866577148 -33.65900039672852 L 44.06853866577148 -33.65900039672852 L 34.66635894775391 -33.65900039672852 L 31.95011901855469 -33.65900039672852 L 31.95011901855469 -21.85106086730957 L 31.95011901855469 -20.85106086730957 Z" stroke="none" fill="#EE3A32"/>
    </g>
    <g id="Path_4" data-name="Path 4" transform="translate(109.483 1137.3)" fill="none">
      <path d="M44.069-34.659H30.95v12.808H19V-34.659H5.8V-45.992H19V-58.8H30.95v12.808H44.069Z" stroke="none"/>
      <path d="M 30.95011901855469 -21.85106086730957 L 30.95011901855469 -34.65900039672852 L 44.06853866577148 -34.65900039672852 L 44.06853866577148 -45.99206924438477 L 30.95011901855469 -45.99206924438477 L 30.95011901855469 -58.79999923706055 L 18.99604988098145 -58.79999923706055 L 18.99604988098145 -45.99206924438477 L 5.799998760223389 -45.99206924438477 L 5.799998760223389 -34.65900039672852 L 18.99604988098145 -34.65900039672852 L 18.99604988098145 -21.85106086730957 L 30.95011901855469 -21.85106086730957 M 31.95011901855469 -20.85106086730957 L 30.95011901855469 -20.85106086730957 L 18.99604988098145 -20.85106086730957 L 17.99604988098145 -20.85106086730957 L 17.99604988098145 -21.85106086730957 L 17.99604988098145 -33.65900039672852 L 5.799998760223389 -33.65900039672852 L 4.799998760223389 -33.65900039672852 L 4.799998760223389 -34.65900039672852 L 4.799998760223389 -45.99206924438477 L 4.799998760223389 -46.99206924438477 L 5.799998760223389 -46.99206924438477 L 17.99604988098145 -46.99206924438477 L 17.99604988098145 -58.79999923706055 L 17.99604988098145 -59.79999923706055 L 18.99604988098145 -59.79999923706055 L 30.95011901855469 -59.79999923706055 L 31.95011901855469 -59.79999923706055 L 31.95011901855469 -58.79999923706055 L 31.95011901855469 -46.99206924438477 L 44.06853866577148 -46.99206924438477 L 45.06853866577148 -46.99206924438477 L 45.06853866577148 -45.99206924438477 L 45.06853866577148 -34.65900039672852 L 45.06853866577148 -33.65900039672852 L 44.06853866577148 -33.65900039672852 L 31.95011901855469 -33.65900039672852 L 31.95011901855469 -21.85106086730957 L 31.95011901855469 -20.85106086730957 Z" stroke="none" fill="#EE3A32"/>
    </g>
  </g>
</svg>
