<svg xmlns="http://www.w3.org/2000/svg" width="68" height="68" viewBox="0 0 68 68">
  <g id="Group_3969" data-name="Group 3969" transform="translate(-268 -1166)">
    <circle id="Ellipse_1" data-name="Ellipse 1" cx="34" cy="34" r="34" transform="translate(268 1166)" fill="#f2f2f2"/>
    <g id="Group_3194" data-name="Group 3194" transform="translate(-84.19 938.503)">
      <g id="Group_3191" data-name="Group 3191">
        <g id="Group_3188" data-name="Group 3188">
          <path id="Path_140" data-name="Path 140" d="M392.918,256.754H378.676a1.482,1.482,0,0,1,0-2.964h14.242a1.482,1.482,0,0,1,0,2.964Z" fill="#ec231a"/>
        </g>
        <g id="Group_3189" data-name="Group 3189">
          <path id="Path_141" data-name="Path 141" d="M392.918,261.849H378.676a1.482,1.482,0,0,1,0-2.964h14.242a1.482,1.482,0,0,1,0,2.964Z" fill="#ec231a"/>
        </g>
        <g id="Group_3190" data-name="Group 3190">
          <path id="Path_142" data-name="Path 142" d="M384.758,266.943h-6.082a1.482,1.482,0,0,1,0-2.964h6.082a1.482,1.482,0,1,1,0,2.964Z" fill="#ec231a"/>
        </g>
      </g>
      <g id="Group_3192" data-name="Group 3192">
        <path id="Path_143" data-name="Path 143" d="M394.472,278.869h-2.964v-6.2a4.11,4.11,0,0,1,4.04-4.166h5.777v2.963h-5.777a1.147,1.147,0,0,0-1.076,1.2Z" fill="#a9a9a9"/>
      </g>
      <g id="Group_3193" data-name="Group 3193">
        <path id="Path_144" data-name="Path 144" d="M395.662,281.024H375.231a7.05,7.05,0,0,1-7.041-7.041V249.54a7.05,7.05,0,0,1,7.041-7.043h20.941a7.05,7.05,0,0,1,7.041,7.043v22.311l-.339.411c-2.057,2.489-4.594,5.576-6.767,8.221Zm-20.431-35.563a4.083,4.083,0,0,0-4.078,4.079v24.443a4.083,4.083,0,0,0,4.078,4.078h19.031c1.949-2.374,4.137-5.033,5.988-7.275V249.54a4.084,4.084,0,0,0-4.078-4.079Z" fill="#a9a9a9"/>
      </g>
    </g>
  </g>
</svg>
