<svg xmlns="http://www.w3.org/2000/svg" width="33.5" height="33.5" viewBox="0 0 33.5 33.5">
  <g id="Group_4090" data-name="Group 4090" transform="translate(-1433.75 992.25)">
    <path id="Path_877" data-name="Path 877" d="M28.09,40.547a16,16,0,1,1,4.675,11.335A16,16,0,0,1,28.09,40.547Z" transform="translate(1406.41 -1016.08)" fill="none" stroke="#fff" stroke-width="1.5"/>
    <path id="Path_878" data-name="Path 878" d="M49.454,39.1H51.08V36.483l-.793-.083H48.83a3.447,3.447,0,0,0-2.062.624,3.276,3.276,0,0,0-1.239,2.164,8.288,8.288,0,0,0-.089,1.113v1.924H43.08v2.892h2.349V52.4h2.865V45.117h2.34c.119-.957.238-1.914.367-2.9H48.275v-2.08A1.023,1.023,0,0,1,49.454,39.1Z" transform="translate(1402.92 -1020.399)" fill="#fff" fill-rule="evenodd"/>
  </g>
</svg>
