<svg id="g4780" xmlns="http://www.w3.org/2000/svg" width="16" height="16" viewBox="0 0 16 16">
  <g id="g15">
    <path id="path17-6" d="M526.381,358.877c-.5-.386-1.03-.734-1.551-1.087-1.047-.71-2-.764-2.781.375a1.237,1.237,0,0,1-1.689.386,7.364,7.364,0,0,1-3.941-3.7,1.394,1.394,0,0,1,.476-2c.439-.288.878-.628.844-1.253a8.5,8.5,0,0,0-2.91-3.836,1.523,1.523,0,0,0-1.013,0c-1.9.617-2.691,2.129-1.934,3.918a20.7,20.7,0,0,0,11.664,11.321,5.437,5.437,0,0,0,.83.228,3.8,3.8,0,0,0,3.116-2.292c.405-1.087-.45-1.539-1.126-2.066Z" transform="translate(-511.598 -347.235)" fill="#f1f2f2"/>
    <path id="path19-1" d="M540.355,347.028c4.081.628,5.963,2.568,6.484,6.68.046.38-.1.951.447.96s.432-.55.435-.931a7.758,7.758,0,0,0-7.248-7.594c-.288.043-.908-.2-.945.458C539.5,347.048,540.018,346.976,540.355,347.028Z" transform="translate(-531.86 -346.132)" fill="#f1f2f2"/>
    <path id="path21-2" d="M542.668,352.981c-.392-.046-.911-.233-1,.311s.481.516.865.6c2.522.562,3.4,1.478,3.813,3.98.061.366-.058.934.576.839.458-.069.288-.556.331-.841a5.162,5.162,0,0,0-4.556-4.9Z" transform="translate(-533.375 -350.958)" fill="#f1f2f2"/>
    <path id="path23" d="M544.39,360c-.262,0-.519.035-.614.317-.147.418.159.516.467.576a1.836,1.836,0,0,1,1.683,1.807c.029.288.2.507.476.473.375-.043.409-.378.4-.695a2.732,2.732,0,0,0-2.409-2.47Z" transform="translate(-534.741 -356.275)" fill="#f1f2f2"/>
  </g>
</svg>
