<svg width="130" height="48" viewBox="0 0 130 48" fill="none" xmlns="http://www.w3.org/2000/svg">
<path d="M96.919 16L96.919 18.6666L106.919 18.6666L106.919 16L96.919 16Z" fill="#4A4A4A"/>
<path d="M108.876 22.0531L106.99 20.1675L99.9191 27.2385L101.805 29.1241L108.876 22.0531Z" fill="#4A4A4A"/>
<path d="M110.252 31.9999H112.919V22H110.252V31.9999Z" fill="#4A4A4A"/>
<path d="M21.2665 27.9384C19.5503 27.9384 18.2818 27.5749 17.461 26.8481C16.6484 26.1131 16.2422 24.9861 16.2422 23.4671C16.2422 21.9726 16.6609 20.8701 17.4983 20.1596C18.3357 19.4409 19.6332 19.0816 21.3909 19.0816C24.3093 19.0816 25.8929 20.0984 26.1416 22.1319H24.9726C24.8648 21.4377 24.5166 20.9273 23.9279 20.6006C23.3476 20.2658 22.5019 20.0984 21.3909 20.0984C19.998 20.0984 18.9865 20.3638 18.3564 20.8946C17.7346 21.4173 17.4237 22.2789 17.4237 23.4794C17.4237 24.6962 17.7304 25.5741 18.344 26.1131C18.9575 26.6521 19.9483 26.9216 21.3163 26.9216C23.6875 26.9216 24.9477 26.1662 25.097 24.6554H26.2784C26.1789 25.7334 25.6981 26.55 24.8358 27.1054C23.9818 27.6607 22.7921 27.9384 21.2665 27.9384Z" fill="#4A4A4A"/>
<path d="M31.4155 27.9384C30.0889 27.9384 29.1106 27.6648 28.4805 27.1176C27.8586 26.5623 27.5477 25.7007 27.5477 24.5329C27.5477 23.3814 27.8628 22.532 28.4929 21.9849C29.123 21.4377 30.0972 21.1641 31.4155 21.1641C32.7171 21.1641 33.683 21.4418 34.3132 21.9971C34.9433 22.5443 35.2583 23.3895 35.2583 24.5329C35.2583 25.6925 34.9433 26.55 34.3132 27.1054C33.6913 27.6607 32.7254 27.9384 31.4155 27.9384ZM31.4155 26.9584C32.3772 26.9584 33.0612 26.7705 33.4675 26.3949C33.8737 26.0192 34.0769 25.3985 34.0769 24.5329C34.0769 23.6754 33.8737 23.0629 33.4675 22.6954C33.0612 22.3279 32.3772 22.1441 31.4155 22.1441C30.462 22.1441 29.7738 22.3319 29.351 22.7076C28.9282 23.0833 28.7167 23.6917 28.7167 24.5329C28.7167 25.3904 28.9282 26.011 29.351 26.3949C29.7738 26.7705 30.462 26.9584 31.4155 26.9584Z" fill="#4A4A4A"/>
<path d="M41.9949 24.3369V24.4594C43.0064 24.6717 43.5122 25.1984 43.5122 26.0396C43.5122 27.3054 42.339 27.9384 39.9926 27.9384C37.6712 27.9384 36.4524 27.2197 36.3363 25.7824H37.4805C37.5965 26.5664 38.4298 26.9584 39.9802 26.9584C41.5306 26.9584 42.3058 26.6113 42.3058 25.9171C42.3058 25.5659 42.1234 25.3128 41.7586 25.1576C41.4021 24.9943 40.8342 24.9126 40.0548 24.9126H38.4132V23.9326H40.0548C40.7761 23.9326 41.3026 23.8591 41.6343 23.7121C41.9659 23.5651 42.1317 23.3324 42.1317 23.0139C42.1317 22.434 41.4311 22.1441 40.03 22.1441C38.5459 22.1441 37.7665 22.5198 37.6919 23.2711H36.5229C36.5892 22.5606 36.9084 22.0339 37.4805 21.6909C38.0608 21.3397 38.9231 21.1641 40.0673 21.1641C42.2478 21.1641 43.3381 21.7521 43.3381 22.9281C43.3381 23.6304 42.8903 24.1 41.9949 24.3369Z" fill="#4A4A4A"/>
<path d="M51.4373 21.3479V26.7869H52.2084V29.8126H51.0145V27.7546H45.4056V29.8126H44.2117V26.7869H44.9579C45.5797 26.2887 45.8906 25.2434 45.8906 23.6509V21.3479H51.4373ZM46.3135 26.7869H50.2434V22.3156H47.0721V23.8346C47.0721 25.0841 46.8192 26.0682 46.3135 26.7869Z" fill="#4A4A4A"/>
<path d="M56.4074 21.1641C57.4687 21.1641 58.2563 21.3683 58.7704 21.7766C59.2844 22.1849 59.5414 22.8097 59.5414 23.6509V27.7546H58.3724V26.6399C57.9164 27.5055 57.079 27.9384 55.8602 27.9384C53.9947 27.9384 53.062 27.285 53.062 25.9784C53.062 24.6145 54.0901 23.9326 56.1463 23.9326C56.9836 23.9326 57.7257 24.0306 58.3724 24.2266V23.6509C58.3724 23.1282 58.2149 22.7484 57.8998 22.5116C57.5847 22.2666 57.0914 22.1441 56.4199 22.1441C55.2342 22.1441 54.6041 22.4504 54.5295 23.0629H53.4227C53.5139 21.797 54.5088 21.1641 56.4074 21.1641ZM56.0716 26.9951C56.7266 26.9951 57.2573 26.8685 57.6635 26.6154C58.0781 26.354 58.3144 26.0069 58.3724 25.5741V25.1576C57.7423 24.9616 57.021 24.8636 56.2084 24.8636C54.8985 24.8636 54.2435 25.2352 54.2435 25.9784C54.2435 26.6562 54.8529 26.9951 56.0716 26.9951Z" fill="#4A4A4A"/>
<path d="M66.6012 23.9204V21.3479H67.7703V27.7546H66.6012V24.8881H62.634V27.7546H61.465V21.3479H62.634V23.9204H66.6012Z" fill="#4A4A4A"/>
<path d="M73.255 27.9384C71.9284 27.9384 70.9501 27.6648 70.32 27.1176C69.6981 26.5623 69.3872 25.7007 69.3872 24.5329C69.3872 23.3814 69.7023 22.532 70.3324 21.9849C70.9625 21.4377 71.9367 21.1641 73.255 21.1641C74.5566 21.1641 75.5225 21.4418 76.1527 21.9971C76.7828 22.5443 77.0978 23.3895 77.0978 24.5329C77.0978 25.6925 76.7828 26.55 76.1527 27.1054C75.5308 27.6607 74.5649 27.9384 73.255 27.9384ZM73.255 26.9584C74.2167 26.9584 74.9007 26.7705 75.307 26.3949C75.7132 26.0192 75.9164 25.3985 75.9164 24.5329C75.9164 23.6754 75.7132 23.0629 75.307 22.6954C74.9007 22.3279 74.2167 22.1441 73.255 22.1441C72.3015 22.1441 71.6133 22.3319 71.1905 22.7076C70.7677 23.0833 70.5562 23.6917 70.5562 24.5329C70.5562 25.3904 70.7677 26.011 71.1905 26.3949C71.6133 26.7705 72.3015 26.9584 73.255 26.9584Z" fill="#4A4A4A"/>
<path d="M87.5635 24.3369V24.4471C88.4672 24.6513 88.9191 25.1535 88.9191 25.9539C88.9191 27.1544 88.0402 27.7546 86.2826 27.7546H82.4272V21.3479H86.2204C87.8786 21.3479 88.7077 21.8787 88.7077 22.9404C88.7077 23.2997 88.6206 23.5896 88.4465 23.8101C88.2724 24.0224 87.9781 24.198 87.5635 24.3369ZM83.5963 22.3156V23.9326H86.2577C86.6888 23.9326 87.0039 23.8714 87.2029 23.7489C87.4018 23.6182 87.5013 23.4099 87.5013 23.1241C87.5013 22.5851 87.0453 22.3156 86.1333 22.3156H83.5963ZM83.5963 24.9004V26.7869H86.2452C87.2319 26.7869 87.7252 26.4806 87.7252 25.8681C87.7252 25.5333 87.605 25.2883 87.3645 25.1331C87.1241 24.9779 86.7468 24.9004 86.2328 24.9004H83.5963Z" fill="#4A4A4A"/>
</svg>
