<svg width="169" height="36" viewBox="0 0 169 36" fill="none" xmlns="http://www.w3.org/2000/svg">
<path d="M54.6367 4.12384V13.709H52.4221V4.64396L50.7845 13.709H46.7091L45.0714 4.64396V13.709H42.8569V4.12384H47.1185L48.7375 13.0402L50.3565 4.12384H54.6367ZM61.3214 3.93808C62.9341 3.93808 64.2244 4.52013 65.1921 5.68421C66.1721 6.83591 66.532 8.21053 66.2715 9.80805H58.8649C59.0387 10.3901 59.3551 10.8607 59.814 11.2198C60.2855 11.5666 60.8438 11.7399 61.4889 11.7399C62.5805 11.7399 63.3747 11.2941 63.8709 10.4025L65.9365 11.3313C65.5022 12.1115 64.8881 12.7368 64.0942 13.2074C63.3126 13.6656 62.4193 13.8947 61.4144 13.8947C59.9506 13.8947 58.7284 13.418 57.7484 12.4644C56.7684 11.5108 56.2782 10.3282 56.2782 8.91641C56.2782 7.50465 56.7621 6.32199 57.7298 5.36842C58.6974 4.41485 59.8947 3.93808 61.3214 3.93808ZM61.3214 6.09288C60.7631 6.09288 60.2606 6.26006 59.814 6.59443C59.3797 6.91642 59.0759 7.34984 58.9022 7.89474H63.7592C63.5854 7.34984 63.2816 6.91642 62.8473 6.59443C62.413 6.26006 61.9045 6.09288 61.3214 6.09288ZM77.1151 4.12384V11.4985H78.4178V16.4582H76.0544V13.709H69.2248V16.4582H66.8614V11.4985H67.9221C68.3315 11.0774 68.6107 10.613 68.7595 10.1053C68.9207 9.58514 69.0015 8.73065 69.0015 7.5418V4.12384H77.1151ZM70.546 11.4985H74.6029V6.33437H71.3648V7.5418C71.3648 8.68112 71.3027 9.54179 71.1787 10.1238C71.0548 10.7059 70.8438 11.1641 70.546 11.4985ZM82.0029 13.226L84.6082 4.12384H89.1675V13.709H86.8041V4.68112L84.1988 13.709H79.6395V4.12384H82.0029V13.226ZM99.4978 13.709H91.1794V4.12384H93.6917V11.4985H98.0462V4.12384H100.559V11.4985H101.861V16.4582H99.4978V13.709ZM105.446 13.226L108.052 4.12384H112.611V13.709H110.247V4.68112L107.642 13.709H103.083V4.12384H105.446V13.226ZM117.135 13.709H114.623V4.12384H117.135V7.82043H121.49V4.12384H124.002V13.709H121.49V10.0124H117.135V13.709ZM127.134 12.4644C126.154 11.5108 125.663 10.3282 125.663 8.91641C125.663 7.50465 126.154 6.32199 127.134 5.36842C128.114 4.41485 129.336 3.93808 130.8 3.93808C131.829 3.93808 132.754 4.20434 133.572 4.73684C134.391 5.26934 135.005 6.01858 135.415 6.98452L133.107 7.78328C132.896 7.28793 132.586 6.91022 132.177 6.65016C131.767 6.37772 131.308 6.24149 130.8 6.24149C130.08 6.24149 129.478 6.50155 128.995 7.02167C128.511 7.52942 128.269 8.161 128.269 8.91641C128.269 9.68422 128.511 10.3282 128.995 10.8483C129.478 11.356 130.08 11.6099 130.8 11.6099C131.308 11.6099 131.767 11.4737 132.177 11.2012C132.586 10.9288 132.896 10.5449 133.107 10.0495L135.415 10.8483C135.005 11.8142 134.391 12.5635 133.572 13.096C132.754 13.6285 131.829 13.8947 130.8 13.8947C129.336 13.8947 128.114 13.418 127.134 12.4644ZM146.264 4.12384L142.951 8.74923L146.562 13.709H143.547L140.755 10.0124H139.416V13.709H136.903V4.12384H139.416V7.82043H140.755L143.51 4.12384H146.264ZM150.152 13.226L152.758 4.12384H157.317V13.709H154.954V4.68112L152.348 13.709H147.789V4.12384H150.152V13.226ZM164.093 3.08359C163.187 3.08359 162.449 2.81115 161.878 2.26625C161.32 1.70898 161.041 0.953562 161.041 0H163.032C163.032 0.916408 163.386 1.37461 164.093 1.37461C164.812 1.37461 165.172 0.916408 165.172 0H167.163C167.163 0.953562 166.878 1.70898 166.307 2.26625C165.749 2.81115 165.011 3.08359 164.093 3.08359ZM161.692 13.226L164.298 4.12384H168.857V13.709H166.494V4.68112L163.888 13.709H159.329V4.12384H161.692V13.226ZM45.3692 32.2848H42.8569V22.6997H52.05V32.2848H49.5377V24.9102H45.3692V32.2848ZM55.1677 31.0402C54.1877 30.0866 53.6976 28.904 53.6976 27.4923C53.6976 26.0805 54.1877 24.8979 55.1677 23.9443C56.1477 22.9907 57.3699 22.5139 58.8338 22.5139C60.2976 22.5139 61.5198 22.9907 62.4998 23.9443C63.4798 24.8979 63.9699 26.0805 63.9699 27.4923C63.9699 28.904 63.4798 30.0866 62.4998 31.0402C61.5198 31.9939 60.2976 32.4706 58.8338 32.4706C57.3699 32.4706 56.1477 31.9939 55.1677 31.0402ZM56.3029 27.4923C56.3029 28.2601 56.5448 28.904 57.0287 29.4241C57.5125 29.932 58.1143 30.1858 58.8338 30.1858C59.5532 30.1858 60.155 29.932 60.6389 29.4241C61.1227 28.904 61.3646 28.2601 61.3646 27.4923C61.3646 26.7244 61.1227 26.0868 60.6389 25.5789C60.155 25.0711 59.5532 24.8173 58.8338 24.8173C58.1143 24.8173 57.5125 25.0774 57.0287 25.5975C56.5448 26.1053 56.3029 26.7369 56.3029 27.4923ZM72.0115 27.4551C72.7806 27.5543 73.3761 27.8143 73.798 28.2353C74.2198 28.6563 74.4305 29.1889 74.4305 29.8328C74.4305 30.551 74.133 31.1394 73.5375 31.5975C72.942 32.0556 72.1604 32.2848 71.1927 32.2848H65.6099V22.6997H70.7461C71.7138 22.6997 72.4954 22.935 73.0909 23.4056C73.6987 23.8637 74.0025 24.4521 74.0025 25.1703C74.0025 25.7276 73.829 26.2105 73.4817 26.6192C73.1341 27.0156 72.6442 27.2942 72.0115 27.4551ZM70.5972 24.7616H67.9733V26.4706H70.5972C70.8824 26.4706 71.112 26.39 71.2857 26.2291C71.4593 26.0682 71.5463 25.8576 71.5463 25.5975C71.5463 25.3498 71.4593 25.1517 71.2857 25.0031C71.112 24.8422 70.8824 24.7616 70.5972 24.7616ZM67.9733 30.2229H71.0438C71.329 30.2229 71.5586 30.1423 71.7324 29.9814C71.9059 29.8205 71.9929 29.6099 71.9929 29.3498C71.9929 29.1021 71.8999 28.904 71.7138 28.7554C71.54 28.5945 71.3167 28.5139 71.0438 28.5139H67.9733V30.2229ZM80.5123 22.5139C82.125 22.5139 83.4153 23.0961 84.383 24.2601C85.363 25.4118 85.7229 26.7864 85.4624 28.3839H78.0558C78.2296 28.966 78.546 29.4365 79.0049 29.7957C79.4764 30.1423 80.0347 30.3158 80.6798 30.3158C81.7714 30.3158 82.5656 29.87 83.0618 28.9783L85.1274 29.9071C84.6931 30.6873 84.079 31.3126 83.2851 31.7833C82.5035 32.2414 81.6102 32.4706 80.6053 32.4706C79.1415 32.4706 77.9193 31.9939 76.9393 31.0402C75.9593 30.0866 75.4691 28.904 75.4691 27.4923C75.4691 26.0805 75.953 24.8979 76.9207 23.9443C77.8884 22.9907 79.0856 22.5139 80.5123 22.5139ZM80.5123 24.6687C79.954 24.6687 79.4515 24.8359 79.0049 25.1703C78.5706 25.4923 78.2668 25.9256 78.0931 26.4706H82.9501C82.7763 25.9256 82.4725 25.4923 82.0382 25.1703C81.6039 24.8359 81.0954 24.6687 80.5123 24.6687ZM93.2476 22.5139C94.4386 22.5139 95.4249 22.9907 96.2065 23.9443C96.9881 24.8979 97.3789 26.0805 97.3789 27.4923C97.3789 28.904 96.9881 30.0866 96.2065 31.0402C95.4249 31.9939 94.4386 32.4706 93.2476 32.4706C92.4039 32.4706 91.6721 32.2105 91.0517 31.6904C90.4439 31.158 89.9972 30.4396 89.7118 29.5356V36H87.1995V22.6997H89.7118V25.4489C89.9972 24.545 90.4439 23.8328 91.0517 23.3127C91.6721 22.7802 92.4039 22.5139 93.2476 22.5139ZM92.3357 30.1858C93.018 30.1858 93.5949 29.932 94.0664 29.4241C94.5379 28.904 94.7736 28.2601 94.7736 27.4923C94.7736 26.7369 94.5379 26.1053 94.0664 25.5975C93.5949 25.0774 93.018 24.8173 92.3357 24.8173C91.579 24.8173 90.9524 25.0711 90.4562 25.5789C89.96 26.0868 89.7118 26.7244 89.7118 27.4923C89.7118 28.2601 89.96 28.904 90.4562 29.4241C90.9524 29.932 91.579 30.1858 92.3357 30.1858ZM103.647 22.5139C105.259 22.5139 106.55 23.0961 107.517 24.2601C108.497 25.4118 108.857 26.7864 108.597 28.3839H101.19C101.364 28.966 101.68 29.4365 102.139 29.7957C102.611 30.1423 103.169 30.3158 103.814 30.3158C104.906 30.3158 105.7 29.87 106.196 28.9783L108.262 29.9071C107.828 30.6873 107.213 31.3126 106.42 31.7833C105.638 32.2414 104.745 32.4706 103.74 32.4706C102.276 32.4706 101.054 31.9939 100.074 31.0402C99.0937 30.0866 98.6036 28.904 98.6036 27.4923C98.6036 26.0805 99.0874 24.8979 100.055 23.9443C101.023 22.9907 102.22 22.5139 103.647 22.5139ZM103.647 24.6687C103.088 24.6687 102.586 24.8359 102.139 25.1703C101.705 25.4923 101.401 25.9256 101.228 26.4706H106.085C105.911 25.9256 105.607 25.4923 105.173 25.1703C104.738 24.8359 104.23 24.6687 103.647 24.6687ZM112.846 32.2848H110.334V22.6997H112.846V26.3963H117.201V22.6997H119.713V32.2848H117.201V28.5882H112.846V32.2848ZM124.259 32.2848H121.747V22.6997H124.259V26.3963H128.614V22.6997H131.126V32.2848H128.614V28.5882H124.259V32.2848ZM137.961 32.2848H133.16V22.6997H135.672V25.4118H137.961C139.102 25.4118 140.014 25.7338 140.696 26.3777C141.391 27.0093 141.738 27.8329 141.738 28.8483C141.738 29.8637 141.391 30.6936 140.696 31.3375C140.014 31.969 139.102 32.2848 137.961 32.2848ZM145.07 32.2848H142.557V22.6997H145.07V32.2848ZM135.672 27.6223V30.0743H137.663C138.11 30.0743 138.463 29.9628 138.724 29.7399C138.997 29.5047 139.133 29.2075 139.133 28.8483C139.133 28.4891 138.997 28.1981 138.724 27.9752C138.463 27.74 138.11 27.6223 137.663 27.6223H135.672ZM151.844 21.6594C150.939 21.6594 150.2 21.387 149.63 20.8421C149.071 20.2848 148.792 19.5294 148.792 18.5759H150.784C150.784 19.4923 151.137 19.9505 151.844 19.9505C152.564 19.9505 152.924 19.4923 152.924 18.5759H154.915C154.915 19.5294 154.629 20.2848 154.059 20.8421C153.501 21.387 152.762 21.6594 151.844 21.6594ZM149.444 31.8019L152.049 22.6997H156.608V32.2848H154.245V23.257L151.64 32.2848H147.08V22.6997H149.444V31.8019Z" fill="#4A4A4A"/>
<path d="M34.2857 0.857117H0V35.1428H34.2857V0.857117Z" fill="#FF0000"/>
<path d="M3.45707e-05 13.7143H30.8572V22.2857H3.45707e-05V13.7143Z" fill="white"/>
<path d="M21.4287 4.28572L21.4287 31.7143L12.8573 31.7143L12.8573 4.28572L21.4287 4.28572Z" fill="white"/>
</svg>
