<svg xmlns="http://www.w3.org/2000/svg" width="16" height="16" viewBox="0 0 16 16">
  <path id="ic_loyalty_24px" d="M17.528,9.664l-7.2-7.2A1.59,1.59,0,0,0,9.2,2H3.6A1.6,1.6,0,0,0,2,3.6V9.2a1.6,1.6,0,0,0,.472,1.136l7.2,7.2A1.59,1.59,0,0,0,10.8,18a1.564,1.564,0,0,0,1.128-.472l5.6-5.6A1.564,1.564,0,0,0,18,10.8,1.616,1.616,0,0,0,17.528,9.664ZM4.8,6A1.2,1.2,0,1,1,6,4.8,1.2,1.2,0,0,1,4.8,6Zm9.416,6.616L10.8,16.032,7.384,12.616A2,2,0,0,1,8.8,9.2a1.976,1.976,0,0,1,1.416.592l.584.576.584-.584a2,2,0,0,1,2.832,2.832Z" transform="translate(-2 -2)" fill="#fff"/>
</svg>
