<svg width="1508" height="635" viewBox="0 0 1508 635" fill="none" xmlns="http://www.w3.org/2000/svg">
<g clip-path="url(#clip0_1352_7)">
<path d="M815.68 252.458H871.087V209.768H926.494V252.458H969.752V307.864H926.494V349.59H871.087V307.864H815.68" stroke="white" stroke-width="8"/>
<path d="M1051 163H816V398H1051V163Z" fill="#FF0000"/>
<path d="M816 251.125H1027.5V309.875H816V251.125Z" fill="white"/>
<path d="M962.875 186.5L962.875 374.5L904.125 374.5L904.125 186.5L962.875 186.5Z" fill="white"/>
<g opacity="0.39">
<g opacity="0.39">
<g opacity="0.39">
<path opacity="0.39" d="M253.802 598.346V414.377H225.046H224.046V413.377V399.5H151.659V413.377V414.377H150.659H121.904V598.346H253.802ZM254.802 599.346H120.904V413.377H150.659V398.5H225.046V413.377H254.802V599.346Z" fill="#6F727B"/>
</g>
<g opacity="0.39">
<path opacity="0.39" d="M387.456 480.826H254.558V598.846H387.456V480.826Z" stroke="#6F727B"/>
</g>
<g opacity="0.39">
<path opacity="0.39" d="M172.475 428.755H151.159V464.949H172.475V428.755Z" stroke="#6F727B"/>
</g>
<g opacity="0.39">
<path opacity="0.39" d="M172.475 480.826H151.159V517.02H172.475V480.826Z" stroke="#6F727B"/>
</g>
<g opacity="0.39">
<path opacity="0.39" d="M172.475 532.898H151.159V569.092H172.475V532.898Z" stroke="#6F727B"/>
</g>
<g opacity="0.39">
<path opacity="0.39" d="M224.546 428.755H203.23V464.949H224.546V428.755Z" stroke="#6F727B"/>
</g>
<g opacity="0.39">
<path opacity="0.39" d="M306.373 495.704H285.057V531.898H306.373V495.704Z" stroke="#6F727B"/>
</g>
<g opacity="0.39">
<path opacity="0.39" d="M306.373 547.775H285.057V583.969H306.373V547.775Z" stroke="#6F727B"/>
</g>
<g opacity="0.39">
<path opacity="0.39" d="M358.444 495.704H337.128V531.898H358.444V495.704Z" stroke="#6F727B"/>
</g>
<g opacity="0.39">
<path opacity="0.39" d="M358.444 547.775H337.128V583.969H358.444V547.775Z" stroke="#6F727B"/>
</g>
<g opacity="0.39">
<path opacity="0.39" d="M224.546 480.826H203.23V517.02H224.546V480.826Z" stroke="#6F727B"/>
</g>
<g opacity="0.39">
<path opacity="0.39" d="M224.546 532.898H203.23V569.092H224.546V532.898Z" stroke="#6F727B"/>
</g>
<path opacity="0.39" d="M164.477 404.515H161.735V409.585H160.981V403.897H164.477V404.515ZM169.513 406.925C169.513 407.482 169.419 407.969 169.231 408.386C169.044 408.8 168.778 409.116 168.435 409.335C168.091 409.554 167.69 409.663 167.231 409.663C166.783 409.663 166.386 409.554 166.04 409.335C165.694 409.114 165.424 408.8 165.231 408.394C165.041 407.985 164.944 407.512 164.938 406.976V406.565C164.938 406.019 165.033 405.535 165.224 405.116C165.414 404.697 165.682 404.377 166.028 404.155C166.377 403.931 166.776 403.819 167.224 403.819C167.679 403.819 168.08 403.93 168.427 404.151C168.776 404.37 169.044 404.689 169.231 405.108C169.419 405.525 169.513 406.011 169.513 406.565V406.925ZM168.767 406.558C168.767 405.883 168.631 405.366 168.36 405.007C168.089 404.645 167.711 404.464 167.224 404.464C166.75 404.464 166.376 404.645 166.102 405.007C165.832 405.366 165.692 405.866 165.685 406.507V406.925C165.685 407.578 165.821 408.093 166.095 408.468C166.371 408.84 166.75 409.026 167.231 409.026C167.716 409.026 168.091 408.851 168.356 408.499C168.622 408.145 168.759 407.638 168.767 406.979V406.558ZM174.821 407.78C174.751 408.382 174.528 408.847 174.153 409.175C173.781 409.5 173.285 409.663 172.665 409.663C171.993 409.663 171.454 409.422 171.048 408.94C170.644 408.459 170.442 407.814 170.442 407.007V406.46C170.442 405.931 170.536 405.466 170.724 405.065C170.914 404.664 171.182 404.357 171.528 404.144C171.875 403.927 172.276 403.819 172.731 403.819C173.336 403.819 173.82 403.989 174.185 404.327C174.549 404.663 174.761 405.129 174.821 405.726H174.067C174.002 405.272 173.86 404.944 173.642 404.741C173.425 404.538 173.122 404.437 172.731 404.437C172.252 404.437 171.876 404.614 171.602 404.968C171.332 405.322 171.196 405.826 171.196 406.479V407.03C171.196 407.647 171.325 408.138 171.583 408.503C171.841 408.868 172.201 409.05 172.665 409.05C173.082 409.05 173.401 408.956 173.622 408.769C173.846 408.578 173.994 408.249 174.067 407.78H174.821ZM180.192 409.585H179.438V404.515H176.634V409.585H175.884V403.897H180.192V409.585ZM185.145 403.897H185.895V409.585H185.145V405.202L182.345 409.585H181.591V403.897H182.345V408.28L185.145 403.897ZM191.075 404.515H189.247V409.585H188.501V404.515H186.677V403.897H191.075V404.515ZM194.747 408.101H192.364L191.829 409.585H191.056L193.227 403.897H193.884L196.06 409.585H195.29L194.747 408.101ZM192.591 407.483H194.524L193.556 404.823L192.591 407.483ZM201.196 403.897V409.585H200.446V404.515H198.407L198.306 406.769C198.267 407.524 198.188 408.091 198.071 408.472C197.957 408.852 197.787 409.132 197.563 409.312C197.339 409.489 197.04 409.58 196.665 409.585H196.419V408.972L196.575 408.964C196.817 408.946 197.004 408.868 197.134 408.729C197.264 408.589 197.363 408.366 197.431 408.062C197.498 407.757 197.547 407.288 197.575 406.655L197.692 403.897H201.196ZM203.286 406.218H204.7C205.294 406.226 205.757 406.378 206.091 406.675C206.424 406.972 206.591 407.375 206.591 407.886C206.591 408.399 206.423 408.808 206.087 409.112C205.751 409.417 205.293 409.575 204.712 409.585H202.536V403.897H203.286V406.218ZM203.286 406.835V408.972H204.657C205.03 408.972 205.319 408.873 205.524 408.675C205.733 408.477 205.837 408.211 205.837 407.878C205.837 407.558 205.737 407.305 205.536 407.12C205.338 406.935 205.056 406.84 204.688 406.835H203.286Z" fill="#6F727B"/>
</g>
<g opacity="0.39">
<g opacity="0.39">
<path opacity="0.39" d="M66.459 598.549C75.575 598.549 82.965 597.25 82.965 595.648C82.965 594.046 75.575 592.747 66.459 592.747C57.343 592.747 49.953 594.046 49.953 595.648C49.953 597.25 57.343 598.549 66.459 598.549Z" stroke="#6F727B"/>
</g>
<g opacity="0.39">
<path opacity="0.39" d="M65.872 529.308C62.6528 529.308 59.5655 530.587 57.2883 532.862C55.0111 535.137 53.7302 538.224 53.727 541.443V554.12C53.727 557.205 54.9018 560.175 57.0125 562.426C59.1233 564.677 62.0118 566.039 65.091 566.237V594.811H67V566.211C70.0132 565.93 72.8131 564.534 74.8514 562.297C76.8897 560.06 78.0196 557.143 78.02 554.117V541.445C78.0171 538.225 76.7359 535.138 74.458 532.862C72.1802 530.586 69.0919 529.308 65.872 529.308Z" stroke="#6F727B" stroke-miterlimit="10"/>
<path opacity="0.39" d="M74.233 532.481L66.459 536.368" stroke="#6F727B"/>
<path opacity="0.39" d="M77.149 536.369L64.516 542.2" stroke="#6F727B"/>
<path opacity="0.39" d="M78.121 540.256L70.347 544.143" stroke="#6F727B"/>
<path opacity="0.39" d="M78.121 545.115L65.488 549.974" stroke="#6F727B"/>
<path opacity="0.39" d="M78.121 549.974L70.347 553.861" stroke="#6F727B"/>
<path opacity="0.39" d="M78.121 554.833L66.459 560.664" stroke="#6F727B"/>
</g>
<g opacity="0.39">
<path opacity="0.39" d="M22.729 597.577C33.4555 597.577 42.151 596.061 42.151 594.19C42.151 592.319 33.4555 590.803 22.729 590.803C12.0025 590.803 3.30701 592.319 3.30701 594.19C3.30701 596.061 12.0025 597.577 22.729 597.577Z" stroke="#6F727B"/>
</g>
<g opacity="0.39">
<path opacity="0.39" d="M22.983 473.013C17.0208 473.013 11.3029 475.382 7.08677 479.598C2.87059 483.813 0.501326 489.531 0.5 495.493V518.944C0.500178 524.656 2.67488 530.154 6.58229 534.32C10.4897 538.487 15.8367 541.01 21.537 541.376V594.266H25.07V541.328C30.6459 540.807 35.8264 538.223 39.5975 534.083C43.3685 529.943 45.4584 524.544 45.458 518.944V495.496C45.4575 489.535 43.0899 483.818 38.8758 479.602C34.6617 475.386 28.946 473.016 22.985 473.013H22.983Z" stroke="#6F727B" stroke-miterlimit="10"/>
<path opacity="0.39" d="M36.334 477.089L23.701 480.004" stroke="#6F727B"/>
<path opacity="0.39" d="M42.165 483.891L23.701 488.75" stroke="#6F727B"/>
<path opacity="0.39" d="M45.08 490.694L32.447 493.609" stroke="#6F727B"/>
<path opacity="0.39" d="M45.08 497.496L26.616 502.355" stroke="#6F727B"/>
<path opacity="0.39" d="M45.08 504.299L32.447 507.214" stroke="#6F727B"/>
<path opacity="0.39" d="M45.08 511.102L26.616 515.961" stroke="#6F727B"/>
<path opacity="0.39" d="M45.08 517.904L32.447 520.819" stroke="#6F727B"/>
<path opacity="0.39" d="M45.08 524.707L26.616 529.566" stroke="#6F727B"/>
<path opacity="0.39" d="M42.165 531.509L30.503 535.396" stroke="#6F727B"/>
</g>
</g>
<g opacity="0.39">
<g opacity="0.39">
<path opacity="0.39" d="M983.822 598.549C993.183 598.549 1000.77 597.25 1000.77 595.648C1000.77 594.046 993.183 592.747 983.822 592.747C974.461 592.747 966.873 594.046 966.873 595.648C966.873 597.25 974.461 598.549 983.822 598.549Z" stroke="#6F727B"/>
</g>
<g opacity="0.39">
<path opacity="0.39" d="M984.425 529.308C987.687 529.266 990.832 530.52 993.169 532.796C995.507 535.071 996.845 538.181 996.891 541.443V554.12C996.854 557.244 995.627 560.237 993.461 562.488C991.295 564.739 988.351 566.08 985.231 566.237V594.811H983.272V566.211C980.218 565.97 977.364 564.596 975.272 562.358C973.18 560.12 972 557.18 971.965 554.117V541.445C972.01 538.184 973.348 535.074 975.684 532.799C978.02 530.523 981.164 529.268 984.425 529.308V529.308Z" stroke="#6F727B" stroke-miterlimit="10"/>
<path opacity="0.39" d="M975.845 532.481L983.822 536.368" stroke="#6F727B"/>
<path opacity="0.39" d="M972.854 536.369L985.816 542.2" stroke="#6F727B"/>
<path opacity="0.39" d="M971.857 540.256L979.834 544.143" stroke="#6F727B"/>
<path opacity="0.39" d="M971.857 545.115L984.819 549.974" stroke="#6F727B"/>
<path opacity="0.39" d="M971.857 549.974L979.834 553.861" stroke="#6F727B"/>
<path opacity="0.39" d="M971.857 554.833L983.822 560.664" stroke="#6F727B"/>
</g>
<g opacity="0.39">
<path opacity="0.39" d="M1028.69 597.577C1039.71 597.577 1048.63 596.061 1048.63 594.19C1048.63 592.319 1039.71 590.803 1028.69 590.803C1017.68 590.803 1008.75 592.319 1008.75 594.19C1008.75 596.061 1017.68 597.577 1028.69 597.577Z" stroke="#6F727B"/>
</g>
<g opacity="0.39">
<path opacity="0.39" d="M1028.43 473.013C1041.17 473.013 1051.5 483.077 1051.5 495.493V518.944C1051.43 524.727 1049.16 530.267 1045.15 534.435C1041.14 538.602 1035.69 541.085 1029.91 541.376V594.266H1026.29V541.328C1020.64 540.881 1015.36 538.336 1011.49 534.195C1007.61 530.053 1005.43 524.613 1005.37 518.944V495.496C1005.37 483.084 1015.69 473.019 1028.43 473.013H1028.43Z" stroke="#6F727B" stroke-miterlimit="10"/>
<path opacity="0.39" d="M1014.73 477.089L1027.69 480.004" stroke="#6F727B"/>
<path opacity="0.39" d="M1008.75 483.891L1027.69 488.75" stroke="#6F727B"/>
<path opacity="0.39" d="M1005.76 490.694L1018.72 493.609" stroke="#6F727B"/>
<path opacity="0.39" d="M1005.76 497.496L1024.7 502.355" stroke="#6F727B"/>
<path opacity="0.39" d="M1005.76 504.299L1018.72 507.214" stroke="#6F727B"/>
<path opacity="0.39" d="M1005.76 511.102L1024.7 515.961" stroke="#6F727B"/>
<path opacity="0.39" d="M1005.76 517.904L1018.72 520.819" stroke="#6F727B"/>
<path opacity="0.39" d="M1005.76 524.707L1024.7 529.566" stroke="#6F727B"/>
<path opacity="0.39" d="M1008.75 531.509L1020.71 535.396" stroke="#6F727B"/>
</g>
</g>
<g opacity="0.39">
<g opacity="0.39">
<path opacity="0.39" d="M662.479 598.549C666.68 598.549 670.085 598.065 670.085 597.469C670.085 596.872 666.68 596.389 662.479 596.389C658.278 596.389 654.873 596.872 654.873 597.469C654.873 598.065 658.278 598.549 662.479 598.549Z" stroke="#6F727B"/>
</g>
<g opacity="0.39">
<path opacity="0.39" d="M662.759 566.651C664.274 566.632 665.734 567.215 666.82 568.272C667.905 569.329 668.527 570.773 668.548 572.288V578.177C668.532 579.628 667.962 581.019 666.956 582.065C665.949 583.111 664.582 583.734 663.132 583.806V597.08H662.222V583.796C660.803 583.684 659.478 583.046 658.506 582.006C657.534 580.966 656.986 579.601 656.97 578.178V572.29C656.991 570.775 657.612 569.33 658.698 568.272C659.783 567.215 661.244 566.632 662.759 566.651Z" stroke="#6F727B" stroke-miterlimit="10"/>
<path opacity="0.39" d="M658.774 568.125L662.48 569.931" stroke="#6F727B"/>
<path opacity="0.39" d="M657.384 569.931L663.406 572.64" stroke="#6F727B"/>
<path opacity="0.39" d="M656.921 571.737L660.627 573.543" stroke="#6F727B"/>
<path opacity="0.39" d="M656.921 573.994L662.943 576.251" stroke="#6F727B"/>
<path opacity="0.39" d="M656.921 576.251L660.627 578.057" stroke="#6F727B"/>
<path opacity="0.39" d="M656.921 578.508L662.479 581.217" stroke="#6F727B"/>
</g>
<g opacity="0.39">
<path opacity="0.39" d="M683.323 598.098C688.291 598.098 692.319 597.513 692.319 596.792C692.319 596.071 688.291 595.486 683.323 595.486C678.355 595.486 674.327 596.071 674.327 596.792C674.327 597.513 678.355 598.098 683.323 598.098Z" stroke="#6F727B"/>
</g>
<g opacity="0.39">
<path opacity="0.39" d="M683.202 540.5C686.008 540.465 688.712 541.545 690.722 543.503C692.731 545.461 693.881 548.137 693.918 550.943V561.837C693.886 564.524 692.83 567.097 690.967 569.033C689.103 570.969 686.572 572.122 683.888 572.257V596.827H682.206V572.235C679.581 572.027 677.128 570.845 675.33 568.921C673.531 566.997 672.518 564.47 672.488 561.837V550.944C672.525 548.139 673.674 545.463 675.682 543.505C677.691 541.547 680.395 540.466 683.2 540.5H683.202Z" stroke="#6F727B" stroke-miterlimit="10"/>
<path opacity="0.39" d="M676.838 542.393L682.86 543.747" stroke="#6F727B"/>
<path opacity="0.39" d="M674.059 545.553L682.86 547.81" stroke="#6F727B"/>
<path opacity="0.39" d="M672.669 548.714L678.691 550.068" stroke="#6F727B"/>
<path opacity="0.39" d="M672.669 551.874L681.47 554.131" stroke="#6F727B"/>
<path opacity="0.39" d="M672.669 555.034L678.691 556.388" stroke="#6F727B"/>
<path opacity="0.39" d="M672.669 558.194L681.47 560.451" stroke="#6F727B"/>
<path opacity="0.39" d="M672.669 561.354L678.691 562.708" stroke="#6F727B"/>
<path opacity="0.39" d="M672.669 564.514L681.47 566.771" stroke="#6F727B"/>
<path opacity="0.39" d="M674.059 567.674L679.617 569.48" stroke="#6F727B"/>
</g>
</g>
<g opacity="0.39">
<path opacity="0.39" d="M1053.38 632.825H1012.4" stroke="#707070"/>
<g opacity="0.39">
<g opacity="0.39">
<path opacity="0.39" d="M1158.38 631.825H1117.4" stroke="#707070"/>
</g>
<g opacity="0.39">
<path opacity="0.39" d="M1263.38 631.825H1222.4" stroke="#707070"/>
</g>
<g opacity="0.39">
<path opacity="0.39" d="M1368.38 631.825H1327.4" stroke="#707070"/>
</g>
<g opacity="0.39">
<path opacity="0.39" d="M1473.38 631.825H1432.4" stroke="#707070"/>
</g>
</g>
<path opacity="0.39" d="M738.38 632.825H697.398" stroke="#707070"/>
<path opacity="0.39" d="M423.38 632.825H382.398" stroke="#707070"/>
<path opacity="0.39" d="M948.38 632.825H907.398" stroke="#707070"/>
<path opacity="0.39" d="M633.38 632.825H592.398" stroke="#707070"/>
<path opacity="0.39" d="M318.38 632.825H277.398" stroke="#707070"/>
<path opacity="0.39" d="M843.38 632.825H802.398" stroke="#707070"/>
<path opacity="0.39" d="M528.38 632.825H487.398" stroke="#707070"/>
<path opacity="0.39" d="M528.38 632.825H487.398" stroke="#707070"/>
<path opacity="0.39" d="M213.38 632.825H172.398" stroke="#707070"/>
<path opacity="0.39" d="M108.38 632.825H67.398" stroke="#707070"/>
<path opacity="0.39" d="M120.904 599.346L101.217 612.407H2.155" stroke="#707070"/>
<path opacity="0.39" d="M387.68 599.049L418.742 612.407H1507.68" stroke="#707070"/>
</g>
<g opacity="0.39">
<g opacity="0.39">
<path opacity="0.39" d="M817.337 621.73L790.116 621.729C790.141 621.47 790.153 621.21 790.153 620.95C790.153 616.441 786.485 612.773 781.977 612.773C777.469 612.773 773.801 616.441 773.801 620.95C773.801 621.21 773.813 621.47 773.838 621.729H764.566V617.848C764.566 613.325 765.452 608.938 767.198 604.809C768.886 600.819 771.301 597.237 774.378 594.16C777.455 591.083 781.037 588.668 785.027 586.98C789.156 585.234 793.544 584.348 798.066 584.348H834.828C837.861 584.348 840.329 586.815 840.329 589.848V621.728L833.615 621.729C833.639 621.47 833.652 621.21 833.652 620.95C833.652 616.441 829.984 612.773 825.476 612.773C820.967 612.773 817.3 616.441 817.3 620.95C817.3 621.21 817.312 621.471 817.337 621.73Z" fill="white"/>
<path opacity="0.39" d="M816.804 621.23C816.801 621.137 816.8 621.043 816.8 620.95C816.8 616.165 820.692 612.273 825.476 612.273C830.26 612.273 834.152 616.165 834.152 620.95C834.152 621.043 834.15 621.136 834.147 621.229L839.829 621.228V589.848C839.829 587.091 837.586 584.848 834.828 584.848H798.066C793.611 584.848 789.289 585.72 785.221 587.441C781.292 589.103 777.763 591.483 774.732 594.514C771.701 597.544 769.321 601.074 767.659 605.003C765.938 609.071 765.066 613.393 765.066 617.848V621.229H773.305C773.302 621.136 773.301 621.043 773.301 620.95C773.301 616.165 777.193 612.273 781.977 612.273C786.761 612.273 790.653 616.165 790.653 620.95C790.653 621.043 790.651 621.136 790.648 621.229L816.804 621.23ZM817.906 622.23H817.905L789.547 622.229C789.617 621.811 789.653 621.381 789.653 620.95C789.653 616.717 786.21 613.273 781.977 613.273C777.744 613.273 774.301 616.717 774.301 620.95C774.301 621.379 774.337 621.809 774.407 622.229H764.066V617.848C764.066 613.258 764.965 608.805 766.738 604.614C768.45 600.565 770.902 596.929 774.024 593.806C777.147 590.684 780.783 588.232 784.832 586.52C789.024 584.747 793.476 583.848 798.066 583.848H834.828C838.137 583.848 840.829 586.54 840.829 589.848V622.228L833.046 622.229C833.116 621.811 833.152 621.381 833.152 620.95C833.152 616.717 829.708 613.273 825.476 613.273C821.243 613.273 817.8 616.717 817.8 620.95C817.8 621.379 817.835 621.809 817.906 622.229L817.906 622.23Z" fill="#6F727B"/>
</g>
<g opacity="0.39">
<path opacity="0.39" d="M781.977 626.847C785.234 626.847 787.874 624.207 787.874 620.95C787.874 617.693 785.234 615.053 781.977 615.053C778.72 615.053 776.08 617.693 776.08 620.95C776.08 624.207 778.72 626.847 781.977 626.847Z" stroke="#6F727B"/>
</g>
<g opacity="0.39">
<path opacity="0.39" d="M825.476 626.847C828.733 626.847 831.373 624.207 831.373 620.95C831.373 617.693 828.733 615.053 825.476 615.053C822.219 615.053 819.579 617.693 819.579 620.95C819.579 624.207 822.219 626.847 825.476 626.847Z" stroke="#6F727B"/>
</g>
<g opacity="0.39">
<path opacity="0.39" d="M801.33 577.951H803.565C804.493 577.951 805.383 578.32 806.04 578.976C806.696 579.632 807.065 580.523 807.065 581.451V584.127C807.065 584.26 807.012 584.387 806.919 584.48C806.825 584.574 806.698 584.627 806.565 584.627H798.33C798.197 584.627 798.07 584.574 797.976 584.48C797.883 584.387 797.83 584.26 797.83 584.127V581.451C797.83 580.523 798.199 579.632 798.855 578.976C799.511 578.32 800.402 577.951 801.33 577.951V577.951Z" stroke="#6F727B"/>
</g>
<path opacity="0.39" d="M802.447 569.775V574.892" stroke="#6F727B" stroke-linecap="round"/>
<path opacity="0.39" d="M813.212 574.363L809.594 577.981" stroke="#6F727B" stroke-linecap="round"/>
<path opacity="0.39" d="M791.682 574.363L795.3 577.981" stroke="#6F727B" stroke-linecap="round"/>
</g>
<g opacity="0.39">
<path opacity="0.39" d="M524.672 174.895L564.483 108.544L604.294 174.895H524.672Z" stroke="#707070"/>
<path opacity="0.39" d="M522.575 178.444H606.275V209.769H522.575V178.444Z" stroke="#707070"/>
<path opacity="0.39" d="M508.625 388.392H620.225V596.792H508.625V388.392Z" fill="white" stroke="#707070"/>
<path opacity="0.39" d="M508.625 262.082H620.225V293.407H508.625V262.082Z" stroke="#707070"/>
<path opacity="0.39" d="M494.675 297.019H634.175V384.145H494.675V297.019Z" stroke="#707070"/>
<path opacity="0.39" d="M536.525 314.395H592.325V366.77H536.525V314.395Z" stroke="#707070"/>
<path opacity="0.39" d="M526.162 213.257L508.63 258.595H620.23L601.274 213.257H526.162Z" stroke="#707070"/>
<path opacity="0.39" d="M522.58 266.965V288.588" stroke="#707070"/>
<path opacity="0.39" d="M564.43 266.965V288.588" stroke="#707070"/>
<path opacity="0.39" d="M536.53 266.965V288.588" stroke="#707070"/>
<path opacity="0.39" d="M578.38 266.965V288.588" stroke="#707070"/>
<path opacity="0.39" d="M550.48 266.965V288.588" stroke="#707070"/>
<path opacity="0.39" d="M592.33 266.965V288.588" stroke="#707070"/>
<path opacity="0.39" d="M606.28 266.965V288.588" stroke="#707070"/>
<path opacity="0.39" d="M620.23 239.679V258.595" stroke="#707070"/>
<path opacity="0.39" d="M634.18 278.041V296.957" stroke="#707070"/>
<path opacity="0.39" d="M494.68 278.041V296.957" stroke="#707070"/>
<path opacity="0.39" d="M508.63 239.679V258.595" stroke="#707070"/>
<path opacity="0.39" d="M522.58 167.2V178.382" stroke="#707070"/>
<path opacity="0.39" d="M564.763 56.936V109.273" stroke="#707070"/>
<path opacity="0.39" d="M606.28 167.2V178.382" stroke="#707070"/>
<g opacity="0.39">
<path opacity="0.39" d="M564.082 364.615C577.372 364.615 588.146 353.841 588.146 340.551C588.146 327.261 577.372 316.487 564.082 316.487C550.792 316.487 540.018 327.261 540.018 340.551C540.018 353.841 550.792 364.615 564.082 364.615Z" fill="white"/>
<path opacity="0.39" d="M564.082 364.115C577.096 364.115 587.646 353.565 587.646 340.551C587.646 327.537 577.096 316.987 564.082 316.987C551.068 316.987 540.518 327.537 540.518 340.551C540.518 353.565 551.068 364.115 564.082 364.115Z" stroke="#707070"/>
</g>
<path opacity="0.39" d="M564.43 320.625V342.295L573.457 351.895" stroke="#707070"/>
<path opacity="0.39" d="M536.53 398.095V582.844" stroke="#707070"/>
<path opacity="0.39" d="M564.43 398.095V582.844" stroke="#707070"/>
<path opacity="0.39" d="M592.33 398.095V582.844" stroke="#707070"/>
<g opacity="0.39">
<path opacity="0.39" d="M564.687 57.386C566.174 57.386 567.38 56.1803 567.38 54.693C567.38 53.2057 566.174 52 564.687 52C563.2 52 561.994 53.2057 561.994 54.693C561.994 56.1803 563.2 57.386 564.687 57.386Z" fill="white"/>
<path opacity="0.39" d="M564.687 56.886C565.898 56.886 566.88 55.9042 566.88 54.693C566.88 53.4818 565.898 52.5 564.687 52.5C563.476 52.5 562.494 53.4818 562.494 54.693C562.494 55.9042 563.476 56.886 564.687 56.886Z" stroke="#707070"/>
</g>
<path opacity="0.39" d="M557.955 65.9121H571.418" stroke="#707070" stroke-linecap="round"/>
<path opacity="0.39" d="M559.75 100.915H569.623" stroke="#707070" stroke-linecap="round"/>
</g>
<g opacity="0.39">
<path opacity="0.39" d="M270.68 576H237.68V599H270.68V576Z" fill="white"/>
<path opacity="0.39" d="M270.18 576.5H238.18V598.5H270.18V576.5Z" stroke="#707070"/>
</g>
<path opacity="0.39" d="M257.563 587.039V592.453" stroke="#707070" stroke-linecap="round"/>
<path opacity="0.39" d="M251.563 587.039V592.453" stroke="#707070" stroke-linecap="round"/>
<path opacity="0.39" d="M254.563 574.492V599" stroke="#707070"/>
<g opacity="0.39">
<g opacity="0.39">
<path opacity="0.39" d="M262.18 280.5C318.513 280.5 364.18 234.833 364.18 178.5C364.18 122.167 318.513 76.5 262.18 76.5C205.847 76.5 160.18 122.167 160.18 178.5C160.18 234.833 205.847 280.5 262.18 280.5Z" stroke="#707070"/>
</g>
<g opacity="0.52">
<path opacity="0.52" d="M262.18 310.5C335.082 310.5 394.18 251.402 394.18 178.5C394.18 105.598 335.082 46.5 262.18 46.5C189.278 46.5 130.18 105.598 130.18 178.5C130.18 251.402 189.278 310.5 262.18 310.5Z" stroke="#707070"/>
</g>
<g opacity="0.3">
<path opacity="0.3" d="M262.18 356.5C360.487 356.5 440.18 276.807 440.18 178.5C440.18 80.1933 360.487 0.5 262.18 0.5C163.873 0.5 84.18 80.1933 84.18 178.5C84.18 276.807 163.873 356.5 262.18 356.5Z" stroke="#707070"/>
</g>
<path opacity="0.39" d="M425.666 206.954C425.858 205.828 425.954 204.688 425.953 203.546C425.953 193.446 418.599 185.26 409.527 185.26C407.838 185.26 406.162 185.548 404.57 186.111C401.203 179.325 394.712 174.727 387.257 174.727C386.065 174.728 384.875 174.849 383.707 175.087C381.607 172.142 378.843 169.732 375.639 168.055C372.434 166.377 368.88 165.477 365.263 165.429C354.143 165.429 344.772 173.866 342.102 185.305C341.754 185.28 341.402 185.259 341.044 185.259C331.973 185.259 324.616 193.448 324.616 203.545C324.604 204.686 324.688 205.826 324.866 206.953L425.666 206.954Z" fill="white" stroke="#6F727B" stroke-miterlimit="10"/>
</g>
<path opacity="0.39" d="M734.296 84.9541C734.383 84.4451 734.426 83.9296 734.426 83.4131C734.426 78.8481 731.101 75.1461 727 75.1461C726.237 75.1463 725.479 75.2765 724.759 75.5311C724.067 74.0267 722.967 72.7467 721.583 71.8369C720.2 70.9271 718.588 70.4241 716.933 70.3851C716.396 70.3862 715.86 70.4408 715.333 70.5481C714.384 69.2167 713.134 68.1275 711.686 67.369C710.237 66.6105 708.63 66.2039 706.995 66.1821C701.968 66.1821 697.732 69.9961 696.525 75.1671C696.368 75.1561 696.207 75.1461 696.047 75.1461C691.947 75.1461 688.621 78.8461 688.621 83.4131C688.616 83.9291 688.654 84.4445 688.734 84.9541H734.296Z" stroke="#6F727B" stroke-miterlimit="10"/>
<path opacity="0.39" d="M129.296 342.954C129.383 342.445 129.426 341.93 129.426 341.413C129.426 336.848 126.101 333.146 122 333.146C121.237 333.146 120.479 333.276 119.759 333.531C119.067 332.027 117.967 330.747 116.583 329.837C115.2 328.927 113.588 328.424 111.933 328.385C111.396 328.386 110.86 328.441 110.333 328.548C109.384 327.217 108.134 326.128 106.686 325.369C105.237 324.61 103.63 324.204 101.995 324.182C96.968 324.182 92.732 327.996 91.525 333.167C91.368 333.156 91.207 333.146 91.047 333.146C86.947 333.146 83.621 336.846 83.621 341.413C83.6156 341.929 83.6535 342.445 83.734 342.954H129.296Z" stroke="#6F727B" stroke-miterlimit="10"/>
<path opacity="0.39" d="M757.296 386.954C757.383 386.445 757.426 385.93 757.426 385.413C757.426 380.848 754.101 377.146 750 377.146C749.237 377.146 748.479 377.276 747.759 377.531C747.067 376.027 745.967 374.747 744.583 373.837C743.2 372.927 741.588 372.424 739.933 372.385C739.396 372.386 738.86 372.441 738.333 372.548C737.384 371.217 736.134 370.128 734.686 369.369C733.237 368.61 731.63 368.204 729.995 368.182C724.968 368.182 720.732 371.996 719.525 377.167C719.368 377.156 719.207 377.146 719.047 377.146C714.947 377.146 711.621 380.846 711.621 385.413C711.616 385.929 711.654 386.445 711.734 386.954H757.296Z" stroke="#6F727B" stroke-miterlimit="10"/>
</g>
</g>
<defs>
<clipPath id="clip0_1352_7">
<rect width="1507.68" height="634.325" fill="white"/>
</clipPath>
</defs>
</svg>
