<svg width="1508" height="582" viewBox="0 0 1508 582" fill="none" xmlns="http://www.w3.org/2000/svg">
<path d="M815.68 200.458H871.087V157.768H926.494V200.458H969.752V255.864H926.494V297.59H871.087V255.864H815.68" stroke="white" stroke-width="8"/>
<path d="M1051 111H816V346H1051V111Z" fill="#FF0000" fill-opacity="0.2"/>
<path d="M814 199H1028V258H814V199Z" fill="white"/>
<path d="M962.875 134.5L962.875 322.5L904.125 322.5L904.125 134.5L962.875 134.5Z" fill="white"/>
<g opacity="0.2">
<path d="M66.459 546.549C75.575 546.549 82.965 545.25 82.965 543.648C82.965 542.046 75.575 540.747 66.459 540.747C57.343 540.747 49.953 542.046 49.953 543.648C49.953 545.25 57.343 546.549 66.459 546.549Z" stroke="black"/>
<path d="M65.872 477.308C62.6528 477.309 59.5655 478.587 57.2883 480.862C55.0111 483.138 53.7302 486.224 53.727 489.443V502.12C53.727 505.206 54.9017 508.176 57.0125 510.426C59.1233 512.677 62.0118 514.039 65.091 514.237V542.811H67V514.211C70.0132 513.93 72.8131 512.534 74.8514 510.298C76.8897 508.061 78.0196 505.143 78.02 502.117V489.445C78.0171 486.225 76.7359 483.138 74.458 480.862C72.1801 478.586 69.0919 477.308 65.872 477.308Z" stroke="black" stroke-miterlimit="10"/>
<path d="M74.233 480.481L66.459 484.368" stroke="black"/>
<path d="M77.149 484.369L64.516 490.2" stroke="black"/>
<path d="M78.121 488.256L70.347 492.143" stroke="black"/>
<path d="M78.121 493.115L65.488 497.974" stroke="black"/>
<path d="M78.121 497.974L70.347 501.861" stroke="black"/>
<path d="M78.121 502.833L66.459 508.664" stroke="black"/>
<path d="M22.729 545.577C33.4555 545.577 42.151 544.061 42.151 542.19C42.151 540.319 33.4555 538.803 22.729 538.803C12.0025 538.803 3.30701 540.319 3.30701 542.19C3.30701 544.061 12.0025 545.577 22.729 545.577Z" stroke="black"/>
<path d="M22.983 421.013C17.0208 421.013 11.3029 423.382 7.08677 427.598C2.87059 431.813 0.501326 437.531 0.5 443.493V466.944C0.500178 472.656 2.67488 478.154 6.58229 482.32C10.4897 486.487 15.8367 489.01 21.537 489.376V542.266H25.07V489.328C30.6459 488.807 35.8264 486.223 39.5975 482.083C43.3685 477.943 45.4584 472.544 45.458 466.944V443.496C45.4575 437.535 43.0899 431.818 38.8758 427.602C34.6617 423.386 28.946 421.016 22.985 421.013H22.983Z" stroke="black" stroke-miterlimit="10"/>
<path d="M36.334 425.089L23.701 428.004" stroke="black"/>
<path d="M42.165 431.891L23.701 436.75" stroke="black"/>
<path d="M45.08 438.694L32.447 441.609" stroke="black"/>
<path d="M45.08 445.496L26.616 450.355" stroke="black"/>
<path d="M45.08 452.299L32.447 455.214" stroke="black"/>
<path d="M45.08 459.102L26.616 463.961" stroke="black"/>
<path d="M45.08 465.904L32.447 468.819" stroke="black"/>
<path d="M45.08 472.707L26.616 477.566" stroke="black"/>
<path d="M42.165 479.509L30.503 483.396" stroke="black"/>
<path d="M983.822 546.549C993.183 546.549 1000.77 545.25 1000.77 543.648C1000.77 542.046 993.183 540.747 983.822 540.747C974.461 540.747 966.873 542.046 966.873 543.648C966.873 545.25 974.461 546.549 983.822 546.549Z" stroke="black"/>
<path d="M984.425 477.308C987.687 477.266 990.832 478.52 993.169 480.796C995.507 483.071 996.845 486.181 996.891 489.443V502.12C996.854 505.244 995.627 508.237 993.461 510.488C991.295 512.739 988.351 514.08 985.231 514.237V542.811H983.272V514.211C980.218 513.97 977.364 512.596 975.272 510.358C973.18 508.12 972 505.18 971.965 502.117V489.445C972.01 486.184 973.348 483.074 975.684 480.799C978.02 478.523 981.164 477.268 984.425 477.308V477.308Z" stroke="black" stroke-miterlimit="10"/>
<path d="M975.845 480.481L983.822 484.368" stroke="black"/>
<path d="M972.854 484.369L985.816 490.2" stroke="black"/>
<path d="M971.857 488.256L979.834 492.143" stroke="black"/>
<path d="M971.857 493.115L984.819 497.974" stroke="black"/>
<path d="M971.857 497.974L979.834 501.861" stroke="black"/>
<path d="M971.857 502.833L983.822 508.664" stroke="black"/>
<path d="M1028.69 545.577C1039.71 545.577 1048.63 544.061 1048.63 542.19C1048.63 540.319 1039.71 538.803 1028.69 538.803C1017.68 538.803 1008.75 540.319 1008.75 542.19C1008.75 544.061 1017.68 545.577 1028.69 545.577Z" stroke="black"/>
<path d="M1028.43 421.013C1041.17 421.013 1051.5 431.077 1051.5 443.493V466.944C1051.43 472.727 1049.16 478.267 1045.15 482.435C1041.14 486.602 1035.69 489.085 1029.92 489.376V542.266H1026.29V489.328C1020.64 488.881 1015.36 486.336 1011.49 482.195C1007.61 478.053 1005.43 472.613 1005.37 466.944V443.496C1005.37 431.084 1015.69 421.019 1028.43 421.013H1028.43Z" stroke="black" stroke-miterlimit="10"/>
<path d="M1014.73 425.089L1027.7 428.004" stroke="black"/>
<path d="M1008.75 431.891L1027.69 436.75" stroke="black"/>
<path d="M1005.76 438.694L1018.72 441.609" stroke="black"/>
<path d="M1005.76 445.496L1024.7 450.355" stroke="black"/>
<path d="M1005.76 452.299L1018.72 455.214" stroke="black"/>
<path d="M1005.76 459.102L1024.7 463.961" stroke="black"/>
<path d="M1005.76 465.904L1018.72 468.819" stroke="black"/>
<path d="M1005.76 472.707L1024.7 477.566" stroke="black"/>
<path d="M1008.75 479.509L1020.72 483.396" stroke="black"/>
<path d="M662.548 546.815C666.934 546.815 670.489 546.206 670.489 545.456C670.489 544.705 666.934 544.096 662.548 544.096C658.162 544.096 654.607 544.705 654.607 545.456C654.607 546.206 658.162 546.815 662.548 546.815Z" stroke="black"/>
<path d="M662.831 514.375C664.359 514.355 665.832 514.943 666.927 516.009C668.022 517.075 668.65 518.532 668.671 520.06V525.999C668.654 527.463 668.079 528.865 667.064 529.92C666.049 530.975 664.67 531.603 663.208 531.676V545.063H662.29V531.664C660.859 531.551 659.523 530.907 658.542 529.859C657.562 528.81 657.009 527.433 656.993 525.998V520.061C657.014 518.533 657.641 517.076 658.735 516.01C659.83 514.944 661.303 514.356 662.831 514.375V514.375Z" stroke="black" stroke-miterlimit="10"/>
<path d="M658.811 515.861L662.548 517.682" stroke="black"/>
<path d="M657.409 517.683L663.482 520.415" stroke="black"/>
<path d="M656.942 519.504L660.68 521.325" stroke="black"/>
<path d="M656.942 521.781L663.015 524.057" stroke="black"/>
<path d="M656.942 524.057L660.68 525.878" stroke="black"/>
<path d="M656.942 526.333L662.548 529.065" stroke="black"/>
<path d="M683.57 546.359C688.73 546.359 692.913 545.649 692.913 544.772C692.913 543.896 688.73 543.186 683.57 543.186C678.411 543.186 674.228 543.896 674.228 544.772C674.228 545.649 678.411 546.359 683.57 546.359Z" stroke="black"/>
<path d="M683.448 488C689.416 488 694.254 492.715 694.256 498.532V509.519C694.223 512.229 693.16 514.824 691.281 516.777C689.402 518.729 686.849 519.892 684.143 520.029V544.808H682.444V520.006C679.796 519.797 677.322 518.605 675.509 516.664C673.695 514.724 672.673 512.175 672.643 509.519V498.533C672.643 492.718 677.479 488.003 683.447 488H683.448Z" stroke="black" stroke-miterlimit="10"/>
<path d="M677.03 489.91L683.103 491.275" stroke="black"/>
<path d="M674.227 493.096L683.103 495.373" stroke="black"/>
<path d="M672.826 496.284L678.899 497.649" stroke="black"/>
<path d="M672.826 499.47L681.702 501.747" stroke="black"/>
<path d="M672.826 502.658L678.899 504.023" stroke="black"/>
<path d="M672.826 505.845L681.702 508.121" stroke="black"/>
<path d="M672.826 509.032L678.899 510.398" stroke="black"/>
<path d="M672.826 512.219L681.702 514.496" stroke="black"/>
<path d="M674.227 515.406L679.833 517.227" stroke="black"/>
<path d="M1053.38 580.825H1012.4" stroke="black"/>
<path d="M1158.38 579.825H1117.4" stroke="black"/>
<path d="M1263.38 579.825H1222.4" stroke="black"/>
<path d="M1368.38 579.825H1327.4" stroke="black"/>
<path d="M1473.38 579.825H1432.4" stroke="black"/>
<path d="M738.38 580.825H697.398" stroke="black"/>
<path d="M423.38 580.825H382.398" stroke="black"/>
<path d="M948.38 580.825H907.398" stroke="black"/>
<path d="M633.38 580.825H592.398" stroke="black"/>
<path d="M318.38 580.825H277.398" stroke="black"/>
<path d="M843.38 580.825H802.398" stroke="black"/>
<path d="M528.38 580.825H487.398" stroke="black"/>
<path d="M528.38 580.825H487.398" stroke="black"/>
<path d="M213.38 580.825H172.398" stroke="black"/>
<path d="M108.38 580.825H67.398" stroke="black"/>
<path d="M120.904 547.346L101.217 560.407H2.155" stroke="black"/>
<path d="M387.68 547.049L418.742 560.407H1507.68" stroke="black"/>
<path d="M524.672 122.895L564.483 56.5439L604.294 122.895H524.672Z" stroke="black"/>
<path d="M522.575 126.444H606.275V157.769H522.575V126.444Z" stroke="black"/>
<path d="M508.625 336.392H620.225V544.792H508.625V336.392Z" fill="white" stroke="black"/>
<path d="M508.625 210.082H620.225V241.407H508.625V210.082Z" stroke="black"/>
<path d="M494.675 245.019H634.175V332.145H494.675V245.019Z" stroke="black"/>
<path d="M536.525 262.395H592.325V314.77H536.525V262.395Z" stroke="black"/>
<path d="M526.162 161.257L508.63 206.595H620.23L601.274 161.257H526.162Z" stroke="black"/>
<path d="M522.58 214.965V236.588" stroke="black"/>
<path d="M564.43 214.965V236.588" stroke="black"/>
<path d="M536.53 214.965V236.588" stroke="black"/>
<path d="M578.38 214.965V236.588" stroke="black"/>
<path d="M550.48 214.965V236.588" stroke="black"/>
<path d="M592.33 214.965V236.588" stroke="black"/>
<path d="M606.28 214.965V236.588" stroke="black"/>
<path d="M620.23 187.679V206.595" stroke="black"/>
<path d="M634.18 226.041V244.957" stroke="black"/>
<path d="M494.68 226.041V244.957" stroke="black"/>
<path d="M508.63 187.679V206.595" stroke="black"/>
<path d="M522.58 115.2V126.382" stroke="black"/>
<path d="M564.763 4.93604V57.273" stroke="black"/>
<path d="M606.28 115.2V126.382" stroke="black"/>
<path opacity="0.39" d="M564.082 312.615C577.372 312.615 588.146 301.841 588.146 288.551C588.146 275.261 577.372 264.487 564.082 264.487C550.792 264.487 540.018 275.261 540.018 288.551C540.018 301.841 550.792 312.615 564.082 312.615Z" fill="white"/>
<path d="M564.082 312.115C577.096 312.115 587.646 301.565 587.646 288.551C587.646 275.537 577.096 264.987 564.082 264.987C551.068 264.987 540.518 275.537 540.518 288.551C540.518 301.565 551.068 312.115 564.082 312.115Z" stroke="black"/>
<path d="M564.43 268.625V290.295L573.457 299.895" stroke="black"/>
<path d="M536.53 346.095V530.844" stroke="black"/>
<path d="M564.43 346.095V530.844" stroke="black"/>
<path d="M592.33 346.095V530.844" stroke="black"/>
<path opacity="0.39" d="M564.687 5.386C566.174 5.386 567.38 4.1803 567.38 2.693C567.38 1.2057 566.174 0 564.687 0C563.2 0 561.994 1.2057 561.994 2.693C561.994 4.1803 563.2 5.386 564.687 5.386Z" fill="white"/>
<path d="M564.687 4.886C565.898 4.886 566.88 3.90416 566.88 2.693C566.88 1.48184 565.898 0.5 564.687 0.5C563.476 0.5 562.494 1.48184 562.494 2.693C562.494 3.90416 563.476 4.886 564.687 4.886Z" stroke="black"/>
<path d="M557.955 13.9121H571.418" stroke="black" stroke-linecap="round"/>
<path d="M559.75 48.915H569.623" stroke="black" stroke-linecap="round"/>
<path d="M253.802 546.346V362.377H225.046H224.046V361.377V347.5H151.659V361.377V362.377H150.659H121.904V546.346H253.802ZM254.802 547.346H120.904V361.377H150.659V346.5H225.046V361.377H254.802V547.346Z" fill="black"/>
<path d="M387.456 428.826H254.558V546.846H387.456V428.826Z" stroke="black"/>
<path d="M172.475 376.755H151.159V412.949H172.475V376.755Z" stroke="black"/>
<path d="M172.475 428.826H151.159V465.02H172.475V428.826Z" stroke="black"/>
<path d="M172.475 480.898H151.159V517.092H172.475V480.898Z" stroke="black"/>
<path d="M224.546 376.755H203.23V412.949H224.546V376.755Z" stroke="black"/>
<path d="M306.373 443.704H285.057V479.898H306.373V443.704Z" stroke="black"/>
<path d="M306.373 495.775H285.057V531.969H306.373V495.775Z" stroke="black"/>
<path d="M358.444 443.704H337.128V479.898H358.444V443.704Z" stroke="black"/>
<path d="M358.444 495.775H337.128V531.969H358.444V495.775Z" stroke="black"/>
<path d="M224.546 428.826H203.23V465.02H224.546V428.826Z" stroke="black"/>
<path d="M224.546 480.898H203.23V517.092H224.546V480.898Z" stroke="black"/>
<path opacity="0.39" d="M270.68 524H237.68V547H270.68V524Z" fill="white"/>
<path d="M270.18 524.5H238.18V546.5H270.18V524.5Z" stroke="black"/>
<path d="M257.563 535.039V540.453" stroke="black" stroke-linecap="round"/>
<path d="M251.563 535.039V540.453" stroke="black" stroke-linecap="round"/>
</g>
<path d="M164.93 354.041H162.266L162.274 358.585H160.986V352.985H164.938L164.93 354.041ZM167.83 358.681C167.249 358.681 166.723 358.556 166.254 358.305C165.79 358.054 165.425 357.71 165.158 357.273C164.897 356.83 164.766 356.334 164.766 355.785C164.766 355.236 164.897 354.742 165.158 354.305C165.425 353.862 165.79 353.516 166.254 353.265C166.723 353.014 167.249 352.889 167.83 352.889C168.411 352.889 168.934 353.014 169.398 353.265C169.862 353.516 170.227 353.862 170.494 354.305C170.761 354.742 170.894 355.236 170.894 355.785C170.894 356.334 170.761 356.83 170.494 357.273C170.227 357.71 169.862 358.054 169.398 358.305C168.934 358.556 168.411 358.681 167.83 358.681ZM167.83 357.577C168.161 357.577 168.459 357.502 168.726 357.353C168.993 357.198 169.201 356.985 169.35 356.713C169.505 356.441 169.582 356.132 169.582 355.785C169.582 355.438 169.505 355.129 169.35 354.857C169.201 354.585 168.993 354.374 168.726 354.225C168.459 354.07 168.161 353.993 167.83 353.993C167.499 353.993 167.201 354.07 166.934 354.225C166.667 354.374 166.457 354.585 166.302 354.857C166.153 355.129 166.078 355.438 166.078 355.785C166.078 356.132 166.153 356.441 166.302 356.713C166.457 356.985 166.667 357.198 166.934 357.353C167.201 357.502 167.499 357.577 167.83 357.577ZM174.54 358.681C173.97 358.681 173.452 358.558 172.988 358.313C172.53 358.062 172.167 357.718 171.9 357.281C171.639 356.838 171.508 356.34 171.508 355.785C171.508 355.23 171.639 354.734 171.9 354.297C172.167 353.854 172.53 353.51 172.988 353.265C173.452 353.014 173.972 352.889 174.548 352.889C175.034 352.889 175.471 352.974 175.86 353.145C176.255 353.316 176.586 353.561 176.852 353.881L176.02 354.649C175.642 354.212 175.172 353.993 174.612 353.993C174.266 353.993 173.956 354.07 173.684 354.225C173.412 354.374 173.199 354.585 173.044 354.857C172.895 355.129 172.82 355.438 172.82 355.785C172.82 356.132 172.895 356.441 173.044 356.713C173.199 356.985 173.412 357.198 173.684 357.353C173.956 357.502 174.266 357.577 174.612 357.577C175.172 357.577 175.642 357.356 176.02 356.913L176.852 357.681C176.586 358.006 176.255 358.254 175.86 358.425C175.466 358.596 175.026 358.681 174.54 358.681ZM182.801 352.985V358.585H181.513V354.041H178.985V358.585H177.697V352.985H182.801ZM184.189 352.985H185.477V356.633L188.149 352.985H189.365V358.585H188.085V354.945L185.413 358.585H184.189V352.985ZM195.039 354.041H193.247V358.585H191.967V354.041H190.183V352.985H195.039V354.041ZM199.364 357.385H196.764L196.268 358.585H194.94L197.436 352.985H198.716L201.22 358.585H199.86L199.364 357.385ZM198.956 356.401L198.068 354.257L197.18 356.401H198.956ZM207.001 352.985V358.585H205.721V354.041H203.801L203.761 355.209C203.735 356.004 203.671 356.649 203.569 357.145C203.468 357.636 203.297 358.014 203.057 358.281C202.823 358.542 202.492 358.673 202.065 358.673C201.889 358.673 201.676 358.644 201.425 358.585L201.505 357.489C201.575 357.51 201.652 357.521 201.737 357.521C202.047 357.521 202.263 357.34 202.385 356.977C202.508 356.609 202.585 356.036 202.617 355.257L202.697 352.985H207.001ZM211.112 354.825C211.795 354.825 212.317 354.977 212.68 355.281C213.048 355.585 213.232 356.036 213.232 356.633C213.232 357.268 213.029 357.753 212.624 358.089C212.224 358.42 211.659 358.585 210.928 358.585H208.4V352.985H209.688V354.825H211.112ZM210.856 357.625C211.192 357.625 211.453 357.542 211.64 357.377C211.832 357.212 211.928 356.972 211.928 356.657C211.928 356.076 211.571 355.785 210.856 355.785H209.688V357.625H210.856Z" fill="#FF0000"/>
<path opacity="0.1" d="M254.563 522.492V547" stroke="black"/>
<path opacity="0.39" d="M333.388 199.34C333.388 239.131 301.131 271.388 261.34 271.388C221.549 271.388 189.292 239.131 189.292 199.34C189.292 159.549 221.549 127.292 261.34 127.292C301.131 127.292 333.388 159.549 333.388 199.34Z" stroke="#FFEEC2"/>
<path d="M261.34 271.534C301.212 271.534 333.534 239.212 333.534 199.34C333.534 159.468 301.212 127.146 261.34 127.146C221.468 127.146 189.146 159.468 189.146 199.34C189.146 239.212 221.468 271.534 261.34 271.534Z" stroke="#FFEEC2"/>
<path opacity="0.52" d="M354.622 199.34C354.622 250.858 312.858 292.622 261.34 292.622C209.822 292.622 168.058 250.858 168.058 199.34C168.058 147.822 209.822 106.058 261.34 106.058C312.858 106.058 354.622 147.822 354.622 199.34Z" stroke="#FFEEC2"/>
<path d="M261.34 292.768C312.939 292.768 354.768 250.939 354.768 199.34C354.768 147.741 312.939 105.912 261.34 105.912C209.741 105.912 167.912 147.741 167.912 199.34C167.912 250.939 209.741 292.768 261.34 292.768Z" stroke="#FFEEC2"/>
<path opacity="0.3" d="M387.18 199.34C387.18 268.84 330.84 325.18 261.34 325.18C191.84 325.18 135.5 268.84 135.5 199.34C135.5 129.84 191.84 73.5 261.34 73.5C330.84 73.5 387.18 129.84 387.18 199.34Z" stroke="#FFEEC2"/>
<path d="M261.34 325.326C330.92 325.326 387.326 268.92 387.326 199.34C387.326 129.76 330.92 73.3538 261.34 73.3538C191.76 73.3538 135.354 129.76 135.354 199.34C135.354 268.92 191.76 325.326 261.34 325.326Z" stroke="#FFEEC2"/>
<path d="M425.666 154.954C425.858 153.828 425.954 152.688 425.953 151.546C425.953 141.446 418.599 133.26 409.527 133.26C407.838 133.26 406.162 133.548 404.57 134.111C401.203 127.325 394.712 122.727 387.257 122.727C386.065 122.728 384.875 122.849 383.707 123.087C381.607 120.142 378.843 117.732 375.639 116.055C372.434 114.377 368.88 113.477 365.263 113.429C354.143 113.429 344.772 121.866 342.102 133.305C341.754 133.28 341.402 133.259 341.044 133.259C331.973 133.259 324.616 141.448 324.616 151.545C324.604 152.686 324.688 153.826 324.866 154.953L425.666 154.954Z" fill="#DEEFFF"/>
<path d="M734.296 32.9541C734.383 32.4451 734.426 31.9296 734.426 31.4131C734.426 26.8481 731.101 23.1461 727 23.1461C726.237 23.1463 725.479 23.2765 724.759 23.5311C724.067 22.0267 722.967 20.7467 721.583 19.8369C720.2 18.9271 718.588 18.4241 716.933 18.3851C716.396 18.3862 715.86 18.4408 715.333 18.5481C714.384 17.2167 713.134 16.1275 711.686 15.369C710.237 14.6105 708.63 14.2039 706.995 14.1821C701.968 14.1821 697.732 17.9961 696.525 23.1671C696.368 23.1561 696.207 23.1461 696.047 23.1461C691.947 23.1461 688.621 26.8461 688.621 31.4131C688.616 31.9291 688.654 32.4445 688.734 32.9541H734.296Z" fill="#DEEFFF"/>
<path d="M129.296 290.954C129.383 290.445 129.426 289.93 129.426 289.413C129.426 284.848 126.101 281.146 122 281.146C121.237 281.146 120.479 281.276 119.759 281.531C119.067 280.027 117.967 278.747 116.583 277.837C115.2 276.927 113.588 276.424 111.933 276.385C111.396 276.386 110.86 276.441 110.333 276.548C109.384 275.217 108.134 274.128 106.686 273.369C105.237 272.61 103.63 272.204 101.995 272.182C96.968 272.182 92.732 275.996 91.525 281.167C91.368 281.156 91.207 281.146 91.047 281.146C86.947 281.146 83.621 284.846 83.621 289.413C83.6156 289.929 83.6535 290.445 83.734 290.954H129.296Z" fill="#DEEFFF"/>
<path d="M757.296 334.954C757.383 334.445 757.426 333.93 757.426 333.413C757.426 328.848 754.101 325.146 750 325.146C749.237 325.146 748.479 325.276 747.759 325.531C747.067 324.027 745.967 322.747 744.583 321.837C743.2 320.927 741.588 320.424 739.933 320.385C739.396 320.386 738.86 320.441 738.333 320.548C737.384 319.217 736.134 318.128 734.686 317.369C733.237 316.61 731.63 316.204 729.995 316.182C724.968 316.182 720.732 319.996 719.525 325.167C719.368 325.156 719.207 325.146 719.047 325.146C714.947 325.146 711.621 328.846 711.621 333.413C711.616 333.929 711.654 334.445 711.734 334.954H757.296Z" fill="#DEEFFF"/>
<path d="M855.763 538.074V569.454L850.081 569.455C850.084 569.361 850.086 569.268 850.086 569.175C850.086 564.39 846.194 560.499 841.41 560.499C836.625 560.499 832.734 564.39 832.734 569.175C832.734 569.268 832.735 569.362 832.738 569.456L806.583 569.455C806.586 569.361 806.587 569.268 806.587 569.175C806.587 564.39 802.695 560.499 797.911 560.499C793.126 560.499 789.235 564.39 789.235 569.175C789.235 569.268 789.236 569.361 789.239 569.455H781V566.073C781 561.617 781.872 557.296 783.593 553.229C785.255 549.299 787.634 545.77 790.666 542.739C793.697 539.707 797.226 537.328 801.155 535.666C805.223 533.946 809.544 533.073 814 533.073H850.763C853.519 533.073 855.763 535.317 855.763 538.074Z" fill="white" stroke="#FF0000"/>
<path d="M849.549 569.955L849.565 569.955L849.581 569.45M849.549 569.955L849.582 569.439L849.581 569.45M849.549 569.955C849.565 569.787 849.576 569.619 849.581 569.45M849.549 569.955L849.581 569.45M833.254 569.956L833.238 569.448C833.244 569.617 833.255 569.787 833.271 569.956H833.254ZM806.066 569.955H806.05C806.066 569.788 806.077 569.62 806.082 569.452L806.066 569.955ZM789.739 569.447C789.745 569.616 789.756 569.786 789.772 569.955H789.756L789.739 569.447Z" fill="#FF0000" stroke="#FF0000"/>
<path d="M797.911 575.072C801.168 575.072 803.808 572.432 803.808 569.175C803.808 565.918 801.168 563.278 797.911 563.278C794.654 563.278 792.014 565.918 792.014 569.175C792.014 572.432 794.654 575.072 797.911 575.072Z" stroke="#FF0000"/>
<path d="M841.41 575.072C844.667 575.072 847.307 572.432 847.307 569.175C847.307 565.918 844.667 563.278 841.41 563.278C838.153 563.278 835.513 565.918 835.513 569.175C835.513 572.432 838.153 575.072 841.41 575.072Z" stroke="#FF0000"/>
<path d="M817.264 526.176H819.499C820.427 526.176 821.317 526.545 821.974 527.201C822.63 527.858 822.999 528.748 822.999 529.676V532.352C822.999 532.485 822.946 532.612 822.853 532.706C822.759 532.8 822.632 532.852 822.499 532.852H814.264C814.131 532.852 814.004 532.8 813.91 532.706C813.817 532.612 813.764 532.485 813.764 532.352V529.676C813.764 528.748 814.133 527.858 814.789 527.201C815.445 526.545 816.336 526.176 817.264 526.176V526.176Z" stroke="#FF0000"/>
<path d="M818.381 518V523.117" stroke="#FF0000" stroke-linecap="round"/>
<path d="M829.146 522.588L825.528 526.206" stroke="#FF0000" stroke-linecap="round"/>
<path d="M807.616 522.588L811.234 526.206" stroke="#FF0000" stroke-linecap="round"/>
</svg>
