<svg width="1508" height="634" viewBox="0 0 1508 634" fill="none" xmlns="http://www.w3.org/2000/svg">
<path d="M815.68 252.458H871.087V209.768H926.494V252.458H969.752V307.864H926.494V349.59H871.087V307.864H815.68" stroke="white" stroke-width="8"/>
<path d="M1051 163H816V398H1051V163Z" fill="#FF0000" fill-opacity="0.2"/>
<path d="M814 251H1028V310H814V251Z" fill="white"/>
<path d="M962.875 186.5L962.875 374.5L904.125 374.5L904.125 186.5L962.875 186.5Z" fill="white"/>
<g opacity="0.5">
<path d="M66.459 598.549C75.575 598.549 82.965 597.25 82.965 595.648C82.965 594.046 75.575 592.747 66.459 592.747C57.343 592.747 49.953 594.046 49.953 595.648C49.953 597.25 57.343 598.549 66.459 598.549Z" stroke="black"/>
<path d="M65.872 529.308C62.6528 529.309 59.5655 530.587 57.2883 532.862C55.0111 535.138 53.7302 538.224 53.727 541.443V554.12C53.727 557.206 54.9017 560.176 57.0125 562.426C59.1233 564.677 62.0118 566.039 65.091 566.237V594.811H67V566.211C70.0132 565.93 72.8131 564.534 74.8514 562.298C76.8897 560.061 78.0196 557.143 78.02 554.117V541.445C78.0171 538.225 76.7359 535.138 74.458 532.862C72.1801 530.586 69.0919 529.308 65.872 529.308Z" stroke="black" stroke-miterlimit="10"/>
<path d="M74.233 532.481L66.459 536.368" stroke="black"/>
<path d="M77.149 536.369L64.516 542.2" stroke="black"/>
<path d="M78.121 540.256L70.347 544.143" stroke="black"/>
<path d="M78.121 545.115L65.488 549.974" stroke="black"/>
<path d="M78.121 549.974L70.347 553.861" stroke="black"/>
<path d="M78.121 554.833L66.459 560.664" stroke="black"/>
<path d="M22.729 597.577C33.4555 597.577 42.151 596.061 42.151 594.19C42.151 592.319 33.4555 590.803 22.729 590.803C12.0025 590.803 3.30701 592.319 3.30701 594.19C3.30701 596.061 12.0025 597.577 22.729 597.577Z" stroke="black"/>
<path d="M22.983 473.013C17.0208 473.013 11.3029 475.382 7.08677 479.598C2.87059 483.813 0.501326 489.531 0.5 495.493V518.944C0.500178 524.656 2.67488 530.154 6.58229 534.32C10.4897 538.487 15.8367 541.01 21.537 541.376V594.266H25.07V541.328C30.6459 540.807 35.8264 538.223 39.5975 534.083C43.3685 529.943 45.4584 524.544 45.458 518.944V495.496C45.4575 489.535 43.0899 483.818 38.8758 479.602C34.6617 475.386 28.946 473.016 22.985 473.013H22.983Z" stroke="black" stroke-miterlimit="10"/>
<path d="M36.334 477.089L23.701 480.004" stroke="black"/>
<path d="M42.165 483.891L23.701 488.75" stroke="black"/>
<path d="M45.08 490.694L32.447 493.609" stroke="black"/>
<path d="M45.08 497.496L26.616 502.355" stroke="black"/>
<path d="M45.08 504.299L32.447 507.214" stroke="black"/>
<path d="M45.08 511.102L26.616 515.961" stroke="black"/>
<path d="M45.08 517.904L32.447 520.819" stroke="black"/>
<path d="M45.08 524.707L26.616 529.566" stroke="black"/>
<path d="M42.165 531.509L30.503 535.396" stroke="black"/>
<path d="M983.822 598.549C993.183 598.549 1000.77 597.25 1000.77 595.648C1000.77 594.046 993.183 592.747 983.822 592.747C974.461 592.747 966.873 594.046 966.873 595.648C966.873 597.25 974.461 598.549 983.822 598.549Z" stroke="black"/>
<path d="M984.425 529.308C987.687 529.266 990.832 530.52 993.169 532.796C995.507 535.071 996.845 538.181 996.891 541.443V554.12C996.854 557.244 995.627 560.237 993.461 562.488C991.295 564.739 988.351 566.08 985.231 566.237V594.811H983.272V566.211C980.218 565.97 977.364 564.596 975.272 562.358C973.18 560.12 972 557.18 971.965 554.117V541.445C972.01 538.184 973.348 535.074 975.684 532.799C978.02 530.523 981.164 529.268 984.425 529.308V529.308Z" stroke="black" stroke-miterlimit="10"/>
<path d="M975.845 532.481L983.822 536.368" stroke="black"/>
<path d="M972.854 536.369L985.816 542.2" stroke="black"/>
<path d="M971.857 540.256L979.834 544.143" stroke="black"/>
<path d="M971.857 545.115L984.819 549.974" stroke="black"/>
<path d="M971.857 549.974L979.834 553.861" stroke="black"/>
<path d="M971.857 554.833L983.822 560.664" stroke="black"/>
<path d="M1028.69 597.577C1039.71 597.577 1048.63 596.061 1048.63 594.19C1048.63 592.319 1039.71 590.803 1028.69 590.803C1017.68 590.803 1008.75 592.319 1008.75 594.19C1008.75 596.061 1017.68 597.577 1028.69 597.577Z" stroke="black"/>
<path d="M1028.43 473.013C1041.17 473.013 1051.5 483.077 1051.5 495.493V518.944C1051.43 524.727 1049.16 530.267 1045.15 534.435C1041.14 538.602 1035.69 541.085 1029.92 541.376V594.266H1026.29V541.328C1020.64 540.881 1015.36 538.336 1011.49 534.195C1007.61 530.053 1005.43 524.613 1005.37 518.944V495.496C1005.37 483.084 1015.69 473.019 1028.43 473.013H1028.43Z" stroke="black" stroke-miterlimit="10"/>
<path d="M1014.73 477.089L1027.7 480.004" stroke="black"/>
<path d="M1008.75 483.891L1027.69 488.75" stroke="black"/>
<path d="M1005.76 490.694L1018.72 493.609" stroke="black"/>
<path d="M1005.76 497.496L1024.7 502.355" stroke="black"/>
<path d="M1005.76 504.299L1018.72 507.214" stroke="black"/>
<path d="M1005.76 511.102L1024.7 515.961" stroke="black"/>
<path d="M1005.76 517.904L1018.72 520.819" stroke="black"/>
<path d="M1005.76 524.707L1024.7 529.566" stroke="black"/>
<path d="M1008.75 531.509L1020.72 535.396" stroke="black"/>
<path d="M662.548 598.815C666.934 598.815 670.489 598.206 670.489 597.456C670.489 596.705 666.934 596.096 662.548 596.096C658.162 596.096 654.607 596.705 654.607 597.456C654.607 598.206 658.162 598.815 662.548 598.815Z" stroke="black"/>
<path d="M662.831 566.375C664.359 566.355 665.832 566.943 666.927 568.009C668.022 569.075 668.65 570.532 668.671 572.06V577.999C668.654 579.463 668.079 580.865 667.064 581.92C666.049 582.975 664.67 583.603 663.208 583.676V597.063H662.29V583.664C660.859 583.551 659.523 582.907 658.542 581.859C657.562 580.81 657.009 579.433 656.993 577.998V572.061C657.014 570.533 657.641 569.076 658.735 568.01C659.83 566.944 661.303 566.356 662.831 566.375V566.375Z" stroke="black" stroke-miterlimit="10"/>
<path d="M658.811 567.861L662.548 569.682" stroke="black"/>
<path d="M657.409 569.683L663.482 572.415" stroke="black"/>
<path d="M656.942 571.504L660.68 573.325" stroke="black"/>
<path d="M656.942 573.781L663.015 576.057" stroke="black"/>
<path d="M656.942 576.057L660.68 577.878" stroke="black"/>
<path d="M656.942 578.333L662.548 581.065" stroke="black"/>
<path d="M683.57 598.359C688.73 598.359 692.913 597.649 692.913 596.772C692.913 595.896 688.73 595.186 683.57 595.186C678.411 595.186 674.228 595.896 674.228 596.772C674.228 597.649 678.411 598.359 683.57 598.359Z" stroke="black"/>
<path d="M683.448 540C689.416 540 694.254 544.715 694.256 550.532V561.519C694.223 564.229 693.16 566.824 691.281 568.777C689.402 570.729 686.849 571.892 684.143 572.029V596.808H682.444V572.006C679.796 571.797 677.322 570.605 675.509 568.664C673.695 566.724 672.673 564.175 672.643 561.519V550.533C672.643 544.718 677.479 540.003 683.447 540H683.448Z" stroke="black" stroke-miterlimit="10"/>
<path d="M677.03 541.91L683.103 543.275" stroke="black"/>
<path d="M674.227 545.096L683.103 547.373" stroke="black"/>
<path d="M672.826 548.284L678.899 549.649" stroke="black"/>
<path d="M672.826 551.47L681.702 553.747" stroke="black"/>
<path d="M672.826 554.658L678.899 556.023" stroke="black"/>
<path d="M672.826 557.845L681.702 560.121" stroke="black"/>
<path d="M672.826 561.032L678.899 562.398" stroke="black"/>
<path d="M672.826 564.219L681.702 566.496" stroke="black"/>
<path d="M674.227 567.406L679.833 569.227" stroke="black"/>
<path d="M1053.38 632.825H1012.4" stroke="black"/>
<path d="M1158.38 631.825H1117.4" stroke="black"/>
<path d="M1263.38 631.825H1222.4" stroke="black"/>
<path d="M1368.38 631.825H1327.4" stroke="black"/>
<path d="M1473.38 631.825H1432.4" stroke="black"/>
<path d="M738.38 632.825H697.398" stroke="black"/>
<path d="M423.38 632.825H382.398" stroke="black"/>
<path d="M948.38 632.825H907.398" stroke="black"/>
<path d="M633.38 632.825H592.398" stroke="black"/>
<path d="M318.38 632.825H277.398" stroke="black"/>
<path d="M843.38 632.825H802.398" stroke="black"/>
<path d="M528.38 632.825H487.398" stroke="black"/>
<path d="M528.38 632.825H487.398" stroke="black"/>
<path d="M213.38 632.825H172.398" stroke="black"/>
<path d="M108.38 632.825H67.398" stroke="black"/>
<path d="M120.904 599.346L101.217 612.407H2.155" stroke="black"/>
<path d="M387.68 599.049L418.742 612.407H1507.68" stroke="black"/>
<path d="M524.672 174.895L564.483 108.544L604.294 174.895H524.672Z" stroke="black"/>
<path d="M522.575 178.444H606.275V209.769H522.575V178.444Z" stroke="black"/>
<path d="M508.625 388.392H620.225V596.792H508.625V388.392Z" fill="white" stroke="black"/>
<path d="M508.625 262.082H620.225V293.407H508.625V262.082Z" stroke="black"/>
<path d="M494.675 297.019H634.175V384.145H494.675V297.019Z" stroke="black"/>
<path d="M536.525 314.395H592.325V366.77H536.525V314.395Z" stroke="black"/>
<path d="M526.162 213.257L508.63 258.595H620.23L601.274 213.257H526.162Z" stroke="black"/>
<path d="M522.58 266.965V288.588" stroke="black"/>
<path d="M564.43 266.965V288.588" stroke="black"/>
<path d="M536.53 266.965V288.588" stroke="black"/>
<path d="M578.38 266.965V288.588" stroke="black"/>
<path d="M550.48 266.965V288.588" stroke="black"/>
<path d="M592.33 266.965V288.588" stroke="black"/>
<path d="M606.28 266.965V288.588" stroke="black"/>
<path d="M620.23 239.679V258.595" stroke="black"/>
<path d="M634.18 278.041V296.957" stroke="black"/>
<path d="M494.68 278.041V296.957" stroke="black"/>
<path d="M508.63 239.679V258.595" stroke="black"/>
<path d="M522.58 167.2V178.382" stroke="black"/>
<path d="M564.763 56.936V109.273" stroke="black"/>
<path d="M606.28 167.2V178.382" stroke="black"/>
<path opacity="0.39" d="M564.082 364.615C577.372 364.615 588.146 353.841 588.146 340.551C588.146 327.261 577.372 316.487 564.082 316.487C550.792 316.487 540.018 327.261 540.018 340.551C540.018 353.841 550.792 364.615 564.082 364.615Z" fill="white"/>
<path d="M564.082 364.115C577.096 364.115 587.646 353.565 587.646 340.551C587.646 327.537 577.096 316.987 564.082 316.987C551.068 316.987 540.518 327.537 540.518 340.551C540.518 353.565 551.068 364.115 564.082 364.115Z" stroke="black"/>
<path d="M564.43 320.625V342.295L573.457 351.895" stroke="black"/>
<path d="M536.53 398.095V582.844" stroke="black"/>
<path d="M564.43 398.095V582.844" stroke="black"/>
<path d="M592.33 398.095V582.844" stroke="black"/>
<path opacity="0.39" d="M564.687 57.386C566.174 57.386 567.38 56.1803 567.38 54.693C567.38 53.2057 566.174 52 564.687 52C563.2 52 561.994 53.2057 561.994 54.693C561.994 56.1803 563.2 57.386 564.687 57.386Z" fill="white"/>
<path d="M564.687 56.886C565.898 56.886 566.88 55.9042 566.88 54.693C566.88 53.4818 565.898 52.5 564.687 52.5C563.476 52.5 562.494 53.4818 562.494 54.693C562.494 55.9042 563.476 56.886 564.687 56.886Z" stroke="black"/>
<path d="M557.955 65.9121H571.418" stroke="black" stroke-linecap="round"/>
<path d="M559.75 100.915H569.623" stroke="black" stroke-linecap="round"/>
<path d="M253.802 598.346V414.377H225.046H224.046V413.377V399.5H151.659V413.377V414.377H150.659H121.904V598.346H253.802ZM254.802 599.346H120.904V413.377H150.659V398.5H225.046V413.377H254.802V599.346Z" fill="black"/>
<path d="M387.456 480.826H254.558V598.846H387.456V480.826Z" stroke="black"/>
<path d="M172.475 428.755H151.159V464.949H172.475V428.755Z" stroke="black"/>
<path d="M172.475 480.826H151.159V517.02H172.475V480.826Z" stroke="black"/>
<path d="M172.475 532.898H151.159V569.092H172.475V532.898Z" stroke="black"/>
<path d="M224.546 428.755H203.23V464.949H224.546V428.755Z" stroke="black"/>
<path d="M306.373 495.704H285.057V531.898H306.373V495.704Z" stroke="black"/>
<path d="M306.373 547.775H285.057V583.969H306.373V547.775Z" stroke="black"/>
<path d="M358.444 495.704H337.128V531.898H358.444V495.704Z" stroke="black"/>
<path d="M358.444 547.775H337.128V583.969H358.444V547.775Z" stroke="black"/>
<path d="M224.546 480.826H203.23V517.02H224.546V480.826Z" stroke="black"/>
<path d="M224.546 532.898H203.23V569.092H224.546V532.898Z" stroke="black"/>
<path opacity="0.39" d="M270.68 576H237.68V599H270.68V576Z" fill="white"/>
<path d="M270.18 576.5H238.18V598.5H270.18V576.5Z" stroke="black"/>
<path d="M257.563 587.039V592.453" stroke="black" stroke-linecap="round"/>
<path d="M251.563 587.039V592.453" stroke="black" stroke-linecap="round"/>
</g>
<path d="M164.93 406.041H162.266L162.274 410.585H160.986V404.985H164.938L164.93 406.041ZM167.83 410.681C167.249 410.681 166.723 410.556 166.254 410.305C165.79 410.054 165.425 409.71 165.158 409.273C164.897 408.83 164.766 408.334 164.766 407.785C164.766 407.236 164.897 406.742 165.158 406.305C165.425 405.862 165.79 405.516 166.254 405.265C166.723 405.014 167.249 404.889 167.83 404.889C168.411 404.889 168.934 405.014 169.398 405.265C169.862 405.516 170.227 405.862 170.494 406.305C170.761 406.742 170.894 407.236 170.894 407.785C170.894 408.334 170.761 408.83 170.494 409.273C170.227 409.71 169.862 410.054 169.398 410.305C168.934 410.556 168.411 410.681 167.83 410.681ZM167.83 409.577C168.161 409.577 168.459 409.502 168.726 409.353C168.993 409.198 169.201 408.985 169.35 408.713C169.505 408.441 169.582 408.132 169.582 407.785C169.582 407.438 169.505 407.129 169.35 406.857C169.201 406.585 168.993 406.374 168.726 406.225C168.459 406.07 168.161 405.993 167.83 405.993C167.499 405.993 167.201 406.07 166.934 406.225C166.667 406.374 166.457 406.585 166.302 406.857C166.153 407.129 166.078 407.438 166.078 407.785C166.078 408.132 166.153 408.441 166.302 408.713C166.457 408.985 166.667 409.198 166.934 409.353C167.201 409.502 167.499 409.577 167.83 409.577ZM174.54 410.681C173.97 410.681 173.452 410.558 172.988 410.313C172.53 410.062 172.167 409.718 171.9 409.281C171.639 408.838 171.508 408.34 171.508 407.785C171.508 407.23 171.639 406.734 171.9 406.297C172.167 405.854 172.53 405.51 172.988 405.265C173.452 405.014 173.972 404.889 174.548 404.889C175.034 404.889 175.471 404.974 175.86 405.145C176.255 405.316 176.586 405.561 176.852 405.881L176.02 406.649C175.642 406.212 175.172 405.993 174.612 405.993C174.266 405.993 173.956 406.07 173.684 406.225C173.412 406.374 173.199 406.585 173.044 406.857C172.895 407.129 172.82 407.438 172.82 407.785C172.82 408.132 172.895 408.441 173.044 408.713C173.199 408.985 173.412 409.198 173.684 409.353C173.956 409.502 174.266 409.577 174.612 409.577C175.172 409.577 175.642 409.356 176.02 408.913L176.852 409.681C176.586 410.006 176.255 410.254 175.86 410.425C175.466 410.596 175.026 410.681 174.54 410.681ZM182.801 404.985V410.585H181.513V406.041H178.985V410.585H177.697V404.985H182.801ZM184.189 404.985H185.477V408.633L188.149 404.985H189.365V410.585H188.085V406.945L185.413 410.585H184.189V404.985ZM195.039 406.041H193.247V410.585H191.967V406.041H190.183V404.985H195.039V406.041ZM199.364 409.385H196.764L196.268 410.585H194.94L197.436 404.985H198.716L201.22 410.585H199.86L199.364 409.385ZM198.956 408.401L198.068 406.257L197.18 408.401H198.956ZM207.001 404.985V410.585H205.721V406.041H203.801L203.761 407.209C203.735 408.004 203.671 408.649 203.569 409.145C203.468 409.636 203.297 410.014 203.057 410.281C202.823 410.542 202.492 410.673 202.065 410.673C201.889 410.673 201.676 410.644 201.425 410.585L201.505 409.489C201.575 409.51 201.652 409.521 201.737 409.521C202.047 409.521 202.263 409.34 202.385 408.977C202.508 408.609 202.585 408.036 202.617 407.257L202.697 404.985H207.001ZM211.112 406.825C211.795 406.825 212.317 406.977 212.68 407.281C213.048 407.585 213.232 408.036 213.232 408.633C213.232 409.268 213.029 409.753 212.624 410.089C212.224 410.42 211.659 410.585 210.928 410.585H208.4V404.985H209.688V406.825H211.112ZM210.856 409.625C211.192 409.625 211.453 409.542 211.64 409.377C211.832 409.212 211.928 408.972 211.928 408.657C211.928 408.076 211.571 407.785 210.856 407.785H209.688V409.625H210.856Z" fill="#FF0000"/>
<path opacity="0.39" d="M254.563 574.492V599" stroke="black"/>
<path opacity="0.39" d="M364.18 178.5C364.18 234.833 318.513 280.5 262.18 280.5C205.847 280.5 160.18 234.833 160.18 178.5C160.18 122.167 205.847 76.5 262.18 76.5C318.513 76.5 364.18 122.167 364.18 178.5Z" stroke="#FFEEC2"/>
<path d="M262.18 280.5C318.513 280.5 364.18 234.833 364.18 178.5C364.18 122.167 318.513 76.5 262.18 76.5C205.847 76.5 160.18 122.167 160.18 178.5C160.18 234.833 205.847 280.5 262.18 280.5Z" stroke="#FFEEC2"/>
<path opacity="0.52" d="M394.18 178.5C394.18 251.402 335.082 310.5 262.18 310.5C189.278 310.5 130.18 251.402 130.18 178.5C130.18 105.598 189.278 46.5 262.18 46.5C335.082 46.5 394.18 105.598 394.18 178.5Z" stroke="#FFEEC2"/>
<path d="M262.18 310.5C335.082 310.5 394.18 251.402 394.18 178.5C394.18 105.598 335.082 46.5 262.18 46.5C189.278 46.5 130.18 105.598 130.18 178.5C130.18 251.402 189.278 310.5 262.18 310.5Z" stroke="#FFEEC2"/>
<path opacity="0.3" d="M440.18 178.5C440.18 276.807 360.487 356.5 262.18 356.5C163.873 356.5 84.18 276.807 84.18 178.5C84.18 80.1933 163.873 0.5 262.18 0.5C360.487 0.5 440.18 80.1933 440.18 178.5Z" stroke="#FFEEC2"/>
<path d="M262.18 356.5C360.487 356.5 440.18 276.807 440.18 178.5C440.18 80.1933 360.487 0.5 262.18 0.5C163.873 0.5 84.18 80.1933 84.18 178.5C84.18 276.807 163.873 356.5 262.18 356.5Z" stroke="#FFEEC2"/>
<path d="M425.666 206.954C425.858 205.828 425.954 204.688 425.953 203.546C425.953 193.446 418.599 185.26 409.527 185.26C407.838 185.26 406.162 185.548 404.57 186.111C401.203 179.325 394.712 174.727 387.257 174.727C386.065 174.728 384.875 174.849 383.707 175.087C381.607 172.142 378.843 169.732 375.639 168.055C372.434 166.377 368.88 165.477 365.263 165.429C354.143 165.429 344.772 173.866 342.102 185.305C341.754 185.28 341.402 185.259 341.044 185.259C331.973 185.259 324.616 193.448 324.616 203.545C324.604 204.686 324.688 205.826 324.866 206.953L425.666 206.954Z" fill="#DEEFFF"/>
<path d="M734.296 84.9541C734.383 84.4451 734.426 83.9296 734.426 83.4131C734.426 78.8481 731.101 75.1461 727 75.1461C726.237 75.1463 725.479 75.2765 724.759 75.5311C724.067 74.0267 722.967 72.7467 721.583 71.8369C720.2 70.9271 718.588 70.4241 716.933 70.3851C716.396 70.3862 715.86 70.4408 715.333 70.5481C714.384 69.2167 713.134 68.1275 711.686 67.369C710.237 66.6105 708.63 66.2039 706.995 66.1821C701.968 66.1821 697.732 69.9961 696.525 75.1671C696.368 75.1561 696.207 75.1461 696.047 75.1461C691.947 75.1461 688.621 78.8461 688.621 83.4131C688.616 83.9291 688.654 84.4445 688.734 84.9541H734.296Z" fill="#DEEFFF"/>
<path d="M129.296 342.954C129.383 342.445 129.426 341.93 129.426 341.413C129.426 336.848 126.101 333.146 122 333.146C121.237 333.146 120.479 333.276 119.759 333.531C119.067 332.027 117.967 330.747 116.583 329.837C115.2 328.927 113.588 328.424 111.933 328.385C111.396 328.386 110.86 328.441 110.333 328.548C109.384 327.217 108.134 326.128 106.686 325.369C105.237 324.61 103.63 324.204 101.995 324.182C96.968 324.182 92.732 327.996 91.525 333.167C91.368 333.156 91.207 333.146 91.047 333.146C86.947 333.146 83.621 336.846 83.621 341.413C83.6156 341.929 83.6535 342.445 83.734 342.954H129.296Z" fill="#DEEFFF"/>
<path d="M757.296 386.954C757.383 386.445 757.426 385.93 757.426 385.413C757.426 380.848 754.101 377.146 750 377.146C749.237 377.146 748.479 377.276 747.759 377.531C747.067 376.027 745.967 374.747 744.583 373.837C743.2 372.927 741.588 372.424 739.933 372.385C739.396 372.386 738.86 372.441 738.333 372.548C737.384 371.217 736.134 370.128 734.686 369.369C733.237 368.61 731.63 368.204 729.995 368.182C724.968 368.182 720.732 371.996 719.525 377.167C719.368 377.156 719.207 377.146 719.047 377.146C714.947 377.146 711.621 380.846 711.621 385.413C711.616 385.929 711.654 386.445 711.734 386.954H757.296Z" fill="#DEEFFF"/>
<path d="M833.271 621.956L806.05 621.954C806.075 621.696 806.087 621.435 806.087 621.175C806.087 616.666 802.419 612.999 797.911 612.999C793.403 612.999 789.735 616.666 789.735 621.175C789.735 621.435 789.747 621.696 789.772 621.954H780.5V618.073C780.5 613.551 781.386 609.163 783.132 605.034C784.82 601.045 787.235 597.462 790.312 594.385C793.389 591.308 796.972 588.893 800.961 587.205C805.09 585.459 809.478 584.573 814 584.573H850.763C853.795 584.573 856.263 587.04 856.263 590.073V621.953L849.549 621.954C849.573 621.695 849.586 621.435 849.586 621.175C849.586 616.666 845.918 612.999 841.41 612.999C836.901 612.999 833.234 616.666 833.234 621.175C833.234 621.435 833.246 621.696 833.271 621.956Z" fill="white"/>
<path d="M832.738 621.456C832.735 621.362 832.734 621.268 832.734 621.175C832.734 616.391 836.626 612.498 841.41 612.498C846.194 612.498 850.086 616.391 850.086 621.175C850.086 621.268 850.084 621.361 850.081 621.454L855.763 621.454V590.073C855.763 587.316 853.52 585.073 850.763 585.073H814C809.545 585.073 805.223 585.945 801.155 587.666C797.226 589.328 793.697 591.708 790.666 594.739C787.635 597.77 785.255 601.299 783.593 605.228C781.872 609.296 781 613.618 781 618.073V621.454H789.239C789.236 621.361 789.235 621.268 789.235 621.175C789.235 616.391 793.127 612.498 797.911 612.498C802.695 612.498 806.587 616.391 806.587 621.175C806.587 621.268 806.586 621.361 806.583 621.454L832.738 621.456ZM833.84 622.456H833.839L805.481 622.454C805.551 622.036 805.587 621.606 805.587 621.175C805.587 616.942 802.144 613.498 797.911 613.498C793.678 613.498 790.235 616.942 790.235 621.175C790.235 621.604 790.271 622.034 790.341 622.454H780V618.073C780 613.483 780.899 609.031 782.672 604.839C784.384 600.79 786.836 597.154 789.958 594.031C793.081 590.909 796.717 588.457 800.766 586.745C804.958 584.972 809.41 584.073 814 584.073H850.763C854.071 584.073 856.763 586.765 856.763 590.073V622.453L848.98 622.454C849.05 622.036 849.086 621.606 849.086 621.175C849.086 616.942 845.642 613.498 841.41 613.498C837.177 613.498 833.734 616.942 833.734 621.175C833.734 621.604 833.769 622.034 833.84 622.454L833.84 622.456Z" fill="#FF0000"/>
<path d="M797.911 627.072C801.168 627.072 803.808 624.432 803.808 621.175C803.808 617.918 801.168 615.278 797.911 615.278C794.654 615.278 792.014 617.918 792.014 621.175C792.014 624.432 794.654 627.072 797.911 627.072Z" stroke="#FF0000"/>
<path d="M841.41 627.072C844.667 627.072 847.307 624.432 847.307 621.175C847.307 617.918 844.667 615.278 841.41 615.278C838.153 615.278 835.513 617.918 835.513 621.175C835.513 624.432 838.153 627.072 841.41 627.072Z" stroke="#FF0000"/>
<path d="M817.264 578.176H819.499C820.427 578.176 821.317 578.545 821.974 579.201C822.63 579.858 822.999 580.748 822.999 581.676V584.352C822.999 584.485 822.946 584.612 822.853 584.706C822.759 584.799 822.632 584.852 822.499 584.852H814.264C814.131 584.852 814.004 584.799 813.91 584.706C813.817 584.612 813.764 584.485 813.764 584.352V581.676C813.764 580.748 814.133 579.858 814.789 579.201C815.445 578.545 816.336 578.176 817.264 578.176V578.176Z" stroke="#FF0000"/>
<path d="M818.381 570V575.117" stroke="#FF0000" stroke-linecap="round"/>
<path d="M829.146 574.588L825.528 578.206" stroke="#FF0000" stroke-linecap="round"/>
<path d="M807.616 574.588L811.234 578.206" stroke="#FF0000" stroke-linecap="round"/>
</svg>
