<svg width="12" height="19" viewBox="0 0 12 19" fill="none" xmlns="http://www.w3.org/2000/svg">
<path opacity="0.6" d="M5.98565 9.82407C3.05039 9.82407 0.610748 7.59534 0.610748 4.95811C0.610748 2.22968 3.05039 0 5.98669 0C9.02274 0 11.3616 2.22873 11.3616 4.95811C11.3564 6.25303 10.789 7.49306 9.78428 8.40568C8.77953 9.31829 7.41957 9.82881 6.00332 9.82502L5.98565 9.82407ZM5.98565 2.86619C4.74297 2.86619 3.79746 3.82095 3.79746 4.95906C3.79746 6.09528 4.74297 6.95979 5.98669 6.95979C7.28029 6.95979 8.17593 6.09528 8.17593 4.95906C8.17697 3.82 7.28029 2.86619 5.98565 2.86619ZM8.12606 13.873L11.1631 16.5568C11.7606 17.1468 11.7606 18.0113 11.1631 18.5575C10.5169 19.1475 9.52044 19.1475 9.02274 18.5575L5.98669 15.8281L3.05039 18.5575C2.75219 18.8302 2.3532 18.966 1.90434 18.966C1.55627 18.966 1.15832 18.8292 0.809203 18.5575C0.21176 18.0113 0.21176 17.1468 0.809203 16.5559L3.89512 13.8721C2.78069 13.5703 1.71164 13.143 0.712572 12.6C-0.0344908 12.2362 -0.183072 11.327 0.214877 10.6439C0.712573 9.96182 1.60822 9.78037 2.40515 10.2354C3.48429 10.8376 4.72404 11.1561 5.98825 11.1561C7.25246 11.1561 8.49222 10.8376 9.57135 10.2354C10.3683 9.78037 11.3128 9.96182 11.7606 10.6439C12.2094 11.327 12.0089 12.2352 11.3117 12.6C10.3672 13.1463 9.27211 13.5557 8.1271 13.874L8.12606 13.873Z" fill="#4A4A4A"/>
</svg>
