<svg xmlns="http://www.w3.org/2000/svg" xmlns:xlink="http://www.w3.org/1999/xlink" width="647" height="476.128" viewBox="0 0 647 476.128">
  <defs>
    <linearGradient id="linear-gradient" x1="0.5" y1="1" x2="0.5" gradientUnits="objectBoundingBox">
      <stop offset="0" stop-color="gray" stop-opacity="0.251"/>
      <stop offset="0.54" stop-color="gray" stop-opacity="0.122"/>
      <stop offset="1" stop-color="gray" stop-opacity="0.102"/>
    </linearGradient>
  </defs>
  <g id="undraw_youtube_tutorial_2gn3" transform="translate(-0.001 -0.005)">
    <path id="Path_448" data-name="Path 448" d="M410.92,105.617c-41.477-1.437-80.985-14.835-118.706-29.482S217.12,45.256,176.639,37.492c-26.041-4.993-55.82-5.686-76.8,8.262C79.644,59.186,73.122,82.4,69.618,103.9c-2.64,16.192-4.191,33.209,3.035,48.388,5.021,10.518,13.937,19.365,20.1,29.442,21.443,35.076,6.3,78.323-16.96,112.563-10.879,16.066-23.55,31.389-31.961,48.491s-12.3,36.691-4.947,54.131c7.3,17.292,24.684,30.278,43.516,39.41,38.254,18.551,83.333,23.865,127.289,26.871,97.309,6.63,195.134,3.768,292.7.9,36.107-1.071,72.368-2.153,107.891-7.736,19.719-3.1,40.08-8.016,54.395-19.9,18.179-15.082,22.685-40.619,10.5-59.548-20.43-31.715-76.926-39.594-91.206-73.633-7.861-18.735.212-39.605,11.635-56.983,24.506-37.28,65.583-69.98,67.747-112.591,1.489-29.264-18.259-58.575-48.789-72.419-32.007-14.515-76.382-12.688-99.995,11.337C490.267,97.372,447.542,106.888,410.92,105.617Z" transform="translate(-35 -34.22)" fill="#6c63ff" opacity="0.1"/>
    <path id="Path_449" data-name="Path 449" d="M580.832,717.422,469.18,715.99l.326-2.863,5.4-47.237h98.054l7.215,47.237.55,3.579Z" transform="translate(-200.538 -284.615)" fill="#d0d2d5"/>
    <path id="Path_450" data-name="Path 450" d="M580.724,751.969H525.006l-55.826-.716.326-2.863H580.174Z" transform="translate(-200.538 -319.878)" opacity="0.1"/>
    <rect id="Rectangle_206" data-name="Rectangle 206" width="148.154" height="3.579" transform="translate(250.033 429.228)" fill="#d0d2d5"/>
    <path id="Path_451" data-name="Path 451" d="M654.595,197.6a9.316,9.316,0,0,0-9.27-9.362H231.576A9.316,9.316,0,0,0,222.3,197.6V448.39h432.3Z" transform="translate(-115.056 -100.05)" fill="#444053"/>
    <path id="Path_452" data-name="Path 452" d="M222.3,638.24v29.373a9.276,9.276,0,0,0,9.276,9.276H645.325a9.276,9.276,0,0,0,9.27-9.276V638.24Z" transform="translate(-115.056 -292.39)" fill="#d0d2d5"/>
    <rect id="Rectangle_207" data-name="Rectangle 207" width="398.656" height="225.452" transform="translate(125.137 103.936)" fill="#4a4a4a" opacity="0.1"/>
    <path id="Path_453" data-name="Path 453" d="M596.355,671.881a9.671,9.671,0,0,0,7.6-3.687h0a9.861,9.861,0,0,0,.75-1.105l-5.3-.87,5.726.046a9.648,9.648,0,0,0,.183-7.661l-7.69,4.008,7.094-5.21a9.659,9.659,0,1,0-15.958,10.81h0A9.66,9.66,0,0,0,596.355,671.881Z" transform="translate(-270.816 -298.531)" fill="#ec231a"/>
    <path id="Path_454" data-name="Path 454" d="M585.43,671.52l44.541,44.73-6.831-44.73Z" transform="translate(-250.226 -287.021)" opacity="0.1"/>
    <rect id="Rectangle_208" data-name="Rectangle 208" width="261.667" height="156.886" rx="2.6" transform="translate(136.846 144.612)" fill="#fff"/>
    <rect id="Rectangle_209" data-name="Rectangle 209" width="398.513" height="13.169" transform="translate(125.395 103.959)" fill="#fff"/>
    <rect id="Rectangle_210" data-name="Rectangle 210" width="11.452" height="8.016" rx="0.78" transform="translate(127.112 106.249)" fill="#6c63ff"/>
    <rect id="Rectangle_211" data-name="Rectangle 211" width="120.241" height="8.016" rx="0.58" transform="translate(263.385 106.249)" fill="#6c63ff" opacity="0.3"/>
    <path id="Path_455" data-name="Path 455" d="M695.359,225.232h-.292l-.109-.092a2.434,2.434,0,0,0,.573-1.557,2.37,2.37,0,1,0-2.365,2.388,2.445,2.445,0,0,0,1.557-.573l.109.092v.3l1.832,1.832.573-.573Zm-2.2,0a1.655,1.655,0,1,1,1.649-1.649,1.638,1.638,0,0,1-1.649,1.649Z" transform="translate(-315.3 -114.15)" fill="#444053"/>
    <circle id="Ellipse_149" data-name="Ellipse 149" cx="4.008" cy="4.008" r="4.008" transform="translate(514.174 106.249)" fill="#6c63ff"/>
    <rect id="Rectangle_212" data-name="Rectangle 212" width="37.217" height="25.193" rx="2.43" transform="translate(417.408 131.443)" fill="#fff"/>
    <rect id="Rectangle_213" data-name="Rectangle 213" width="48.096" height="4.008" rx="0.61" transform="translate(464.36 131.443)" fill="#fff"/>
    <rect id="Rectangle_214" data-name="Rectangle 214" width="48.096" height="4.008" rx="0.61" transform="translate(464.36 140.031)" fill="#fff"/>
    <rect id="Rectangle_215" data-name="Rectangle 215" width="48.096" height="4.008" rx="0.61" transform="translate(464.36 148.62)" fill="#fff"/>
    <rect id="Rectangle_216" data-name="Rectangle 216" width="37.217" height="25.193" rx="2.43" transform="translate(417.408 170.951)" fill="#fff"/>
    <rect id="Rectangle_217" data-name="Rectangle 217" width="48.096" height="4.008" rx="0.61" transform="translate(464.36 170.951)" fill="#fff"/>
    <rect id="Rectangle_218" data-name="Rectangle 218" width="48.096" height="4.008" rx="0.61" transform="translate(464.36 179.539)" fill="#fff"/>
    <rect id="Rectangle_219" data-name="Rectangle 219" width="48.096" height="4.008" rx="0.66" transform="translate(464.36 188.128)" fill="#fff"/>
    <rect id="Rectangle_220" data-name="Rectangle 220" width="37.217" height="25.193" rx="2.43" transform="translate(417.408 210.458)" fill="#fff"/>
    <rect id="Rectangle_221" data-name="Rectangle 221" width="48.096" height="4.008" rx="0.66" transform="translate(464.36 210.458)" fill="#fff"/>
    <rect id="Rectangle_222" data-name="Rectangle 222" width="48.096" height="4.008" rx="0.66" transform="translate(464.36 219.047)" fill="#fff"/>
    <rect id="Rectangle_223" data-name="Rectangle 223" width="48.096" height="4.008" rx="0.66" transform="translate(464.36 227.636)" fill="#fff"/>
    <rect id="Rectangle_224" data-name="Rectangle 224" width="37.217" height="25.193" rx="2.43" transform="translate(417.408 249.966)" fill="#fff"/>
    <rect id="Rectangle_225" data-name="Rectangle 225" width="48.096" height="4.008" rx="0.66" transform="translate(464.36 249.966)" fill="#fff"/>
    <rect id="Rectangle_226" data-name="Rectangle 226" width="48.096" height="4.008" rx="0.66" transform="translate(464.36 258.555)" fill="#fff"/>
    <rect id="Rectangle_227" data-name="Rectangle 227" width="48.096" height="4.008" rx="0.66" transform="translate(464.36 267.143)" fill="#fff"/>
    <rect id="Rectangle_228" data-name="Rectangle 228" width="37.217" height="25.193" rx="2.43" transform="translate(417.408 289.474)" fill="#fff"/>
    <rect id="Rectangle_229" data-name="Rectangle 229" width="48.096" height="4.008" rx="0.66" transform="translate(464.36 289.474)" fill="#fff"/>
    <rect id="Rectangle_230" data-name="Rectangle 230" width="48.096" height="4.008" rx="0.66" transform="translate(464.36 298.062)" fill="#fff"/>
    <rect id="Rectangle_231" data-name="Rectangle 231" width="48.096" height="4.008" rx="0.66" transform="translate(464.36 306.651)" fill="#fff"/>
    <rect id="Rectangle_232" data-name="Rectangle 232" width="58.878" height="3.052" transform="translate(174.59 186.187)" fill="#6c63ff" opacity="0.1"/>
    <rect id="Rectangle_233" data-name="Rectangle 233" width="5.669" height="16.135" transform="translate(179.824 170.052)" fill="#6c63ff" opacity="0.1"/>
    <rect id="Rectangle_234" data-name="Rectangle 234" width="5.669" height="16.135" transform="translate(188.109 170.052)" fill="#6c63ff" opacity="0.1"/>
    <rect id="Rectangle_235" data-name="Rectangle 235" width="5.669" height="16.135" transform="translate(196.394 170.052)" fill="#6c63ff" opacity="0.1"/>
    <rect id="Rectangle_236" data-name="Rectangle 236" width="5.669" height="16.135" transform="translate(204.679 170.052)" fill="#6c63ff" opacity="0.1"/>
    <rect id="Rectangle_237" data-name="Rectangle 237" width="5.669" height="16.135" transform="translate(212.964 170.052)" fill="#6c63ff" opacity="0.1"/>
    <rect id="Rectangle_238" data-name="Rectangle 238" width="5.669" height="16.135" transform="translate(221.255 170.052)" fill="#6c63ff" opacity="0.1"/>
    <rect id="Rectangle_239" data-name="Rectangle 239" width="5.669" height="1.746" transform="translate(179.824 173.103)" fill="#6c63ff" opacity="0.1"/>
    <rect id="Rectangle_240" data-name="Rectangle 240" width="5.669" height="1.746" transform="translate(188.109 173.103)" fill="#6c63ff" opacity="0.1"/>
    <rect id="Rectangle_241" data-name="Rectangle 241" width="5.669" height="1.746" transform="translate(196.394 173.103)" fill="#6c63ff" opacity="0.1"/>
    <rect id="Rectangle_242" data-name="Rectangle 242" width="5.669" height="1.746" transform="translate(204.679 173.103)" fill="#6c63ff" opacity="0.1"/>
    <rect id="Rectangle_243" data-name="Rectangle 243" width="5.669" height="1.746" transform="translate(212.964 173.103)" fill="#6c63ff" opacity="0.1"/>
    <rect id="Rectangle_244" data-name="Rectangle 244" width="5.669" height="1.746" transform="translate(221.255 173.103)" fill="#6c63ff" opacity="0.1"/>
    <rect id="Rectangle_245" data-name="Rectangle 245" width="5.669" height="1.746" transform="translate(179.824 180.953)" fill="#6c63ff" opacity="0.1"/>
    <rect id="Rectangle_246" data-name="Rectangle 246" width="5.669" height="1.746" transform="translate(188.109 180.953)" fill="#6c63ff" opacity="0.1"/>
    <rect id="Rectangle_247" data-name="Rectangle 247" width="5.669" height="1.746" transform="translate(196.394 180.953)" fill="#6c63ff" opacity="0.1"/>
    <rect id="Rectangle_248" data-name="Rectangle 248" width="5.669" height="1.746" transform="translate(204.679 180.953)" fill="#6c63ff" opacity="0.1"/>
    <rect id="Rectangle_249" data-name="Rectangle 249" width="5.669" height="1.746" transform="translate(212.964 180.953)" fill="#6c63ff" opacity="0.1"/>
    <rect id="Rectangle_250" data-name="Rectangle 250" width="5.669" height="1.746" transform="translate(221.255 180.953)" fill="#6c63ff" opacity="0.1"/>
    <rect id="Rectangle_251" data-name="Rectangle 251" width="58.878" height="3.052" transform="translate(303.678 194.037)" fill="#6c63ff" opacity="0.1"/>
    <rect id="Rectangle_252" data-name="Rectangle 252" width="5.669" height="16.135" transform="translate(308.911 177.902)" fill="#6c63ff" opacity="0.1"/>
    <rect id="Rectangle_253" data-name="Rectangle 253" width="5.669" height="16.135" transform="translate(317.196 177.902)" fill="#6c63ff" opacity="0.1"/>
    <rect id="Rectangle_254" data-name="Rectangle 254" width="5.669" height="16.135" transform="translate(325.481 177.902)" fill="#6c63ff" opacity="0.1"/>
    <rect id="Rectangle_255" data-name="Rectangle 255" width="5.669" height="16.135" transform="translate(333.772 177.902)" fill="#6c63ff" opacity="0.1"/>
    <rect id="Rectangle_256" data-name="Rectangle 256" width="5.669" height="16.135" transform="translate(342.057 177.902)" fill="#6c63ff" opacity="0.1"/>
    <rect id="Rectangle_257" data-name="Rectangle 257" width="5.669" height="16.135" transform="translate(350.343 177.902)" fill="#6c63ff" opacity="0.1"/>
    <rect id="Rectangle_258" data-name="Rectangle 258" width="5.669" height="1.746" transform="translate(308.911 180.953)" fill="#6c63ff" opacity="0.1"/>
    <rect id="Rectangle_259" data-name="Rectangle 259" width="5.669" height="1.746" transform="translate(317.196 180.953)" fill="#6c63ff" opacity="0.1"/>
    <rect id="Rectangle_260" data-name="Rectangle 260" width="5.669" height="1.746" transform="translate(325.481 180.953)" fill="#6c63ff" opacity="0.1"/>
    <rect id="Rectangle_261" data-name="Rectangle 261" width="5.669" height="1.746" transform="translate(333.772 180.953)" fill="#6c63ff" opacity="0.1"/>
    <rect id="Rectangle_262" data-name="Rectangle 262" width="5.669" height="1.746" transform="translate(342.057 180.953)" fill="#6c63ff" opacity="0.1"/>
    <rect id="Rectangle_263" data-name="Rectangle 263" width="5.669" height="1.746" transform="translate(350.343 180.953)" fill="#6c63ff" opacity="0.1"/>
    <rect id="Rectangle_264" data-name="Rectangle 264" width="5.669" height="1.746" transform="translate(308.911 188.803)" fill="#6c63ff" opacity="0.1"/>
    <rect id="Rectangle_265" data-name="Rectangle 265" width="5.669" height="1.746" transform="translate(317.196 188.803)" fill="#6c63ff" opacity="0.1"/>
    <rect id="Rectangle_266" data-name="Rectangle 266" width="5.669" height="1.746" transform="translate(325.481 188.803)" fill="#6c63ff" opacity="0.1"/>
    <rect id="Rectangle_267" data-name="Rectangle 267" width="5.669" height="1.746" transform="translate(333.772 188.803)" fill="#6c63ff" opacity="0.1"/>
    <rect id="Rectangle_268" data-name="Rectangle 268" width="5.669" height="1.746" transform="translate(342.057 188.803)" fill="#6c63ff" opacity="0.1"/>
    <rect id="Rectangle_269" data-name="Rectangle 269" width="5.669" height="1.746" transform="translate(350.343 188.803)" fill="#6c63ff" opacity="0.1"/>
    <rect id="Rectangle_270" data-name="Rectangle 270" width="58.878" height="3.052" transform="translate(303.678 216.276)" fill="#6c63ff" opacity="0.1"/>
    <rect id="Rectangle_271" data-name="Rectangle 271" width="5.669" height="16.135" transform="translate(308.911 200.14)" fill="#6c63ff" opacity="0.1"/>
    <rect id="Rectangle_272" data-name="Rectangle 272" width="5.669" height="16.135" transform="translate(317.196 200.14)" fill="#6c63ff" opacity="0.1"/>
    <rect id="Rectangle_273" data-name="Rectangle 273" width="5.669" height="16.135" transform="translate(325.481 200.14)" fill="#6c63ff" opacity="0.1"/>
    <rect id="Rectangle_274" data-name="Rectangle 274" width="5.669" height="16.135" transform="translate(333.772 200.14)" fill="#6c63ff" opacity="0.1"/>
    <rect id="Rectangle_275" data-name="Rectangle 275" width="5.669" height="16.135" transform="translate(342.057 200.14)" fill="#6c63ff" opacity="0.1"/>
    <rect id="Rectangle_276" data-name="Rectangle 276" width="5.669" height="16.135" transform="translate(350.343 200.14)" fill="#6c63ff" opacity="0.1"/>
    <rect id="Rectangle_277" data-name="Rectangle 277" width="5.669" height="1.746" transform="translate(308.911 203.192)" fill="#6c63ff" opacity="0.1"/>
    <rect id="Rectangle_278" data-name="Rectangle 278" width="5.669" height="1.746" transform="translate(317.196 203.192)" fill="#6c63ff" opacity="0.1"/>
    <rect id="Rectangle_279" data-name="Rectangle 279" width="5.669" height="1.746" transform="translate(325.481 203.192)" fill="#6c63ff" opacity="0.1"/>
    <rect id="Rectangle_280" data-name="Rectangle 280" width="5.669" height="1.746" transform="translate(333.772 203.192)" fill="#6c63ff" opacity="0.1"/>
    <rect id="Rectangle_281" data-name="Rectangle 281" width="5.669" height="1.746" transform="translate(342.057 203.192)" fill="#6c63ff" opacity="0.1"/>
    <rect id="Rectangle_282" data-name="Rectangle 282" width="5.669" height="1.746" transform="translate(350.343 203.192)" fill="#6c63ff" opacity="0.1"/>
    <rect id="Rectangle_283" data-name="Rectangle 283" width="5.669" height="1.746" transform="translate(308.911 211.042)" fill="#6c63ff" opacity="0.1"/>
    <rect id="Rectangle_284" data-name="Rectangle 284" width="5.669" height="1.746" transform="translate(317.196 211.042)" fill="#6c63ff" opacity="0.1"/>
    <rect id="Rectangle_285" data-name="Rectangle 285" width="5.669" height="1.746" transform="translate(325.481 211.042)" fill="#6c63ff" opacity="0.1"/>
    <rect id="Rectangle_286" data-name="Rectangle 286" width="5.669" height="1.746" transform="translate(333.772 211.042)" fill="#6c63ff" opacity="0.1"/>
    <rect id="Rectangle_287" data-name="Rectangle 287" width="5.669" height="1.746" transform="translate(342.057 211.042)" fill="#6c63ff" opacity="0.1"/>
    <rect id="Rectangle_288" data-name="Rectangle 288" width="5.669" height="1.746" transform="translate(350.343 211.042)" fill="#6c63ff" opacity="0.1"/>
    <path id="Path_456" data-name="Path 456" d="M400.521,400.917a16.3,16.3,0,0,1-1.2-1.769l8.48-1.391-9.161.069a15.494,15.494,0,0,1-.3-12.242l12.282,6.367-11.343-8.337a15.46,15.46,0,1,1,25.52,17.292,15.024,15.024,0,0,1,1.763,2.817l-11,5.726,11.732-3.934a15.459,15.459,0,0,1-2.491,14.492,15.46,15.46,0,1,1-24.277,0,15.46,15.46,0,0,1,0-19.107Z" transform="translate(-189.812 -180.221)" fill="#6c63ff" opacity="0.1"/>
    <path id="Path_457" data-name="Path 457" d="M428.107,436.17a15.4,15.4,0,0,1-3.311,9.541,15.46,15.46,0,1,1-24.276,0C398.441,443.092,428.107,434.435,428.107,436.17Z" transform="translate(-189.811 -205.923)" fill="#6c63ff" opacity="0.1"/>
    <path id="Path_458" data-name="Path 458" d="M424.211,500.593a1.44,1.44,0,0,1,.074.126h-5.245c.029-.04.046-.086.074-.126a5.079,5.079,0,0,1-.676-2.582,5.3,5.3,0,0,1,.315-1.821h0c.292.046.653.1,1.071.143a18.377,18.377,0,0,0,3.659,0q.527-.052,1.082-.137a.052.052,0,0,0,0,.029,5.154,5.154,0,0,1,.309,1.792A5.08,5.08,0,0,1,424.211,500.593Z" transform="translate(-198.891 -231.675)" fill="#3f3d56" opacity="0.2"/>
    <path id="Path_459" data-name="Path 459" d="M364.738,461.423h-29.2c-.063-.166-.12-.344-.172-.515a15.374,15.374,0,0,1,.338-10.1,15.46,15.46,0,0,1-5.64-18.259,14.792,14.792,0,0,1-1.666-1.334l7.684-3.831-8.738,2.771a15.46,15.46,0,0,1-3.893-11.606l13.633,2.462-13.3-4.621a15.46,15.46,0,1,1,29.482,8.989,15.661,15.661,0,0,1,2.536,2.2l-8.829,8.709,10.049-7.226a15.46,15.46,0,0,1,1.9,14.6A15.46,15.46,0,0,1,364.738,461.423Z" transform="translate(-158.267 -192.379)" fill="#6c63ff" opacity="0.1"/>
    <path id="Path_460" data-name="Path 460" d="M373.156,483.2h-29.2c-.063-.166-.12-.344-.172-.515a15.374,15.374,0,0,1,.338-10.1c-2.748-1.9,23.035-18.935,23.544-17.275a15.391,15.391,0,0,1-.338,10.106A15.46,15.46,0,0,1,373.156,483.2Z" transform="translate(-166.684 -214.151)" fill="#6c63ff" opacity="0.1"/>
    <path id="Path_461" data-name="Path 461" d="M590.557,450.114a15.4,15.4,0,0,1-7.736,6.5,15.692,15.692,0,0,1,.063,3.321l-12.373-.744,12.087,2.622a15.459,15.459,0,0,1-1.844,4.672,15.213,15.213,0,0,1-4.123,4.523H559.787v.441H542.61c.034-.149.069-.292.109-.441a15.46,15.46,0,0,1,9.419-10.484,15.459,15.459,0,0,1,9.808-16.4,15.673,15.673,0,0,1-.126-2.136l7.987,3.155-7.9-4.644a15.459,15.459,0,0,1,6.064-10.638l7.277,11.784-5.457-12.975a15.46,15.46,0,0,1,20.767,21.437Z" transform="translate(-251.964 -201.992)" fill="#6c63ff" opacity="0.1"/>
    <path id="Path_462" data-name="Path 462" d="M580.755,491.136a15.214,15.214,0,0,1-4.123,4.523H559.787v.441H542.61c.034-.149.069-.292.109-.441a15.459,15.459,0,0,1,9.419-10.484c-.143-1.145,3.183-.973,7.621-.229C568.456,486.406,581.345,490.151,580.755,491.136Z" transform="translate(-251.964 -226.615)" fill="#6c63ff" opacity="0.1"/>
    <path id="Path_463" data-name="Path 463" d="M478.8,423.54s2.119,11.452-2.611,15.19,4.008,26.15,18.425,23.533S514.9,440.849,514.9,440.849s-14.44-2.989-9.087-18.179Z" transform="translate(-223.021 -200.251)" fill="#ee8e9e"/>
    <path id="Path_464" data-name="Path 464" d="M478.8,423.54s2.119,11.452-2.611,15.19,4.008,26.15,18.425,23.533S514.9,440.849,514.9,440.849s-14.44-2.989-9.087-18.179Z" transform="translate(-223.021 -200.251)" opacity="0.1"/>
    <circle id="Ellipse_150" data-name="Ellipse 150" cx="23.905" cy="23.905" r="23.905" transform="translate(244.634 183.885)" fill="#ee8e9e"/>
    <path id="Path_465" data-name="Path 465" d="M513.685,463.731v16.25H434.75V464.47a10.009,10.009,0,0,1,6.11-9.219l2.261-.962c5.726-2.439,12.683-5.468,14.956-6.728a3.741,3.741,0,0,0,.7-.452c1.242-1.243,1,.372,1,.372s-.034.309-.057.842c-.137,3.659.389,18.036,17.24,16.839,16.439-1.145,17.177-12.265,17.011-15.534a8.834,8.834,0,0,0-.074-.9,21.238,21.238,0,0,1,3.327,1.088c3.435,1.271,8.508,3.309,9.866,4.271.424.3.939.607,1.5.922a9.865,9.865,0,0,1,1.775,1.265,10.026,10.026,0,0,1,3.327,7.461Z" transform="translate(-205.862 -210.496)" fill="#ec231a"/>
    <path id="Path_466" data-name="Path 466" d="M514.622,449.812c-1.391,6.447-5.76,18.523-21.506,18.838-16.776.332-17.75-16.353-17.641-21.088a3.383,3.383,0,0,0,.7-.452c1.248-1.242,1,.372,1,.372s-2.113,19.05,17.177,17.681,16.92-16.433,16.92-16.433A23.507,23.507,0,0,1,514.622,449.812Z" transform="translate(-223.266 -210.496)" opacity="0.1"/>
    <path id="Path_467" data-name="Path 467" d="M453.373,370.065a4.094,4.094,0,0,1,4.312,1.575,7.814,7.814,0,0,1,1.111,4.1c1.036.218,1.62-.956,1.718-1.844.384-3.613.412-7.295,1.626-10.787a12.877,12.877,0,0,1,7.936-8.205,9.208,9.208,0,0,1,4.334-.412c.865.143,1.678.447,2.536.573,2.977.492,6.212-.916,9,.063a7.177,7.177,0,0,1,3.682,3.47,7.491,7.491,0,0,0,1.431,2.078c1.185,1.065,3.04,1.34,4.741,1.672s3.556.91,4.283,2.222c.653,1.185.172,2.554-.046,3.836a9.4,9.4,0,0,0,.968,5.938c.315.573.956,1.265,1.718,1.076a1.506,1.506,0,0,0,.813-.658c1.952-2.737,1.9-6.3,4.352-8.766.819-.825,1.878-1.466,2.674-2.29a5.2,5.2,0,0,0,1.386-4.718c-.441-1.889-1.953-3.435-3.172-5.1a20.038,20.038,0,0,1-3.4-7.048,1.277,1.277,0,0,1,0-.922,2.455,2.455,0,0,1,.87-.71,3.287,3.287,0,0,0,1.111-4.2,7,7,0,0,0-3.934-3.132,25.648,25.648,0,0,0-5.365-1.145,2.918,2.918,0,0,1-2.983-1.472c-.166-.429-.166-.893-.332-1.323a3.035,3.035,0,0,0-2.29-1.6,6.7,6.7,0,0,0-3.063.218c-1.145.321-2.445.8-3.435.24-.521-.292-.807-.825-1.368-1.065-1.145-.481-2.325.492-3.143,1.294a7.65,7.65,0,0,1-2.834,1.907,4.22,4.22,0,0,1-3.516-.235,11.1,11.1,0,0,1-1.8-1.935,6.791,6.791,0,0,0-4.266-1.718,15.019,15.019,0,0,0-4.815.527,29.076,29.076,0,0,0-8.457,3.55,9.087,9.087,0,0,0-3.247,3.018,6.871,6.871,0,0,0-.727,3.109,11.22,11.22,0,0,0,3.922,9.316c-1.786.744-2.388,2.571-2.806,4.191a22.941,22.941,0,0,0-1.088,7.85,17.241,17.241,0,0,1,.3,4.082,8.794,8.794,0,0,0-.263,1.953,1.872,1.872,0,0,0,1.529,1.426Z" transform="translate(-213.131 -161.079)" fill="#454b69"/>
    <g id="Group_3346" data-name="Group 3346" transform="translate(238.661 178.566)" opacity="0.1">
      <path id="Path_468" data-name="Path 468" d="M547.51,378a5.588,5.588,0,0,1-1.031,1.523c-.8.836-1.855,1.483-2.674,2.29-2.451,2.451-2.4,6.035-4.352,8.772a1.472,1.472,0,0,1-.813.653c-.744.195-1.386-.481-1.718-1.076a9.843,9.843,0,0,1-.853-2.29l-.115.573a9.4,9.4,0,0,0,.968,5.938c.315.573.956,1.265,1.718,1.076a1.506,1.506,0,0,0,.813-.658c1.952-2.737,1.9-6.3,4.352-8.766.819-.825,1.878-1.466,2.674-2.29a5.2,5.2,0,0,0,1.386-4.718A6.15,6.15,0,0,0,547.51,378Z" transform="translate(-487.727 -359.723)"/>
      <path id="Path_469" data-name="Path 469" d="M546.2,347.93a2.4,2.4,0,0,0-.87.71,1.265,1.265,0,0,0,0,.916,19.368,19.368,0,0,0,.865,2.611h0a3.286,3.286,0,0,0,1.111-4.2,4,4,0,0,0-.4-.67A3.3,3.3,0,0,1,546.2,347.93Z" transform="translate(-491.75 -346.602)"/>
      <path id="Path_470" data-name="Path 470" d="M455.77,352.716a10.616,10.616,0,0,1-3.75-6.636,8.945,8.945,0,0,0-.172,1.557,11.921,11.921,0,0,0,1.884,7.083,4.008,4.008,0,0,1,2.038-2Z" transform="translate(-451.824 -346.08)"/>
      <path id="Path_471" data-name="Path 471" d="M500.147,378.482c.218-1.288.7-2.657.046-3.836-.727-1.317-2.582-1.89-4.283-2.222s-3.556-.613-4.741-1.672a7.491,7.491,0,0,1-1.431-2.078,7.09,7.09,0,0,0-3.682-3.47c-2.788-.979-6.023.424-9-.063-.859-.143-1.672-.441-2.537-.573a9.162,9.162,0,0,0-4.334.412,12.9,12.9,0,0,0-7.936,8.205c-1.214,3.487-1.243,7.169-1.626,10.787-.1.882-.681,2.061-1.718,1.844a7.876,7.876,0,0,0-1.111-4.105,4.094,4.094,0,0,0-4.312-1.569,2.1,2.1,0,0,1-1.208-.773,6.638,6.638,0,0,1,0,1.58,8.8,8.8,0,0,0-.263,1.952,1.872,1.872,0,0,0,1.494,1.472,4.094,4.094,0,0,1,4.311,1.575,7.813,7.813,0,0,1,1.111,4.1c1.036.218,1.62-.956,1.718-1.844.384-3.613.412-7.295,1.626-10.787a12.877,12.877,0,0,1,7.936-8.2,9.207,9.207,0,0,1,4.334-.412c.865.143,1.678.447,2.537.573,2.977.492,6.212-.916,9,.063a7.177,7.177,0,0,1,3.682,3.47,7.491,7.491,0,0,0,1.431,2.078c1.185,1.065,3.04,1.34,4.741,1.672s3.435.87,4.2,2.084A.494.494,0,0,1,500.147,378.482Z" transform="translate(-451.901 -353.941)"/>
      <path id="Path_472" data-name="Path 472" d="M452.169,383.449a10.879,10.879,0,0,0-.189-3.189,14.212,14.212,0,0,0-.109,3.344,6.085,6.085,0,0,0,.1.853C452.037,384.119,452.123,383.787,452.169,383.449Z" transform="translate(-451.819 -360.689)"/>
    </g>
    <path id="Path_473" data-name="Path 473" d="M403.49,537.285V526.95a.292.292,0,0,1,.292-.292h1.174a.292.292,0,0,1,.292.292v4.3l4.764-4.415a.779.779,0,0,1,1.277.573v9.362a.779.779,0,0,1-1.277.573l-4.764-4.386v4.277a.292.292,0,0,1-.292.292h-1.174A.292.292,0,0,1,403.49,537.285Z" transform="translate(-192.501 -244.696)" fill="#444053"/>
    <path id="Path_474" data-name="Path 474" d="M598.711,526.964V537.3a.292.292,0,0,1-.3.292h-1.145a.292.292,0,0,1-.292-.292V533l-4.764,4.409a.784.784,0,0,1-1.283-.573v-9.4a.784.784,0,0,1,1.283-.573l4.764,4.386v-4.271a.292.292,0,0,1,.292-.292h1.145A.292.292,0,0,1,598.711,526.964Z" transform="translate(-272.617 -244.71)" fill="#444053"/>
    <path id="Path_475" data-name="Path 475" d="M498.016,537.9h-2.33a1.145,1.145,0,0,1-1.145-1.145v-8.554a1.145,1.145,0,0,1,1.145-1.145h2.33a1.145,1.145,0,0,1,1.145,1.145v8.554A1.145,1.145,0,0,1,498.016,537.9Zm7.386-1.145v-8.554a1.145,1.145,0,0,0-1.145-1.145H501.9a1.145,1.145,0,0,0-1.145,1.145v8.554A1.145,1.145,0,0,0,501.9,537.9h2.33a1.145,1.145,0,0,0,1.168-1.145Z" transform="translate(-231.418 -244.869)" fill="#444053"/>
    <rect id="Rectangle_289" data-name="Rectangle 289" width="137.418" height="1.529" transform="translate(199.829 268.323)" fill="#444053" opacity="0.6"/>
    <circle id="Ellipse_151" data-name="Ellipse 151" cx="3.624" cy="3.624" r="3.624" transform="translate(238.639 265.46)" fill="#444053"/>
    <rect id="Rectangle_290" data-name="Rectangle 290" width="42.434" height="1.529" transform="translate(199.829 268.323)" fill="#444053"/>
    <ellipse id="Ellipse_152" data-name="Ellipse 152" cx="34.051" cy="6.55" rx="34.051" ry="6.55" transform="translate(513.951 427.774)" fill="#a9a9a9"/>
    <ellipse id="Ellipse_153" data-name="Ellipse 153" cx="3.962" cy="5.188" rx="3.962" ry="5.188" transform="translate(543.472 426.354)" fill="#3f3d56"/>
    <ellipse id="Ellipse_154" data-name="Ellipse 154" cx="3.962" cy="5.188" rx="3.962" ry="5.188" transform="translate(543.472 420.01)" fill="#3f3d56"/>
    <ellipse id="Ellipse_155" data-name="Ellipse 155" cx="3.962" cy="5.188" rx="3.962" ry="5.188" transform="translate(543.472 413.671)" fill="#3f3d56"/>
    <ellipse id="Ellipse_156" data-name="Ellipse 156" cx="3.962" cy="5.188" rx="3.962" ry="5.188" transform="translate(543.472 407.327)" fill="#3f3d56"/>
    <ellipse id="Ellipse_157" data-name="Ellipse 157" cx="3.962" cy="5.188" rx="3.962" ry="5.188" transform="translate(543.472 400.983)" fill="#3f3d56"/>
    <ellipse id="Ellipse_158" data-name="Ellipse 158" cx="3.962" cy="5.188" rx="3.962" ry="5.188" transform="translate(543.472 394.639)" fill="#3f3d56"/>
    <ellipse id="Ellipse_159" data-name="Ellipse 159" cx="3.962" cy="5.188" rx="3.962" ry="5.188" transform="translate(543.472 388.295)" fill="#3f3d56"/>
    <path id="Path_476" data-name="Path 476" d="M991.682,622.685a19.631,19.631,0,0,0,1.477-2.176l-10.421-1.718,11.268.086a19.049,19.049,0,0,0,.361-15.047l-15.1,7.844L993.2,601.431a18.992,18.992,0,1,0-31.366,21.254,19.384,19.384,0,0,0-2.164,3.436l13.524,7.026-14.417-4.838a19,19,0,0,0,3.058,17.83,18.987,18.987,0,1,0,29.854,0,19,19,0,0,0,0-23.476Z" transform="translate(-429.412 -272.604)" fill="#ec231a"/>
    <path id="Path_477" data-name="Path 477" d="M957.78,665.921a18.9,18.9,0,0,0,4.06,11.738,18.987,18.987,0,1,0,29.854,0C994.236,674.436,957.78,663.791,957.78,665.921Z" transform="translate(-429.418 -304.103)" opacity="0.1"/>
    <ellipse id="Ellipse_160" data-name="Ellipse 160" cx="56.685" cy="12.024" rx="56.685" ry="12.024" transform="translate(109.362 452.085)" fill="#6c63ff" opacity="0.1"/>
    <path id="Path_478" data-name="Path 478" d="M323.717,673.439a14.914,14.914,0,0,0-3.567-.481,11.04,11.04,0,0,1-6.562-3.184,12.024,12.024,0,0,1-2.622-4.008c.378.137.756.281,1.145.435-1.145-2.674.057-5.674,1.111-8.377q2.68-6.871,5.067-13.816c4.008-11.732,7.444-23.934,7.369-36.416,0-4.512-.83-8.778-.991-13.284-.12-3.344.4-6.682.372-10.031,0-.47,0-.933-.034-1.4a8.892,8.892,0,0,0,3.018-7.249,17.45,17.45,0,0,0-.3-2.107,34.17,34.17,0,0,0-.8-3.584c-.378-1.242-.893-2.433-1.334-3.647-.853-2.353-1.431-4.8-2.159-7.2a2.479,2.479,0,0,1,.779.212,1.678,1.678,0,0,1-.366-.75,18.556,18.556,0,0,1-.687-4.678l.487-.218a12.179,12.179,0,0,0-.235-4.632c.275-2.456.7-4.93.968-7.375.1-.916.057-2.067-.784-2.29-.172-1.311-.24-2.64-.309-3.962q-.361-6.922-.716-13.839c-.24-4.632-.481-9.259-.573-13.9a40.567,40.567,0,0,0-.8-8.806,10.649,10.649,0,0,0-.407-4.008c-1.065-3.372-4.374-6.046-7.73-5.857a15.378,15.378,0,0,0-3.659-3.7c.67-1.5,1.472-3.046,2.13-4.26a13.881,13.881,0,0,0,9.3-13.341,14.56,14.56,0,0,0-1.575-6.636,7.164,7.164,0,0,0,.252-.773,6.35,6.35,0,0,0-.258-3.716,10.881,10.881,0,0,0-.573-1.328c-.149-.286-.309-.573-.475-.847l-.292-.441a8.236,8.236,0,0,0-.573-.779,18.954,18.954,0,0,0-1.305-1.569,12.921,12.921,0,0,0-1.878-1.672,8.28,8.28,0,0,0-3.092-1.426,9.426,9.426,0,0,0-1.964-.178c-.4,0-.8,0-1.191.034-.8.046-1.6.1-2.393.1a5.3,5.3,0,0,1-.8-.04,28.991,28.991,0,0,1-4.145-.865l-.687-.143c-.235-.046-.464-.086-.7-.115a13.11,13.11,0,0,0-1.9-.115h-.636a17.572,17.572,0,0,0-1.9.195l-.63.1a18.1,18.1,0,0,0-4.609,1.368c-.189.086-.384.183-.573.286l-.115.063c-.155.08-.309.166-.458.258l-.086.052-.487.309-.04.029c-4.546,3.058-7.232,8.852-7.913,14.6-.762,6.453.573,12.957,1.907,19.307l1.2,5.726c.052.258.109.51.16.767a12.6,12.6,0,0,0-3.773,5.233c-1.145,2.863-1.174,5.96-1.082,9.064,0,.63.034,1.26.1,1.889-.143,1.191-.269,2.388-.349,3.59-.361,5.554.315,11.137.137,16.7-.137,4.289-.784,8.589-.47,12.849a58.01,58.01,0,0,0,2.29,11.091l1.443,5.2a1.38,1.38,0,0,0,.361.716,1.088,1.088,0,0,0,.807.166,48.742,48.742,0,0,0-2.348,6.573,20.327,20.327,0,0,0-.847,4.226,25.818,25.818,0,0,0,1.025,7.776q1.374,5.726,2.737,11.5.962,4.037,1.918,8.068a85.969,85.969,0,0,1,2.76,16.1,34.958,34.958,0,0,1-.573,8.182,71.3,71.3,0,0,0-.71,24.523,120.241,120.241,0,0,0,4.632,20.275c.464-.246.933-.475,1.414-.687l-.2.372q-.991,1.718-1.832,3.521a20.035,20.035,0,0,0-.979,2.411,27.134,27.134,0,0,0-.95,7.14,3.493,3.493,0,0,0,.12,1.38,2.867,2.867,0,0,0,2.061,1.546,18.825,18.825,0,0,0,7.615.12.923.923,0,0,0,.052.166,2.856,2.856,0,0,0,2.061,1.546c3.539,1.008,7.272.057,10.919-.286s7.232-.092,10.742-.933a5.114,5.114,0,0,0,1.489-.573,4.873,4.873,0,0,0,1.878-2.605,3.338,3.338,0,0,0,.218-.853A2.9,2.9,0,0,0,323.717,673.439Zm-12.11-53.026a14.428,14.428,0,0,1-1.145,3.882,74.091,74.091,0,0,0-5.875,18.42,85.4,85.4,0,0,0-1.3,12.74c-.057,3.149.063,6.447-1.248,9.276l.475-.075c-.149.275-.292.573-.429.79l-.069.126a12.415,12.415,0,0,1-1.563-4.386c0-.052-.258-.092-.653-.115a118.483,118.483,0,0,1-1.672-27.421,12.7,12.7,0,0,1,.458-3.292c.292-.922.784-1.764,1.145-2.657a19.521,19.521,0,0,0,1.145-4.661,66.213,66.213,0,0,0,.721-12.322c-.137-3.888.762-7.753,1.529-11.623.366-1.838.7-3.682.887-5.525l.034-.372a55.465,55.465,0,0,1,7.031,18.254A26.11,26.11,0,0,1,311.607,620.412ZM287.1,537.664l.183.16a12.594,12.594,0,0,1,1.523,1.6,2.113,2.113,0,0,1,.481.882c.172.836-.521,1.546-1.088,2.159a9.734,9.734,0,0,0-.693.836q-.183-2.817-.389-5.634Z" transform="translate(-138.689 -210.726)" fill="url(#linear-gradient)"/>
    <path id="Path_479" data-name="Path 479" d="M279.157,542.53l-.63,4.861c-.212,1.649-.424,3.292-.538,4.947-.384,5.508.326,11.039.143,16.559-.149,4.249-.824,8.491-.5,12.734a54,54,0,0,0,2.422,10.993l1.512,5.153a1.363,1.363,0,0,0,.378.71,1.335,1.335,0,0,0,.968.155l6.711-.607c-.429-1.97-.9-4.008-1.145-6.029-.183-1.58-.292-3.172-.407-4.764-.355-4.958-.762-9.917-1.145-14.887l-.716-8.7a65.646,65.646,0,0,0-1.569-11.245,22.382,22.382,0,0,0-5.485-9.877Z" transform="translate(-138.67 -251.482)" fill="#6c63ff"/>
    <path id="Path_480" data-name="Path 480" d="M279.157,542.53l-.63,4.861c-.212,1.649-.424,3.292-.538,4.947-.384,5.508.326,11.039.143,16.559-.149,4.249-.824,8.491-.5,12.734a54,54,0,0,0,2.422,10.993l1.512,5.153a1.363,1.363,0,0,0,.378.71,1.335,1.335,0,0,0,.968.155l6.711-.607c-.429-1.97-.9-4.008-1.145-6.029-.183-1.58-.292-3.172-.407-4.764-.355-4.958-.762-9.917-1.145-14.887l-.716-8.7a65.646,65.646,0,0,0-1.569-11.245,22.382,22.382,0,0,0-5.485-9.877Z" transform="translate(-138.67 -251.482)" fill="#cb1f17"/>
    <path id="Path_481" data-name="Path 481" d="M299.712,827.049a20.519,20.519,0,0,0-1.031,2.393,25.768,25.768,0,0,0-1,7.077,3.434,3.434,0,0,0,.126,1.368,2.983,2.983,0,0,0,2.17,1.529c3.716,1,7.632.063,11.452-.281s7.592-.092,11.28-.922a5.759,5.759,0,0,0,1.563-.544,4.873,4.873,0,0,0,1.975-2.577,3.368,3.368,0,0,0,.223-.847,2.927,2.927,0,0,0-2.164-2.76,16.321,16.321,0,0,0-3.745-.475,11.8,11.8,0,0,1-10.444-9.854c-.046-.275-6.207-.109-6.871.246a5.745,5.745,0,0,0-1.643,2.159Q300.593,825.263,299.712,827.049Z" transform="translate(-147.269 -370.515)" fill="#a26565"/>
    <path id="Path_482" data-name="Path 482" d="M299.712,827.049a20.519,20.519,0,0,0-1.031,2.393,25.768,25.768,0,0,0-1,7.077,3.434,3.434,0,0,0,.126,1.368,2.983,2.983,0,0,0,2.17,1.529c3.716,1,7.632.063,11.452-.281s7.592-.092,11.28-.922a5.759,5.759,0,0,0,1.563-.544,4.873,4.873,0,0,0,1.975-2.577,3.368,3.368,0,0,0,.223-.847,2.927,2.927,0,0,0-2.164-2.76,16.321,16.321,0,0,0-3.745-.475,11.8,11.8,0,0,1-10.444-9.854c-.046-.275-6.207-.109-6.871.246a5.745,5.745,0,0,0-1.643,2.159Q300.593,825.263,299.712,827.049Z" transform="translate(-147.269 -370.515)" fill="#b81d16"/>
    <path id="Path_483" data-name="Path 483" d="M317.56,830.207a19.475,19.475,0,0,0-1.031,2.388,25.488,25.488,0,0,0-1,7.077,3.338,3.338,0,0,0,.126,1.369,2.984,2.984,0,0,0,2.164,1.534c3.716,1,7.638.057,11.452-.286s7.6-.092,11.28-.922a5.508,5.508,0,0,0,1.563-.573,4.85,4.85,0,0,0,1.975-2.577,3.362,3.362,0,0,0,.223-.847,2.932,2.932,0,0,0-2.164-2.76,16.647,16.647,0,0,0-3.745-.475,11.8,11.8,0,0,1-10.444-9.848c-.046-.275-6.207-.114-6.871.241a5.7,5.7,0,0,0-1.649,2.159C318.791,827.848,318.15,829.016,317.56,830.207Z" transform="translate(-154.897 -371.852)" fill="#ec231a"/>
    <path id="Path_484" data-name="Path 484" d="M329.317,685.042c.08,12.373-3.516,24.466-7.736,36.072q-2.508,6.905-5.319,13.69c-1.111,2.68-2.365,5.657-1.174,8.3a20.1,20.1,0,0,0-10.541-1.471c1.374-2.806,1.243-6.069,1.305-9.161a80.328,80.328,0,0,1,1.351-12.625,70.43,70.43,0,0,1,6.178-18.26,13.912,13.912,0,0,0,1.2-3.848,24.577,24.577,0,0,0-.51-8.881,52.946,52.946,0,0,0-7.386-18.093l-.034.366a53.393,53.393,0,0,1-.928,5.48c-.807,3.831-1.752,7.667-1.609,11.52a62.313,62.313,0,0,1-.756,12.213,18.568,18.568,0,0,1-1.231,4.615c-.4.888-.91,1.718-1.22,2.64a12.023,12.023,0,0,0-.481,3.264,110.676,110.676,0,0,0,1.9,27.907,17.724,17.724,0,0,0-9.23,2.1,113.678,113.678,0,0,1-4.867-20.1,66.774,66.774,0,0,1,.744-24.312,32.306,32.306,0,0,0,.6-8.1c-.246-5.411-1.575-10.7-2.9-15.958l-2.015-8.016q-1.431-5.726-2.863-11.4a24.238,24.238,0,0,1-1.076-7.707,19.126,19.126,0,0,1,.893-4.191,46.774,46.774,0,0,1,6.338-12.963c11.034.618,22.2-.412,33.209-1.26a2.227,2.227,0,0,1,1.557.263,2.2,2.2,0,0,1,.63,1.42l4.14,23.476a58.974,58.974,0,0,1,1.174,9.906c0,3.321-.515,6.63-.389,9.946C328.446,676.345,329.294,680.57,329.317,685.042Z" transform="translate(-140.011 -287.512)" fill="#454b69"/>
    <path id="Path_485" data-name="Path 485" d="M316.108,690.5a53.4,53.4,0,0,1-.928,5.48c-2.4-4.151-4.987-8.2-7.2-12.454-.573-1.094-1.111-2.2-1.655-3.315l-1.632-3.321c-.3-.624-.607-1.248-.882-1.884a13.61,13.61,0,0,1-1.025-2.863c.8-.149,2.783,2.015,3.378,2.582a46.177,46.177,0,0,1,3.435,3.8,41.681,41.681,0,0,1,3.584,4.7,22.834,22.834,0,0,1,2.92,7.277Z" transform="translate(-149.46 -306.879)" opacity="0.1"/>
    <path id="Path_486" data-name="Path 486" d="M323.969,501.546s-6.127,9.762-4.993,11.807-19.3-1.815-19.3-1.815,11.125-9.762,9.986-13.851S323.969,501.546,323.969,501.546Z" transform="translate(-148.13 -231.815)" fill="#efb7b9"/>
    <circle id="Ellipse_161" data-name="Ellipse 161" cx="13.851" cy="13.851" r="13.851" transform="translate(156.543 244.985)" fill="#efb7b9"/>
    <path id="Path_487" data-name="Path 487" d="M315.222,518.006a14.062,14.062,0,0,0-5.823-4.684,20.834,20.834,0,0,0-4.14-1.019l-5.525-.973a7.038,7.038,0,0,0-4.06.092,6.654,6.654,0,0,0-1.718,1.265c-1.918,1.781-3.779,3.733-6.19,4.764-.658.281-1.346.487-2,.767a11.567,11.567,0,0,0-5.852,6.3c-1.2,2.829-1.237,5.9-1.145,8.978a15.78,15.78,0,0,0,.315,3.161,20.362,20.362,0,0,0,1.048,2.9,53.006,53.006,0,0,1,1.912,6.144q2.147,8.216,3.573,16.6a6.224,6.224,0,0,0,.693,2.29,8.221,8.221,0,0,0,1.912,1.838,11.948,11.948,0,0,1,1.6,1.586,2.073,2.073,0,0,1,.521.847c.177.825-.573,1.535-1.145,2.136a10.34,10.34,0,0,0-2.588,4.506,1.815,1.815,0,0,0-.412,1.242,2.176,2.176,0,0,1,.132.985,2.222,2.222,0,0,1-.521.807,3.052,3.052,0,0,0-.573,2.451,38.871,38.871,0,0,0,13.559,3.172c1.145.057,2.29.057,3.435.195.813.1,1.615.269,2.428.366a26.208,26.208,0,0,0,3.55.092c6.167-.126,12.511-.281,18.174-2.726.533-2.9-.618-5.863-1.34-8.726-1.145-4.581-1.431-9.27-2.29-13.891-.573-3.155-1.431-6.264-1.918-9.442a23.081,23.081,0,0,1,.275-9.562c.773-2.737,1.008-5.531,1.809-8.262s1.363-5.691.458-8.394A8.632,8.632,0,0,0,315.222,518.006Z" transform="translate(-139.178 -238.037)" fill="#ec231a"/>
    <path id="Path_488" data-name="Path 488" d="M323.113,463.757c.676-2.456-.653-5.016-2.233-7.014-1.718-2.147-3.9-4.082-6.59-4.621-2.181-.441-4.443.092-6.665-.086-1.964-.155-3.853-.865-5.806-1.145a18.389,18.389,0,0,0-5.314.2,20.181,20.181,0,0,0-4.838,1.351c-5.9,2.617-9.35,9.064-10.152,15.46s.6,12.843,2,19.135l1.265,5.691a113.036,113.036,0,0,1,2.983,17.933,38.05,38.05,0,0,1-2.794,17.807,38.3,38.3,0,0,0,17.6-19.92c.893-2.342,1.557-4.775,2.554-7.077.853-1.981,1.947-3.859,2.7-5.88a19.1,19.1,0,0,0,1.208-7.14c-.046-1.832-.349-3.653-.3-5.485a7.578,7.578,0,0,1,1.786-5.067,15.485,15.485,0,0,1,4.168-2.479,17.355,17.355,0,0,0,5.835-4.867,5.339,5.339,0,0,0,1.191-3.069C321.939,466.133,322.758,465.056,323.113,463.757Z" transform="translate(-140.266 -212.268)" fill="#a26565"/>
    <path id="Path_489" data-name="Path 489" d="M352.814,649.459a36.748,36.748,0,0,0,.195,4.277c.235,1.054.779,2,1.1,3.035a14.43,14.43,0,0,1,.487,3.647c.046,1.031-.034,2.29-.95,2.771-.4.212-.882.212-1.3.4s-.773.681-.533,1.071.653.326,1.031.4.784.464.573.779a.653.653,0,0,1-.332.212,4.053,4.053,0,0,0-1.076.515,1.1,1.1,0,0,0-.441,1.048.647.647,0,0,0,.922.424,2.863,2.863,0,0,0-.269,1.145c1.466.63,3.109-.195,4.483-.991a16.878,16.878,0,0,0,1.718-1.1,8.588,8.588,0,0,0,3.344-7.312,17.058,17.058,0,0,0-.326-2.09,31.441,31.441,0,0,0-.842-3.556c-.4-1.231-.933-2.4-1.4-3.613-.985-2.571-1.62-5.262-2.514-7.867a1.191,1.191,0,0,0-.429-.681,1.208,1.208,0,0,0-.636-.12,10.416,10.416,0,0,0-2.983.275,3.172,3.172,0,0,0-1.821,1.145c-.269.573.16,1.054.418,1.529A12.814,12.814,0,0,1,352.814,649.459Z" transform="translate(-169.95 -293.927)" fill="#efb7b9"/>
    <path id="Path_490" data-name="Path 490" d="M343.061,533.64a4.2,4.2,0,0,1,.733,1.019c1.97,3.579,1.993,7.856,2.084,11.938.1,4.581.355,9.161.607,13.77l.75,13.742c.074,1.311.143,2.622.332,3.922.882.223.916,1.368.819,2.29-.636,5.6-2.21,11.366-.573,16.754a1.683,1.683,0,0,0,.384.744,4.471,4.471,0,0,0-2.559-.034c-.819.172-1.609.475-2.434.664-1.042.235-2.222.338-2.932,1.145a56.815,56.815,0,0,1-1.918-7.4c-.389-2.29-.5-4.649-1.426-6.768-.372-.853-.876-1.643-1.334-2.462-2.4-4.283-3.579-9.121-4.73-13.9a20.286,20.286,0,0,1-.366-6.905,23.746,23.746,0,0,0,.286-3.178,24.415,24.415,0,0,0-.441-3.344,22.416,22.416,0,0,1,.67-9.682c.859-2.914,1.615-5.983,3.435-8.434S340.021,533.68,343.061,533.64Z" transform="translate(-161.13 -247.682)" opacity="0.1"/>
    <path id="Path_491" data-name="Path 491" d="M344.26,532.84a4.232,4.232,0,0,1,.733,1.025c1.97,3.573,1.993,7.856,2.084,11.938.1,4.581.355,9.161.607,13.742l.75,13.742c.074,1.311.143,2.622.332,3.922.882.223.916,1.368.813,2.29-.63,5.6-2.2,11.36-.573,16.754a1.683,1.683,0,0,0,.384.744,4.472,4.472,0,0,0-2.559-.034c-.819.172-1.609.475-2.433.658-1.042.24-2.222.338-2.932,1.145a56.231,56.231,0,0,1-1.9-7.432c-.389-2.29-.5-4.644-1.426-6.762a27.647,27.647,0,0,0-1.334-2.462c-2.4-4.283-3.579-9.127-4.729-13.9a20.281,20.281,0,0,1-.366-6.905,14.887,14.887,0,0,0-.155-6.522,22.388,22.388,0,0,1,.67-9.677c.859-2.914,1.615-5.983,3.435-8.434S341.219,532.886,344.26,532.84Z" transform="translate(-161.648 -247.34)" fill="#ec231a"/>
    <g id="Group_3347" data-name="Group 3347" transform="translate(144.702 238.517)" opacity="0.1">
      <path id="Path_492" data-name="Path 492" d="M326.85,456.743c-1.718-2.147-3.9-4.082-6.59-4.621-2.182-.441-4.443.092-6.665-.086-1.964-.155-3.853-.865-5.806-1.145a18.388,18.388,0,0,0-5.314.2,20.181,20.181,0,0,0-4.838,1.351,14.368,14.368,0,0,0-2.388,1.357,20.363,20.363,0,0,1,4.277-1.145,18.323,18.323,0,0,1,5.308-.2c1.958.252,3.842.956,5.812,1.111,2.216.178,4.478-.349,6.665.086,2.685.538,4.884,2.479,6.585,4.626,1.586,1.993,2.909,4.552,2.239,7.014-.355,1.294-1.18,2.428-1.4,3.762a5.313,5.313,0,0,1-1.2,3.069,17.4,17.4,0,0,1-4.2,3.911c.441-.206.893-.412,1.323-.636a17.354,17.354,0,0,0,5.835-4.867,5.338,5.338,0,0,0,1.191-3.069c.229-1.351,1.048-2.462,1.4-3.762C329.759,461.3,328.431,458.741,326.85,456.743Z" transform="translate(-290.939 -450.785)"/>
      <path id="Path_493" data-name="Path 493" d="M313.268,497.7a5.729,5.729,0,0,1,.773-.67,11.864,11.864,0,0,0-3.727,2.29,7.656,7.656,0,0,0-1.786,5.067c-.069,1.832.258,3.653.3,5.48a19.13,19.13,0,0,1-1.208,7.146c-.756,2.021-1.849,3.894-2.7,5.88-.991,2.29-1.655,4.729-2.548,7.071a38.363,38.363,0,0,1-14.549,18.1c-.034.074-.063.155-.1.229a38.3,38.3,0,0,0,17.6-19.92c.893-2.342,1.557-4.775,2.554-7.077.853-1.981,1.947-3.859,2.7-5.88a19.1,19.1,0,0,0,1.208-7.14c-.046-1.832-.349-3.653-.3-5.485A7.653,7.653,0,0,1,313.268,497.7Z" transform="translate(-287.72 -470.551)"/>
    </g>
  </g>
</svg>
