<svg id="Group_4072" data-name="Group 4072" xmlns="http://www.w3.org/2000/svg" width="18.151" height="18.303" viewBox="0 0 18.151 18.303">
  <path id="Path_924" data-name="Path 924" d="M137.45,104.376c.112-.4.2-.737.287-1.087.3-1.087.612-2.187.887-3.287a.762.762,0,0,0,0-.525,9.047,9.047,0,1,1,3.911,3.749.962.962,0,0,0-.562,0C139.537,103.827,137.937,104.276,137.45,104.376Zm2.112-2.074,2.5-.675a.737.737,0,0,1,.625.087,7.423,7.423,0,0,0,5,.95,7.5,7.5,0,1,0-7.785-3.824,1.6,1.6,0,0,1,.175,1.437C139.9,100.977,139.762,101.577,139.562,102.3Z" transform="translate(-137.45 -86.073)" fill="#fff" fill-rule="evenodd"/>
  <path id="Path_925" data-name="Path 925" d="M148.008,98.543c-1.774,0-4.586-1.462-6.511-4.811a2.724,2.724,0,0,1,.425-3.474,1.25,1.25,0,0,1,1.162-.162c.087,0,.2.162.25.275.25.575.5,1.162.725,1.762.125.312-.1.612-.55,1.137a.387.387,0,0,0-.025.475,6.248,6.248,0,0,0,3.137,2.7.375.375,0,0,0,.475-.137c.725-.875.8-1.137,1.175-.95,1.824.875,1.962.9,1.974,1.112a2,2,0,0,1-2.237,2.074Z" transform="translate(-136.549 -85.088)" fill="#fff" fill-rule="evenodd"/>
</svg>
