<svg width="29" height="19" viewBox="0 0 29 19" fill="none" xmlns="http://www.w3.org/2000/svg">
<path opacity="0.6" d="M28.3186 2.9811C28.1574 2.4058 27.8432 1.88494 27.4096 1.47391C26.9637 1.05024 26.4172 0.74718 25.8217 0.593333C23.5929 0.0058849 14.6637 0.00588503 14.6637 0.00588503C10.9412 -0.0364674 7.21967 0.149809 3.52002 0.563664C2.92449 0.728877 2.37902 1.03871 1.93213 1.4656C1.49303 1.88809 1.17497 2.40908 1.00883 2.97991C0.609711 5.13003 0.415793 7.3132 0.429688 9.49999C0.415446 11.6848 0.608889 13.8673 1.00883 16.0201C1.17141 16.5885 1.48828 17.1071 1.92857 17.5261C2.36886 17.945 2.91714 18.2476 3.52002 18.4078C5.77843 18.9941 14.6637 18.9941 14.6637 18.9941C18.391 19.0365 22.1173 18.8502 25.8217 18.4363C26.4172 18.2825 26.9637 17.9794 27.4096 17.5557C27.8487 17.1368 28.1608 16.6158 28.3174 16.0486C28.727 13.8993 28.9261 11.7152 28.912 9.52729C28.9428 7.33012 28.7439 5.13575 28.3186 2.97991V2.9811ZM11.825 13.5635V5.4377L19.2541 9.50118L11.825 13.5635Z" fill="#4A4A4A"/>
</svg>
