<svg xmlns="http://www.w3.org/2000/svg" width="452.934" height="330.112" viewBox="0 0 452.934 330.112">
  <g id="Group_3939" data-name="Group 3939" transform="translate(-1011 -207)">
    <path id="Path_496" data-name="Path 496" d="M718.311,156.889c-72.232-55.677-172.724-57.952-246.037-3.7-38.756,28.678-68.8,72.552-63.335,139.355,1.932,23.629,7.309,43.014,15.154,58.883,31.775,64.331,162.284,61.854,169.532,61.844q7.044-.007,14.087.315a308.964,308.964,0,0,1,48.927,6.186c22.981,4.79,52.236,7.2,78.376-1.875a90.852,90.852,0,0,0,12.907-5.612c14.365-7.634,30.445-14.929,39.846-33.035,7.065-13.589,12.212-30.628,14.689-51.851C811.473,250.1,766.422,193.976,718.311,156.889Z" transform="translate(634.017 103.215)" fill="#f2f2f2"/>
    <ellipse id="Ellipse_162" data-name="Ellipse 162" cx="206.549" cy="19.389" rx="206.549" ry="19.389" transform="translate(1035.496 498.334)" fill="#a9a9a9"/>
    <ellipse id="Ellipse_163" data-name="Ellipse 163" cx="192.107" cy="9.101" rx="192.107" ry="9.101" transform="translate(1039.849 508.622)" fill="#ec231a"/>
    <path id="Path_497" data-name="Path 497" d="M876.168,73.342V95.094H847.849V332.318h59.1V73.342Z" transform="translate(462.064 184.713)" fill="#ec231a" opacity="0.79"/>
    <path id="Path_498" data-name="Path 498" d="M580.77,304.987V267.639H544.653v37.348H531.109V418.263H593.9V304.987Z" transform="translate(601.502 99.178)" fill="#ec231a" opacity="0.8"/>
    <rect id="Rectangle_293" data-name="Rectangle 293" width="48.84" height="52.944" transform="translate(1139.588 464.907)" fill="#ec231a"/>
    <rect id="Rectangle_294" data-name="Rectangle 294" width="7.798" height="52.944" transform="translate(1139.588 464.907)" opacity="0.1"/>
    <path id="Path_499" data-name="Path 499" d="M736.863,52.079V64.8H664.629V52.079H643.287v271.7H757.795V52.079Z" transform="translate(552.118 194.073)" fill="#ec231a"/>
    <rect id="Rectangle_295" data-name="Rectangle 295" width="16.006" height="12.723" transform="translate(1288.981 246.153)" fill="#292b47" opacity="0.39"/>
    <rect id="Rectangle_296" data-name="Rectangle 296" width="16.006" height="271.699" transform="translate(1195.405 246.153)" fill="#292b47" opacity="0.39"/>
    <path id="Path_500" data-name="Path 500" d="M473.819,182.584V172.323H463.148v10.261h-19.29V376.713H492.7V182.584Z" transform="translate(639.912 141.138)" fill="#ec231a"/>
    <rect id="Rectangle_297" data-name="Rectangle 297" width="5.746" height="10.261" transform="translate(1103.06 313.461)" opacity="0.1"/>
    <rect id="Rectangle_298" data-name="Rectangle 298" width="5.746" height="194.129" transform="translate(1083.77 323.722)" opacity="0.1"/>
    <rect id="Rectangle_299" data-name="Rectangle 299" width="16.006" height="167.041" transform="translate(1288.981 350.81)" fill="#292b47" opacity="0.39"/>
    <rect id="Rectangle_300" data-name="Rectangle 300" width="14.775" height="35.707" transform="translate(1117.836 323.722)" opacity="0.1"/>
    <rect id="Rectangle_301" data-name="Rectangle 301" width="22.984" height="9.85" transform="translate(1213.053 280.628)" fill="#fff"/>
    <rect id="Rectangle_302" data-name="Rectangle 302" width="22.984" height="9.85" transform="translate(1261.893 382.002)" fill="#fff"/>
    <rect id="Rectangle_303" data-name="Rectangle 303" width="22.984" height="9.85" transform="translate(1213.053 453.005)" fill="#fff"/>
    <rect id="Rectangle_304" data-name="Rectangle 304" width="22.984" height="9.85" transform="translate(1096.904 368.047)" fill="#ec231a"/>
    <rect id="Rectangle_305" data-name="Rectangle 305" width="22.984" height="9.85" transform="translate(1152.721 470.653)" fill="#fff"/>
    <rect id="Rectangle_306" data-name="Rectangle 306" width="39.4" height="16.417" transform="translate(1144.513 412.783)" fill="#fff"/>
    <rect id="Rectangle_307" data-name="Rectangle 307" width="39.4" height="16.417" transform="translate(1316.89 298.686)" fill="#fff"/>
    <rect id="Rectangle_308" data-name="Rectangle 308" width="39.4" height="16.417" transform="translate(1316.89 333.572)" fill="#fff"/>
    <rect id="Rectangle_309" data-name="Rectangle 309" width="39.4" height="16.417" transform="translate(1316.89 368.458)" fill="#fff"/>
    <rect id="Rectangle_310" data-name="Rectangle 310" width="39.4" height="16.417" transform="translate(1316.89 403.344)" fill="#fff"/>
    <rect id="Rectangle_311" data-name="Rectangle 311" width="39.4" height="16.417" transform="translate(1316.89 438.229)" fill="#fff"/>
    <rect id="Rectangle_312" data-name="Rectangle 312" width="39.4" height="16.417" transform="translate(1316.89 473.115)" fill="#fff"/>
    <path id="Path_501" data-name="Path 501" d="M946.96,243.454V198.718h-28.73v44.736H907.97V388.333h48.841V243.454Z" transform="translate(435.597 129.519)" fill="#ec231a"/>
    <rect id="Rectangle_313" data-name="Rectangle 313" width="9.029" height="44.736" transform="translate(1353.827 328.237)" opacity="0.1"/>
    <rect id="Rectangle_314" data-name="Rectangle 314" width="9.029" height="144.879" transform="translate(1343.567 372.972)" opacity="0.1"/>
    <rect id="Rectangle_315" data-name="Rectangle 315" width="24.215" height="14.365" transform="translate(1368.192 445.617)" opacity="0.1"/>
    <rect id="Rectangle_316" data-name="Rectangle 316" width="22.984" height="9.85" transform="translate(1369.013 424.275)" fill="#ff6584"/>
    <path id="Path_502" data-name="Path 502" d="M1085.134,436.5c0,36.565-21.737,49.332-48.552,49.332s-48.551-12.767-48.551-49.332,48.551-83.081,48.551-83.081S1085.134,399.931,1085.134,436.5Z" transform="translate(378.8 -2.277)" fill="#ec231a"/>
    <path id="Path_503" data-name="Path 503" d="M1017.762,366.45l.493-30.6,20.695-37.858-20.616,33.058.224-13.76,14.263-27.39-14.2,23.749h0l.4-24.747,15.271-21.806-15.209,17.915.252-45.378-1.579,60.072.129-2.478-15.528-23.767,15.282,28.525-1.45,27.639-.045-.734-17.9-25.012,17.848,27.6-.185,3.457-.034.051.017.284-3.667,70.122h4.9l.588-36.219,17.8-27.535Z" transform="translate(395.855 111.508)" fill="#fff"/>
    <path id="Path_504" data-name="Path 504" d="M449.461,437.2c0,36.565-21.737,49.332-48.552,49.332s-48.551-12.767-48.551-49.332,48.551-83.081,48.551-83.081S449.461,400.638,449.461,437.2Z" transform="translate(658.642 -2.588)" fill="#ec231a"/>
    <path id="Path_505" data-name="Path 505" d="M382.087,367.157l.5-30.6L403.278,298.7l-20.616,33.058.223-13.76,14.262-27.39-14.2,23.749h0l.4-24.747L398.619,267.8,383.41,285.715l.251-45.378-1.579,60.072.13-2.478-15.527-23.767,15.278,28.524-1.446,27.639-.043-.733-17.9-25.012,17.846,27.6-.181,3.456-.032.052.015.284L376.55,406.1h4.9l.588-36.219,17.8-27.535Z" transform="translate(675.696 111.197)" fill="#fff"/>
    <g id="Group_3931" data-name="Group 3931" transform="translate(960 35)">
      <rect id="Rectangle_59" data-name="Rectangle 59" width="51.871" height="51.871" transform="translate(267 172)" fill="#ec231a"/>
      <g id="Group_3929" data-name="Group 3929" transform="translate(267 180.856)">
        <line id="Line_22" data-name="Line 22" x2="13.916" transform="translate(11.386 1.898)" fill="none" stroke="#fff" stroke-width="4"/>
        <line id="Line_23" data-name="Line 23" x2="13.916" transform="translate(11.386 32.261)" fill="none" stroke="#fff" stroke-width="4"/>
        <line id="Line_24" data-name="Line 24" x2="15.182" transform="translate(0 12.019)" fill="none" stroke="#fff" stroke-width="4"/>
        <line id="Line_27" data-name="Line 27" x2="15.182" transform="translate(0 22.14)" fill="none" stroke="#fff" stroke-width="4"/>
        <line id="Line_25" data-name="Line 25" x2="13.916" transform="translate(21.507 12.019)" fill="none" stroke="#fff" stroke-width="4"/>
        <line id="Line_26" data-name="Line 26" x2="13.916" transform="translate(21.507 22.14)" fill="none" stroke="#fff" stroke-width="4"/>
        <line id="Line_28" data-name="Line 28" y2="13.916" transform="translate(13.284)" fill="none" stroke="#fff" stroke-width="4"/>
        <line id="Line_29" data-name="Line 29" y2="13.916" transform="translate(23.405)" fill="none" stroke="#fff" stroke-width="4"/>
        <line id="Line_30" data-name="Line 30" y2="13.916" transform="translate(33.526 10.121)" fill="none" stroke="#fff" stroke-width="4"/>
        <line id="Line_31" data-name="Line 31" y2="13.916" transform="translate(23.405 20.242)" fill="none" stroke="#fff" stroke-width="4"/>
        <line id="Line_32" data-name="Line 32" y2="13.916" transform="translate(13.284 20.242)" fill="none" stroke="#fff" stroke-width="4"/>
      </g>
    </g>
  </g>
</svg>
